<svg width="144" height="32" viewBox="0 0 144 32" fill="none" xmlns="http://www.w3.org/2000/svg">
<g clip-path="url(#clip0_367_5127)">
<path d="M3.42373 18.3448H2.28861V22.2433H3.4434C4.61654 22.2433 5.50524 21.3498 5.50524 20.2084C5.50524 19.1804 4.84199 18.3448 3.42505 18.3448M6.62202 28.9372C4.69256 25.7043 3.82221 24.1438 3.34902 23.9936H2.28992V28.9372H0V16.4048H3.36737C6.60236 16.4048 7.81089 18.0206 7.81089 19.9422C7.81089 21.616 6.67707 22.7376 5.50393 23.2318V23.2516C6.07149 23.5745 7.31935 25.7425 9.23045 28.9372H6.62071H6.62202Z" fill="#151B24"/>
<path d="M26.4487 28.9372V16.4048H28.7373V26.9985H33.2005V28.9372H26.4487Z" fill="#151B24"/>
<path d="M40.9301 16.4048H38.6415V28.9372H40.9301V16.4048Z" fill="#151B24"/>
<path d="M52.2434 21.0453C52.0153 20.4193 51.8646 19.9053 51.7702 19.4862H51.7506C51.6758 19.9238 51.5054 20.4193 51.297 21.0084L50.2183 23.9172H53.2448L52.2434 21.0453ZM55.1939 28.9386L53.9644 25.8005H49.5196L48.3661 28.9386H46.1142L50.9562 16.3481H52.6209L57.6333 28.9386H55.1926H55.1939Z" fill="#151B24"/>
<path d="M67.4418 18.2116C65.0955 18.2116 63.4688 19.9236 63.4688 22.7573C63.4688 25.5909 65.0942 27.2633 67.4418 27.2633C69.7894 27.2633 71.3754 25.5698 71.3754 22.7573C71.3754 19.9447 69.8235 18.2116 67.4418 18.2116ZM72.0374 27.32C71.1107 28.2531 69.9192 28.8792 68.4629 29.0887C69.1628 29.7358 69.9008 30.2103 70.9599 30.2103C71.4331 30.2103 71.9063 30.1154 72.2838 29.9823L72.7937 31.5599C72.0937 31.8841 71.2247 31.9988 70.353 31.9988C68.1981 31.9988 66.6842 30.553 65.549 28.9556C64.5647 28.6894 63.6956 28.232 63.014 27.5862C61.7662 26.4264 61.0662 24.7526 61.0662 22.8126C61.0662 20.8726 61.7281 19.2937 62.862 18.1154C63.9787 16.9741 65.5674 16.29 67.4405 16.29C69.3136 16.29 70.9586 16.9556 72.0741 18.0772C73.2079 19.2185 73.7951 20.8541 73.7951 22.6979C73.7951 24.5418 73.1908 26.18 72.0361 27.32" fill="#151B24"/>
<path d="M87.4429 27.7391C86.5738 28.6142 85.2879 29.1269 83.4332 29.1269C81.5785 29.1269 80.387 28.7078 79.5559 27.8906C78.6672 27.0353 78.3264 25.7226 78.3264 24.3335V16.4033H80.615V24.1806C80.615 25.0952 80.8602 25.8346 81.353 26.3882C81.8249 26.9008 82.5628 27.1671 83.4699 27.1671C84.529 27.1671 85.267 26.8824 85.7402 26.3882C86.2133 25.8742 86.4034 25.1704 86.4034 24.2952V16.4033H88.692V24.2188C88.692 25.6462 88.2935 26.8811 87.4429 27.7378" fill="#151B24"/>
<path d="M96.8332 23.498H100.863V21.5778H96.8332V18.325H100.211L101.872 16.4048H94.5446V28.9386H101.485V27.017H96.8332V23.498Z" fill="#151B24"/>
<path d="M15.8394 23.498H19.8687V21.5778H15.8394V18.325H19.2172L20.878 16.4048H13.5508V28.9386H20.4926V27.017H15.8394V23.498Z" fill="#151B24"/>
<path d="M110.075 29.1269C108.316 29.1269 107.066 28.5563 106.235 27.9869L107.162 26.2933C107.844 26.7691 108.807 27.2449 109.98 27.2449C110.945 27.2449 112.042 26.8442 112.042 25.7991C112.042 24.0106 109.016 23.6877 107.502 21.9757C107.01 21.4248 106.689 20.7026 106.689 19.7325C106.689 17.869 108.146 16.29 110.756 16.29C112.08 16.29 113.139 16.6129 113.82 16.9938L113.783 19.0472C112.818 18.5161 111.891 18.1734 110.87 18.1734C109.849 18.1734 109.073 18.611 109.073 19.4479C109.073 21.7675 114.463 21.6357 114.463 25.5342C114.463 27.7405 112.534 29.1283 110.076 29.1283" fill="#151B24"/>
<path d="M128.33 16.4048H118.374V18.325H121.987V28.9372H124.294V18.325H126.42L128.33 16.4048Z" fill="#151B24"/>
<path d="M131.655 15.623C131.961 15.623 132.258 15.7021 132.548 15.859C132.837 16.0158 133.064 16.2412 133.227 16.5338C133.389 16.8263 133.469 17.1321 133.469 17.4497C133.469 17.7674 133.389 18.0665 133.229 18.3565C133.069 18.6464 132.847 18.8718 132.558 19.0326C132.27 19.1934 131.968 19.2738 131.655 19.2738C131.342 19.2738 131.039 19.1934 130.752 19.0326C130.464 18.8718 130.24 18.6464 130.08 18.3565C129.92 18.0665 129.838 17.7634 129.838 17.4497C129.838 17.1361 129.92 16.8263 130.082 16.5338C130.245 16.2412 130.472 16.0158 130.763 15.859C131.054 15.7021 131.351 15.623 131.655 15.623ZM131.655 15.9249C131.4 15.9249 131.152 15.9908 130.911 16.1226C130.669 16.2543 130.481 16.4415 130.344 16.6866C130.208 16.9318 130.14 17.1848 130.14 17.4497C130.14 17.7146 130.207 17.9651 130.34 18.2062C130.474 18.4474 130.662 18.6359 130.903 18.7703C131.144 18.9048 131.394 18.972 131.656 18.972C131.919 18.972 132.169 18.9048 132.41 18.7703C132.651 18.6359 132.837 18.4474 132.971 18.2062C133.105 17.9651 133.17 17.7133 133.17 17.4497C133.17 17.1861 133.102 16.9305 132.967 16.6866C132.832 16.4428 132.642 16.2543 132.401 16.1226C132.158 15.9908 131.911 15.9249 131.658 15.9249H131.655ZM130.858 18.458V16.4929H131.529C131.759 16.4929 131.925 16.5114 132.027 16.5469C132.13 16.5838 132.212 16.6471 132.273 16.7367C132.334 16.8277 132.364 16.9226 132.364 17.024C132.364 17.1677 132.313 17.2929 132.211 17.3997C132.109 17.5064 131.974 17.5657 131.806 17.5789C131.875 17.6079 131.93 17.6422 131.972 17.683C132.051 17.7608 132.147 17.8899 132.261 18.0731L132.499 18.458H132.114L131.941 18.1483C131.805 17.9044 131.694 17.7529 131.611 17.6909C131.553 17.6461 131.469 17.6237 131.358 17.6237H131.173V18.458H130.857H130.858ZM131.174 17.3522H131.557C131.739 17.3522 131.865 17.3245 131.93 17.2705C131.997 17.2151 132.03 17.1427 132.03 17.053C132.03 16.995 132.014 16.9423 131.982 16.8975C131.95 16.8514 131.906 16.8171 131.848 16.7947C131.79 16.7723 131.685 16.7604 131.532 16.7604H131.173V17.3535L131.174 17.3522Z" fill="#151B24"/>
<path d="M135.892 8.15288V0H144L135.892 8.15288Z" fill="#00AFAB"/>
<path d="M135.892 24.4561V16.3032H144L135.892 24.4561Z" fill="#006072"/>
<path d="M144 8.15288H135.892L144 0V8.15288Z" fill="#008995"/>
<path d="M144 16.3045V8.15161H135.892L144 16.3045Z" fill="#006072"/>
<path d="M135.892 16.3045H144L135.892 8.15161V16.3045Z" fill="#008995"/>
<path d="M119.677 8.15288H127.786V0L119.677 8.15288Z" fill="#3CD5AF"/>
<path d="M127.784 0H135.893V8.15288L127.784 0Z" fill="#3CD5AF"/>
<path d="M127.784 8.15288V0L135.893 8.15288H127.784Z" fill="#00AFAB"/>
</g>
<defs>
<clipPath id="clip0_367_5127">
<rect width="144" height="32" fill="white"/>
</clipPath>
</defs>
</svg>
