<svg xmlns="http://www.w3.org/2000/svg" width="400.001" height="400" viewBox="0 0 400.001 400">
  <g id="Group_3" data-name="Group 3" transform="translate(-1607.992 -355)">
    <rect id="Rectangle_1" data-name="Rectangle 1" width="399.995" height="400" transform="translate(1607.998 355)" fill="none"/>
    <g id="Group_2" data-name="Group 2" transform="translate(1607.993 485.667)">
      <g id="Group_1" data-name="Group 1" transform="translate(0 0)">
        <g id="Icon">
          <g id="Overlap" transform="translate(18.119 48.701)">
            <path id="Path_1" data-name="Path 1" d="M118.565,174.355l-17.99,17.991L82.583,174.355l17.991-17.99Zm17.99-17.99-17.99,17.99,17.99,17.989,17.99-17.989Z" transform="translate(-82.583 -156.365)" fill="#254045"/>
          </g>
          <g id="Up_Arrow" data-name="Up Arrow" transform="translate(0.13 30.71)">
            <path id="Path_2" data-name="Path 2" d="M69.644,161.415,51.655,179.407,33.664,161.415l17.99-17.989ZM87.635,179.4,69.644,197.4l17.99,17.989,17.99-17.989Zm35.98-35.981-17.99,17.991,17.99,17.991,17.991-17.991Zm-35.98-35.979-17.99,17.991,17.99,17.99,17.99-17.99Z" transform="translate(-33.664 -107.445)" fill="#3e646b"/>
          </g>
          <g id="Down_Arrow" data-name="Down Arrow">
            <path id="Path_3" data-name="Path 3" d="M87.418,90.624l17.99,17.989-9,9a12.722,12.722,0,0,1-17.988,0l-9-9ZM124.15,55.4a12.649,12.649,0,0,0-4.35,2.846L105.407,72.634l17.99,17.99,14.392-14.392A12.72,12.72,0,0,0,124.148,55.4ZM34.2,71.884a12.667,12.667,0,0,0,2.847,4.349L51.439,90.624l17.988-17.99L55.039,58.244A12.721,12.721,0,0,0,34.2,71.884ZM78.422,27.658a12.721,12.721,0,1,0,17.988,0,12.721,12.721,0,0,0-17.988,0Z" transform="translate(-33.317 -23.933)" fill="#30a743"/>
          </g>
        </g>
        <g id="Text" transform="translate(123.413 29.751)">
          <path id="Dots" d="M813.233,112.529a7.694,7.694,0,1,1-7.694-7.693A7.694,7.694,0,0,1,813.233,112.529Zm-30.466,47.047a7.693,7.693,0,1,0,7.693,7.693,7.692,7.692,0,0,0-7.693-7.693Zm-53.81-54.74a7.693,7.693,0,1,0,7.695,7.694,7.693,7.693,0,0,0-7.695-7.694Z" transform="translate(-591.691 -104.835)" fill="#30a743"/>
          <path id="Main" d="M368.914,173.989V111.637a6.44,6.44,0,0,1,2.033-4.858,6.8,6.8,0,0,1,4.867-1.943,6.359,6.359,0,0,1,4.776,2.031,6.676,6.676,0,0,1,1.945,4.769V173.9Zm67.47-14.282a25.6,25.6,0,0,1-4.867,7.87,22.879,22.879,0,0,1-7.385,5.4,22.118,22.118,0,0,1-9.417,1.989,22.41,22.41,0,0,1-9.463-1.989,23.553,23.553,0,0,1-7.472-5.35,24.624,24.624,0,0,1-4.908-7.827,26.2,26.2,0,0,1,0-18.923,24.645,24.645,0,0,1,4.908-7.827,23.7,23.7,0,0,1,7.429-5.349,22.1,22.1,0,0,1,9.418-1.99,22.559,22.559,0,0,1,9.417,1.946,23.143,23.143,0,0,1,7.428,5.305,24.667,24.667,0,0,1,4.908,7.825,26.2,26.2,0,0,1,0,18.924Zm-12.333-13.928a12.708,12.708,0,0,0-1.813-4.112A10.1,10.1,0,0,0,419.1,138.7a8.471,8.471,0,0,0-4.467-1.149,8.236,8.236,0,0,0-4.422,1.149,9.582,9.582,0,0,0-3.051,3.007,14.723,14.723,0,0,0-1.813,4.112,16.791,16.791,0,0,0-.619,4.467,19.086,19.086,0,0,0,.574,4.554,14.352,14.352,0,0,0,1.769,4.245,9.691,9.691,0,0,0,3.1,3.1,8.23,8.23,0,0,0,4.467,1.193,8.4,8.4,0,0,0,4.554-1.193,9.887,9.887,0,0,0,3.1-3.052,13.8,13.8,0,0,0,1.768-4.2,19.435,19.435,0,0,0,.575-4.643,18.59,18.59,0,0,0-.577-4.512ZM489.472,179.6a23.634,23.634,0,0,1-4.775,8.312,21.977,21.977,0,0,1-7.737,5.484,26.285,26.285,0,0,1-10.523,1.989,36.149,36.149,0,0,1-5-.353,34.133,34.133,0,0,1-4.909-1.061,1.419,1.419,0,0,1-.353-.267,1.375,1.375,0,0,0-.353-.267q0-.353.177-2.078t.4-3.667q.222-1.947.443-3.626c.147-1.121.222-1.829.222-2.123q2.386.618,4.819,1.105a25.059,25.059,0,0,0,4.908.487q5.481,0,8.178-3.449a13.361,13.361,0,0,0,2.7-8.489,7.289,7.289,0,0,0-.09-1.327,13.954,13.954,0,0,1-5.039,3.625,15.7,15.7,0,0,1-6.19,1.239,20.58,20.58,0,0,1-9.067-1.946,20.8,20.8,0,0,1-6.855-5.262,23.46,23.46,0,0,1-4.333-7.693,27.947,27.947,0,0,1-1.5-9.152,29.54,29.54,0,0,1,1.5-9.33,25.741,25.741,0,0,1,4.333-8.091,22,22,0,0,1,6.9-5.7,19.462,19.462,0,0,1,9.286-2.167,16.14,16.14,0,0,1,6.985,1.549,13.423,13.423,0,0,1,5.395,4.641,10.266,10.266,0,0,1,1.46-4.467,4.469,4.469,0,0,1,4.112-1.9,6.055,6.055,0,0,1,4.906,1.945,7.567,7.567,0,0,1,1.636,5.041v36.523a32.4,32.4,0,0,1-1.639,10.479Zm-11.494-32.277a14.879,14.879,0,0,0-.8-3.273,10.4,10.4,0,0,0-1.636-2.873,8.879,8.879,0,0,0-2.653-2.211,9.483,9.483,0,0,0-12.072,2.785,11.867,11.867,0,0,0-1.9,3.933,16.6,16.6,0,0,0-.619,4.511,19.164,19.164,0,0,0,.575,4.687A12.621,12.621,0,0,0,460.69,159a9.43,9.43,0,0,0,3.183,2.917,9.137,9.137,0,0,0,4.6,1.106,8.067,8.067,0,0,0,4.288-1.106,9.879,9.879,0,0,0,3.007-2.829,13,13,0,0,0,1.812-3.933,16.022,16.022,0,0,0,.619-4.333,27.7,27.7,0,0,0-.224-3.493Zm111.37-17.288a6.855,6.855,0,0,0-1.459-2.167,7.736,7.736,0,0,0-2.123-1.5,5.943,5.943,0,0,0-2.609-.575,6.789,6.789,0,0,0-4.862,1.947,6.447,6.447,0,0,0-2.035,4.867v41.385h13.618V132.6A6.455,6.455,0,0,0,589.348,130.039Zm54.383,29.667a25.565,25.565,0,0,1-4.867,7.87,22.853,22.853,0,0,1-7.383,5.4,22.117,22.117,0,0,1-9.417,1.989,22.4,22.4,0,0,1-9.461-1.989,23.528,23.528,0,0,1-7.474-5.35,24.641,24.641,0,0,1-4.908-7.827,26.21,26.21,0,0,1,0-18.923,24.667,24.667,0,0,1,4.908-7.827,23.689,23.689,0,0,1,7.428-5.349,22.107,22.107,0,0,1,9.419-1.99,22.56,22.56,0,0,1,9.417,1.946,23.18,23.18,0,0,1,7.428,5.305,24.66,24.66,0,0,1,4.907,7.825,26.206,26.206,0,0,1,0,18.924ZM631.4,145.777a12.706,12.706,0,0,0-1.812-4.112,10.115,10.115,0,0,0-3.139-2.963,8.475,8.475,0,0,0-4.467-1.149,8.233,8.233,0,0,0-4.422,1.149,9.589,9.589,0,0,0-3.051,3.007,14.734,14.734,0,0,0-1.813,4.112,16.834,16.834,0,0,0-.619,4.467,19,19,0,0,0,.576,4.554,14.3,14.3,0,0,0,1.769,4.245,9.683,9.683,0,0,0,3.093,3.1,8.231,8.231,0,0,0,4.467,1.193,8.4,8.4,0,0,0,4.553-1.193,9.889,9.889,0,0,0,3.1-3.052,13.772,13.772,0,0,0,1.769-4.2,19.474,19.474,0,0,0,.574-4.643,18.627,18.627,0,0,0-.575-4.511Zm-79.9-10.653a5.925,5.925,0,0,1-2.035,1.768,8.3,8.3,0,0,1-2.74.884,20.014,20.014,0,0,1-2.919.222v35.991H530.279v-36.08a15.983,15.983,0,0,1-2.875-.267,9.991,9.991,0,0,1-2.7-.884,5.483,5.483,0,0,1-2.035-1.724,5.117,5.117,0,0,1,1.989-7.473,8.54,8.54,0,0,1,2.655-.841,19.275,19.275,0,0,1,2.873-.221v-7.428a6.86,6.86,0,0,1,1.99-4.907,6.581,6.581,0,0,1,9.639.044,7.017,7.017,0,0,1,1.989,4.953v7.249a20.111,20.111,0,0,1,2.919.221,8.356,8.356,0,0,1,2.74.884,5.933,5.933,0,0,1,2.035,1.769,4.975,4.975,0,0,1,.793,2.963A4.809,4.809,0,0,1,551.5,135.124Zm-40.191-7.253a7.729,7.729,0,0,0-2.122-1.5,5.943,5.943,0,0,0-2.609-.575,6.8,6.8,0,0,0-4.867,1.947,6.445,6.445,0,0,0-2.033,4.867v41.385H513.3V132.6a6.448,6.448,0,0,0-.533-2.565,6.91,6.91,0,0,0-1.457-2.168Z" transform="translate(-368.912 -104.834)" fill="#3e646b"/>
        </g>
      </g>
    </g>
  </g>
</svg>
