<svg width="137" height="40" viewBox="0 0 137 40" fill="none" xmlns="http://www.w3.org/2000/svg">
<path fill-rule="evenodd" clip-rule="evenodd" d="M26.9611 37.9447C23.7792 36.2928 21.6055 32.9676 21.6055 29.1347C21.6055 23.6559 26.0469 19.2145 31.5257 19.2145C37.0045 19.2145 41.446 23.6559 41.446 29.1347C41.446 33.0146 39.2186 36.3743 35.9728 38.0048L33.3959 34.8664C35.7739 34.0814 37.4902 31.841 37.4902 29.1999C37.4902 25.9049 34.8191 23.2338 31.5241 23.2338C28.2291 23.2338 25.558 25.9049 25.558 29.1999C25.558 31.8063 27.2294 34.0223 29.5588 34.8347L26.9611 37.9447Z" fill="white"/>
<circle cx="31.531" cy="29.2078" r="4.4021" fill="#1AB67D"/>
<path fill-rule="evenodd" clip-rule="evenodd" d="M78.9937 20.6921C78.7016 20.3687 78.3912 20.0532 78.075 19.7756C76.6313 18.5085 74.6884 18.3872 74.6884 18.3872C74.6884 18.3872 72.7911 14.6093 70.521 13.4661C68.1288 12.2614 64.9966 12.2614 64.9966 12.2614C62.0577 12.2614 59.271 13.2002 56.9567 14.791C56.9614 14.6502 56.9638 14.5109 56.9638 14.3734C56.9638 8.20284 52.1732 3.20059 46.2637 3.20059C40.3542 3.20059 35.5636 8.20284 35.5636 14.3734C35.5636 15.3902 35.6937 16.5014 35.9374 17.6482C32.5783 16.4863 28.8161 16.7093 25.5699 18.5835C22.2729 20.487 20.1848 23.7032 19.5456 27.2586C19.3638 22.4951 21.5626 18.0327 25.6583 15.8654C27.8672 14.6966 30.3178 14.3594 32.7086 14.7407C32.6834 14.4006 32.6705 14.0571 32.6705 13.7106C32.6705 6.13844 38.8089 0 46.3811 0C52.6813 0 57.9889 4.24938 59.5943 10.0383C61.3414 9.23785 63.2847 8.79163 65.3321 8.79163C72.3071 8.79163 78.0726 13.9701 78.9937 20.6921Z" fill="white"/>
<path d="M119.703 20.2765H126.862C129.266 20.2765 131.058 20.6113 132.237 21.2808C133.416 21.941 134.472 22.9925 135.406 24.4354C136.339 25.8688 136.806 27.6842 136.806 29.8815C136.806 32.6447 135.99 34.9551 134.359 36.813C132.727 38.6613 130.478 39.5855 127.611 39.5855H119.703V20.2765ZM124.145 23.8271V35.9501H127.272C128.922 35.9501 130.148 35.3371 130.95 34.1111C131.751 32.8757 132.152 31.4281 132.152 29.7683C132.152 28.5989 131.921 27.5191 131.459 26.5289C131.006 25.5293 130.44 24.8314 129.761 24.4354C129.082 24.0298 128.267 23.8271 127.314 23.8271H124.145Z" fill="white"/>
<path d="M116.695 23.9544H106.226H101.629V27.9152H106.226H115.516V31.5507H106.226V35.7662H116.695V39.5855H101.629V20.2765H116.695V23.9544Z" fill="white"/>
<path d="M97.3186 20.2765V24.0959H92.5374V39.5855H87.9541V24.0959H83.1445V20.2765H97.3186Z" fill="white"/>
<path d="M79.1588 23.8941L75.7933 25.6431C75.0116 24.1119 73.2764 23.6213 71.5494 23.6213C69.7059 23.6213 68.1335 24.3201 68.1335 25.5135C68.1335 25.9889 68.62 26.7362 69.4417 26.9794C69.9843 27.1401 71.4719 27.3876 72.6847 27.6302C74.7126 28.0377 75.0964 28.0128 76.0375 28.43C76.9787 28.8472 78.0997 29.4881 78.7401 30.4196C79.3902 31.3413 79.7073 32.3864 79.7073 33.5313C79.7073 35.3263 79.0623 36.9172 77.6748 38.227C76.297 39.5369 73.8428 39.9094 71.126 39.9094C69.0885 39.9094 67.3876 39.7142 65.9516 38.7925C64.5253 37.861 63.7097 36.9299 63.125 35.1333L66.5875 33.1345C67.0726 34.9877 69.1996 36.1866 71.4118 36.1866C72.4791 36.1866 73.4667 36.0664 74.1872 35.6596C74.9076 35.2528 75.3742 34.6127 75.3742 33.8042C75.3742 33.222 75.1719 32.7386 74.2407 32.1596C73.6624 31.8001 72.3193 31.6606 70.961 31.3792C68.4286 30.8553 66.7978 30.4419 65.7208 29.5396C64.6438 28.6275 64.0113 27.7276 64.0113 25.9811C64.0113 24.2152 64.5608 22.6971 65.8416 21.4842C67.132 20.2714 69.1195 19.6976 71.322 19.6976C75.2225 19.6976 78.043 20.7795 79.1588 23.8941Z" fill="white"/>
<path d="M59.7838 23.8941L56.4183 25.6431C55.6366 24.1119 53.9014 23.6213 52.1744 23.6213C50.3309 23.6213 48.7585 24.3201 48.7585 25.5135C48.7585 25.9889 49.245 26.7362 50.0667 26.9794C50.6093 27.1401 52.0969 27.3876 53.3097 27.6302C55.3376 28.0377 55.7214 28.0128 56.6625 28.43C57.6037 28.8472 58.7247 29.4881 59.3651 30.4196C60.0152 31.3413 60.3323 32.3864 60.3323 33.5313C60.3323 35.3263 59.6873 36.9172 58.2998 38.227C56.922 39.5369 54.4678 39.9094 51.751 39.9094C49.7135 39.9094 48.0126 39.7142 46.5766 38.7925C45.1503 37.861 44.3347 36.9299 43.75 35.1333L47.2125 33.1345C47.6976 34.9877 49.8246 36.1866 52.0368 36.1866C53.1041 36.1866 54.0917 36.0664 54.8122 35.6596C55.5326 35.2528 55.9992 34.6127 55.9992 33.8042C55.9992 33.222 55.7969 32.7386 54.8657 32.1596C54.2874 31.8001 52.9443 31.6606 51.586 31.3792C49.0536 30.8553 47.4228 30.4419 46.3458 29.5396C45.2688 28.6275 44.6363 27.7276 44.6363 25.9811C44.6363 24.2152 45.1858 22.6971 46.4666 21.4842C47.757 20.2714 49.7445 19.6976 51.947 19.6976C55.8475 19.6976 58.668 20.7795 59.7838 23.8941Z" fill="white"/>
<path d="M17.4235 20.2765V39.5855H12.9817V31.6214H4.44179V39.5855H0V20.2765H4.44179V27.8021H12.9817V20.2765H17.4235Z" fill="white"/>
</svg>
