<svg width="1440" height="350" viewBox="0 0 1440 350" fill="none" xmlns="http://www.w3.org/2000/svg">
<g clip-path="url(#clip0_1796_7837)">
<rect width="1440" height="350" fill="white"/>
<rect width="1440" height="350" fill="url(#paint0_linear_1796_7837)"/>
<path d="M120.031 130L113.812 113.844H94.625L88.2812 130H85L102.969 84.1562H105.906L123.406 130H120.031ZM112.781 110.938L106.469 93.8125C106.302 93.375 106.094 92.8125 105.844 92.125C105.615 91.4375 105.365 90.7083 105.094 89.9375C104.844 89.1667 104.594 88.4375 104.344 87.75C104.135 88.4792 103.906 89.2083 103.656 89.9375C103.406 90.6667 103.167 91.375 102.938 92.0625C102.708 92.7292 102.49 93.3333 102.281 93.875L95.7188 110.938H112.781ZM142.594 95.4375C143.49 95.4375 144.333 95.4896 145.125 95.5938C145.917 95.6979 146.656 95.8438 147.344 96.0312L146.844 98.9375C146.156 98.75 145.458 98.6146 144.75 98.5312C144.042 98.4271 143.281 98.375 142.469 98.375C140.865 98.375 139.427 98.6771 138.156 99.2812C136.906 99.8854 135.844 100.75 134.969 101.875C134.094 103 133.427 104.354 132.969 105.938C132.51 107.521 132.281 109.292 132.281 111.25V130H129.094V96.0312H131.812L132.125 102.438H132.312C132.833 101.125 133.562 99.9479 134.5 98.9062C135.458 97.8438 136.615 97 137.969 96.375C139.323 95.75 140.865 95.4375 142.594 95.4375ZM166.875 95.375C169.771 95.375 172.177 96.0521 174.094 97.4062C176.031 98.7604 177.469 100.615 178.406 102.969C179.365 105.323 179.844 108.021 179.844 111.062V113.344H155.312C155.312 118.01 156.385 121.594 158.531 124.094C160.698 126.594 163.792 127.844 167.812 127.844C169.917 127.844 171.74 127.677 173.281 127.344C174.844 126.99 176.573 126.396 178.469 125.562V128.469C176.802 129.219 175.135 129.76 173.469 130.094C171.802 130.448 169.885 130.625 167.719 130.625C164.281 130.625 161.396 129.917 159.062 128.5C156.75 127.062 155 125.042 153.812 122.438C152.646 119.833 152.062 116.792 152.062 113.312C152.062 109.917 152.625 106.865 153.75 104.156C154.896 101.448 156.562 99.3125 158.75 97.75C160.958 96.1667 163.667 95.375 166.875 95.375ZM166.844 98.0938C163.594 98.0938 160.958 99.1771 158.938 101.344C156.938 103.49 155.76 106.594 155.406 110.656H176.562C176.562 108.177 176.208 105.99 175.5 104.094C174.792 102.198 173.719 100.729 172.281 99.6875C170.865 98.625 169.052 98.0938 166.844 98.0938ZM200.219 96.0312H203.562L211.812 117.594C212.312 118.865 212.75 120.042 213.125 121.125C213.521 122.188 213.865 123.167 214.156 124.062C214.448 124.938 214.688 125.74 214.875 126.469H215.062C215.375 125.51 215.792 124.281 216.312 122.781C216.833 121.26 217.427 119.573 218.094 117.719L226.25 96.0312H229.625L214.125 136.375C213.375 138.333 212.552 139.99 211.656 141.344C210.76 142.719 209.708 143.75 208.5 144.438C207.292 145.146 205.833 145.5 204.125 145.5C203.354 145.5 202.656 145.438 202.031 145.312C201.406 145.208 200.802 145.062 200.219 144.875V142.156C200.76 142.323 201.312 142.458 201.875 142.562C202.458 142.688 203.094 142.75 203.781 142.75C204.969 142.75 205.99 142.5 206.844 142C207.719 141.521 208.5 140.771 209.188 139.75C209.875 138.729 210.521 137.427 211.125 135.844L213.438 129.812L200.219 96.0312ZM263.375 112.969C263.375 115.594 263.052 117.99 262.406 120.156C261.76 122.302 260.802 124.156 259.531 125.719C258.26 127.281 256.677 128.49 254.781 129.344C252.906 130.198 250.719 130.625 248.219 130.625C245.844 130.625 243.729 130.208 241.875 129.375C240.021 128.521 238.448 127.312 237.156 125.75C235.885 124.188 234.917 122.333 234.25 120.188C233.583 118.021 233.25 115.615 233.25 112.969C233.25 109.323 233.854 106.188 235.062 103.562C236.292 100.917 238.042 98.8958 240.312 97.5C242.604 96.0833 245.344 95.375 248.531 95.375C251.823 95.375 254.562 96.125 256.75 97.625C258.958 99.1042 260.615 101.167 261.719 103.812C262.823 106.458 263.375 109.51 263.375 112.969ZM236.5 112.969C236.5 115.948 236.927 118.552 237.781 120.781C238.635 123.01 239.927 124.75 241.656 126C243.406 127.25 245.615 127.875 248.281 127.875C251.01 127.875 253.25 127.25 255 126C256.75 124.75 258.042 123 258.875 120.75C259.708 118.5 260.125 115.906 260.125 112.969C260.125 110.115 259.729 107.573 258.938 105.344C258.146 103.115 256.896 101.365 255.188 100.094C253.479 98.8021 251.25 98.1562 248.5 98.1562C244.562 98.1562 241.573 99.4688 239.531 102.094C237.51 104.719 236.5 108.344 236.5 112.969ZM299.156 96.0312V130H296.594L296.125 123.875H295.938C295.354 125.125 294.531 126.26 293.469 127.281C292.406 128.302 291.104 129.115 289.562 129.719C288.021 130.323 286.229 130.625 284.188 130.625C281.583 130.625 279.396 130.177 277.625 129.281C275.875 128.365 274.552 126.99 273.656 125.156C272.76 123.323 272.312 121.031 272.312 118.281V96.0312H275.469V117.969C275.469 121.365 276.229 123.865 277.75 125.469C279.292 127.073 281.542 127.875 284.5 127.875C287 127.875 289.094 127.396 290.781 126.438C292.49 125.479 293.781 124.031 294.656 122.094C295.552 120.135 296 117.698 296 114.781V96.0312H299.156ZM339.062 95.4375C342.792 95.4375 345.583 96.375 347.438 98.25C349.292 100.125 350.219 103.115 350.219 107.219V130H347.781L347.219 124.062H347.031C346.302 125.333 345.417 126.469 344.375 127.469C343.333 128.448 342.052 129.219 340.531 129.781C339.031 130.344 337.198 130.625 335.031 130.625C332.844 130.625 330.969 130.26 329.406 129.531C327.865 128.802 326.667 127.74 325.812 126.344C324.979 124.948 324.562 123.25 324.562 121.25C324.562 117.875 325.958 115.312 328.75 113.562C331.542 111.792 335.552 110.792 340.781 110.562L347.094 110.25V107.781C347.094 104.302 346.406 101.823 345.031 100.344C343.656 98.8646 341.625 98.125 338.938 98.125C337.188 98.125 335.5 98.3542 333.875 98.8125C332.271 99.25 330.635 99.8854 328.969 100.719L327.969 98.0938C329.594 97.3229 331.333 96.6875 333.188 96.1875C335.062 95.6875 337.021 95.4375 339.062 95.4375ZM347.062 112.719L341.125 112.969C336.812 113.177 333.531 113.948 331.281 115.281C329.031 116.615 327.906 118.615 327.906 121.281C327.906 123.427 328.573 125.073 329.906 126.219C331.26 127.365 333.135 127.938 335.531 127.938C339.26 127.938 342.104 126.875 344.062 124.75C346.042 122.625 347.042 119.729 347.062 116.062V112.719ZM376.094 95.375C379.906 95.375 382.833 96.375 384.875 98.375C386.917 100.375 387.938 103.51 387.938 107.781V130H384.812V107.969C384.812 104.594 384.042 102.115 382.5 100.531C380.958 98.9479 378.719 98.1562 375.781 98.1562C372.052 98.1562 369.198 99.25 367.219 101.438C365.26 103.604 364.281 106.885 364.281 111.281V130H361.125V96.0312H363.688L364.156 102.219H364.344C364.948 100.948 365.771 99.8021 366.812 98.7812C367.875 97.7396 369.177 96.9167 370.719 96.3125C372.26 95.6875 374.052 95.375 376.094 95.375ZM129.875 194.094C129.875 197.573 129.448 200.75 128.594 203.625C127.74 206.5 126.458 208.979 124.75 211.062C123.042 213.146 120.906 214.76 118.344 215.906C115.802 217.052 112.833 217.625 109.438 217.625C106.021 217.625 103.031 217.052 100.469 215.906C97.9062 214.76 95.7708 213.146 94.0625 211.062C92.375 208.958 91.1042 206.469 90.25 203.594C89.3958 200.698 88.9688 197.51 88.9688 194.031C88.9688 189.406 89.75 185.333 91.3125 181.812C92.8958 178.292 95.2188 175.542 98.2812 173.562C101.365 171.583 105.167 170.594 109.688 170.594C114.021 170.594 117.688 171.542 120.688 173.438C123.708 175.312 125.99 178.01 127.531 181.531C129.094 185.031 129.875 189.219 129.875 194.094ZM92.3438 194.062C92.3438 198.146 92.9583 201.75 94.1875 204.875C95.4167 207.979 97.3021 210.406 99.8438 212.156C102.385 213.906 105.594 214.781 109.469 214.781C113.385 214.781 116.604 213.917 119.125 212.188C121.646 210.458 123.51 208.042 124.719 204.938C125.927 201.833 126.531 198.219 126.531 194.094C126.531 187.573 125.104 182.51 122.25 178.906C119.417 175.302 115.229 173.5 109.688 173.5C105.792 173.5 102.552 174.365 99.9688 176.094C97.4062 177.823 95.4896 180.229 94.2188 183.312C92.9688 186.396 92.3438 189.979 92.3438 194.062ZM154.625 182.375C159 182.375 162.385 183.844 164.781 186.781C167.198 189.719 168.406 194.052 168.406 199.781C168.406 203.615 167.833 206.865 166.688 209.531C165.542 212.177 163.906 214.188 161.781 215.562C159.677 216.938 157.146 217.625 154.188 217.625C152.146 217.625 150.365 217.323 148.844 216.719C147.344 216.094 146.094 215.26 145.094 214.219C144.094 213.156 143.323 211.99 142.781 210.719H142.562C142.625 211.906 142.677 213.146 142.719 214.438C142.76 215.729 142.781 216.948 142.781 218.094V232.031H139.594V183.031H142.219L142.594 189.812H142.781C143.344 188.521 144.135 187.302 145.156 186.156C146.177 185.01 147.469 184.094 149.031 183.406C150.594 182.719 152.458 182.375 154.625 182.375ZM154.219 185.156C151.656 185.156 149.521 185.719 147.812 186.844C146.125 187.948 144.865 189.573 144.031 191.719C143.219 193.844 142.802 196.448 142.781 199.531V200.062C142.781 203.375 143.188 206.135 144 208.344C144.833 210.531 146.073 212.167 147.719 213.25C149.385 214.333 151.448 214.875 153.906 214.875C156.323 214.875 158.365 214.281 160.031 213.094C161.698 211.906 162.969 210.188 163.844 207.938C164.719 205.688 165.156 202.958 165.156 199.75C165.156 194.979 164.24 191.354 162.406 188.875C160.594 186.396 157.865 185.156 154.219 185.156ZM190.562 182.375C193.458 182.375 195.865 183.052 197.781 184.406C199.719 185.76 201.156 187.615 202.094 189.969C203.052 192.323 203.531 195.021 203.531 198.062V200.344H179C179 205.01 180.073 208.594 182.219 211.094C184.385 213.594 187.479 214.844 191.5 214.844C193.604 214.844 195.427 214.677 196.969 214.344C198.531 213.99 200.26 213.396 202.156 212.562V215.469C200.49 216.219 198.823 216.76 197.156 217.094C195.49 217.448 193.573 217.625 191.406 217.625C187.969 217.625 185.083 216.917 182.75 215.5C180.438 214.062 178.688 212.042 177.5 209.438C176.333 206.833 175.75 203.792 175.75 200.312C175.75 196.917 176.312 193.865 177.438 191.156C178.583 188.448 180.25 186.312 182.438 184.75C184.646 183.167 187.354 182.375 190.562 182.375ZM190.531 185.094C187.281 185.094 184.646 186.177 182.625 188.344C180.625 190.49 179.448 193.594 179.094 197.656H200.25C200.25 195.177 199.896 192.99 199.188 191.094C198.479 189.198 197.406 187.729 195.969 186.688C194.552 185.625 192.74 185.094 190.531 185.094ZM227.844 182.375C231.656 182.375 234.583 183.375 236.625 185.375C238.667 187.375 239.688 190.51 239.688 194.781V217H236.562V194.969C236.562 191.594 235.792 189.115 234.25 187.531C232.708 185.948 230.469 185.156 227.531 185.156C223.802 185.156 220.948 186.25 218.969 188.438C217.01 190.604 216.031 193.885 216.031 198.281V217H212.875V183.031H215.438L215.906 189.219H216.094C216.698 187.948 217.521 186.802 218.562 185.781C219.625 184.74 220.927 183.917 222.469 183.312C224.01 182.688 225.802 182.375 227.844 182.375ZM276.656 205.219C276.656 207.948 275.969 210.24 274.594 212.094C273.219 213.927 271.354 215.312 269 216.25C266.646 217.167 263.979 217.625 261 217.625C259.146 217.625 257.458 217.531 255.938 217.344C254.438 217.177 253.073 216.948 251.844 216.656C250.635 216.365 249.531 216.031 248.531 215.656V212.438C250.156 213.062 252.031 213.615 254.156 214.094C256.302 214.552 258.635 214.781 261.156 214.781C263.531 214.781 265.635 214.438 267.469 213.75C269.323 213.062 270.781 212.021 271.844 210.625C272.906 209.229 273.438 207.469 273.438 205.344C273.438 203.469 272.99 201.938 272.094 200.75C271.219 199.542 269.896 198.51 268.125 197.656C266.354 196.781 264.125 195.896 261.438 195C259.562 194.354 257.854 193.677 256.312 192.969C254.792 192.24 253.49 191.406 252.406 190.469C251.323 189.51 250.49 188.365 249.906 187.031C249.344 185.677 249.062 184.083 249.062 182.25C249.062 179.729 249.698 177.615 250.969 175.906C252.26 174.177 254 172.875 256.188 172C258.396 171.104 260.875 170.656 263.625 170.656C265.812 170.656 267.885 170.865 269.844 171.281C271.823 171.677 273.729 172.281 275.562 173.094L274.438 175.875C272.604 175.083 270.771 174.5 268.938 174.125C267.104 173.75 265.292 173.562 263.5 173.562C261.354 173.562 259.438 173.885 257.75 174.531C256.083 175.156 254.76 176.104 253.781 177.375C252.802 178.646 252.312 180.25 252.312 182.188C252.312 184.188 252.76 185.802 253.656 187.031C254.573 188.26 255.865 189.281 257.531 190.094C259.219 190.906 261.208 191.698 263.5 192.469C266.208 193.385 268.542 194.354 270.5 195.375C272.458 196.375 273.969 197.646 275.031 199.188C276.115 200.729 276.656 202.74 276.656 205.219ZM298.5 182.375C301.396 182.375 303.802 183.052 305.719 184.406C307.656 185.76 309.094 187.615 310.031 189.969C310.99 192.323 311.469 195.021 311.469 198.062V200.344H286.938C286.938 205.01 288.01 208.594 290.156 211.094C292.323 213.594 295.417 214.844 299.438 214.844C301.542 214.844 303.365 214.677 304.906 214.344C306.469 213.99 308.198 213.396 310.094 212.562V215.469C308.427 216.219 306.76 216.76 305.094 217.094C303.427 217.448 301.51 217.625 299.344 217.625C295.906 217.625 293.021 216.917 290.688 215.5C288.375 214.062 286.625 212.042 285.438 209.438C284.271 206.833 283.688 203.792 283.688 200.312C283.688 196.917 284.25 193.865 285.375 191.156C286.521 188.448 288.188 186.312 290.375 184.75C292.583 183.167 295.292 182.375 298.5 182.375ZM298.469 185.094C295.219 185.094 292.583 186.177 290.562 188.344C288.562 190.49 287.385 193.594 287.031 197.656H308.188C308.188 195.177 307.833 192.99 307.125 191.094C306.417 189.198 305.344 187.729 303.906 186.688C302.49 185.625 300.677 185.094 298.469 185.094ZM332.688 182.438C336.417 182.438 339.208 183.375 341.062 185.25C342.917 187.125 343.844 190.115 343.844 194.219V217H341.406L340.844 211.062H340.656C339.927 212.333 339.042 213.469 338 214.469C336.958 215.448 335.677 216.219 334.156 216.781C332.656 217.344 330.823 217.625 328.656 217.625C326.469 217.625 324.594 217.26 323.031 216.531C321.49 215.802 320.292 214.74 319.438 213.344C318.604 211.948 318.188 210.25 318.188 208.25C318.188 204.875 319.583 202.312 322.375 200.562C325.167 198.792 329.177 197.792 334.406 197.562L340.719 197.25V194.781C340.719 191.302 340.031 188.823 338.656 187.344C337.281 185.865 335.25 185.125 332.562 185.125C330.812 185.125 329.125 185.354 327.5 185.812C325.896 186.25 324.26 186.885 322.594 187.719L321.594 185.094C323.219 184.323 324.958 183.688 326.812 183.188C328.688 182.688 330.646 182.438 332.688 182.438ZM340.688 199.719L334.75 199.969C330.438 200.177 327.156 200.948 324.906 202.281C322.656 203.615 321.531 205.615 321.531 208.281C321.531 210.427 322.198 212.073 323.531 213.219C324.885 214.365 326.76 214.938 329.156 214.938C332.885 214.938 335.729 213.875 337.688 211.75C339.667 209.625 340.667 206.729 340.688 203.062V199.719ZM368.281 182.438C369.177 182.438 370.021 182.49 370.812 182.594C371.604 182.698 372.344 182.844 373.031 183.031L372.531 185.938C371.844 185.75 371.146 185.615 370.438 185.531C369.729 185.427 368.969 185.375 368.156 185.375C366.552 185.375 365.115 185.677 363.844 186.281C362.594 186.885 361.531 187.75 360.656 188.875C359.781 190 359.115 191.354 358.656 192.938C358.198 194.521 357.969 196.292 357.969 198.25V217H354.781V183.031H357.5L357.812 189.438H358C358.521 188.125 359.25 186.948 360.188 185.906C361.146 184.844 362.302 184 363.656 183.375C365.01 182.75 366.552 182.438 368.281 182.438ZM393.312 217.625C389.938 217.625 387.083 216.927 384.75 215.531C382.438 214.115 380.688 212.104 379.5 209.5C378.333 206.875 377.75 203.771 377.75 200.188C377.75 196.458 378.427 193.271 379.781 190.625C381.135 187.958 383.042 185.917 385.5 184.5C387.958 183.083 390.844 182.375 394.156 182.375C395.781 182.375 397.292 182.521 398.688 182.812C400.083 183.104 401.344 183.51 402.469 184.031L401.625 186.812C400.458 186.292 399.219 185.896 397.906 185.625C396.594 185.354 395.333 185.219 394.125 185.219C391.333 185.219 388.958 185.833 387 187.062C385.062 188.271 383.573 190 382.531 192.25C381.51 194.479 381 197.115 381 200.156C381 203.01 381.438 205.542 382.312 207.75C383.188 209.938 384.531 211.667 386.344 212.938C388.156 214.188 390.479 214.812 393.312 214.812C394.958 214.812 396.521 214.646 398 214.312C399.5 213.979 400.865 213.552 402.094 213.031V215.906C400.99 216.406 399.708 216.812 398.25 217.125C396.812 217.458 395.167 217.625 393.312 217.625ZM413.281 168.375V184.25C413.281 185.167 413.26 186.021 413.219 186.812C413.198 187.604 413.156 188.406 413.094 189.219H413.312C413.875 187.927 414.677 186.771 415.719 185.75C416.781 184.729 418.083 183.917 419.625 183.312C421.188 182.708 422.99 182.406 425.031 182.406C427.615 182.406 429.781 182.854 431.531 183.75C433.302 184.625 434.646 185.969 435.562 187.781C436.479 189.594 436.938 191.927 436.938 194.781V217H433.812V194.969C433.812 191.594 433.042 189.115 431.5 187.531C429.958 185.948 427.719 185.156 424.781 185.156C422.281 185.156 420.177 185.646 418.469 186.625C416.76 187.583 415.469 189.042 414.594 191C413.719 192.938 413.281 195.365 413.281 198.281V217H410.125V168.375H413.281ZM467.688 168.375V182.188C467.688 183.375 467.667 184.677 467.625 186.094C467.583 187.51 467.542 188.688 467.5 189.625H467.688C468.5 187.521 469.917 185.781 471.938 184.406C473.958 183.031 476.479 182.344 479.5 182.344C483.917 182.344 487.323 183.833 489.719 186.812C492.135 189.792 493.344 194.156 493.344 199.906C493.344 203.427 492.802 206.521 491.719 209.188C490.635 211.833 489.021 213.906 486.875 215.406C484.75 216.885 482.083 217.625 478.875 217.625C475.979 217.625 473.615 217.021 471.781 215.812C469.948 214.583 468.615 213.052 467.781 211.219H467.531L466.938 217H464.531V168.375H467.688ZM479.156 185.094C476.469 185.094 474.281 185.677 472.594 186.844C470.906 187.99 469.667 189.667 468.875 191.875C468.083 194.083 467.688 196.781 467.688 199.969V200.469C467.688 205.156 468.542 208.729 470.25 211.188C471.958 213.646 474.729 214.875 478.562 214.875C482.354 214.875 485.219 213.583 487.156 211C489.115 208.396 490.094 204.698 490.094 199.906C490.094 195.01 489.188 191.323 487.375 188.844C485.562 186.344 482.823 185.094 479.156 185.094ZM529.094 183.031V217H526.531L526.062 210.875H525.875C525.292 212.125 524.469 213.26 523.406 214.281C522.344 215.302 521.042 216.115 519.5 216.719C517.958 217.323 516.167 217.625 514.125 217.625C511.521 217.625 509.333 217.177 507.562 216.281C505.812 215.365 504.49 213.99 503.594 212.156C502.698 210.323 502.25 208.031 502.25 205.281V183.031H505.406V204.969C505.406 208.365 506.167 210.865 507.688 212.469C509.229 214.073 511.479 214.875 514.438 214.875C516.938 214.875 519.031 214.396 520.719 213.438C522.427 212.479 523.719 211.031 524.594 209.094C525.49 207.135 525.938 204.698 525.938 201.781V183.031H529.094ZM543.656 183.031V217H540.5V183.031H543.656ZM542.125 170.469C542.917 170.469 543.5 170.708 543.875 171.188C544.25 171.646 544.438 172.271 544.438 173.062C544.438 173.854 544.25 174.479 543.875 174.938C543.5 175.396 542.917 175.625 542.125 175.625C541.375 175.625 540.812 175.396 540.438 174.938C540.062 174.479 539.875 173.854 539.875 173.062C539.875 172.271 540.062 171.646 540.438 171.188C540.812 170.708 541.375 170.469 542.125 170.469ZM558.219 217H555.031V168.375H558.219V217ZM581.812 217.625C577.167 217.625 573.625 216.167 571.188 213.25C568.771 210.312 567.562 206.042 567.562 200.438C567.562 194.562 568.844 190.083 571.406 187C573.969 183.917 577.542 182.375 582.125 182.375C584.083 182.375 585.781 182.677 587.219 183.281C588.677 183.885 589.896 184.708 590.875 185.75C591.875 186.771 592.646 187.938 593.188 189.25H593.438C593.354 188.146 593.292 186.958 593.25 185.688C593.208 184.417 593.188 183.25 593.188 182.188V168.375H596.344V217H593.781L593.375 210.781H593.188C592.625 212.031 591.844 213.177 590.844 214.219C589.865 215.26 588.635 216.094 587.156 216.719C585.677 217.323 583.896 217.625 581.812 217.625ZM582.156 214.875C586.156 214.875 589 213.635 590.688 211.156C592.375 208.656 593.219 205.094 593.219 200.469V199.969C593.219 195.177 592.375 191.51 590.688 188.969C589 186.406 586.25 185.125 582.438 185.125C578.667 185.125 575.781 186.438 573.781 189.062C571.802 191.688 570.812 195.5 570.812 200.5C570.812 205.208 571.74 208.781 573.594 211.219C575.469 213.656 578.323 214.875 582.156 214.875ZM620.5 182.375C623.396 182.375 625.802 183.052 627.719 184.406C629.656 185.76 631.094 187.615 632.031 189.969C632.99 192.323 633.469 195.021 633.469 198.062V200.344H608.938C608.938 205.01 610.01 208.594 612.156 211.094C614.323 213.594 617.417 214.844 621.438 214.844C623.542 214.844 625.365 214.677 626.906 214.344C628.469 213.99 630.198 213.396 632.094 212.562V215.469C630.427 216.219 628.76 216.76 627.094 217.094C625.427 217.448 623.51 217.625 621.344 217.625C617.906 217.625 615.021 216.917 612.688 215.5C610.375 214.062 608.625 212.042 607.438 209.438C606.271 206.833 605.688 203.792 605.688 200.312C605.688 196.917 606.25 193.865 607.375 191.156C608.521 188.448 610.188 186.312 612.375 184.75C614.583 183.167 617.292 182.375 620.5 182.375ZM620.469 185.094C617.219 185.094 614.583 186.177 612.562 188.344C610.562 190.49 609.385 193.594 609.031 197.656H630.188C630.188 195.177 629.833 192.99 629.125 191.094C628.417 189.198 627.344 187.729 625.906 186.688C624.49 185.625 622.677 185.094 620.469 185.094ZM656.344 182.438C657.24 182.438 658.083 182.49 658.875 182.594C659.667 182.698 660.406 182.844 661.094 183.031L660.594 185.938C659.906 185.75 659.208 185.615 658.5 185.531C657.792 185.427 657.031 185.375 656.219 185.375C654.615 185.375 653.177 185.677 651.906 186.281C650.656 186.885 649.594 187.75 648.719 188.875C647.844 190 647.177 191.354 646.719 192.938C646.26 194.521 646.031 196.292 646.031 198.25V217H642.844V183.031H645.562L645.875 189.438H646.062C646.583 188.125 647.312 186.948 648.25 185.906C649.208 184.844 650.365 184 651.719 183.375C653.073 182.75 654.615 182.438 656.344 182.438ZM671.25 205.219V204.094C671.25 202.156 671.396 200.542 671.688 199.25C672 197.958 672.542 196.802 673.312 195.781C674.104 194.76 675.219 193.698 676.656 192.594C678.24 191.406 679.552 190.312 680.594 189.312C681.656 188.292 682.448 187.198 682.969 186.031C683.51 184.844 683.781 183.396 683.781 181.688C683.781 178.938 682.938 176.885 681.25 175.531C679.562 174.177 677.323 173.5 674.531 173.5C672.76 173.5 671.115 173.708 669.594 174.125C668.094 174.542 666.583 175.125 665.062 175.875L663.938 173.156C665.729 172.344 667.448 171.729 669.094 171.312C670.76 170.875 672.615 170.656 674.656 170.656C678.427 170.656 681.406 171.604 683.594 173.5C685.781 175.375 686.875 178.094 686.875 181.656C686.875 183.698 686.531 185.448 685.844 186.906C685.177 188.365 684.24 189.677 683.031 190.844C681.823 192.01 680.406 193.198 678.781 194.406C677.552 195.344 676.583 196.26 675.875 197.156C675.167 198.031 674.667 199.031 674.375 200.156C674.083 201.281 673.938 202.677 673.938 204.344V205.219H671.25ZM670.25 214.781C670.25 213.865 670.458 213.167 670.875 212.688C671.292 212.188 671.917 211.938 672.75 211.938C673.625 211.938 674.271 212.188 674.688 212.688C675.104 213.167 675.312 213.865 675.312 214.781C675.312 215.698 675.104 216.406 674.688 216.906C674.271 217.406 673.625 217.656 672.75 217.656C671.917 217.656 671.292 217.406 670.875 216.906C670.458 216.406 670.25 215.698 670.25 214.781ZM97.2695 272.242C97.2695 273.258 97.0234 274.141 96.5312 274.891C96.0391 275.641 95.3203 276.219 94.375 276.625C93.4375 277.031 92.2969 277.234 90.9531 277.234C90.3594 277.234 89.7773 277.195 89.207 277.117C88.6445 277.039 88.1016 276.926 87.5781 276.777C87.0625 276.621 86.5703 276.43 86.1016 276.203V272.828C86.9141 273.188 87.7578 273.512 88.6328 273.801C89.5078 274.09 90.375 274.234 91.2344 274.234C91.8281 274.234 92.3047 274.156 92.6641 274C93.0312 273.844 93.2969 273.629 93.4609 273.355C93.625 273.082 93.707 272.77 93.707 272.418C93.707 271.988 93.5625 271.621 93.2734 271.316C92.9844 271.012 92.5859 270.727 92.0781 270.461C91.5781 270.195 91.0117 269.91 90.3789 269.605C89.9805 269.418 89.5469 269.191 89.0781 268.926C88.6094 268.652 88.1641 268.32 87.7422 267.93C87.3203 267.539 86.9727 267.066 86.6992 266.512C86.4336 265.949 86.3008 265.277 86.3008 264.496C86.3008 263.473 86.5352 262.598 87.0039 261.871C87.4727 261.145 88.1406 260.59 89.0078 260.207C89.8828 259.816 90.9141 259.621 92.1016 259.621C92.9922 259.621 93.8398 259.727 94.6445 259.938C95.457 260.141 96.3047 260.438 97.1875 260.828L96.0156 263.652C95.2266 263.332 94.5195 263.086 93.8945 262.914C93.2695 262.734 92.6328 262.645 91.9844 262.645C91.5312 262.645 91.1445 262.719 90.8242 262.867C90.5039 263.008 90.2617 263.211 90.0977 263.477C89.9336 263.734 89.8516 264.035 89.8516 264.379C89.8516 264.785 89.9688 265.129 90.2031 265.41C90.4453 265.684 90.8047 265.949 91.2812 266.207C91.7656 266.465 92.3672 266.766 93.0859 267.109C93.9609 267.523 94.707 267.957 95.3242 268.41C95.9492 268.855 96.4297 269.383 96.7656 269.992C97.1016 270.594 97.2695 271.344 97.2695 272.242ZM103.668 258.766V262.48C103.668 263.129 103.645 263.746 103.598 264.332C103.559 264.918 103.527 265.332 103.504 265.574H103.691C103.973 265.121 104.305 264.754 104.688 264.473C105.078 264.191 105.508 263.984 105.977 263.852C106.445 263.719 106.949 263.652 107.488 263.652C108.434 263.652 109.258 263.82 109.961 264.156C110.664 264.484 111.211 265.004 111.602 265.715C111.992 266.418 112.188 267.332 112.188 268.457V277H108.613V269.348C108.613 268.41 108.441 267.703 108.098 267.227C107.754 266.75 107.223 266.512 106.504 266.512C105.785 266.512 105.219 266.68 104.805 267.016C104.391 267.344 104.098 267.832 103.926 268.48C103.754 269.121 103.668 269.906 103.668 270.836V277H100.094V258.766H103.668ZM121.234 263.629C122.992 263.629 124.34 264.012 125.277 264.777C126.215 265.543 126.684 266.707 126.684 268.27V277H124.188L123.496 275.219H123.402C123.027 275.688 122.645 276.07 122.254 276.367C121.863 276.664 121.414 276.883 120.906 277.023C120.398 277.164 119.781 277.234 119.055 277.234C118.281 277.234 117.586 277.086 116.969 276.789C116.359 276.492 115.879 276.039 115.527 275.43C115.176 274.812 115 274.031 115 273.086C115 271.695 115.488 270.672 116.465 270.016C117.441 269.352 118.906 268.984 120.859 268.914L123.133 268.844V268.27C123.133 267.582 122.953 267.078 122.594 266.758C122.234 266.438 121.734 266.277 121.094 266.277C120.461 266.277 119.84 266.367 119.23 266.547C118.621 266.727 118.012 266.953 117.402 267.227L116.219 264.812C116.914 264.445 117.691 264.156 118.551 263.945C119.418 263.734 120.312 263.629 121.234 263.629ZM123.133 270.93L121.75 270.977C120.594 271.008 119.789 271.215 119.336 271.598C118.891 271.98 118.668 272.484 118.668 273.109C118.668 273.656 118.828 274.047 119.148 274.281C119.469 274.508 119.887 274.621 120.402 274.621C121.168 274.621 121.812 274.395 122.336 273.941C122.867 273.488 123.133 272.844 123.133 272.008V270.93ZM137.688 263.652C137.867 263.652 138.074 263.664 138.309 263.688C138.551 263.703 138.746 263.727 138.895 263.758L138.625 267.109C138.508 267.07 138.34 267.043 138.121 267.027C137.91 267.004 137.727 266.992 137.57 266.992C137.109 266.992 136.66 267.051 136.223 267.168C135.793 267.285 135.406 267.477 135.062 267.742C134.719 268 134.445 268.344 134.242 268.773C134.047 269.195 133.949 269.715 133.949 270.332V277H130.375V263.898H133.082L133.609 266.102H133.785C134.043 265.656 134.363 265.25 134.746 264.883C135.137 264.508 135.578 264.211 136.07 263.992C136.57 263.766 137.109 263.652 137.688 263.652ZM146.676 263.652C147.887 263.652 148.93 263.887 149.805 264.355C150.68 264.816 151.355 265.488 151.832 266.371C152.309 267.254 152.547 268.332 152.547 269.605V271.34H144.098C144.137 272.348 144.438 273.141 145 273.719C145.57 274.289 146.359 274.574 147.367 274.574C148.203 274.574 148.969 274.488 149.664 274.316C150.359 274.145 151.074 273.887 151.809 273.543V276.309C151.16 276.629 150.48 276.863 149.77 277.012C149.066 277.16 148.211 277.234 147.203 277.234C145.891 277.234 144.727 276.992 143.711 276.508C142.703 276.023 141.91 275.285 141.332 274.293C140.762 273.301 140.477 272.051 140.477 270.543C140.477 269.012 140.734 267.738 141.25 266.723C141.773 265.699 142.5 264.934 143.43 264.426C144.359 263.91 145.441 263.652 146.676 263.652ZM146.699 266.195C146.004 266.195 145.426 266.418 144.965 266.863C144.512 267.309 144.25 268.008 144.18 268.961H149.195C149.188 268.43 149.09 267.957 148.902 267.543C148.723 267.129 148.449 266.801 148.082 266.559C147.723 266.316 147.262 266.195 146.699 266.195ZM159.812 263.898H163.727L166.199 271.27C166.277 271.504 166.344 271.742 166.398 271.984C166.453 272.227 166.5 272.477 166.539 272.734C166.578 272.992 166.609 273.262 166.633 273.543H166.703C166.75 273.121 166.812 272.727 166.891 272.359C166.977 271.992 167.082 271.629 167.207 271.27L169.633 263.898H173.465L167.922 278.676C167.586 279.582 167.148 280.336 166.609 280.938C166.07 281.547 165.449 282.004 164.746 282.309C164.051 282.613 163.285 282.766 162.449 282.766C162.043 282.766 161.691 282.742 161.395 282.695C161.098 282.656 160.844 282.613 160.633 282.566V279.73C160.797 279.77 161.004 279.805 161.254 279.836C161.504 279.867 161.766 279.883 162.039 279.883C162.539 279.883 162.969 279.777 163.328 279.566C163.688 279.355 163.988 279.07 164.23 278.711C164.473 278.359 164.664 277.973 164.805 277.551L165.016 276.906L159.812 263.898ZM187.258 270.426C187.258 271.52 187.109 272.488 186.812 273.332C186.523 274.176 186.098 274.891 185.535 275.477C184.98 276.055 184.309 276.492 183.52 276.789C182.738 277.086 181.855 277.234 180.871 277.234C179.949 277.234 179.102 277.086 178.328 276.789C177.562 276.492 176.895 276.055 176.324 275.477C175.762 274.891 175.324 274.176 175.012 273.332C174.707 272.488 174.555 271.52 174.555 270.426C174.555 268.973 174.812 267.742 175.328 266.734C175.844 265.727 176.578 264.961 177.531 264.438C178.484 263.914 179.621 263.652 180.941 263.652C182.168 263.652 183.254 263.914 184.199 264.438C185.152 264.961 185.898 265.727 186.438 266.734C186.984 267.742 187.258 268.973 187.258 270.426ZM178.199 270.426C178.199 271.285 178.293 272.008 178.48 272.594C178.668 273.18 178.961 273.621 179.359 273.918C179.758 274.215 180.277 274.363 180.918 274.363C181.551 274.363 182.062 274.215 182.453 273.918C182.852 273.621 183.141 273.18 183.32 272.594C183.508 272.008 183.602 271.285 183.602 270.426C183.602 269.559 183.508 268.84 183.32 268.27C183.141 267.691 182.852 267.258 182.453 266.969C182.055 266.68 181.535 266.535 180.895 266.535C179.949 266.535 179.262 266.859 178.832 267.508C178.41 268.156 178.199 269.129 178.199 270.426ZM202.234 263.898V277H199.492L199.012 275.324H198.824C198.543 275.77 198.191 276.133 197.77 276.414C197.348 276.695 196.883 276.902 196.375 277.035C195.867 277.168 195.34 277.234 194.793 277.234C193.855 277.234 193.039 277.07 192.344 276.742C191.648 276.406 191.105 275.887 190.715 275.184C190.332 274.48 190.141 273.566 190.141 272.441V263.898H193.715V271.551C193.715 272.488 193.883 273.195 194.219 273.672C194.555 274.148 195.09 274.387 195.824 274.387C196.551 274.387 197.121 274.223 197.535 273.895C197.949 273.559 198.238 273.07 198.402 272.43C198.574 271.781 198.66 270.992 198.66 270.062V263.898H202.234ZM213.297 263.652C213.477 263.652 213.684 263.664 213.918 263.688C214.16 263.703 214.355 263.727 214.504 263.758L214.234 267.109C214.117 267.07 213.949 267.043 213.73 267.027C213.52 267.004 213.336 266.992 213.18 266.992C212.719 266.992 212.27 267.051 211.832 267.168C211.402 267.285 211.016 267.477 210.672 267.742C210.328 268 210.055 268.344 209.852 268.773C209.656 269.195 209.559 269.715 209.559 270.332V277H205.984V263.898H208.691L209.219 266.102H209.395C209.652 265.656 209.973 265.25 210.355 264.883C210.746 264.508 211.188 264.211 211.68 263.992C212.18 263.766 212.719 263.652 213.297 263.652ZM230.359 266.582H227.266V277H223.691V266.582H221.723V264.859L223.691 263.898V262.938C223.691 261.82 223.879 260.953 224.254 260.336C224.637 259.711 225.172 259.273 225.859 259.023C226.555 258.766 227.375 258.637 228.32 258.637C229.016 258.637 229.648 258.695 230.219 258.812C230.789 258.922 231.254 259.047 231.613 259.188L230.699 261.812C230.426 261.727 230.129 261.648 229.809 261.578C229.488 261.508 229.121 261.473 228.707 261.473C228.207 261.473 227.84 261.625 227.605 261.93C227.379 262.227 227.266 262.609 227.266 263.078V263.898H230.359V266.582ZM237.824 263.652C239.035 263.652 240.078 263.887 240.953 264.355C241.828 264.816 242.504 265.488 242.98 266.371C243.457 267.254 243.695 268.332 243.695 269.605V271.34H235.246C235.285 272.348 235.586 273.141 236.148 273.719C236.719 274.289 237.508 274.574 238.516 274.574C239.352 274.574 240.117 274.488 240.812 274.316C241.508 274.145 242.223 273.887 242.957 273.543V276.309C242.309 276.629 241.629 276.863 240.918 277.012C240.215 277.16 239.359 277.234 238.352 277.234C237.039 277.234 235.875 276.992 234.859 276.508C233.852 276.023 233.059 275.285 232.48 274.293C231.91 273.301 231.625 272.051 231.625 270.543C231.625 269.012 231.883 267.738 232.398 266.723C232.922 265.699 233.648 264.934 234.578 264.426C235.508 263.91 236.59 263.652 237.824 263.652ZM237.848 266.195C237.152 266.195 236.574 266.418 236.113 266.863C235.66 267.309 235.398 268.008 235.328 268.961H240.344C240.336 268.43 240.238 267.957 240.051 267.543C239.871 267.129 239.598 266.801 239.23 266.559C238.871 266.316 238.41 266.195 237.848 266.195ZM252.004 263.652C253.215 263.652 254.258 263.887 255.133 264.355C256.008 264.816 256.684 265.488 257.16 266.371C257.637 267.254 257.875 268.332 257.875 269.605V271.34H249.426C249.465 272.348 249.766 273.141 250.328 273.719C250.898 274.289 251.688 274.574 252.695 274.574C253.531 274.574 254.297 274.488 254.992 274.316C255.688 274.145 256.402 273.887 257.137 273.543V276.309C256.488 276.629 255.809 276.863 255.098 277.012C254.395 277.16 253.539 277.234 252.531 277.234C251.219 277.234 250.055 276.992 249.039 276.508C248.031 276.023 247.238 275.285 246.66 274.293C246.09 273.301 245.805 272.051 245.805 270.543C245.805 269.012 246.062 267.738 246.578 266.723C247.102 265.699 247.828 264.934 248.758 264.426C249.688 263.91 250.77 263.652 252.004 263.652ZM252.027 266.195C251.332 266.195 250.754 266.418 250.293 266.863C249.84 267.309 249.578 268.008 249.508 268.961H254.523C254.516 268.43 254.418 267.957 254.23 267.543C254.051 267.129 253.777 266.801 253.41 266.559C253.051 266.316 252.59 266.195 252.027 266.195ZM264.93 277.234C263.469 277.234 262.277 276.664 261.355 275.523C260.441 274.375 259.984 272.691 259.984 270.473C259.984 268.23 260.449 266.535 261.379 265.387C262.309 264.23 263.523 263.652 265.023 263.652C265.648 263.652 266.199 263.738 266.676 263.91C267.152 264.082 267.562 264.312 267.906 264.602C268.258 264.891 268.555 265.215 268.797 265.574H268.914C268.867 265.324 268.809 264.957 268.738 264.473C268.676 263.98 268.645 263.477 268.645 262.961V258.766H272.23V277H269.488L268.797 275.301H268.645C268.418 275.66 268.133 275.988 267.789 276.285C267.453 276.574 267.051 276.805 266.582 276.977C266.113 277.148 265.562 277.234 264.93 277.234ZM266.184 274.387C267.16 274.387 267.848 274.098 268.246 273.52C268.652 272.934 268.867 272.055 268.891 270.883V270.496C268.891 269.223 268.695 268.25 268.305 267.578C267.914 266.898 267.188 266.559 266.125 266.559C265.336 266.559 264.719 266.898 264.273 267.578C263.828 268.258 263.605 269.238 263.605 270.52C263.605 271.801 263.828 272.766 264.273 273.414C264.727 274.062 265.363 274.387 266.184 274.387ZM279.543 258.766V263.008C279.543 263.5 279.527 263.988 279.496 264.473C279.473 264.957 279.441 265.332 279.402 265.598H279.543C279.887 265.059 280.355 264.602 280.949 264.227C281.543 263.844 282.312 263.652 283.258 263.652C284.727 263.652 285.918 264.227 286.832 265.375C287.746 266.523 288.203 268.207 288.203 270.426C288.203 271.918 287.992 273.172 287.57 274.188C287.148 275.195 286.559 275.957 285.801 276.473C285.043 276.98 284.164 277.234 283.164 277.234C282.203 277.234 281.445 277.062 280.891 276.719C280.336 276.375 279.887 275.988 279.543 275.559H279.297L278.699 277H275.969V258.766H279.543ZM282.109 266.512C281.484 266.512 280.988 266.641 280.621 266.898C280.254 267.156 279.984 267.543 279.812 268.059C279.648 268.574 279.559 269.227 279.543 270.016V270.402C279.543 271.676 279.73 272.652 280.105 273.332C280.48 274.004 281.164 274.34 282.156 274.34C282.891 274.34 283.473 274 283.902 273.32C284.34 272.641 284.559 271.66 284.559 270.379C284.559 269.098 284.34 268.133 283.902 267.484C283.465 266.836 282.867 266.512 282.109 266.512ZM296.523 263.629C298.281 263.629 299.629 264.012 300.566 264.777C301.504 265.543 301.973 266.707 301.973 268.27V277H299.477L298.785 275.219H298.691C298.316 275.688 297.934 276.07 297.543 276.367C297.152 276.664 296.703 276.883 296.195 277.023C295.688 277.164 295.07 277.234 294.344 277.234C293.57 277.234 292.875 277.086 292.258 276.789C291.648 276.492 291.168 276.039 290.816 275.43C290.465 274.812 290.289 274.031 290.289 273.086C290.289 271.695 290.777 270.672 291.754 270.016C292.73 269.352 294.195 268.984 296.148 268.914L298.422 268.844V268.27C298.422 267.582 298.242 267.078 297.883 266.758C297.523 266.438 297.023 266.277 296.383 266.277C295.75 266.277 295.129 266.367 294.52 266.547C293.91 266.727 293.301 266.953 292.691 267.227L291.508 264.812C292.203 264.445 292.98 264.156 293.84 263.945C294.707 263.734 295.602 263.629 296.523 263.629ZM298.422 270.93L297.039 270.977C295.883 271.008 295.078 271.215 294.625 271.598C294.18 271.98 293.957 272.484 293.957 273.109C293.957 273.656 294.117 274.047 294.438 274.281C294.758 274.508 295.176 274.621 295.691 274.621C296.457 274.621 297.102 274.395 297.625 273.941C298.156 273.488 298.422 272.844 298.422 272.008V270.93ZM310.984 277.234C309.688 277.234 308.582 277 307.668 276.531C306.754 276.055 306.059 275.32 305.582 274.328C305.105 273.336 304.867 272.066 304.867 270.52C304.867 268.918 305.137 267.613 305.676 266.605C306.223 265.59 306.977 264.844 307.938 264.367C308.906 263.891 310.027 263.652 311.301 263.652C312.207 263.652 312.988 263.742 313.645 263.922C314.309 264.094 314.887 264.301 315.379 264.543L314.324 267.309C313.762 267.082 313.238 266.898 312.754 266.758C312.27 266.609 311.785 266.535 311.301 266.535C310.676 266.535 310.156 266.684 309.742 266.98C309.328 267.27 309.02 267.707 308.816 268.293C308.613 268.879 308.512 269.613 308.512 270.496C308.512 271.363 308.621 272.082 308.84 272.652C309.059 273.223 309.375 273.648 309.789 273.93C310.203 274.203 310.707 274.34 311.301 274.34C312.043 274.34 312.703 274.242 313.281 274.047C313.859 273.844 314.422 273.562 314.969 273.203V276.262C314.422 276.605 313.848 276.852 313.246 277C312.652 277.156 311.898 277.234 310.984 277.234ZM321.59 258.766V266.922C321.59 267.414 321.57 267.906 321.531 268.398C321.492 268.891 321.449 269.383 321.402 269.875H321.449C321.691 269.531 321.938 269.191 322.188 268.855C322.445 268.52 322.719 268.195 323.008 267.883L326.676 263.898H330.707L325.504 269.582L331.023 277H326.898L323.125 271.691L321.59 272.922V277H318.016V258.766H321.59ZM349.902 277L348.895 272.418C348.84 272.145 348.75 271.742 348.625 271.211C348.5 270.672 348.363 270.098 348.215 269.488C348.074 268.871 347.941 268.301 347.816 267.777C347.699 267.254 347.613 266.871 347.559 266.629H347.453C347.398 266.871 347.312 267.254 347.195 267.777C347.078 268.301 346.945 268.871 346.797 269.488C346.656 270.105 346.523 270.688 346.398 271.234C346.273 271.773 346.18 272.184 346.117 272.465L345.062 277H341.219L337.492 263.898H341.055L342.566 269.699C342.668 270.105 342.766 270.59 342.859 271.152C342.953 271.707 343.035 272.246 343.105 272.77C343.184 273.285 343.242 273.695 343.281 274H343.375C343.391 273.773 343.422 273.473 343.469 273.098C343.523 272.723 343.582 272.336 343.645 271.938C343.715 271.531 343.777 271.168 343.832 270.848C343.895 270.52 343.941 270.297 343.973 270.18L345.59 263.898H349.527L351.062 270.18C351.117 270.406 351.188 270.766 351.273 271.258C351.367 271.75 351.449 272.258 351.52 272.781C351.59 273.297 351.629 273.703 351.637 274H351.73C351.762 273.734 351.816 273.34 351.895 272.816C351.973 272.293 352.062 271.746 352.164 271.176C352.273 270.598 352.383 270.105 352.492 269.699L354.062 263.898H357.566L353.793 277H349.902ZM363.262 263.898V277H359.688V263.898H363.262ZM361.48 258.766C362.012 258.766 362.469 258.891 362.852 259.141C363.234 259.383 363.426 259.84 363.426 260.512C363.426 261.176 363.234 261.637 362.852 261.895C362.469 262.145 362.012 262.27 361.48 262.27C360.941 262.27 360.48 262.145 360.098 261.895C359.723 261.637 359.535 261.176 359.535 260.512C359.535 259.84 359.723 259.383 360.098 259.141C360.48 258.891 360.941 258.766 361.48 258.766ZM372.543 274.387C372.934 274.387 373.312 274.348 373.68 274.27C374.055 274.191 374.426 274.094 374.793 273.977V276.637C374.41 276.809 373.934 276.949 373.363 277.059C372.801 277.176 372.184 277.234 371.512 277.234C370.73 277.234 370.027 277.109 369.402 276.859C368.785 276.602 368.297 276.16 367.938 275.535C367.586 274.902 367.41 274.023 367.41 272.898V266.582H365.699V265.07L367.668 263.875L368.699 261.109H370.984V263.898H374.652V266.582H370.984V272.898C370.984 273.398 371.125 273.773 371.406 274.023C371.695 274.266 372.074 274.387 372.543 274.387ZM381.027 258.766V262.48C381.027 263.129 381.004 263.746 380.957 264.332C380.918 264.918 380.887 265.332 380.863 265.574H381.051C381.332 265.121 381.664 264.754 382.047 264.473C382.438 264.191 382.867 263.984 383.336 263.852C383.805 263.719 384.309 263.652 384.848 263.652C385.793 263.652 386.617 263.82 387.32 264.156C388.023 264.484 388.57 265.004 388.961 265.715C389.352 266.418 389.547 267.332 389.547 268.457V277H385.973V269.348C385.973 268.41 385.801 267.703 385.457 267.227C385.113 266.75 384.582 266.512 383.863 266.512C383.145 266.512 382.578 266.68 382.164 267.016C381.75 267.344 381.457 267.832 381.285 268.48C381.113 269.121 381.027 269.906 381.027 270.836V277H377.453V258.766H381.027ZM411.484 263.898V277H408.742L408.262 275.324H408.074C407.793 275.77 407.441 276.133 407.02 276.414C406.598 276.695 406.133 276.902 405.625 277.035C405.117 277.168 404.59 277.234 404.043 277.234C403.105 277.234 402.289 277.07 401.594 276.742C400.898 276.406 400.355 275.887 399.965 275.184C399.582 274.48 399.391 273.566 399.391 272.441V263.898H402.965V271.551C402.965 272.488 403.133 273.195 403.469 273.672C403.805 274.148 404.34 274.387 405.074 274.387C405.801 274.387 406.371 274.223 406.785 273.895C407.199 273.559 407.488 273.07 407.652 272.43C407.824 271.781 407.91 270.992 407.91 270.062V263.898H411.484ZM424.375 273.109C424.375 274 424.164 274.754 423.742 275.371C423.328 275.98 422.707 276.445 421.879 276.766C421.051 277.078 420.02 277.234 418.785 277.234C417.871 277.234 417.086 277.176 416.43 277.059C415.781 276.941 415.125 276.746 414.461 276.473V273.52C415.172 273.84 415.934 274.105 416.746 274.316C417.566 274.52 418.285 274.621 418.902 274.621C419.598 274.621 420.094 274.52 420.391 274.316C420.695 274.105 420.848 273.832 420.848 273.496C420.848 273.277 420.785 273.082 420.66 272.91C420.543 272.73 420.285 272.531 419.887 272.312C419.488 272.086 418.863 271.793 418.012 271.434C417.191 271.09 416.516 270.742 415.984 270.391C415.461 270.039 415.07 269.625 414.812 269.148C414.562 268.664 414.438 268.051 414.438 267.309C414.438 266.098 414.906 265.188 415.844 264.578C416.789 263.961 418.051 263.652 419.629 263.652C420.441 263.652 421.215 263.734 421.949 263.898C422.691 264.062 423.453 264.324 424.234 264.684L423.156 267.262C422.508 266.98 421.895 266.75 421.316 266.57C420.746 266.391 420.164 266.301 419.57 266.301C419.047 266.301 418.652 266.371 418.387 266.512C418.121 266.652 417.988 266.867 417.988 267.156C417.988 267.367 418.055 267.555 418.188 267.719C418.328 267.883 418.594 268.066 418.984 268.27C419.383 268.465 419.965 268.719 420.73 269.031C421.473 269.336 422.117 269.656 422.664 269.992C423.211 270.32 423.633 270.73 423.93 271.223C424.227 271.707 424.375 272.336 424.375 273.109Z" fill="white"/>
<g filter="url(#filter0_d_1796_7837)">
<rect x="1116" y="230" width="222" height="57" rx="28.5" fill="#F65275" shape-rendering="crispEdges"/>
<path d="M1139.66 265H1136.93V254.418H1133.44V252.15H1143.15V254.418H1139.66V265ZM1148.94 254.972C1150.26 254.972 1151.27 255.259 1151.97 255.833C1152.67 256.407 1153.03 257.28 1153.03 258.452V265H1151.15L1150.64 263.664H1150.57C1150.28 264.016 1150 264.303 1149.7 264.525C1149.41 264.748 1149.07 264.912 1148.69 265.018C1148.31 265.123 1147.85 265.176 1147.3 265.176C1146.72 265.176 1146.2 265.064 1145.74 264.842C1145.28 264.619 1144.92 264.279 1144.66 263.822C1144.4 263.359 1144.26 262.773 1144.26 262.064C1144.26 261.021 1144.63 260.254 1145.36 259.762C1146.09 259.264 1147.19 258.988 1148.66 258.936L1150.36 258.883V258.452C1150.36 257.937 1150.23 257.559 1149.96 257.318C1149.69 257.078 1149.31 256.958 1148.83 256.958C1148.36 256.958 1147.89 257.025 1147.44 257.16C1146.98 257.295 1146.52 257.465 1146.07 257.67L1145.18 255.859C1145.7 255.584 1146.28 255.367 1146.93 255.209C1147.58 255.051 1148.25 254.972 1148.94 254.972ZM1150.36 260.447L1149.33 260.482C1148.46 260.506 1147.86 260.661 1147.52 260.948C1147.18 261.235 1147.01 261.613 1147.01 262.082C1147.01 262.492 1147.13 262.785 1147.38 262.961C1147.62 263.131 1147.93 263.216 1148.32 263.216C1148.89 263.216 1149.37 263.046 1149.77 262.706C1150.16 262.366 1150.36 261.883 1150.36 261.256V260.447ZM1158.48 251.324V257.441C1158.48 257.811 1158.46 258.18 1158.43 258.549C1158.4 258.918 1158.37 259.287 1158.33 259.656H1158.37C1158.55 259.398 1158.74 259.144 1158.92 258.892C1159.12 258.64 1159.32 258.396 1159.54 258.162L1162.29 255.174H1165.31L1161.41 259.437L1165.55 265H1162.46L1159.63 261.019L1158.48 261.941V265H1155.79V251.324H1158.48ZM1171.01 254.989C1171.92 254.989 1172.7 255.165 1173.36 255.517C1174.01 255.862 1174.52 256.366 1174.88 257.028C1175.23 257.69 1175.41 258.499 1175.41 259.454V260.755H1169.08C1169.1 261.511 1169.33 262.105 1169.75 262.539C1170.18 262.967 1170.77 263.181 1171.53 263.181C1172.15 263.181 1172.73 263.116 1173.25 262.987C1173.77 262.858 1174.31 262.665 1174.86 262.407V264.481C1174.37 264.722 1173.86 264.897 1173.33 265.009C1172.8 265.12 1172.16 265.176 1171.4 265.176C1170.42 265.176 1169.55 264.994 1168.79 264.631C1168.03 264.268 1167.43 263.714 1167 262.97C1166.57 262.226 1166.36 261.288 1166.36 260.157C1166.36 259.009 1166.55 258.054 1166.94 257.292C1167.33 256.524 1167.88 255.95 1168.57 255.569C1169.27 255.183 1170.08 254.989 1171.01 254.989ZM1171.03 256.896C1170.5 256.896 1170.07 257.063 1169.73 257.397C1169.39 257.731 1169.19 258.256 1169.14 258.971H1172.9C1172.89 258.572 1172.82 258.218 1172.68 257.907C1172.54 257.597 1172.34 257.351 1172.06 257.169C1171.79 256.987 1171.45 256.896 1171.03 256.896ZM1194.14 258.558C1194.14 259.548 1194.02 260.45 1193.77 261.265C1193.53 262.073 1193.15 262.771 1192.65 263.356C1192.15 263.942 1191.52 264.394 1190.75 264.71C1189.98 265.021 1189.07 265.176 1188.02 265.176C1186.98 265.176 1186.07 265.021 1185.3 264.71C1184.53 264.394 1183.9 263.942 1183.39 263.356C1182.89 262.771 1182.52 262.07 1182.28 261.256C1182.03 260.441 1181.91 259.536 1181.91 258.54C1181.91 257.21 1182.12 256.053 1182.56 255.068C1183 254.078 1183.67 253.311 1184.58 252.766C1185.49 252.221 1186.64 251.948 1188.04 251.948C1189.44 251.948 1190.58 252.221 1191.48 252.766C1192.38 253.311 1193.05 254.078 1193.48 255.068C1193.92 256.059 1194.14 257.222 1194.14 258.558ZM1184.76 258.558C1184.76 259.454 1184.88 260.228 1185.1 260.878C1185.33 261.522 1185.68 262.021 1186.16 262.372C1186.64 262.718 1187.26 262.891 1188.02 262.891C1188.8 262.891 1189.42 262.718 1189.91 262.372C1190.39 262.021 1190.73 261.522 1190.95 260.878C1191.17 260.228 1191.29 259.454 1191.29 258.558C1191.29 257.21 1191.03 256.149 1190.53 255.376C1190.03 254.603 1189.2 254.216 1188.04 254.216C1187.27 254.216 1186.65 254.392 1186.16 254.743C1185.68 255.089 1185.33 255.587 1185.1 256.237C1184.88 256.882 1184.76 257.655 1184.76 258.558ZM1205.61 255.174V265H1203.55L1203.19 263.743H1203.05C1202.84 264.077 1202.58 264.35 1202.26 264.561C1201.95 264.771 1201.6 264.927 1201.22 265.026C1200.84 265.126 1200.44 265.176 1200.03 265.176C1199.33 265.176 1198.71 265.053 1198.19 264.807C1197.67 264.555 1197.26 264.165 1196.97 263.638C1196.68 263.11 1196.54 262.425 1196.54 261.581V255.174H1199.22V260.913C1199.22 261.616 1199.35 262.146 1199.6 262.504C1199.85 262.861 1200.25 263.04 1200.8 263.04C1201.35 263.04 1201.78 262.917 1202.09 262.671C1202.4 262.419 1202.61 262.053 1202.74 261.572C1202.87 261.086 1202.93 260.494 1202.93 259.797V255.174H1205.61ZM1213.91 254.989C1214.04 254.989 1214.2 254.998 1214.37 255.016C1214.56 255.027 1214.7 255.045 1214.81 255.068L1214.61 257.582C1214.52 257.553 1214.4 257.532 1214.23 257.521C1214.08 257.503 1213.94 257.494 1213.82 257.494C1213.47 257.494 1213.14 257.538 1212.81 257.626C1212.49 257.714 1212.2 257.857 1211.94 258.057C1211.68 258.25 1211.48 258.508 1211.32 258.83C1211.18 259.146 1211.1 259.536 1211.1 259.999V265H1208.42V255.174H1210.45L1210.85 256.826H1210.98C1211.17 256.492 1211.42 256.188 1211.7 255.912C1212 255.631 1212.33 255.408 1212.7 255.244C1213.07 255.074 1213.47 254.989 1213.91 254.989ZM1229.07 261.432C1229.07 262.193 1228.88 262.855 1228.52 263.418C1228.15 263.98 1227.61 264.414 1226.9 264.719C1226.2 265.023 1225.34 265.176 1224.33 265.176C1223.89 265.176 1223.45 265.146 1223.02 265.088C1222.6 265.029 1222.19 264.944 1221.8 264.833C1221.41 264.716 1221.04 264.572 1220.69 264.402V261.871C1221.3 262.141 1221.94 262.384 1222.59 262.601C1223.25 262.817 1223.9 262.926 1224.54 262.926C1224.99 262.926 1225.35 262.867 1225.62 262.75C1225.89 262.633 1226.09 262.472 1226.21 262.267C1226.34 262.062 1226.4 261.827 1226.4 261.563C1226.4 261.241 1226.29 260.966 1226.07 260.737C1225.86 260.509 1225.56 260.295 1225.18 260.096C1224.8 259.896 1224.38 259.683 1223.9 259.454C1223.6 259.313 1223.28 259.144 1222.93 258.944C1222.57 258.739 1222.24 258.49 1221.92 258.197C1221.61 257.904 1221.35 257.55 1221.14 257.134C1220.94 256.712 1220.84 256.208 1220.84 255.622C1220.84 254.854 1221.02 254.198 1221.37 253.653C1221.72 253.108 1222.22 252.692 1222.87 252.405C1223.53 252.112 1224.3 251.966 1225.19 251.966C1225.86 251.966 1226.5 252.045 1227.1 252.203C1227.71 252.355 1228.35 252.578 1229.01 252.871L1228.13 254.989C1227.54 254.749 1227.01 254.564 1226.54 254.436C1226.07 254.301 1225.59 254.233 1225.11 254.233C1224.77 254.233 1224.48 254.289 1224.24 254.4C1224 254.506 1223.81 254.658 1223.69 254.857C1223.57 255.051 1223.51 255.276 1223.51 255.534C1223.51 255.839 1223.59 256.097 1223.77 256.308C1223.95 256.513 1224.22 256.712 1224.58 256.905C1224.94 257.099 1225.39 257.324 1225.93 257.582C1226.59 257.893 1227.15 258.218 1227.61 258.558C1228.08 258.892 1228.44 259.287 1228.69 259.744C1228.94 260.195 1229.07 260.758 1229.07 261.432ZM1240.21 255.174V265H1238.15L1237.79 263.743H1237.65C1237.44 264.077 1237.17 264.35 1236.86 264.561C1236.54 264.771 1236.19 264.927 1235.81 265.026C1235.43 265.126 1235.03 265.176 1234.62 265.176C1233.92 265.176 1233.31 265.053 1232.79 264.807C1232.27 264.555 1231.86 264.165 1231.57 263.638C1231.28 263.11 1231.13 262.425 1231.13 261.581V255.174H1233.82V260.913C1233.82 261.616 1233.94 262.146 1234.19 262.504C1234.45 262.861 1234.85 263.04 1235.4 263.04C1235.94 263.04 1236.37 262.917 1236.68 262.671C1236.99 262.419 1237.21 262.053 1237.33 261.572C1237.46 261.086 1237.52 260.494 1237.52 259.797V255.174H1240.21ZM1248.5 254.989C1248.64 254.989 1248.79 254.998 1248.97 255.016C1249.15 255.027 1249.3 255.045 1249.41 255.068L1249.21 257.582C1249.12 257.553 1248.99 257.532 1248.83 257.521C1248.67 257.503 1248.53 257.494 1248.41 257.494C1248.07 257.494 1247.73 257.538 1247.4 257.626C1247.08 257.714 1246.79 257.857 1246.53 258.057C1246.28 258.25 1246.07 258.508 1245.92 258.83C1245.77 259.146 1245.7 259.536 1245.7 259.999V265H1243.02V255.174H1245.05L1245.44 256.826H1245.58C1245.77 256.492 1246.01 256.188 1246.3 255.912C1246.59 255.631 1246.92 255.408 1247.29 255.244C1247.66 255.074 1248.07 254.989 1248.5 254.989ZM1253.53 265L1249.79 255.174H1252.59L1254.49 260.772C1254.59 261.101 1254.67 261.446 1254.73 261.81C1254.8 262.173 1254.84 262.498 1254.87 262.785H1254.94C1254.95 262.475 1254.99 262.144 1255.06 261.792C1255.13 261.44 1255.22 261.101 1255.33 260.772L1257.22 255.174H1260.02L1256.28 265H1253.53ZM1265.49 254.989C1266.4 254.989 1267.18 255.165 1267.84 255.517C1268.49 255.862 1269 256.366 1269.36 257.028C1269.72 257.69 1269.89 258.499 1269.89 259.454V260.755H1263.56C1263.59 261.511 1263.81 262.105 1264.23 262.539C1264.66 262.967 1265.25 263.181 1266.01 263.181C1266.64 263.181 1267.21 263.116 1267.73 262.987C1268.25 262.858 1268.79 262.665 1269.34 262.407V264.481C1268.85 264.722 1268.34 264.897 1267.81 265.009C1267.28 265.12 1266.64 265.176 1265.89 265.176C1264.9 265.176 1264.03 264.994 1263.27 264.631C1262.51 264.268 1261.92 263.714 1261.48 262.97C1261.06 262.226 1260.84 261.288 1260.84 260.157C1260.84 259.009 1261.04 258.054 1261.42 257.292C1261.81 256.524 1262.36 255.95 1263.06 255.569C1263.75 255.183 1264.57 254.989 1265.49 254.989ZM1265.51 256.896C1264.99 256.896 1264.55 257.063 1264.21 257.397C1263.87 257.731 1263.67 258.256 1263.62 258.971H1267.38C1267.38 258.572 1267.3 258.218 1267.16 257.907C1267.03 257.597 1266.82 257.351 1266.55 257.169C1266.28 256.987 1265.93 256.896 1265.51 256.896ZM1270.67 255.174H1273.6L1275.46 260.702C1275.52 260.878 1275.57 261.057 1275.61 261.238C1275.65 261.42 1275.68 261.607 1275.71 261.801C1275.74 261.994 1275.77 262.196 1275.78 262.407H1275.84C1275.87 262.091 1275.92 261.795 1275.98 261.52C1276.04 261.244 1276.12 260.972 1276.21 260.702L1278.03 255.174H1280.91L1276.75 266.257C1276.5 266.937 1276.17 267.502 1275.77 267.953C1275.36 268.41 1274.9 268.753 1274.37 268.981C1273.85 269.21 1273.27 269.324 1272.65 269.324C1272.34 269.324 1272.08 269.307 1271.85 269.271C1271.63 269.242 1271.44 269.21 1271.28 269.175V267.048C1271.41 267.077 1271.56 267.104 1271.75 267.127C1271.94 267.15 1272.13 267.162 1272.34 267.162C1272.71 267.162 1273.04 267.083 1273.3 266.925C1273.57 266.767 1273.8 266.553 1273.98 266.283C1274.16 266.02 1274.31 265.729 1274.41 265.413L1274.57 264.93L1270.67 255.174Z" fill="white"/>
<path d="M1308.5 246C1315.41 246 1321 251.595 1321 258.5C1321 265.405 1315.41 271 1308.5 271C1301.59 271 1296 265.405 1296 258.5C1296 251.595 1301.59 246 1308.5 246ZM1314.24 257.643L1307.41 250.814C1306.94 250.34 1306.17 250.34 1305.7 250.814L1304.85 251.67C1304.37 252.144 1304.37 252.91 1304.85 253.379L1309.97 258.5L1304.85 263.621C1304.37 264.095 1304.37 264.861 1304.85 265.33L1305.7 266.186C1306.18 266.66 1306.94 266.66 1307.41 266.186L1314.24 259.357C1314.71 258.883 1314.71 258.117 1314.24 257.643Z" fill="white"/>
<rect x="1116.5" y="230.5" width="221" height="56" rx="28" stroke="white" shape-rendering="crispEdges"/>
</g>
</g>
<defs>
<filter id="filter0_d_1796_7837" x="1104" y="222" width="246" height="81" filterUnits="userSpaceOnUse" color-interpolation-filters="sRGB">
<feFlood flood-opacity="0" result="BackgroundImageFix"/>
<feColorMatrix in="SourceAlpha" type="matrix" values="0 0 0 0 0 0 0 0 0 0 0 0 0 0 0 0 0 0 127 0" result="hardAlpha"/>
<feOffset dy="4"/>
<feGaussianBlur stdDeviation="6"/>
<feComposite in2="hardAlpha" operator="out"/>
<feColorMatrix type="matrix" values="0 0 0 0 0 0 0 0 0 0 0 0 0 0 0 0 0 0 0.25 0"/>
<feBlend mode="normal" in2="BackgroundImageFix" result="effect1_dropShadow_1796_7837"/>
<feBlend mode="normal" in="SourceGraphic" in2="effect1_dropShadow_1796_7837" result="shape"/>
</filter>
<linearGradient id="paint0_linear_1796_7837" x1="720" y1="0" x2="720" y2="350" gradientUnits="userSpaceOnUse">
<stop stop-color="#F65275"/>
<stop offset="1" stop-color="#FFB81C"/>
</linearGradient>
<clipPath id="clip0_1796_7837">
<rect width="1440" height="350" fill="white"/>
</clipPath>
</defs>
</svg>
