<svg width="1440" height="350" viewBox="0 0 1440 350" fill="none" xmlns="http://www.w3.org/2000/svg">
<g clip-path="url(#clip0_1797_7973)">
<rect width="1440" height="350" fill="white"/>
<rect width="1440" height="350" fill="url(#paint0_linear_1797_7973)"/>
<path d="M125.094 106.312V135.875C125.094 139.438 124.406 142.469 123.031 144.969C121.656 147.448 119.677 149.344 117.094 150.656C114.531 151.969 111.458 152.625 107.875 152.625C102.438 152.625 98.2604 151.156 95.3438 148.219C92.4271 145.26 90.9688 141.104 90.9688 135.75V106.312H94.1562V135.75C94.1562 140.333 95.3438 143.823 97.7188 146.219C100.115 148.594 103.552 149.781 108.031 149.781C110.969 149.781 113.469 149.26 115.531 148.219C117.594 147.156 119.167 145.615 120.25 143.594C121.333 141.552 121.875 139.083 121.875 136.188V106.312H125.094ZM151.75 117.375C156.125 117.375 159.51 118.844 161.906 121.781C164.323 124.719 165.531 129.052 165.531 134.781C165.531 138.615 164.958 141.865 163.812 144.531C162.667 147.177 161.031 149.188 158.906 150.562C156.802 151.938 154.271 152.625 151.312 152.625C149.271 152.625 147.49 152.323 145.969 151.719C144.469 151.094 143.219 150.26 142.219 149.219C141.219 148.156 140.448 146.99 139.906 145.719H139.688C139.75 146.906 139.802 148.146 139.844 149.438C139.885 150.729 139.906 151.948 139.906 153.094V167.031H136.719V118.031H139.344L139.719 124.812H139.906C140.469 123.521 141.26 122.302 142.281 121.156C143.302 120.01 144.594 119.094 146.156 118.406C147.719 117.719 149.583 117.375 151.75 117.375ZM151.344 120.156C148.781 120.156 146.646 120.719 144.938 121.844C143.25 122.948 141.99 124.573 141.156 126.719C140.344 128.844 139.927 131.448 139.906 134.531V135.062C139.906 138.375 140.312 141.135 141.125 143.344C141.958 145.531 143.198 147.167 144.844 148.25C146.51 149.333 148.573 149.875 151.031 149.875C153.448 149.875 155.49 149.281 157.156 148.094C158.823 146.906 160.094 145.188 160.969 142.938C161.844 140.688 162.281 137.958 162.281 134.75C162.281 129.979 161.365 126.354 159.531 123.875C157.719 121.396 154.99 120.156 151.344 120.156ZM188.438 152.625C185.062 152.625 182.208 151.927 179.875 150.531C177.562 149.115 175.812 147.104 174.625 144.5C173.458 141.875 172.875 138.771 172.875 135.188C172.875 131.458 173.552 128.271 174.906 125.625C176.26 122.958 178.167 120.917 180.625 119.5C183.083 118.083 185.969 117.375 189.281 117.375C190.906 117.375 192.417 117.521 193.812 117.812C195.208 118.104 196.469 118.51 197.594 119.031L196.75 121.812C195.583 121.292 194.344 120.896 193.031 120.625C191.719 120.354 190.458 120.219 189.25 120.219C186.458 120.219 184.083 120.833 182.125 122.062C180.188 123.271 178.698 125 177.656 127.25C176.635 129.479 176.125 132.115 176.125 135.156C176.125 138.01 176.562 140.542 177.438 142.75C178.312 144.938 179.656 146.667 181.469 147.938C183.281 149.188 185.604 149.812 188.438 149.812C190.083 149.812 191.646 149.646 193.125 149.312C194.625 148.979 195.99 148.552 197.219 148.031V150.906C196.115 151.406 194.833 151.812 193.375 152.125C191.938 152.458 190.292 152.625 188.438 152.625ZM233.438 134.969C233.438 137.594 233.115 139.99 232.469 142.156C231.823 144.302 230.865 146.156 229.594 147.719C228.323 149.281 226.74 150.49 224.844 151.344C222.969 152.198 220.781 152.625 218.281 152.625C215.906 152.625 213.792 152.208 211.938 151.375C210.083 150.521 208.51 149.312 207.219 147.75C205.948 146.188 204.979 144.333 204.312 142.188C203.646 140.021 203.312 137.615 203.312 134.969C203.312 131.323 203.917 128.188 205.125 125.562C206.354 122.917 208.104 120.896 210.375 119.5C212.667 118.083 215.406 117.375 218.594 117.375C221.885 117.375 224.625 118.125 226.812 119.625C229.021 121.104 230.677 123.167 231.781 125.812C232.885 128.458 233.438 131.51 233.438 134.969ZM206.562 134.969C206.562 137.948 206.99 140.552 207.844 142.781C208.698 145.01 209.99 146.75 211.719 148C213.469 149.25 215.677 149.875 218.344 149.875C221.073 149.875 223.312 149.25 225.062 148C226.812 146.75 228.104 145 228.938 142.75C229.771 140.5 230.188 137.906 230.188 134.969C230.188 132.115 229.792 129.573 229 127.344C228.208 125.115 226.958 123.365 225.25 122.094C223.542 120.802 221.312 120.156 218.562 120.156C214.625 120.156 211.635 121.469 209.594 124.094C207.573 126.719 206.562 130.344 206.562 134.969ZM277.875 117.375C281.146 117.375 283.729 118.323 285.625 120.219C287.521 122.115 288.469 125.104 288.469 129.188V152H285.375V129.312C285.375 126.167 284.656 123.854 283.219 122.375C281.781 120.896 279.885 120.156 277.531 120.156C274.302 120.156 271.771 121.104 269.938 123C268.125 124.875 267.219 127.833 267.219 131.875V152H264.094V129.312C264.094 127.208 263.76 125.49 263.094 124.156C262.448 122.802 261.542 121.802 260.375 121.156C259.208 120.49 257.833 120.156 256.25 120.156C254.146 120.156 252.323 120.594 250.781 121.469C249.24 122.323 248.052 123.656 247.219 125.469C246.385 127.26 245.969 129.542 245.969 132.312V152H242.812V118.031H245.375L245.844 123.594H246.031C246.594 122.49 247.344 121.469 248.281 120.531C249.219 119.594 250.375 118.833 251.75 118.25C253.146 117.667 254.781 117.375 256.656 117.375C259.094 117.375 261.156 117.927 262.844 119.031C264.552 120.115 265.74 121.729 266.406 123.875H266.625C267.542 121.833 268.958 120.24 270.875 119.094C272.812 117.948 275.146 117.375 277.875 117.375ZM302.531 118.031V152H299.375V118.031H302.531ZM301 105.469C301.792 105.469 302.375 105.708 302.75 106.188C303.125 106.646 303.312 107.271 303.312 108.062C303.312 108.854 303.125 109.479 302.75 109.938C302.375 110.396 301.792 110.625 301 110.625C300.25 110.625 299.688 110.396 299.312 109.938C298.938 109.479 298.75 108.854 298.75 108.062C298.75 107.271 298.938 106.646 299.312 106.188C299.688 105.708 300.25 105.469 301 105.469ZM328.844 117.375C332.656 117.375 335.583 118.375 337.625 120.375C339.667 122.375 340.688 125.51 340.688 129.781V152H337.562V129.969C337.562 126.594 336.792 124.115 335.25 122.531C333.708 120.948 331.469 120.156 328.531 120.156C324.802 120.156 321.948 121.25 319.969 123.438C318.01 125.604 317.031 128.885 317.031 133.281V152H313.875V118.031H316.438L316.906 124.219H317.094C317.698 122.948 318.521 121.802 319.562 120.781C320.625 119.74 321.927 118.917 323.469 118.312C325.01 117.688 326.802 117.375 328.844 117.375ZM360.688 167.375C356.417 167.375 353.094 166.552 350.719 164.906C348.365 163.26 347.188 160.958 347.188 158C347.188 155.708 347.906 153.729 349.344 152.062C350.781 150.417 352.729 149.427 355.188 149.094C354.208 148.635 353.406 148.01 352.781 147.219C352.177 146.427 351.875 145.51 351.875 144.469C351.875 143.302 352.24 142.219 352.969 141.219C353.698 140.198 354.792 139.26 356.25 138.406C354.292 137.698 352.75 136.5 351.625 134.812C350.5 133.104 349.938 131.052 349.938 128.656C349.938 126.365 350.427 124.375 351.406 122.688C352.385 121 353.771 119.698 355.562 118.781C357.375 117.844 359.51 117.375 361.969 117.375C362.719 117.375 363.396 117.396 364 117.438C364.625 117.479 365.198 117.552 365.719 117.656C366.24 117.74 366.708 117.854 367.125 118H378.094V120.25L371.094 120.719C372.01 121.823 372.698 123.021 373.156 124.312C373.615 125.583 373.844 126.927 373.844 128.344C373.844 131.719 372.781 134.396 370.656 136.375C368.531 138.354 365.573 139.344 361.781 139.344C360.74 139.344 359.719 139.25 358.719 139.062C357.448 139.812 356.479 140.573 355.812 141.344C355.146 142.094 354.812 143.031 354.812 144.156C354.812 144.865 355.021 145.448 355.438 145.906C355.854 146.344 356.458 146.688 357.25 146.938C358.042 147.167 359.01 147.281 360.156 147.281H366.125C369.812 147.281 372.635 148.031 374.594 149.531C376.552 151.031 377.531 153.24 377.531 156.156C377.531 159.719 376.062 162.479 373.125 164.438C370.208 166.396 366.062 167.375 360.688 167.375ZM360.906 164.719C363.885 164.719 366.365 164.396 368.344 163.75C370.344 163.104 371.844 162.146 372.844 160.875C373.844 159.625 374.344 158.073 374.344 156.219C374.344 154.698 373.979 153.521 373.25 152.688C372.521 151.854 371.49 151.281 370.156 150.969C368.823 150.635 367.25 150.469 365.438 150.469H359.75C357.938 150.469 356.323 150.719 354.906 151.219C353.49 151.698 352.385 152.469 351.594 153.531C350.823 154.594 350.438 156.01 350.438 157.781C350.438 160.052 351.323 161.771 353.094 162.938C354.885 164.125 357.49 164.719 360.906 164.719ZM361.906 136.812C364.719 136.812 366.875 136.104 368.375 134.688C369.875 133.271 370.625 131.219 370.625 128.531C370.625 125.656 369.854 123.5 368.312 122.062C366.771 120.625 364.615 119.906 361.844 119.906C359.156 119.906 357.042 120.677 355.5 122.219C353.979 123.74 353.219 125.885 353.219 128.656C353.219 131.24 353.948 133.25 355.406 134.688C356.865 136.104 359.031 136.812 361.906 136.812ZM427.344 152H402.375V106.312H427.344V109.219H405.594V126.531H426.125V129.438H405.594V149.094H427.344V152ZM444.344 152L431.312 118.031H434.656L443.375 141.188C443.917 142.583 444.396 143.927 444.812 145.219C445.25 146.49 445.615 147.646 445.906 148.688H446.062C446.396 147.646 446.771 146.479 447.188 145.188C447.625 143.896 448.104 142.562 448.625 141.188L457.344 118.031H460.719L447.656 152H444.344ZM479.25 117.375C482.146 117.375 484.552 118.052 486.469 119.406C488.406 120.76 489.844 122.615 490.781 124.969C491.74 127.323 492.219 130.021 492.219 133.062V135.344H467.688C467.688 140.01 468.76 143.594 470.906 146.094C473.073 148.594 476.167 149.844 480.188 149.844C482.292 149.844 484.115 149.677 485.656 149.344C487.219 148.99 488.948 148.396 490.844 147.562V150.469C489.177 151.219 487.51 151.76 485.844 152.094C484.177 152.448 482.26 152.625 480.094 152.625C476.656 152.625 473.771 151.917 471.438 150.5C469.125 149.062 467.375 147.042 466.188 144.438C465.021 141.833 464.438 138.792 464.438 135.312C464.438 131.917 465 128.865 466.125 126.156C467.271 123.448 468.938 121.312 471.125 119.75C473.333 118.167 476.042 117.375 479.25 117.375ZM479.219 120.094C475.969 120.094 473.333 121.177 471.312 123.344C469.312 125.49 468.135 128.594 467.781 132.656H488.938C488.938 130.177 488.583 127.99 487.875 126.094C487.167 124.198 486.094 122.729 484.656 121.688C483.24 120.625 481.427 120.094 479.219 120.094ZM516.531 117.375C520.344 117.375 523.271 118.375 525.312 120.375C527.354 122.375 528.375 125.51 528.375 129.781V152H525.25V129.969C525.25 126.594 524.479 124.115 522.938 122.531C521.396 120.948 519.156 120.156 516.219 120.156C512.49 120.156 509.635 121.25 507.656 123.438C505.698 125.604 504.719 128.885 504.719 133.281V152H501.562V118.031H504.125L504.594 124.219H504.781C505.385 122.948 506.208 121.802 507.25 120.781C508.312 119.74 509.615 118.917 511.156 118.312C512.698 117.688 514.49 117.375 516.531 117.375ZM548.562 149.906C549.542 149.906 550.448 149.833 551.281 149.688C552.135 149.542 552.885 149.354 553.531 149.125V151.75C552.865 151.979 552.083 152.177 551.188 152.344C550.292 152.531 549.302 152.625 548.219 152.625C546.302 152.625 544.708 152.271 543.438 151.562C542.167 150.833 541.208 149.74 540.562 148.281C539.917 146.802 539.594 144.927 539.594 142.656V120.656H534.531V118.781L539.562 117.812L540.656 109.812H542.75V118.031H553.344V120.656H542.75V142.469C542.75 144.906 543.198 146.76 544.094 148.031C545.01 149.281 546.5 149.906 548.562 149.906ZM582.062 143.094C582.062 145.115 581.552 146.844 580.531 148.281C579.531 149.698 578.062 150.781 576.125 151.531C574.188 152.26 571.802 152.625 568.969 152.625C566.615 152.625 564.51 152.417 562.656 152C560.802 151.583 559.25 151.073 558 150.469V147.344C559.562 148.115 561.292 148.74 563.188 149.219C565.083 149.698 567.031 149.938 569.031 149.938C572.531 149.938 575.052 149.344 576.594 148.156C578.135 146.969 578.906 145.344 578.906 143.281C578.906 141.927 578.521 140.812 577.75 139.938C577 139.042 575.917 138.271 574.5 137.625C573.083 136.979 571.375 136.323 569.375 135.656C567.292 134.948 565.438 134.25 563.812 133.562C562.208 132.854 560.948 131.927 560.031 130.781C559.115 129.615 558.656 128.031 558.656 126.031C558.656 123.302 559.75 121.177 561.938 119.656C564.125 118.135 567.062 117.375 570.75 117.375C572.792 117.375 574.688 117.573 576.438 117.969C578.208 118.344 579.812 118.833 581.25 119.438L580.125 122.125C578.833 121.521 577.344 121.031 575.656 120.656C573.969 120.281 572.281 120.094 570.594 120.094C567.823 120.094 565.656 120.583 564.094 121.562C562.531 122.542 561.75 123.979 561.75 125.875C561.75 127.333 562.125 128.479 562.875 129.312C563.625 130.125 564.698 130.812 566.094 131.375C567.49 131.917 569.146 132.521 571.062 133.188C573.042 133.875 574.865 134.594 576.531 135.344C578.219 136.094 579.562 137.062 580.562 138.25C581.562 139.438 582.062 141.052 582.062 143.094ZM100.598 194.867L94.7734 212H90.8125L85 194.867H88.668L91.8906 205.062C91.9453 205.234 92.0352 205.559 92.1602 206.035C92.2852 206.504 92.4102 207.004 92.5352 207.535C92.668 208.059 92.7578 208.492 92.8047 208.836C92.8516 208.492 92.9336 208.059 93.0508 207.535C93.1758 207.012 93.2969 206.516 93.4141 206.047C93.5391 205.57 93.6289 205.242 93.6836 205.062L96.9297 194.867H100.598ZM106.059 198.898V212H102.484V198.898H106.059ZM104.277 193.766C104.809 193.766 105.266 193.891 105.648 194.141C106.031 194.383 106.223 194.84 106.223 195.512C106.223 196.176 106.031 196.637 105.648 196.895C105.266 197.145 104.809 197.27 104.277 197.27C103.738 197.27 103.277 197.145 102.895 196.895C102.52 196.637 102.332 196.176 102.332 195.512C102.332 194.84 102.52 194.383 102.895 194.141C103.277 193.891 103.738 193.766 104.277 193.766ZM118.961 208.109C118.961 209 118.75 209.754 118.328 210.371C117.914 210.98 117.293 211.445 116.465 211.766C115.637 212.078 114.605 212.234 113.371 212.234C112.457 212.234 111.672 212.176 111.016 212.059C110.367 211.941 109.711 211.746 109.047 211.473V208.52C109.758 208.84 110.52 209.105 111.332 209.316C112.152 209.52 112.871 209.621 113.488 209.621C114.184 209.621 114.68 209.52 114.977 209.316C115.281 209.105 115.434 208.832 115.434 208.496C115.434 208.277 115.371 208.082 115.246 207.91C115.129 207.73 114.871 207.531 114.473 207.312C114.074 207.086 113.449 206.793 112.598 206.434C111.777 206.09 111.102 205.742 110.57 205.391C110.047 205.039 109.656 204.625 109.398 204.148C109.148 203.664 109.023 203.051 109.023 202.309C109.023 201.098 109.492 200.188 110.43 199.578C111.375 198.961 112.637 198.652 114.215 198.652C115.027 198.652 115.801 198.734 116.535 198.898C117.277 199.062 118.039 199.324 118.82 199.684L117.742 202.262C117.094 201.98 116.48 201.75 115.902 201.57C115.332 201.391 114.75 201.301 114.156 201.301C113.633 201.301 113.238 201.371 112.973 201.512C112.707 201.652 112.574 201.867 112.574 202.156C112.574 202.367 112.641 202.555 112.773 202.719C112.914 202.883 113.18 203.066 113.57 203.27C113.969 203.465 114.551 203.719 115.316 204.031C116.059 204.336 116.703 204.656 117.25 204.992C117.797 205.32 118.219 205.73 118.516 206.223C118.812 206.707 118.961 207.336 118.961 208.109ZM125.324 198.898V212H121.75V198.898H125.324ZM123.543 193.766C124.074 193.766 124.531 193.891 124.914 194.141C125.297 194.383 125.488 194.84 125.488 195.512C125.488 196.176 125.297 196.637 124.914 196.895C124.531 197.145 124.074 197.27 123.543 197.27C123.004 197.27 122.543 197.145 122.16 196.895C121.785 196.637 121.598 196.176 121.598 195.512C121.598 194.84 121.785 194.383 122.16 194.141C122.543 193.891 123.004 193.766 123.543 193.766ZM134.605 209.387C134.996 209.387 135.375 209.348 135.742 209.27C136.117 209.191 136.488 209.094 136.855 208.977V211.637C136.473 211.809 135.996 211.949 135.426 212.059C134.863 212.176 134.246 212.234 133.574 212.234C132.793 212.234 132.09 212.109 131.465 211.859C130.848 211.602 130.359 211.16 130 210.535C129.648 209.902 129.473 209.023 129.473 207.898V201.582H127.762V200.07L129.73 198.875L130.762 196.109H133.047V198.898H136.715V201.582H133.047V207.898C133.047 208.398 133.188 208.773 133.469 209.023C133.758 209.266 134.137 209.387 134.605 209.387ZM157.656 205.426C157.656 206.52 157.508 207.488 157.211 208.332C156.922 209.176 156.496 209.891 155.934 210.477C155.379 211.055 154.707 211.492 153.918 211.789C153.137 212.086 152.254 212.234 151.27 212.234C150.348 212.234 149.5 212.086 148.727 211.789C147.961 211.492 147.293 211.055 146.723 210.477C146.16 209.891 145.723 209.176 145.41 208.332C145.105 207.488 144.953 206.52 144.953 205.426C144.953 203.973 145.211 202.742 145.727 201.734C146.242 200.727 146.977 199.961 147.93 199.438C148.883 198.914 150.02 198.652 151.34 198.652C152.566 198.652 153.652 198.914 154.598 199.438C155.551 199.961 156.297 200.727 156.836 201.734C157.383 202.742 157.656 203.973 157.656 205.426ZM148.598 205.426C148.598 206.285 148.691 207.008 148.879 207.594C149.066 208.18 149.359 208.621 149.758 208.918C150.156 209.215 150.676 209.363 151.316 209.363C151.949 209.363 152.461 209.215 152.852 208.918C153.25 208.621 153.539 208.18 153.719 207.594C153.906 207.008 154 206.285 154 205.426C154 204.559 153.906 203.84 153.719 203.27C153.539 202.691 153.25 202.258 152.852 201.969C152.453 201.68 151.934 201.535 151.293 201.535C150.348 201.535 149.66 201.859 149.23 202.508C148.809 203.156 148.598 204.129 148.598 205.426ZM172.633 198.898V212H169.891L169.41 210.324H169.223C168.941 210.77 168.59 211.133 168.168 211.414C167.746 211.695 167.281 211.902 166.773 212.035C166.266 212.168 165.738 212.234 165.191 212.234C164.254 212.234 163.438 212.07 162.742 211.742C162.047 211.406 161.504 210.887 161.113 210.184C160.73 209.48 160.539 208.566 160.539 207.441V198.898H164.113V206.551C164.113 207.488 164.281 208.195 164.617 208.672C164.953 209.148 165.488 209.387 166.223 209.387C166.949 209.387 167.52 209.223 167.934 208.895C168.348 208.559 168.637 208.07 168.801 207.43C168.973 206.781 169.059 205.992 169.059 205.062V198.898H172.633ZM183.695 198.652C183.875 198.652 184.082 198.664 184.316 198.688C184.559 198.703 184.754 198.727 184.902 198.758L184.633 202.109C184.516 202.07 184.348 202.043 184.129 202.027C183.918 202.004 183.734 201.992 183.578 201.992C183.117 201.992 182.668 202.051 182.23 202.168C181.801 202.285 181.414 202.477 181.07 202.742C180.727 203 180.453 203.344 180.25 203.773C180.055 204.195 179.957 204.715 179.957 205.332V212H176.383V198.898H179.09L179.617 201.102H179.793C180.051 200.656 180.371 200.25 180.754 199.883C181.145 199.508 181.586 199.211 182.078 198.992C182.578 198.766 183.117 198.652 183.695 198.652ZM198.918 198.652C200.129 198.652 201.172 198.887 202.047 199.355C202.922 199.816 203.598 200.488 204.074 201.371C204.551 202.254 204.789 203.332 204.789 204.605V206.34H196.34C196.379 207.348 196.68 208.141 197.242 208.719C197.812 209.289 198.602 209.574 199.609 209.574C200.445 209.574 201.211 209.488 201.906 209.316C202.602 209.145 203.316 208.887 204.051 208.543V211.309C203.402 211.629 202.723 211.863 202.012 212.012C201.309 212.16 200.453 212.234 199.445 212.234C198.133 212.234 196.969 211.992 195.953 211.508C194.945 211.023 194.152 210.285 193.574 209.293C193.004 208.301 192.719 207.051 192.719 205.543C192.719 204.012 192.977 202.738 193.492 201.723C194.016 200.699 194.742 199.934 195.672 199.426C196.602 198.91 197.684 198.652 198.918 198.652ZM198.941 201.195C198.246 201.195 197.668 201.418 197.207 201.863C196.754 202.309 196.492 203.008 196.422 203.961H201.438C201.43 203.43 201.332 202.957 201.145 202.543C200.965 202.129 200.691 201.801 200.324 201.559C199.965 201.316 199.504 201.195 198.941 201.195ZM210.812 212L205.82 198.898H209.559L212.09 206.363C212.23 206.801 212.34 207.262 212.418 207.746C212.504 208.23 212.562 208.664 212.594 209.047H212.688C212.711 208.633 212.766 208.191 212.852 207.723C212.945 207.254 213.066 206.801 213.215 206.363L215.734 198.898H219.473L214.48 212H210.812ZM226.762 198.652C227.973 198.652 229.016 198.887 229.891 199.355C230.766 199.816 231.441 200.488 231.918 201.371C232.395 202.254 232.633 203.332 232.633 204.605V206.34H224.184C224.223 207.348 224.523 208.141 225.086 208.719C225.656 209.289 226.445 209.574 227.453 209.574C228.289 209.574 229.055 209.488 229.75 209.316C230.445 209.145 231.16 208.887 231.895 208.543V211.309C231.246 211.629 230.566 211.863 229.855 212.012C229.152 212.16 228.297 212.234 227.289 212.234C225.977 212.234 224.812 211.992 223.797 211.508C222.789 211.023 221.996 210.285 221.418 209.293C220.848 208.301 220.562 207.051 220.562 205.543C220.562 204.012 220.82 202.738 221.336 201.723C221.859 200.699 222.586 199.934 223.516 199.426C224.445 198.91 225.527 198.652 226.762 198.652ZM226.785 201.195C226.09 201.195 225.512 201.418 225.051 201.863C224.598 202.309 224.336 203.008 224.266 203.961H229.281C229.273 203.43 229.176 202.957 228.988 202.543C228.809 202.129 228.535 201.801 228.168 201.559C227.809 201.316 227.348 201.195 226.785 201.195ZM242.98 198.652C244.379 198.652 245.504 199.035 246.355 199.801C247.207 200.559 247.633 201.777 247.633 203.457V212H244.059V204.348C244.059 203.41 243.887 202.703 243.543 202.227C243.207 201.75 242.676 201.512 241.949 201.512C240.855 201.512 240.109 201.883 239.711 202.625C239.312 203.367 239.113 204.438 239.113 205.836V212H235.539V198.898H238.27L238.75 200.574H238.949C239.23 200.121 239.578 199.754 239.992 199.473C240.414 199.191 240.879 198.984 241.387 198.852C241.902 198.719 242.434 198.652 242.98 198.652ZM256.832 209.387C257.223 209.387 257.602 209.348 257.969 209.27C258.344 209.191 258.715 209.094 259.082 208.977V211.637C258.699 211.809 258.223 211.949 257.652 212.059C257.09 212.176 256.473 212.234 255.801 212.234C255.02 212.234 254.316 212.109 253.691 211.859C253.074 211.602 252.586 211.16 252.227 210.535C251.875 209.902 251.699 209.023 251.699 207.898V201.582H249.988V200.07L251.957 198.875L252.988 196.109H255.273V198.898H258.941V201.582H255.273V207.898C255.273 208.398 255.414 208.773 255.695 209.023C255.984 209.266 256.363 209.387 256.832 209.387ZM270.883 208.109C270.883 209 270.672 209.754 270.25 210.371C269.836 210.98 269.215 211.445 268.387 211.766C267.559 212.078 266.527 212.234 265.293 212.234C264.379 212.234 263.594 212.176 262.938 212.059C262.289 211.941 261.633 211.746 260.969 211.473V208.52C261.68 208.84 262.441 209.105 263.254 209.316C264.074 209.52 264.793 209.621 265.41 209.621C266.105 209.621 266.602 209.52 266.898 209.316C267.203 209.105 267.355 208.832 267.355 208.496C267.355 208.277 267.293 208.082 267.168 207.91C267.051 207.73 266.793 207.531 266.395 207.312C265.996 207.086 265.371 206.793 264.52 206.434C263.699 206.09 263.023 205.742 262.492 205.391C261.969 205.039 261.578 204.625 261.32 204.148C261.07 203.664 260.945 203.051 260.945 202.309C260.945 201.098 261.414 200.188 262.352 199.578C263.297 198.961 264.559 198.652 266.137 198.652C266.949 198.652 267.723 198.734 268.457 198.898C269.199 199.062 269.961 199.324 270.742 199.684L269.664 202.262C269.016 201.98 268.402 201.75 267.824 201.57C267.254 201.391 266.672 201.301 266.078 201.301C265.555 201.301 265.16 201.371 264.895 201.512C264.629 201.652 264.496 201.867 264.496 202.156C264.496 202.367 264.562 202.555 264.695 202.719C264.836 202.883 265.102 203.066 265.492 203.27C265.891 203.465 266.473 203.719 267.238 204.031C267.98 204.336 268.625 204.656 269.172 204.992C269.719 205.32 270.141 205.73 270.438 206.223C270.734 206.707 270.883 207.336 270.883 208.109ZM287.195 198.652C288.672 198.652 289.863 199.227 290.77 200.375C291.684 201.523 292.141 203.207 292.141 205.426C292.141 206.91 291.926 208.16 291.496 209.176C291.066 210.184 290.473 210.945 289.715 211.461C288.957 211.977 288.086 212.234 287.102 212.234C286.469 212.234 285.926 212.156 285.473 212C285.02 211.836 284.633 211.629 284.312 211.379C283.992 211.121 283.715 210.848 283.48 210.559H283.293C283.355 210.871 283.402 211.191 283.434 211.52C283.465 211.848 283.48 212.168 283.48 212.48V217.766H279.906V198.898H282.812L283.316 200.598H283.48C283.715 200.246 284 199.922 284.336 199.625C284.672 199.328 285.074 199.094 285.543 198.922C286.02 198.742 286.57 198.652 287.195 198.652ZM286.047 201.512C285.422 201.512 284.926 201.641 284.559 201.898C284.191 202.156 283.922 202.543 283.75 203.059C283.586 203.574 283.496 204.227 283.48 205.016V205.402C283.48 206.246 283.559 206.961 283.715 207.547C283.879 208.133 284.148 208.578 284.523 208.883C284.906 209.188 285.43 209.34 286.094 209.34C286.641 209.34 287.09 209.188 287.441 208.883C287.793 208.578 288.055 208.133 288.227 207.547C288.406 206.953 288.496 206.23 288.496 205.379C288.496 204.098 288.297 203.133 287.898 202.484C287.5 201.836 286.883 201.512 286.047 201.512ZM300.461 198.629C302.219 198.629 303.566 199.012 304.504 199.777C305.441 200.543 305.91 201.707 305.91 203.27V212H303.414L302.723 210.219H302.629C302.254 210.688 301.871 211.07 301.48 211.367C301.09 211.664 300.641 211.883 300.133 212.023C299.625 212.164 299.008 212.234 298.281 212.234C297.508 212.234 296.812 212.086 296.195 211.789C295.586 211.492 295.105 211.039 294.754 210.43C294.402 209.812 294.227 209.031 294.227 208.086C294.227 206.695 294.715 205.672 295.691 205.016C296.668 204.352 298.133 203.984 300.086 203.914L302.359 203.844V203.27C302.359 202.582 302.18 202.078 301.82 201.758C301.461 201.438 300.961 201.277 300.32 201.277C299.688 201.277 299.066 201.367 298.457 201.547C297.848 201.727 297.238 201.953 296.629 202.227L295.445 199.812C296.141 199.445 296.918 199.156 297.777 198.945C298.645 198.734 299.539 198.629 300.461 198.629ZM302.359 205.93L300.977 205.977C299.82 206.008 299.016 206.215 298.562 206.598C298.117 206.98 297.895 207.484 297.895 208.109C297.895 208.656 298.055 209.047 298.375 209.281C298.695 209.508 299.113 209.621 299.629 209.621C300.395 209.621 301.039 209.395 301.562 208.941C302.094 208.488 302.359 207.844 302.359 207.008V205.93ZM313.434 217.766C311.605 217.766 310.207 217.445 309.238 216.805C308.277 216.172 307.797 215.281 307.797 214.133C307.797 213.344 308.043 212.684 308.535 212.152C309.027 211.621 309.75 211.242 310.703 211.016C310.336 210.859 310.016 210.605 309.742 210.254C309.469 209.895 309.332 209.516 309.332 209.117C309.332 208.617 309.477 208.203 309.766 207.875C310.055 207.539 310.473 207.211 311.02 206.891C310.332 206.594 309.785 206.117 309.379 205.461C308.98 204.805 308.781 204.031 308.781 203.141C308.781 202.188 308.988 201.379 309.402 200.715C309.824 200.043 310.434 199.531 311.23 199.18C312.035 198.828 313.012 198.652 314.16 198.652C314.402 198.652 314.684 198.668 315.004 198.699C315.324 198.73 315.617 198.766 315.883 198.805C316.156 198.844 316.34 198.875 316.434 198.898H321.004V200.715L318.953 201.242C319.141 201.531 319.281 201.84 319.375 202.168C319.469 202.496 319.516 202.844 319.516 203.211C319.516 204.617 319.023 205.715 318.039 206.504C317.062 207.285 315.703 207.676 313.961 207.676C313.547 207.652 313.156 207.621 312.789 207.582C312.609 207.723 312.473 207.871 312.379 208.027C312.285 208.184 312.238 208.348 312.238 208.52C312.238 208.691 312.309 208.836 312.449 208.953C312.598 209.062 312.816 209.148 313.105 209.211C313.402 209.266 313.77 209.293 314.207 209.293H316.434C317.871 209.293 318.965 209.602 319.715 210.219C320.473 210.836 320.852 211.742 320.852 212.938C320.852 214.469 320.211 215.656 318.93 216.5C317.656 217.344 315.824 217.766 313.434 217.766ZM313.586 215.434C314.438 215.434 315.168 215.352 315.777 215.188C316.395 215.031 316.867 214.805 317.195 214.508C317.523 214.219 317.688 213.871 317.688 213.465C317.688 213.137 317.59 212.875 317.395 212.68C317.207 212.492 316.918 212.359 316.527 212.281C316.145 212.203 315.652 212.164 315.051 212.164H313.199C312.762 212.164 312.367 212.234 312.016 212.375C311.672 212.516 311.398 212.711 311.195 212.961C310.992 213.219 310.891 213.516 310.891 213.852C310.891 214.344 311.125 214.73 311.594 215.012C312.07 215.293 312.734 215.434 313.586 215.434ZM314.16 205.496C314.832 205.496 315.324 205.289 315.637 204.875C315.949 204.461 316.105 203.898 316.105 203.188C316.105 202.398 315.941 201.809 315.613 201.418C315.293 201.02 314.809 200.82 314.16 200.82C313.504 200.82 313.012 201.02 312.684 201.418C312.355 201.809 312.191 202.398 312.191 203.188C312.191 203.898 312.352 204.461 312.672 204.875C313 205.289 313.496 205.496 314.16 205.496ZM328.574 198.652C329.785 198.652 330.828 198.887 331.703 199.355C332.578 199.816 333.254 200.488 333.73 201.371C334.207 202.254 334.445 203.332 334.445 204.605V206.34H325.996C326.035 207.348 326.336 208.141 326.898 208.719C327.469 209.289 328.258 209.574 329.266 209.574C330.102 209.574 330.867 209.488 331.562 209.316C332.258 209.145 332.973 208.887 333.707 208.543V211.309C333.059 211.629 332.379 211.863 331.668 212.012C330.965 212.16 330.109 212.234 329.102 212.234C327.789 212.234 326.625 211.992 325.609 211.508C324.602 211.023 323.809 210.285 323.23 209.293C322.66 208.301 322.375 207.051 322.375 205.543C322.375 204.012 322.633 202.738 323.148 201.723C323.672 200.699 324.398 199.934 325.328 199.426C326.258 198.91 327.34 198.652 328.574 198.652ZM328.598 201.195C327.902 201.195 327.324 201.418 326.863 201.863C326.41 202.309 326.148 203.008 326.078 203.961H331.094C331.086 203.43 330.988 202.957 330.801 202.543C330.621 202.129 330.348 201.801 329.98 201.559C329.621 201.316 329.16 201.195 328.598 201.195ZM350.828 201.582H347.734V212H344.16V201.582H342.191V199.859L344.16 198.898V197.938C344.16 196.82 344.348 195.953 344.723 195.336C345.105 194.711 345.641 194.273 346.328 194.023C347.023 193.766 347.844 193.637 348.789 193.637C349.484 193.637 350.117 193.695 350.688 193.812C351.258 193.922 351.723 194.047 352.082 194.188L351.168 196.812C350.895 196.727 350.598 196.648 350.277 196.578C349.957 196.508 349.59 196.473 349.176 196.473C348.676 196.473 348.309 196.625 348.074 196.93C347.848 197.227 347.734 197.609 347.734 198.078V198.898H350.828V201.582ZM364.797 205.426C364.797 206.52 364.648 207.488 364.352 208.332C364.062 209.176 363.637 209.891 363.074 210.477C362.52 211.055 361.848 211.492 361.059 211.789C360.277 212.086 359.395 212.234 358.41 212.234C357.488 212.234 356.641 212.086 355.867 211.789C355.102 211.492 354.434 211.055 353.863 210.477C353.301 209.891 352.863 209.176 352.551 208.332C352.246 207.488 352.094 206.52 352.094 205.426C352.094 203.973 352.352 202.742 352.867 201.734C353.383 200.727 354.117 199.961 355.07 199.438C356.023 198.914 357.16 198.652 358.48 198.652C359.707 198.652 360.793 198.914 361.738 199.438C362.691 199.961 363.438 200.727 363.977 201.734C364.523 202.742 364.797 203.973 364.797 205.426ZM355.738 205.426C355.738 206.285 355.832 207.008 356.02 207.594C356.207 208.18 356.5 208.621 356.898 208.918C357.297 209.215 357.816 209.363 358.457 209.363C359.09 209.363 359.602 209.215 359.992 208.918C360.391 208.621 360.68 208.18 360.859 207.594C361.047 207.008 361.141 206.285 361.141 205.426C361.141 204.559 361.047 203.84 360.859 203.27C360.68 202.691 360.391 202.258 359.992 201.969C359.594 201.68 359.074 201.535 358.434 201.535C357.488 201.535 356.801 201.859 356.371 202.508C355.949 203.156 355.738 204.129 355.738 205.426ZM375.062 198.652C375.242 198.652 375.449 198.664 375.684 198.688C375.926 198.703 376.121 198.727 376.27 198.758L376 202.109C375.883 202.07 375.715 202.043 375.496 202.027C375.285 202.004 375.102 201.992 374.945 201.992C374.484 201.992 374.035 202.051 373.598 202.168C373.168 202.285 372.781 202.477 372.438 202.742C372.094 203 371.82 203.344 371.617 203.773C371.422 204.195 371.324 204.715 371.324 205.332V212H367.75V198.898H370.457L370.984 201.102H371.16C371.418 200.656 371.738 200.25 372.121 199.883C372.512 199.508 372.953 199.211 373.445 198.992C373.945 198.766 374.484 198.652 375.062 198.652ZM396.906 198.898V212H394.164L393.684 210.324H393.496C393.215 210.77 392.863 211.133 392.441 211.414C392.02 211.695 391.555 211.902 391.047 212.035C390.539 212.168 390.012 212.234 389.465 212.234C388.527 212.234 387.711 212.07 387.016 211.742C386.32 211.406 385.777 210.887 385.387 210.184C385.004 209.48 384.812 208.566 384.812 207.441V198.898H388.387V206.551C388.387 207.488 388.555 208.195 388.891 208.672C389.227 209.148 389.762 209.387 390.496 209.387C391.223 209.387 391.793 209.223 392.207 208.895C392.621 208.559 392.91 208.07 393.074 207.43C393.246 206.781 393.332 205.992 393.332 205.062V198.898H396.906ZM407.945 198.652C409.422 198.652 410.613 199.227 411.52 200.375C412.434 201.523 412.891 203.207 412.891 205.426C412.891 206.91 412.676 208.16 412.246 209.176C411.816 210.184 411.223 210.945 410.465 211.461C409.707 211.977 408.836 212.234 407.852 212.234C407.219 212.234 406.676 212.156 406.223 212C405.77 211.836 405.383 211.629 405.062 211.379C404.742 211.121 404.465 210.848 404.23 210.559H404.043C404.105 210.871 404.152 211.191 404.184 211.52C404.215 211.848 404.23 212.168 404.23 212.48V217.766H400.656V198.898H403.562L404.066 200.598H404.23C404.465 200.246 404.75 199.922 405.086 199.625C405.422 199.328 405.824 199.094 406.293 198.922C406.77 198.742 407.32 198.652 407.945 198.652ZM406.797 201.512C406.172 201.512 405.676 201.641 405.309 201.898C404.941 202.156 404.672 202.543 404.5 203.059C404.336 203.574 404.246 204.227 404.23 205.016V205.402C404.23 206.246 404.309 206.961 404.465 207.547C404.629 208.133 404.898 208.578 405.273 208.883C405.656 209.188 406.18 209.34 406.844 209.34C407.391 209.34 407.84 209.188 408.191 208.883C408.543 208.578 408.805 208.133 408.977 207.547C409.156 206.953 409.246 206.23 409.246 205.379C409.246 204.098 409.047 203.133 408.648 202.484C408.25 201.836 407.633 201.512 406.797 201.512ZM421.164 212.234C419.867 212.234 418.762 212 417.848 211.531C416.934 211.055 416.238 210.32 415.762 209.328C415.285 208.336 415.047 207.066 415.047 205.52C415.047 203.918 415.316 202.613 415.855 201.605C416.402 200.59 417.156 199.844 418.117 199.367C419.086 198.891 420.207 198.652 421.48 198.652C422.387 198.652 423.168 198.742 423.824 198.922C424.488 199.094 425.066 199.301 425.559 199.543L424.504 202.309C423.941 202.082 423.418 201.898 422.934 201.758C422.449 201.609 421.965 201.535 421.48 201.535C420.855 201.535 420.336 201.684 419.922 201.98C419.508 202.27 419.199 202.707 418.996 203.293C418.793 203.879 418.691 204.613 418.691 205.496C418.691 206.363 418.801 207.082 419.02 207.652C419.238 208.223 419.555 208.648 419.969 208.93C420.383 209.203 420.887 209.34 421.48 209.34C422.223 209.34 422.883 209.242 423.461 209.047C424.039 208.844 424.602 208.562 425.148 208.203V211.262C424.602 211.605 424.027 211.852 423.426 212C422.832 212.156 422.078 212.234 421.164 212.234ZM440.102 205.426C440.102 206.52 439.953 207.488 439.656 208.332C439.367 209.176 438.941 209.891 438.379 210.477C437.824 211.055 437.152 211.492 436.363 211.789C435.582 212.086 434.699 212.234 433.715 212.234C432.793 212.234 431.945 212.086 431.172 211.789C430.406 211.492 429.738 211.055 429.168 210.477C428.605 209.891 428.168 209.176 427.855 208.332C427.551 207.488 427.398 206.52 427.398 205.426C427.398 203.973 427.656 202.742 428.172 201.734C428.688 200.727 429.422 199.961 430.375 199.438C431.328 198.914 432.465 198.652 433.785 198.652C435.012 198.652 436.098 198.914 437.043 199.438C437.996 199.961 438.742 200.727 439.281 201.734C439.828 202.742 440.102 203.973 440.102 205.426ZM431.043 205.426C431.043 206.285 431.137 207.008 431.324 207.594C431.512 208.18 431.805 208.621 432.203 208.918C432.602 209.215 433.121 209.363 433.762 209.363C434.395 209.363 434.906 209.215 435.297 208.918C435.695 208.621 435.984 208.18 436.164 207.594C436.352 207.008 436.445 206.285 436.445 205.426C436.445 204.559 436.352 203.84 436.164 203.27C435.984 202.691 435.695 202.258 435.297 201.969C434.898 201.68 434.379 201.535 433.738 201.535C432.793 201.535 432.105 201.859 431.676 202.508C431.254 203.156 431.043 204.129 431.043 205.426ZM458.441 198.652C459.926 198.652 461.047 199.035 461.805 199.801C462.57 200.559 462.953 201.777 462.953 203.457V212H459.367V204.348C459.367 203.41 459.207 202.703 458.887 202.227C458.566 201.75 458.07 201.512 457.398 201.512C456.453 201.512 455.781 201.852 455.383 202.531C454.984 203.203 454.785 204.168 454.785 205.426V212H451.211V204.348C451.211 203.723 451.141 203.199 451 202.777C450.859 202.355 450.645 202.039 450.355 201.828C450.066 201.617 449.695 201.512 449.242 201.512C448.578 201.512 448.055 201.68 447.672 202.016C447.297 202.344 447.027 202.832 446.863 203.48C446.707 204.121 446.629 204.906 446.629 205.836V212H443.055V198.898H445.785L446.266 200.574H446.465C446.73 200.121 447.062 199.754 447.461 199.473C447.867 199.191 448.312 198.984 448.797 198.852C449.281 198.719 449.773 198.652 450.273 198.652C451.234 198.652 452.047 198.809 452.711 199.121C453.383 199.434 453.898 199.918 454.258 200.574H454.574C454.965 199.902 455.516 199.414 456.227 199.109C456.945 198.805 457.684 198.652 458.441 198.652ZM470.207 198.898V212H466.633V198.898H470.207ZM468.426 193.766C468.957 193.766 469.414 193.891 469.797 194.141C470.18 194.383 470.371 194.84 470.371 195.512C470.371 196.176 470.18 196.637 469.797 196.895C469.414 197.145 468.957 197.27 468.426 197.27C467.887 197.27 467.426 197.145 467.043 196.895C466.668 196.637 466.48 196.176 466.48 195.512C466.48 194.84 466.668 194.383 467.043 194.141C467.426 193.891 467.887 193.766 468.426 193.766ZM481.41 198.652C482.809 198.652 483.934 199.035 484.785 199.801C485.637 200.559 486.062 201.777 486.062 203.457V212H482.488V204.348C482.488 203.41 482.316 202.703 481.973 202.227C481.637 201.75 481.105 201.512 480.379 201.512C479.285 201.512 478.539 201.883 478.141 202.625C477.742 203.367 477.543 204.438 477.543 205.836V212H473.969V198.898H476.699L477.18 200.574H477.379C477.66 200.121 478.008 199.754 478.422 199.473C478.844 199.191 479.309 198.984 479.816 198.852C480.332 198.719 480.863 198.652 481.41 198.652ZM493.574 217.766C491.746 217.766 490.348 217.445 489.379 216.805C488.418 216.172 487.938 215.281 487.938 214.133C487.938 213.344 488.184 212.684 488.676 212.152C489.168 211.621 489.891 211.242 490.844 211.016C490.477 210.859 490.156 210.605 489.883 210.254C489.609 209.895 489.473 209.516 489.473 209.117C489.473 208.617 489.617 208.203 489.906 207.875C490.195 207.539 490.613 207.211 491.16 206.891C490.473 206.594 489.926 206.117 489.52 205.461C489.121 204.805 488.922 204.031 488.922 203.141C488.922 202.188 489.129 201.379 489.543 200.715C489.965 200.043 490.574 199.531 491.371 199.18C492.176 198.828 493.152 198.652 494.301 198.652C494.543 198.652 494.824 198.668 495.145 198.699C495.465 198.73 495.758 198.766 496.023 198.805C496.297 198.844 496.48 198.875 496.574 198.898H501.145V200.715L499.094 201.242C499.281 201.531 499.422 201.84 499.516 202.168C499.609 202.496 499.656 202.844 499.656 203.211C499.656 204.617 499.164 205.715 498.18 206.504C497.203 207.285 495.844 207.676 494.102 207.676C493.688 207.652 493.297 207.621 492.93 207.582C492.75 207.723 492.613 207.871 492.52 208.027C492.426 208.184 492.379 208.348 492.379 208.52C492.379 208.691 492.449 208.836 492.59 208.953C492.738 209.062 492.957 209.148 493.246 209.211C493.543 209.266 493.91 209.293 494.348 209.293H496.574C498.012 209.293 499.105 209.602 499.855 210.219C500.613 210.836 500.992 211.742 500.992 212.938C500.992 214.469 500.352 215.656 499.07 216.5C497.797 217.344 495.965 217.766 493.574 217.766ZM493.727 215.434C494.578 215.434 495.309 215.352 495.918 215.188C496.535 215.031 497.008 214.805 497.336 214.508C497.664 214.219 497.828 213.871 497.828 213.465C497.828 213.137 497.73 212.875 497.535 212.68C497.348 212.492 497.059 212.359 496.668 212.281C496.285 212.203 495.793 212.164 495.191 212.164H493.34C492.902 212.164 492.508 212.234 492.156 212.375C491.812 212.516 491.539 212.711 491.336 212.961C491.133 213.219 491.031 213.516 491.031 213.852C491.031 214.344 491.266 214.73 491.734 215.012C492.211 215.293 492.875 215.434 493.727 215.434ZM494.301 205.496C494.973 205.496 495.465 205.289 495.777 204.875C496.09 204.461 496.246 203.898 496.246 203.188C496.246 202.398 496.082 201.809 495.754 201.418C495.434 201.02 494.949 200.82 494.301 200.82C493.645 200.82 493.152 201.02 492.824 201.418C492.496 201.809 492.332 202.398 492.332 203.188C492.332 203.898 492.492 204.461 492.812 204.875C493.141 205.289 493.637 205.496 494.301 205.496ZM514.867 212.234C513.57 212.234 512.465 212 511.551 211.531C510.637 211.055 509.941 210.32 509.465 209.328C508.988 208.336 508.75 207.066 508.75 205.52C508.75 203.918 509.02 202.613 509.559 201.605C510.105 200.59 510.859 199.844 511.82 199.367C512.789 198.891 513.91 198.652 515.184 198.652C516.09 198.652 516.871 198.742 517.527 198.922C518.191 199.094 518.77 199.301 519.262 199.543L518.207 202.309C517.645 202.082 517.121 201.898 516.637 201.758C516.152 201.609 515.668 201.535 515.184 201.535C514.559 201.535 514.039 201.684 513.625 201.98C513.211 202.27 512.902 202.707 512.699 203.293C512.496 203.879 512.395 204.613 512.395 205.496C512.395 206.363 512.504 207.082 512.723 207.652C512.941 208.223 513.258 208.648 513.672 208.93C514.086 209.203 514.59 209.34 515.184 209.34C515.926 209.34 516.586 209.242 517.164 209.047C517.742 208.844 518.305 208.562 518.852 208.203V211.262C518.305 211.605 517.73 211.852 517.129 212C516.535 212.156 515.781 212.234 514.867 212.234ZM533.805 205.426C533.805 206.52 533.656 207.488 533.359 208.332C533.07 209.176 532.645 209.891 532.082 210.477C531.527 211.055 530.855 211.492 530.066 211.789C529.285 212.086 528.402 212.234 527.418 212.234C526.496 212.234 525.648 212.086 524.875 211.789C524.109 211.492 523.441 211.055 522.871 210.477C522.309 209.891 521.871 209.176 521.559 208.332C521.254 207.488 521.102 206.52 521.102 205.426C521.102 203.973 521.359 202.742 521.875 201.734C522.391 200.727 523.125 199.961 524.078 199.438C525.031 198.914 526.168 198.652 527.488 198.652C528.715 198.652 529.801 198.914 530.746 199.438C531.699 199.961 532.445 200.727 532.984 201.734C533.531 202.742 533.805 203.973 533.805 205.426ZM524.746 205.426C524.746 206.285 524.84 207.008 525.027 207.594C525.215 208.18 525.508 208.621 525.906 208.918C526.305 209.215 526.824 209.363 527.465 209.363C528.098 209.363 528.609 209.215 529 208.918C529.398 208.621 529.688 208.18 529.867 207.594C530.055 207.008 530.148 206.285 530.148 205.426C530.148 204.559 530.055 203.84 529.867 203.27C529.688 202.691 529.398 202.258 529 201.969C528.602 201.68 528.082 201.535 527.441 201.535C526.496 201.535 525.809 201.859 525.379 202.508C524.957 203.156 524.746 204.129 524.746 205.426ZM552.145 198.652C553.629 198.652 554.75 199.035 555.508 199.801C556.273 200.559 556.656 201.777 556.656 203.457V212H553.07V204.348C553.07 203.41 552.91 202.703 552.59 202.227C552.27 201.75 551.773 201.512 551.102 201.512C550.156 201.512 549.484 201.852 549.086 202.531C548.688 203.203 548.488 204.168 548.488 205.426V212H544.914V204.348C544.914 203.723 544.844 203.199 544.703 202.777C544.562 202.355 544.348 202.039 544.059 201.828C543.77 201.617 543.398 201.512 542.945 201.512C542.281 201.512 541.758 201.68 541.375 202.016C541 202.344 540.73 202.832 540.566 203.48C540.41 204.121 540.332 204.906 540.332 205.836V212H536.758V198.898H539.488L539.969 200.574H540.168C540.434 200.121 540.766 199.754 541.164 199.473C541.57 199.191 542.016 198.984 542.5 198.852C542.984 198.719 543.477 198.652 543.977 198.652C544.938 198.652 545.75 198.809 546.414 199.121C547.086 199.434 547.602 199.918 547.961 200.574H548.277C548.668 199.902 549.219 199.414 549.93 199.109C550.648 198.805 551.387 198.652 552.145 198.652ZM575.723 198.652C577.207 198.652 578.328 199.035 579.086 199.801C579.852 200.559 580.234 201.777 580.234 203.457V212H576.648V204.348C576.648 203.41 576.488 202.703 576.168 202.227C575.848 201.75 575.352 201.512 574.68 201.512C573.734 201.512 573.062 201.852 572.664 202.531C572.266 203.203 572.066 204.168 572.066 205.426V212H568.492V204.348C568.492 203.723 568.422 203.199 568.281 202.777C568.141 202.355 567.926 202.039 567.637 201.828C567.348 201.617 566.977 201.512 566.523 201.512C565.859 201.512 565.336 201.68 564.953 202.016C564.578 202.344 564.309 202.832 564.145 203.48C563.988 204.121 563.91 204.906 563.91 205.836V212H560.336V198.898H563.066L563.547 200.574H563.746C564.012 200.121 564.344 199.754 564.742 199.473C565.148 199.191 565.594 198.984 566.078 198.852C566.562 198.719 567.055 198.652 567.555 198.652C568.516 198.652 569.328 198.809 569.992 199.121C570.664 199.434 571.18 199.918 571.539 200.574H571.855C572.246 199.902 572.797 199.414 573.508 199.109C574.227 198.805 574.965 198.652 575.723 198.652ZM595.938 198.898V212H593.195L592.715 210.324H592.527C592.246 210.77 591.895 211.133 591.473 211.414C591.051 211.695 590.586 211.902 590.078 212.035C589.57 212.168 589.043 212.234 588.496 212.234C587.559 212.234 586.742 212.07 586.047 211.742C585.352 211.406 584.809 210.887 584.418 210.184C584.035 209.48 583.844 208.566 583.844 207.441V198.898H587.418V206.551C587.418 207.488 587.586 208.195 587.922 208.672C588.258 209.148 588.793 209.387 589.527 209.387C590.254 209.387 590.824 209.223 591.238 208.895C591.652 208.559 591.941 208.07 592.105 207.43C592.277 206.781 592.363 205.992 592.363 205.062V198.898H595.938ZM603.262 198.898V212H599.688V198.898H603.262ZM601.48 193.766C602.012 193.766 602.469 193.891 602.852 194.141C603.234 194.383 603.426 194.84 603.426 195.512C603.426 196.176 603.234 196.637 602.852 196.895C602.469 197.145 602.012 197.27 601.48 197.27C600.941 197.27 600.48 197.145 600.098 196.895C599.723 196.637 599.535 196.176 599.535 195.512C599.535 194.84 599.723 194.383 600.098 194.141C600.48 193.891 600.941 193.766 601.48 193.766ZM612.543 209.387C612.934 209.387 613.312 209.348 613.68 209.27C614.055 209.191 614.426 209.094 614.793 208.977V211.637C614.41 211.809 613.934 211.949 613.363 212.059C612.801 212.176 612.184 212.234 611.512 212.234C610.73 212.234 610.027 212.109 609.402 211.859C608.785 211.602 608.297 211.16 607.938 210.535C607.586 209.902 607.41 209.023 607.41 207.898V201.582H605.699V200.07L607.668 198.875L608.699 196.109H610.984V198.898H614.652V201.582H610.984V207.898C610.984 208.398 611.125 208.773 611.406 209.023C611.695 209.266 612.074 209.387 612.543 209.387ZM615.578 198.898H619.492L621.965 206.27C622.043 206.504 622.109 206.742 622.164 206.984C622.219 207.227 622.266 207.477 622.305 207.734C622.344 207.992 622.375 208.262 622.398 208.543H622.469C622.516 208.121 622.578 207.727 622.656 207.359C622.742 206.992 622.848 206.629 622.973 206.27L625.398 198.898H629.23L623.688 213.676C623.352 214.582 622.914 215.336 622.375 215.938C621.836 216.547 621.215 217.004 620.512 217.309C619.816 217.613 619.051 217.766 618.215 217.766C617.809 217.766 617.457 217.742 617.16 217.695C616.863 217.656 616.609 217.613 616.398 217.566V214.73C616.562 214.77 616.77 214.805 617.02 214.836C617.27 214.867 617.531 214.883 617.805 214.883C618.305 214.883 618.734 214.777 619.094 214.566C619.453 214.355 619.754 214.07 619.996 213.711C620.238 213.359 620.43 212.973 620.57 212.551L620.781 211.906L615.578 198.898ZM102.262 240.652C103.746 240.652 104.867 241.035 105.625 241.801C106.391 242.559 106.773 243.777 106.773 245.457V254H103.188V246.348C103.188 245.41 103.027 244.703 102.707 244.227C102.387 243.75 101.891 243.512 101.219 243.512C100.273 243.512 99.6016 243.852 99.2031 244.531C98.8047 245.203 98.6055 246.168 98.6055 247.426V254H95.0312V246.348C95.0312 245.723 94.9609 245.199 94.8203 244.777C94.6797 244.355 94.4648 244.039 94.1758 243.828C93.8867 243.617 93.5156 243.512 93.0625 243.512C92.3984 243.512 91.875 243.68 91.4922 244.016C91.1172 244.344 90.8477 244.832 90.6836 245.48C90.5273 246.121 90.4492 246.906 90.4492 247.836V254H86.875V240.898H89.6055L90.0859 242.574H90.2852C90.5508 242.121 90.8828 241.754 91.2812 241.473C91.6875 241.191 92.1328 240.984 92.6172 240.852C93.1016 240.719 93.5938 240.652 94.0938 240.652C95.0547 240.652 95.8672 240.809 96.5312 241.121C97.2031 241.434 97.7188 241.918 98.0781 242.574H98.3945C98.7852 241.902 99.3359 241.414 100.047 241.109C100.766 240.805 101.504 240.652 102.262 240.652ZM115.855 240.652C117.066 240.652 118.109 240.887 118.984 241.355C119.859 241.816 120.535 242.488 121.012 243.371C121.488 244.254 121.727 245.332 121.727 246.605V248.34H113.277C113.316 249.348 113.617 250.141 114.18 250.719C114.75 251.289 115.539 251.574 116.547 251.574C117.383 251.574 118.148 251.488 118.844 251.316C119.539 251.145 120.254 250.887 120.988 250.543V253.309C120.34 253.629 119.66 253.863 118.949 254.012C118.246 254.16 117.391 254.234 116.383 254.234C115.07 254.234 113.906 253.992 112.891 253.508C111.883 253.023 111.09 252.285 110.512 251.293C109.941 250.301 109.656 249.051 109.656 247.543C109.656 246.012 109.914 244.738 110.43 243.723C110.953 242.699 111.68 241.934 112.609 241.426C113.539 240.91 114.621 240.652 115.855 240.652ZM115.879 243.195C115.184 243.195 114.605 243.418 114.145 243.863C113.691 244.309 113.43 245.008 113.359 245.961H118.375C118.367 245.43 118.27 244.957 118.082 244.543C117.902 244.129 117.629 243.801 117.262 243.559C116.902 243.316 116.441 243.195 115.879 243.195ZM130.035 240.652C131.246 240.652 132.289 240.887 133.164 241.355C134.039 241.816 134.715 242.488 135.191 243.371C135.668 244.254 135.906 245.332 135.906 246.605V248.34H127.457C127.496 249.348 127.797 250.141 128.359 250.719C128.93 251.289 129.719 251.574 130.727 251.574C131.562 251.574 132.328 251.488 133.023 251.316C133.719 251.145 134.434 250.887 135.168 250.543V253.309C134.52 253.629 133.84 253.863 133.129 254.012C132.426 254.16 131.57 254.234 130.562 254.234C129.25 254.234 128.086 253.992 127.07 253.508C126.062 253.023 125.27 252.285 124.691 251.293C124.121 250.301 123.836 249.051 123.836 247.543C123.836 246.012 124.094 244.738 124.609 243.723C125.133 242.699 125.859 241.934 126.789 241.426C127.719 240.91 128.801 240.652 130.035 240.652ZM130.059 243.195C129.363 243.195 128.785 243.418 128.324 243.863C127.871 244.309 127.609 245.008 127.539 245.961H132.555C132.547 245.43 132.449 244.957 132.262 244.543C132.082 244.129 131.809 243.801 131.441 243.559C131.082 243.316 130.621 243.195 130.059 243.195ZM144.332 251.387C144.723 251.387 145.102 251.348 145.469 251.27C145.844 251.191 146.215 251.094 146.582 250.977V253.637C146.199 253.809 145.723 253.949 145.152 254.059C144.59 254.176 143.973 254.234 143.301 254.234C142.52 254.234 141.816 254.109 141.191 253.859C140.574 253.602 140.086 253.16 139.727 252.535C139.375 251.902 139.199 251.023 139.199 249.898V243.582H137.488V242.07L139.457 240.875L140.488 238.109H142.773V240.898H146.441V243.582H142.773V249.898C142.773 250.398 142.914 250.773 143.195 251.023C143.484 251.266 143.863 251.387 144.332 251.387ZM152.816 240.898V254H149.242V240.898H152.816ZM151.035 235.766C151.566 235.766 152.023 235.891 152.406 236.141C152.789 236.383 152.98 236.84 152.98 237.512C152.98 238.176 152.789 238.637 152.406 238.895C152.023 239.145 151.566 239.27 151.035 239.27C150.496 239.27 150.035 239.145 149.652 238.895C149.277 238.637 149.09 238.176 149.09 237.512C149.09 236.84 149.277 236.383 149.652 236.141C150.035 235.891 150.496 235.766 151.035 235.766ZM164.02 240.652C165.418 240.652 166.543 241.035 167.395 241.801C168.246 242.559 168.672 243.777 168.672 245.457V254H165.098V246.348C165.098 245.41 164.926 244.703 164.582 244.227C164.246 243.75 163.715 243.512 162.988 243.512C161.895 243.512 161.148 243.883 160.75 244.625C160.352 245.367 160.152 246.438 160.152 247.836V254H156.578V240.898H159.309L159.789 242.574H159.988C160.27 242.121 160.617 241.754 161.031 241.473C161.453 241.191 161.918 240.984 162.426 240.852C162.941 240.719 163.473 240.652 164.02 240.652ZM176.184 259.766C174.355 259.766 172.957 259.445 171.988 258.805C171.027 258.172 170.547 257.281 170.547 256.133C170.547 255.344 170.793 254.684 171.285 254.152C171.777 253.621 172.5 253.242 173.453 253.016C173.086 252.859 172.766 252.605 172.492 252.254C172.219 251.895 172.082 251.516 172.082 251.117C172.082 250.617 172.227 250.203 172.516 249.875C172.805 249.539 173.223 249.211 173.77 248.891C173.082 248.594 172.535 248.117 172.129 247.461C171.73 246.805 171.531 246.031 171.531 245.141C171.531 244.188 171.738 243.379 172.152 242.715C172.574 242.043 173.184 241.531 173.98 241.18C174.785 240.828 175.762 240.652 176.91 240.652C177.152 240.652 177.434 240.668 177.754 240.699C178.074 240.73 178.367 240.766 178.633 240.805C178.906 240.844 179.09 240.875 179.184 240.898H183.754V242.715L181.703 243.242C181.891 243.531 182.031 243.84 182.125 244.168C182.219 244.496 182.266 244.844 182.266 245.211C182.266 246.617 181.773 247.715 180.789 248.504C179.812 249.285 178.453 249.676 176.711 249.676C176.297 249.652 175.906 249.621 175.539 249.582C175.359 249.723 175.223 249.871 175.129 250.027C175.035 250.184 174.988 250.348 174.988 250.52C174.988 250.691 175.059 250.836 175.199 250.953C175.348 251.062 175.566 251.148 175.855 251.211C176.152 251.266 176.52 251.293 176.957 251.293H179.184C180.621 251.293 181.715 251.602 182.465 252.219C183.223 252.836 183.602 253.742 183.602 254.938C183.602 256.469 182.961 257.656 181.68 258.5C180.406 259.344 178.574 259.766 176.184 259.766ZM176.336 257.434C177.188 257.434 177.918 257.352 178.527 257.188C179.145 257.031 179.617 256.805 179.945 256.508C180.273 256.219 180.438 255.871 180.438 255.465C180.438 255.137 180.34 254.875 180.145 254.68C179.957 254.492 179.668 254.359 179.277 254.281C178.895 254.203 178.402 254.164 177.801 254.164H175.949C175.512 254.164 175.117 254.234 174.766 254.375C174.422 254.516 174.148 254.711 173.945 254.961C173.742 255.219 173.641 255.516 173.641 255.852C173.641 256.344 173.875 256.73 174.344 257.012C174.82 257.293 175.484 257.434 176.336 257.434ZM176.91 247.496C177.582 247.496 178.074 247.289 178.387 246.875C178.699 246.461 178.855 245.898 178.855 245.188C178.855 244.398 178.691 243.809 178.363 243.418C178.043 243.02 177.559 242.82 176.91 242.82C176.254 242.82 175.762 243.02 175.434 243.418C175.105 243.809 174.941 244.398 174.941 245.188C174.941 245.898 175.102 246.461 175.422 246.875C175.75 247.289 176.246 247.496 176.91 247.496ZM195.062 250.109C195.062 251 194.852 251.754 194.43 252.371C194.016 252.98 193.395 253.445 192.566 253.766C191.738 254.078 190.707 254.234 189.473 254.234C188.559 254.234 187.773 254.176 187.117 254.059C186.469 253.941 185.812 253.746 185.148 253.473V250.52C185.859 250.84 186.621 251.105 187.434 251.316C188.254 251.52 188.973 251.621 189.59 251.621C190.285 251.621 190.781 251.52 191.078 251.316C191.383 251.105 191.535 250.832 191.535 250.496C191.535 250.277 191.473 250.082 191.348 249.91C191.23 249.73 190.973 249.531 190.574 249.312C190.176 249.086 189.551 248.793 188.699 248.434C187.879 248.09 187.203 247.742 186.672 247.391C186.148 247.039 185.758 246.625 185.5 246.148C185.25 245.664 185.125 245.051 185.125 244.309C185.125 243.098 185.594 242.188 186.531 241.578C187.477 240.961 188.738 240.652 190.316 240.652C191.129 240.652 191.902 240.734 192.637 240.898C193.379 241.062 194.141 241.324 194.922 241.684L193.844 244.262C193.195 243.98 192.582 243.75 192.004 243.57C191.434 243.391 190.852 243.301 190.258 243.301C189.734 243.301 189.34 243.371 189.074 243.512C188.809 243.652 188.676 243.867 188.676 244.156C188.676 244.367 188.742 244.555 188.875 244.719C189.016 244.883 189.281 245.066 189.672 245.27C190.07 245.465 190.652 245.719 191.418 246.031C192.16 246.336 192.805 246.656 193.352 246.992C193.898 247.32 194.32 247.73 194.617 248.223C194.914 248.707 195.062 249.336 195.062 250.109ZM201.18 251.211L201.355 251.48C201.215 252.043 201.031 252.648 200.805 253.297C200.586 253.945 200.344 254.594 200.078 255.242C199.82 255.891 199.559 256.508 199.293 257.094H196.715C196.871 256.461 197.023 255.797 197.172 255.102C197.32 254.406 197.457 253.723 197.582 253.051C197.715 252.379 197.82 251.766 197.898 251.211H201.18ZM214.504 254H210.93V235.766H214.504V254ZM221.84 240.898V254H218.266V240.898H221.84ZM220.059 235.766C220.59 235.766 221.047 235.891 221.43 236.141C221.812 236.383 222.004 236.84 222.004 237.512C222.004 238.176 221.812 238.637 221.43 238.895C221.047 239.145 220.59 239.27 220.059 239.27C219.52 239.27 219.059 239.145 218.676 238.895C218.301 238.637 218.113 238.176 218.113 237.512C218.113 236.84 218.301 236.383 218.676 236.141C219.059 235.891 219.52 235.766 220.059 235.766ZM228.719 254L223.727 240.898H227.465L229.996 248.363C230.137 248.801 230.246 249.262 230.324 249.746C230.41 250.23 230.469 250.664 230.5 251.047H230.594C230.617 250.633 230.672 250.191 230.758 249.723C230.852 249.254 230.973 248.801 231.121 248.363L233.641 240.898H237.379L232.387 254H228.719ZM244.668 240.652C245.879 240.652 246.922 240.887 247.797 241.355C248.672 241.816 249.348 242.488 249.824 243.371C250.301 244.254 250.539 245.332 250.539 246.605V248.34H242.09C242.129 249.348 242.43 250.141 242.992 250.719C243.562 251.289 244.352 251.574 245.359 251.574C246.195 251.574 246.961 251.488 247.656 251.316C248.352 251.145 249.066 250.887 249.801 250.543V253.309C249.152 253.629 248.473 253.863 247.762 254.012C247.059 254.16 246.203 254.234 245.195 254.234C243.883 254.234 242.719 253.992 241.703 253.508C240.695 253.023 239.902 252.285 239.324 251.293C238.754 250.301 238.469 249.051 238.469 247.543C238.469 246.012 238.727 244.738 239.242 243.723C239.766 242.699 240.492 241.934 241.422 241.426C242.352 240.91 243.434 240.652 244.668 240.652ZM244.691 243.195C243.996 243.195 243.418 243.418 242.957 243.863C242.504 244.309 242.242 245.008 242.172 245.961H247.188C247.18 245.43 247.082 244.957 246.895 244.543C246.715 244.129 246.441 243.801 246.074 243.559C245.715 243.316 245.254 243.195 244.691 243.195ZM262.586 250.109C262.586 251 262.375 251.754 261.953 252.371C261.539 252.98 260.918 253.445 260.09 253.766C259.262 254.078 258.23 254.234 256.996 254.234C256.082 254.234 255.297 254.176 254.641 254.059C253.992 253.941 253.336 253.746 252.672 253.473V250.52C253.383 250.84 254.145 251.105 254.957 251.316C255.777 251.52 256.496 251.621 257.113 251.621C257.809 251.621 258.305 251.52 258.602 251.316C258.906 251.105 259.059 250.832 259.059 250.496C259.059 250.277 258.996 250.082 258.871 249.91C258.754 249.73 258.496 249.531 258.098 249.312C257.699 249.086 257.074 248.793 256.223 248.434C255.402 248.09 254.727 247.742 254.195 247.391C253.672 247.039 253.281 246.625 253.023 246.148C252.773 245.664 252.648 245.051 252.648 244.309C252.648 243.098 253.117 242.188 254.055 241.578C255 240.961 256.262 240.652 257.84 240.652C258.652 240.652 259.426 240.734 260.16 240.898C260.902 241.062 261.664 241.324 262.445 241.684L261.367 244.262C260.719 243.98 260.105 243.75 259.527 243.57C258.957 243.391 258.375 243.301 257.781 243.301C257.258 243.301 256.863 243.371 256.598 243.512C256.332 243.652 256.199 243.867 256.199 244.156C256.199 244.367 256.266 244.555 256.398 244.719C256.539 244.883 256.805 245.066 257.195 245.27C257.594 245.465 258.176 245.719 258.941 246.031C259.684 246.336 260.328 246.656 260.875 246.992C261.422 247.32 261.844 247.73 262.141 248.223C262.438 248.707 262.586 249.336 262.586 250.109ZM270.895 251.387C271.285 251.387 271.664 251.348 272.031 251.27C272.406 251.191 272.777 251.094 273.145 250.977V253.637C272.762 253.809 272.285 253.949 271.715 254.059C271.152 254.176 270.535 254.234 269.863 254.234C269.082 254.234 268.379 254.109 267.754 253.859C267.137 253.602 266.648 253.16 266.289 252.535C265.938 251.902 265.762 251.023 265.762 249.898V243.582H264.051V242.07L266.02 240.875L267.051 238.109H269.336V240.898H273.004V243.582H269.336V249.898C269.336 250.398 269.477 250.773 269.758 251.023C270.047 251.266 270.426 251.387 270.895 251.387ZM283.117 240.652C283.297 240.652 283.504 240.664 283.738 240.688C283.98 240.703 284.176 240.727 284.324 240.758L284.055 244.109C283.938 244.07 283.77 244.043 283.551 244.027C283.34 244.004 283.156 243.992 283 243.992C282.539 243.992 282.09 244.051 281.652 244.168C281.223 244.285 280.836 244.477 280.492 244.742C280.148 245 279.875 245.344 279.672 245.773C279.477 246.195 279.379 246.715 279.379 247.332V254H275.805V240.898H278.512L279.039 243.102H279.215C279.473 242.656 279.793 242.25 280.176 241.883C280.566 241.508 281.008 241.211 281.5 240.992C282 240.766 282.539 240.652 283.117 240.652ZM292.105 240.652C293.316 240.652 294.359 240.887 295.234 241.355C296.109 241.816 296.785 242.488 297.262 243.371C297.738 244.254 297.977 245.332 297.977 246.605V248.34H289.527C289.566 249.348 289.867 250.141 290.43 250.719C291 251.289 291.789 251.574 292.797 251.574C293.633 251.574 294.398 251.488 295.094 251.316C295.789 251.145 296.504 250.887 297.238 250.543V253.309C296.59 253.629 295.91 253.863 295.199 254.012C294.496 254.16 293.641 254.234 292.633 254.234C291.32 254.234 290.156 253.992 289.141 253.508C288.133 253.023 287.34 252.285 286.762 251.293C286.191 250.301 285.906 249.051 285.906 247.543C285.906 246.012 286.164 244.738 286.68 243.723C287.203 242.699 287.93 241.934 288.859 241.426C289.789 240.91 290.871 240.652 292.105 240.652ZM292.129 243.195C291.434 243.195 290.855 243.418 290.395 243.863C289.941 244.309 289.68 245.008 289.609 245.961H294.625C294.617 245.43 294.52 244.957 294.332 244.543C294.152 244.129 293.879 243.801 293.512 243.559C293.152 243.316 292.691 243.195 292.129 243.195ZM306.25 240.629C308.008 240.629 309.355 241.012 310.293 241.777C311.23 242.543 311.699 243.707 311.699 245.27V254H309.203L308.512 252.219H308.418C308.043 252.688 307.66 253.07 307.27 253.367C306.879 253.664 306.43 253.883 305.922 254.023C305.414 254.164 304.797 254.234 304.07 254.234C303.297 254.234 302.602 254.086 301.984 253.789C301.375 253.492 300.895 253.039 300.543 252.43C300.191 251.812 300.016 251.031 300.016 250.086C300.016 248.695 300.504 247.672 301.48 247.016C302.457 246.352 303.922 245.984 305.875 245.914L308.148 245.844V245.27C308.148 244.582 307.969 244.078 307.609 243.758C307.25 243.438 306.75 243.277 306.109 243.277C305.477 243.277 304.855 243.367 304.246 243.547C303.637 243.727 303.027 243.953 302.418 244.227L301.234 241.812C301.93 241.445 302.707 241.156 303.566 240.945C304.434 240.734 305.328 240.629 306.25 240.629ZM308.148 247.93L306.766 247.977C305.609 248.008 304.805 248.215 304.352 248.598C303.906 248.98 303.684 249.484 303.684 250.109C303.684 250.656 303.844 251.047 304.164 251.281C304.484 251.508 304.902 251.621 305.418 251.621C306.184 251.621 306.828 251.395 307.352 250.941C307.883 250.488 308.148 249.844 308.148 249.008V247.93ZM330.777 240.652C332.262 240.652 333.383 241.035 334.141 241.801C334.906 242.559 335.289 243.777 335.289 245.457V254H331.703V246.348C331.703 245.41 331.543 244.703 331.223 244.227C330.902 243.75 330.406 243.512 329.734 243.512C328.789 243.512 328.117 243.852 327.719 244.531C327.32 245.203 327.121 246.168 327.121 247.426V254H323.547V246.348C323.547 245.723 323.477 245.199 323.336 244.777C323.195 244.355 322.98 244.039 322.691 243.828C322.402 243.617 322.031 243.512 321.578 243.512C320.914 243.512 320.391 243.68 320.008 244.016C319.633 244.344 319.363 244.832 319.199 245.48C319.043 246.121 318.965 246.906 318.965 247.836V254H315.391V240.898H318.121L318.602 242.574H318.801C319.066 242.121 319.398 241.754 319.797 241.473C320.203 241.191 320.648 240.984 321.133 240.852C321.617 240.719 322.109 240.652 322.609 240.652C323.57 240.652 324.383 240.809 325.047 241.121C325.719 241.434 326.234 241.918 326.594 242.574H326.91C327.301 241.902 327.852 241.414 328.562 241.109C329.281 240.805 330.02 240.652 330.777 240.652ZM348.109 250.109C348.109 251 347.898 251.754 347.477 252.371C347.062 252.98 346.441 253.445 345.613 253.766C344.785 254.078 343.754 254.234 342.52 254.234C341.605 254.234 340.82 254.176 340.164 254.059C339.516 253.941 338.859 253.746 338.195 253.473V250.52C338.906 250.84 339.668 251.105 340.48 251.316C341.301 251.52 342.02 251.621 342.637 251.621C343.332 251.621 343.828 251.52 344.125 251.316C344.43 251.105 344.582 250.832 344.582 250.496C344.582 250.277 344.52 250.082 344.395 249.91C344.277 249.73 344.02 249.531 343.621 249.312C343.223 249.086 342.598 248.793 341.746 248.434C340.926 248.09 340.25 247.742 339.719 247.391C339.195 247.039 338.805 246.625 338.547 246.148C338.297 245.664 338.172 245.051 338.172 244.309C338.172 243.098 338.641 242.188 339.578 241.578C340.523 240.961 341.785 240.652 343.363 240.652C344.176 240.652 344.949 240.734 345.684 240.898C346.426 241.062 347.188 241.324 347.969 241.684L346.891 244.262C346.242 243.98 345.629 243.75 345.051 243.57C344.48 243.391 343.898 243.301 343.305 243.301C342.781 243.301 342.387 243.371 342.121 243.512C341.855 243.652 341.723 243.867 341.723 244.156C341.723 244.367 341.789 244.555 341.922 244.719C342.062 244.883 342.328 245.066 342.719 245.27C343.117 245.465 343.699 245.719 344.465 246.031C345.207 246.336 345.852 246.656 346.398 246.992C346.945 247.32 347.367 247.73 347.664 248.223C347.961 248.707 348.109 249.336 348.109 250.109ZM354.227 251.211L354.402 251.48C354.262 252.043 354.078 252.648 353.852 253.297C353.633 253.945 353.391 254.594 353.125 255.242C352.867 255.891 352.605 256.508 352.34 257.094H349.762C349.918 256.461 350.07 255.797 350.219 255.102C350.367 254.406 350.504 253.723 350.629 253.051C350.762 252.379 350.867 251.766 350.945 251.211H354.227ZM369.344 240.629C371.102 240.629 372.449 241.012 373.387 241.777C374.324 242.543 374.793 243.707 374.793 245.27V254H372.297L371.605 252.219H371.512C371.137 252.688 370.754 253.07 370.363 253.367C369.973 253.664 369.523 253.883 369.016 254.023C368.508 254.164 367.891 254.234 367.164 254.234C366.391 254.234 365.695 254.086 365.078 253.789C364.469 253.492 363.988 253.039 363.637 252.43C363.285 251.812 363.109 251.031 363.109 250.086C363.109 248.695 363.598 247.672 364.574 247.016C365.551 246.352 367.016 245.984 368.969 245.914L371.242 245.844V245.27C371.242 244.582 371.062 244.078 370.703 243.758C370.344 243.438 369.844 243.277 369.203 243.277C368.57 243.277 367.949 243.367 367.34 243.547C366.73 243.727 366.121 243.953 365.512 244.227L364.328 241.812C365.023 241.445 365.801 241.156 366.66 240.945C367.527 240.734 368.422 240.629 369.344 240.629ZM371.242 247.93L369.859 247.977C368.703 248.008 367.898 248.215 367.445 248.598C367 248.98 366.777 249.484 366.777 250.109C366.777 250.656 366.938 251.047 367.258 251.281C367.578 251.508 367.996 251.621 368.512 251.621C369.277 251.621 369.922 251.395 370.445 250.941C370.977 250.488 371.242 249.844 371.242 249.008V247.93ZM385.926 240.652C387.324 240.652 388.449 241.035 389.301 241.801C390.152 242.559 390.578 243.777 390.578 245.457V254H387.004V246.348C387.004 245.41 386.832 244.703 386.488 244.227C386.152 243.75 385.621 243.512 384.895 243.512C383.801 243.512 383.055 243.883 382.656 244.625C382.258 245.367 382.059 246.438 382.059 247.836V254H378.484V240.898H381.215L381.695 242.574H381.895C382.176 242.121 382.523 241.754 382.938 241.473C383.359 241.191 383.824 240.984 384.332 240.852C384.848 240.719 385.379 240.652 385.926 240.652ZM398.406 254.234C396.945 254.234 395.754 253.664 394.832 252.523C393.918 251.375 393.461 249.691 393.461 247.473C393.461 245.23 393.926 243.535 394.855 242.387C395.785 241.23 397 240.652 398.5 240.652C399.125 240.652 399.676 240.738 400.152 240.91C400.629 241.082 401.039 241.312 401.383 241.602C401.734 241.891 402.031 242.215 402.273 242.574H402.391C402.344 242.324 402.285 241.957 402.215 241.473C402.152 240.98 402.121 240.477 402.121 239.961V235.766H405.707V254H402.965L402.273 252.301H402.121C401.895 252.66 401.609 252.988 401.266 253.285C400.93 253.574 400.527 253.805 400.059 253.977C399.59 254.148 399.039 254.234 398.406 254.234ZM399.66 251.387C400.637 251.387 401.324 251.098 401.723 250.52C402.129 249.934 402.344 249.055 402.367 247.883V247.496C402.367 246.223 402.172 245.25 401.781 244.578C401.391 243.898 400.664 243.559 399.602 243.559C398.812 243.559 398.195 243.898 397.75 244.578C397.305 245.258 397.082 246.238 397.082 247.52C397.082 248.801 397.305 249.766 397.75 250.414C398.203 251.062 398.84 251.387 399.66 251.387ZM421 254.234C419.703 254.234 418.598 254 417.684 253.531C416.77 253.055 416.074 252.32 415.598 251.328C415.121 250.336 414.883 249.066 414.883 247.52C414.883 245.918 415.152 244.613 415.691 243.605C416.238 242.59 416.992 241.844 417.953 241.367C418.922 240.891 420.043 240.652 421.316 240.652C422.223 240.652 423.004 240.742 423.66 240.922C424.324 241.094 424.902 241.301 425.395 241.543L424.34 244.309C423.777 244.082 423.254 243.898 422.77 243.758C422.285 243.609 421.801 243.535 421.316 243.535C420.691 243.535 420.172 243.684 419.758 243.98C419.344 244.27 419.035 244.707 418.832 245.293C418.629 245.879 418.527 246.613 418.527 247.496C418.527 248.363 418.637 249.082 418.855 249.652C419.074 250.223 419.391 250.648 419.805 250.93C420.219 251.203 420.723 251.34 421.316 251.34C422.059 251.34 422.719 251.242 423.297 251.047C423.875 250.844 424.438 250.562 424.984 250.203V253.262C424.438 253.605 423.863 253.852 423.262 254C422.668 254.156 421.914 254.234 421 254.234ZM439.938 247.426C439.938 248.52 439.789 249.488 439.492 250.332C439.203 251.176 438.777 251.891 438.215 252.477C437.66 253.055 436.988 253.492 436.199 253.789C435.418 254.086 434.535 254.234 433.551 254.234C432.629 254.234 431.781 254.086 431.008 253.789C430.242 253.492 429.574 253.055 429.004 252.477C428.441 251.891 428.004 251.176 427.691 250.332C427.387 249.488 427.234 248.52 427.234 247.426C427.234 245.973 427.492 244.742 428.008 243.734C428.523 242.727 429.258 241.961 430.211 241.438C431.164 240.914 432.301 240.652 433.621 240.652C434.848 240.652 435.934 240.914 436.879 241.438C437.832 241.961 438.578 242.727 439.117 243.734C439.664 244.742 439.938 245.973 439.938 247.426ZM430.879 247.426C430.879 248.285 430.973 249.008 431.16 249.594C431.348 250.18 431.641 250.621 432.039 250.918C432.438 251.215 432.957 251.363 433.598 251.363C434.23 251.363 434.742 251.215 435.133 250.918C435.531 250.621 435.82 250.18 436 249.594C436.188 249.008 436.281 248.285 436.281 247.426C436.281 246.559 436.188 245.84 436 245.27C435.82 244.691 435.531 244.258 435.133 243.969C434.734 243.68 434.215 243.535 433.574 243.535C432.629 243.535 431.941 243.859 431.512 244.508C431.09 245.156 430.879 246.129 430.879 247.426ZM450.332 240.652C451.73 240.652 452.855 241.035 453.707 241.801C454.559 242.559 454.984 243.777 454.984 245.457V254H451.41V246.348C451.41 245.41 451.238 244.703 450.895 244.227C450.559 243.75 450.027 243.512 449.301 243.512C448.207 243.512 447.461 243.883 447.062 244.625C446.664 245.367 446.465 246.438 446.465 247.836V254H442.891V240.898H445.621L446.102 242.574H446.301C446.582 242.121 446.93 241.754 447.344 241.473C447.766 241.191 448.23 240.984 448.738 240.852C449.254 240.719 449.785 240.652 450.332 240.652ZM465.906 243.582H462.812V254H459.238V243.582H457.27V241.859L459.238 240.898V239.938C459.238 238.82 459.426 237.953 459.801 237.336C460.184 236.711 460.719 236.273 461.406 236.023C462.102 235.766 462.922 235.637 463.867 235.637C464.562 235.637 465.195 235.695 465.766 235.812C466.336 235.922 466.801 236.047 467.16 236.188L466.246 238.812C465.973 238.727 465.676 238.648 465.355 238.578C465.035 238.508 464.668 238.473 464.254 238.473C463.754 238.473 463.387 238.625 463.152 238.93C462.926 239.227 462.812 239.609 462.812 240.078V240.898H465.906V243.582ZM473.371 240.652C474.582 240.652 475.625 240.887 476.5 241.355C477.375 241.816 478.051 242.488 478.527 243.371C479.004 244.254 479.242 245.332 479.242 246.605V248.34H470.793C470.832 249.348 471.133 250.141 471.695 250.719C472.266 251.289 473.055 251.574 474.062 251.574C474.898 251.574 475.664 251.488 476.359 251.316C477.055 251.145 477.77 250.887 478.504 250.543V253.309C477.855 253.629 477.176 253.863 476.465 254.012C475.762 254.16 474.906 254.234 473.898 254.234C472.586 254.234 471.422 253.992 470.406 253.508C469.398 253.023 468.605 252.285 468.027 251.293C467.457 250.301 467.172 249.051 467.172 247.543C467.172 246.012 467.43 244.738 467.945 243.723C468.469 242.699 469.195 241.934 470.125 241.426C471.055 240.91 472.137 240.652 473.371 240.652ZM473.395 243.195C472.699 243.195 472.121 243.418 471.66 243.863C471.207 244.309 470.945 245.008 470.875 245.961H475.891C475.883 245.43 475.785 244.957 475.598 244.543C475.418 244.129 475.145 243.801 474.777 243.559C474.418 243.316 473.957 243.195 473.395 243.195ZM489.461 240.652C489.641 240.652 489.848 240.664 490.082 240.688C490.324 240.703 490.52 240.727 490.668 240.758L490.398 244.109C490.281 244.07 490.113 244.043 489.895 244.027C489.684 244.004 489.5 243.992 489.344 243.992C488.883 243.992 488.434 244.051 487.996 244.168C487.566 244.285 487.18 244.477 486.836 244.742C486.492 245 486.219 245.344 486.016 245.773C485.82 246.195 485.723 246.715 485.723 247.332V254H482.148V240.898H484.855L485.383 243.102H485.559C485.816 242.656 486.137 242.25 486.52 241.883C486.91 241.508 487.352 241.211 487.844 240.992C488.344 240.766 488.883 240.652 489.461 240.652ZM498.449 240.652C499.66 240.652 500.703 240.887 501.578 241.355C502.453 241.816 503.129 242.488 503.605 243.371C504.082 244.254 504.32 245.332 504.32 246.605V248.34H495.871C495.91 249.348 496.211 250.141 496.773 250.719C497.344 251.289 498.133 251.574 499.141 251.574C499.977 251.574 500.742 251.488 501.438 251.316C502.133 251.145 502.848 250.887 503.582 250.543V253.309C502.934 253.629 502.254 253.863 501.543 254.012C500.84 254.16 499.984 254.234 498.977 254.234C497.664 254.234 496.5 253.992 495.484 253.508C494.477 253.023 493.684 252.285 493.105 251.293C492.535 250.301 492.25 249.051 492.25 247.543C492.25 246.012 492.508 244.738 493.023 243.723C493.547 242.699 494.273 241.934 495.203 241.426C496.133 240.91 497.215 240.652 498.449 240.652ZM498.473 243.195C497.777 243.195 497.199 243.418 496.738 243.863C496.285 244.309 496.023 245.008 495.953 245.961H500.969C500.961 245.43 500.863 244.957 500.676 244.543C500.496 244.129 500.223 243.801 499.855 243.559C499.496 243.316 499.035 243.195 498.473 243.195ZM514.668 240.652C516.066 240.652 517.191 241.035 518.043 241.801C518.895 242.559 519.32 243.777 519.32 245.457V254H515.746V246.348C515.746 245.41 515.574 244.703 515.23 244.227C514.895 243.75 514.363 243.512 513.637 243.512C512.543 243.512 511.797 243.883 511.398 244.625C511 245.367 510.801 246.438 510.801 247.836V254H507.227V240.898H509.957L510.438 242.574H510.637C510.918 242.121 511.266 241.754 511.68 241.473C512.102 241.191 512.566 240.984 513.074 240.852C513.59 240.719 514.121 240.652 514.668 240.652ZM528.32 254.234C527.023 254.234 525.918 254 525.004 253.531C524.09 253.055 523.395 252.32 522.918 251.328C522.441 250.336 522.203 249.066 522.203 247.52C522.203 245.918 522.473 244.613 523.012 243.605C523.559 242.59 524.312 241.844 525.273 241.367C526.242 240.891 527.363 240.652 528.637 240.652C529.543 240.652 530.324 240.742 530.98 240.922C531.645 241.094 532.223 241.301 532.715 241.543L531.66 244.309C531.098 244.082 530.574 243.898 530.09 243.758C529.605 243.609 529.121 243.535 528.637 243.535C528.012 243.535 527.492 243.684 527.078 243.98C526.664 244.27 526.355 244.707 526.152 245.293C525.949 245.879 525.848 246.613 525.848 247.496C525.848 248.363 525.957 249.082 526.176 249.652C526.395 250.223 526.711 250.648 527.125 250.93C527.539 251.203 528.043 251.34 528.637 251.34C529.379 251.34 530.039 251.242 530.617 251.047C531.195 250.844 531.758 250.562 532.305 250.203V253.262C531.758 253.605 531.184 253.852 530.582 254C529.988 254.156 529.234 254.234 528.32 254.234ZM540.754 240.652C541.965 240.652 543.008 240.887 543.883 241.355C544.758 241.816 545.434 242.488 545.91 243.371C546.387 244.254 546.625 245.332 546.625 246.605V248.34H538.176C538.215 249.348 538.516 250.141 539.078 250.719C539.648 251.289 540.438 251.574 541.445 251.574C542.281 251.574 543.047 251.488 543.742 251.316C544.438 251.145 545.152 250.887 545.887 250.543V253.309C545.238 253.629 544.559 253.863 543.848 254.012C543.145 254.16 542.289 254.234 541.281 254.234C539.969 254.234 538.805 253.992 537.789 253.508C536.781 253.023 535.988 252.285 535.41 251.293C534.84 250.301 534.555 249.051 534.555 247.543C534.555 246.012 534.812 244.738 535.328 243.723C535.852 242.699 536.578 241.934 537.508 241.426C538.438 240.91 539.52 240.652 540.754 240.652ZM540.777 243.195C540.082 243.195 539.504 243.418 539.043 243.863C538.59 244.309 538.328 245.008 538.258 245.961H543.273C543.266 245.43 543.168 244.957 542.98 244.543C542.801 244.129 542.527 243.801 542.16 243.559C541.801 243.316 541.34 243.195 540.777 243.195ZM558.672 250.109C558.672 251 558.461 251.754 558.039 252.371C557.625 252.98 557.004 253.445 556.176 253.766C555.348 254.078 554.316 254.234 553.082 254.234C552.168 254.234 551.383 254.176 550.727 254.059C550.078 253.941 549.422 253.746 548.758 253.473V250.52C549.469 250.84 550.23 251.105 551.043 251.316C551.863 251.52 552.582 251.621 553.199 251.621C553.895 251.621 554.391 251.52 554.688 251.316C554.992 251.105 555.145 250.832 555.145 250.496C555.145 250.277 555.082 250.082 554.957 249.91C554.84 249.73 554.582 249.531 554.184 249.312C553.785 249.086 553.16 248.793 552.309 248.434C551.488 248.09 550.812 247.742 550.281 247.391C549.758 247.039 549.367 246.625 549.109 246.148C548.859 245.664 548.734 245.051 548.734 244.309C548.734 243.098 549.203 242.188 550.141 241.578C551.086 240.961 552.348 240.652 553.926 240.652C554.738 240.652 555.512 240.734 556.246 240.898C556.988 241.062 557.75 241.324 558.531 241.684L557.453 244.262C556.805 243.98 556.191 243.75 555.613 243.57C555.043 243.391 554.461 243.301 553.867 243.301C553.344 243.301 552.949 243.371 552.684 243.512C552.418 243.652 552.285 243.867 552.285 244.156C552.285 244.367 552.352 244.555 552.484 244.719C552.625 244.883 552.891 245.066 553.281 245.27C553.68 245.465 554.262 245.719 555.027 246.031C555.77 246.336 556.414 246.656 556.961 246.992C557.508 247.32 557.93 247.73 558.227 248.223C558.523 248.707 558.672 249.336 558.672 250.109ZM560.957 252.324C560.957 251.59 561.156 251.074 561.555 250.777C561.961 250.48 562.449 250.332 563.02 250.332C563.574 250.332 564.051 250.48 564.449 250.777C564.855 251.074 565.059 251.59 565.059 252.324C565.059 253.027 564.855 253.535 564.449 253.848C564.051 254.16 563.574 254.316 563.02 254.316C562.449 254.316 561.961 254.16 561.555 253.848C561.156 253.535 560.957 253.027 560.957 252.324Z" fill="white"/>
<g filter="url(#filter0_d_1797_7973)">
<rect x="1110" y="230" width="228" height="60" rx="30" fill="#FFB81C" shape-rendering="crispEdges"/>
<path d="M1165.44 270.279C1165.09 270.279 1164.78 270.259 1164.52 270.218C1164.25 270.183 1164.02 270.139 1163.83 270.086V267.818C1164.02 267.859 1164.22 267.897 1164.44 267.933C1164.65 267.974 1164.87 267.994 1165.11 267.994C1165.43 267.994 1165.71 267.933 1165.97 267.81C1166.22 267.692 1166.42 267.467 1166.56 267.133C1166.71 266.799 1166.78 266.318 1166.78 265.691V253.65H1169.51V265.674C1169.51 266.775 1169.33 267.663 1168.99 268.337C1168.65 269.017 1168.17 269.509 1167.56 269.813C1166.95 270.124 1166.24 270.279 1165.44 270.279ZM1181.46 261.569C1181.46 262.39 1181.35 263.116 1181.13 263.749C1180.91 264.382 1180.59 264.918 1180.17 265.357C1179.75 265.791 1179.25 266.119 1178.66 266.342C1178.07 266.564 1177.41 266.676 1176.67 266.676C1175.98 266.676 1175.34 266.564 1174.76 266.342C1174.19 266.119 1173.69 265.791 1173.26 265.357C1172.84 264.918 1172.51 264.382 1172.28 263.749C1172.05 263.116 1171.93 262.39 1171.93 261.569C1171.93 260.479 1172.13 259.557 1172.51 258.801C1172.9 258.045 1173.45 257.471 1174.17 257.078C1174.88 256.686 1175.73 256.489 1176.72 256.489C1177.64 256.489 1178.46 256.686 1179.17 257.078C1179.88 257.471 1180.44 258.045 1180.85 258.801C1181.26 259.557 1181.46 260.479 1181.46 261.569ZM1174.67 261.569C1174.67 262.214 1174.74 262.756 1174.88 263.195C1175.02 263.635 1175.24 263.966 1175.54 264.188C1175.84 264.411 1176.23 264.522 1176.71 264.522C1177.18 264.522 1177.56 264.411 1177.86 264.188C1178.16 263.966 1178.37 263.635 1178.51 263.195C1178.65 262.756 1178.72 262.214 1178.72 261.569C1178.72 260.919 1178.65 260.38 1178.51 259.952C1178.37 259.519 1178.16 259.193 1177.86 258.977C1177.56 258.76 1177.17 258.651 1176.69 258.651C1175.98 258.651 1175.46 258.895 1175.14 259.381C1174.83 259.867 1174.67 260.597 1174.67 261.569ZM1186.36 256.674V266.5H1183.68V256.674H1186.36ZM1185.02 252.824C1185.42 252.824 1185.76 252.918 1186.05 253.105C1186.34 253.287 1186.48 253.63 1186.48 254.134C1186.48 254.632 1186.34 254.978 1186.05 255.171C1185.76 255.358 1185.42 255.452 1185.02 255.452C1184.62 255.452 1184.27 255.358 1183.98 255.171C1183.7 254.978 1183.56 254.632 1183.56 254.134C1183.56 253.63 1183.7 253.287 1183.98 253.105C1184.27 252.918 1184.62 252.824 1185.02 252.824ZM1194.76 256.489C1195.81 256.489 1196.65 256.776 1197.29 257.351C1197.93 257.919 1198.25 258.833 1198.25 260.093V266.5H1195.57V260.761C1195.57 260.058 1195.44 259.527 1195.18 259.17C1194.93 258.812 1194.53 258.634 1193.99 258.634C1193.17 258.634 1192.61 258.912 1192.31 259.469C1192.01 260.025 1191.86 260.828 1191.86 261.877V266.5H1189.18V256.674H1191.23L1191.59 257.931H1191.74C1191.95 257.591 1192.21 257.315 1192.52 257.104C1192.83 256.894 1193.18 256.738 1193.56 256.639C1193.95 256.539 1194.35 256.489 1194.76 256.489ZM1209.71 256.472C1211.03 256.472 1212.04 256.759 1212.74 257.333C1213.44 257.907 1213.8 258.78 1213.8 259.952V266.5H1211.92L1211.41 265.164H1211.33C1211.05 265.516 1210.77 265.803 1210.47 266.025C1210.18 266.248 1209.84 266.412 1209.46 266.518C1209.08 266.623 1208.62 266.676 1208.07 266.676C1207.49 266.676 1206.97 266.564 1206.51 266.342C1206.05 266.119 1205.69 265.779 1205.43 265.322C1205.17 264.859 1205.03 264.273 1205.03 263.564C1205.03 262.521 1205.4 261.754 1206.13 261.262C1206.86 260.764 1207.96 260.488 1209.43 260.436L1211.13 260.383V259.952C1211.13 259.437 1211 259.059 1210.73 258.818C1210.46 258.578 1210.08 258.458 1209.6 258.458C1209.13 258.458 1208.66 258.525 1208.21 258.66C1207.75 258.795 1207.29 258.965 1206.83 259.17L1205.95 257.359C1206.47 257.084 1207.05 256.867 1207.7 256.709C1208.35 256.551 1209.02 256.472 1209.71 256.472ZM1211.13 261.947L1210.1 261.982C1209.23 262.006 1208.62 262.161 1208.29 262.448C1207.95 262.735 1207.78 263.113 1207.78 263.582C1207.78 263.992 1207.9 264.285 1208.14 264.461C1208.38 264.631 1208.7 264.716 1209.08 264.716C1209.66 264.716 1210.14 264.546 1210.54 264.206C1210.93 263.866 1211.13 263.383 1211.13 262.756V261.947ZM1222.15 256.489C1223.19 256.489 1224.04 256.776 1224.68 257.351C1225.32 257.919 1225.63 258.833 1225.63 260.093V266.5H1222.95V260.761C1222.95 260.058 1222.83 259.527 1222.57 259.17C1222.32 258.812 1221.92 258.634 1221.37 258.634C1220.55 258.634 1219.99 258.912 1219.69 259.469C1219.39 260.025 1219.25 260.828 1219.25 261.877V266.5H1216.56V256.674H1218.61L1218.97 257.931H1219.12C1219.33 257.591 1219.59 257.315 1219.9 257.104C1220.22 256.894 1220.57 256.738 1220.95 256.639C1221.34 256.539 1221.74 256.489 1222.15 256.489ZM1237.12 256.489C1238.03 256.489 1238.81 256.665 1239.47 257.017C1240.12 257.362 1240.63 257.866 1240.99 258.528C1241.35 259.19 1241.53 259.999 1241.53 260.954V262.255H1235.19C1235.22 263.011 1235.44 263.605 1235.87 264.039C1236.29 264.467 1236.88 264.681 1237.64 264.681C1238.27 264.681 1238.84 264.616 1239.36 264.487C1239.88 264.358 1240.42 264.165 1240.97 263.907V265.981C1240.49 266.222 1239.98 266.397 1239.44 266.509C1238.92 266.62 1238.27 266.676 1237.52 266.676C1236.53 266.676 1235.66 266.494 1234.9 266.131C1234.14 265.768 1233.55 265.214 1233.11 264.47C1232.69 263.726 1232.47 262.788 1232.47 261.657C1232.47 260.509 1232.67 259.554 1233.05 258.792C1233.45 258.024 1233.99 257.45 1234.69 257.069C1235.38 256.683 1236.2 256.489 1237.12 256.489ZM1237.14 258.396C1236.62 258.396 1236.18 258.563 1235.84 258.897C1235.5 259.231 1235.3 259.756 1235.25 260.471H1239.01C1239.01 260.072 1238.93 259.718 1238.79 259.407C1238.66 259.097 1238.45 258.851 1238.18 258.669C1237.91 258.487 1237.56 258.396 1237.14 258.396ZM1246.04 266.5L1242.3 256.674H1245.1L1247 262.272C1247.11 262.601 1247.19 262.946 1247.25 263.31C1247.31 263.673 1247.36 263.998 1247.38 264.285H1247.45C1247.47 263.975 1247.51 263.644 1247.57 263.292C1247.64 262.94 1247.73 262.601 1247.84 262.272L1249.73 256.674H1252.54L1248.79 266.5H1246.04ZM1258 256.489C1258.91 256.489 1259.7 256.665 1260.35 257.017C1261.01 257.362 1261.51 257.866 1261.87 258.528C1262.23 259.19 1262.41 259.999 1262.41 260.954V262.255H1256.07C1256.1 263.011 1256.33 263.605 1256.75 264.039C1257.18 264.467 1257.77 264.681 1258.52 264.681C1259.15 264.681 1259.72 264.616 1260.25 264.487C1260.77 264.358 1261.3 264.165 1261.85 263.907V265.981C1261.37 266.222 1260.86 266.397 1260.33 266.509C1259.8 266.62 1259.16 266.676 1258.4 266.676C1257.42 266.676 1256.54 266.494 1255.78 266.131C1255.03 265.768 1254.43 265.214 1254 264.47C1253.57 263.726 1253.36 262.788 1253.36 261.657C1253.36 260.509 1253.55 259.554 1253.94 258.792C1254.33 258.024 1254.87 257.45 1255.57 257.069C1256.27 256.683 1257.08 256.489 1258 256.489ZM1258.02 258.396C1257.5 258.396 1257.07 258.563 1256.72 258.897C1256.38 259.231 1256.19 259.756 1256.13 260.471H1259.89C1259.89 260.072 1259.82 259.718 1259.67 259.407C1259.54 259.097 1259.33 258.851 1259.06 258.669C1258.79 258.487 1258.44 258.396 1258.02 258.396ZM1270.17 256.489C1271.22 256.489 1272.06 256.776 1272.7 257.351C1273.34 257.919 1273.66 258.833 1273.66 260.093V266.5H1270.98V260.761C1270.98 260.058 1270.85 259.527 1270.59 259.17C1270.34 258.812 1269.94 258.634 1269.4 258.634C1268.58 258.634 1268.02 258.912 1267.72 259.469C1267.42 260.025 1267.27 260.828 1267.27 261.877V266.5H1264.59V256.674H1266.64L1267 257.931H1267.15C1267.36 257.591 1267.62 257.315 1267.93 257.104C1268.24 256.894 1268.59 256.738 1268.97 256.639C1269.36 256.539 1269.76 256.489 1270.17 256.489ZM1280.56 264.54C1280.85 264.54 1281.13 264.511 1281.41 264.452C1281.69 264.394 1281.97 264.32 1282.25 264.232V266.228C1281.96 266.356 1281.6 266.462 1281.17 266.544C1280.75 266.632 1280.29 266.676 1279.78 266.676C1279.2 266.676 1278.67 266.582 1278.2 266.395C1277.74 266.201 1277.37 265.87 1277.1 265.401C1276.84 264.927 1276.71 264.268 1276.71 263.424V258.687H1275.42V257.553L1276.9 256.656L1277.67 254.582H1279.39V256.674H1282.14V258.687H1279.39V263.424C1279.39 263.799 1279.49 264.08 1279.71 264.268C1279.92 264.449 1280.21 264.54 1280.56 264.54Z" fill="white"/>
<rect x="1110.5" y="230.5" width="227" height="59" rx="29.5" stroke="white" shape-rendering="crispEdges"/>
</g>
</g>
<defs>
<filter id="filter0_d_1797_7973" x="1098" y="222" width="252" height="84" filterUnits="userSpaceOnUse" color-interpolation-filters="sRGB">
<feFlood flood-opacity="0" result="BackgroundImageFix"/>
<feColorMatrix in="SourceAlpha" type="matrix" values="0 0 0 0 0 0 0 0 0 0 0 0 0 0 0 0 0 0 127 0" result="hardAlpha"/>
<feOffset dy="4"/>
<feGaussianBlur stdDeviation="6"/>
<feComposite in2="hardAlpha" operator="out"/>
<feColorMatrix type="matrix" values="0 0 0 0 0 0 0 0 0 0 0 0 0 0 0 0 0 0 0.25 0"/>
<feBlend mode="normal" in2="BackgroundImageFix" result="effect1_dropShadow_1797_7973"/>
<feBlend mode="normal" in="SourceGraphic" in2="effect1_dropShadow_1797_7973" result="shape"/>
</filter>
<linearGradient id="paint0_linear_1797_7973" x1="720" y1="0" x2="720" y2="350" gradientUnits="userSpaceOnUse">
<stop stop-color="#F65275"/>
<stop offset="1" stop-color="#8C3649"/>
</linearGradient>
<clipPath id="clip0_1797_7973">
<rect width="1440" height="350" fill="white"/>
</clipPath>
</defs>
</svg>
