<svg width="1440" height="350" viewBox="0 0 1440 350" fill="none" xmlns="http://www.w3.org/2000/svg">
<g clip-path="url(#clip0_1797_8041)">
<rect width="1440" height="350" fill="white"/>
<rect width="1440" height="350" fill="url(#paint0_linear_1797_8041)"/>
<path d="M140.562 106.312L128.094 152H124.969L115.188 117.5C114.958 116.771 114.75 116.083 114.562 115.438C114.396 114.771 114.229 114.146 114.062 113.562C113.917 112.958 113.771 112.396 113.625 111.875C113.5 111.333 113.396 110.844 113.312 110.406C113.229 110.844 113.135 111.312 113.031 111.812C112.948 112.292 112.844 112.792 112.719 113.312C112.594 113.833 112.458 114.375 112.312 114.938C112.167 115.5 112.01 116.083 111.844 116.688L102.094 152H98.9375L86.625 106.312H89.9375L98.5312 138.531C98.7604 139.385 98.9688 140.198 99.1562 140.969C99.3646 141.74 99.5521 142.49 99.7188 143.219C99.8854 143.927 100.042 144.625 100.188 145.312C100.354 145.979 100.5 146.656 100.625 147.344C100.771 146.656 100.917 145.958 101.062 145.25C101.208 144.542 101.365 143.823 101.531 143.094C101.719 142.365 101.906 141.615 102.094 140.844C102.302 140.052 102.531 139.229 102.781 138.375L111.75 106.312H114.969L124.281 138.562C124.531 139.458 124.76 140.302 124.969 141.094C125.177 141.885 125.365 142.646 125.531 143.375C125.698 144.083 125.854 144.781 126 145.469C126.146 146.135 126.292 146.812 126.438 147.5C126.604 146.562 126.771 145.646 126.938 144.75C127.125 143.833 127.344 142.875 127.594 141.875C127.844 140.875 128.125 139.781 128.438 138.594L137.219 106.312H140.562ZM150.906 103.375V119.25C150.906 120.167 150.885 121.021 150.844 121.812C150.823 122.604 150.781 123.406 150.719 124.219H150.938C151.5 122.927 152.302 121.771 153.344 120.75C154.406 119.729 155.708 118.917 157.25 118.312C158.812 117.708 160.615 117.406 162.656 117.406C165.24 117.406 167.406 117.854 169.156 118.75C170.927 119.625 172.271 120.969 173.188 122.781C174.104 124.594 174.562 126.927 174.562 129.781V152H171.438V129.969C171.438 126.594 170.667 124.115 169.125 122.531C167.583 120.948 165.344 120.156 162.406 120.156C159.906 120.156 157.802 120.646 156.094 121.625C154.385 122.583 153.094 124.042 152.219 126C151.344 127.938 150.906 130.365 150.906 133.281V152H147.75V103.375H150.906ZM197.438 117.438C201.167 117.438 203.958 118.375 205.812 120.25C207.667 122.125 208.594 125.115 208.594 129.219V152H206.156L205.594 146.062H205.406C204.677 147.333 203.792 148.469 202.75 149.469C201.708 150.448 200.427 151.219 198.906 151.781C197.406 152.344 195.573 152.625 193.406 152.625C191.219 152.625 189.344 152.26 187.781 151.531C186.24 150.802 185.042 149.74 184.188 148.344C183.354 146.948 182.938 145.25 182.938 143.25C182.938 139.875 184.333 137.312 187.125 135.562C189.917 133.792 193.927 132.792 199.156 132.562L205.469 132.25V129.781C205.469 126.302 204.781 123.823 203.406 122.344C202.031 120.865 200 120.125 197.312 120.125C195.562 120.125 193.875 120.354 192.25 120.812C190.646 121.25 189.01 121.885 187.344 122.719L186.344 120.094C187.969 119.323 189.708 118.688 191.562 118.188C193.438 117.688 195.396 117.438 197.438 117.438ZM205.438 134.719L199.5 134.969C195.188 135.177 191.906 135.948 189.656 137.281C187.406 138.615 186.281 140.615 186.281 143.281C186.281 145.427 186.948 147.073 188.281 148.219C189.635 149.365 191.51 149.938 193.906 149.938C197.635 149.938 200.479 148.875 202.438 146.75C204.417 144.625 205.417 141.729 205.438 138.062V134.719ZM228.688 149.906C229.667 149.906 230.573 149.833 231.406 149.688C232.26 149.542 233.01 149.354 233.656 149.125V151.75C232.99 151.979 232.208 152.177 231.312 152.344C230.417 152.531 229.427 152.625 228.344 152.625C226.427 152.625 224.833 152.271 223.562 151.562C222.292 150.833 221.333 149.74 220.688 148.281C220.042 146.802 219.719 144.927 219.719 142.656V120.656H214.656V118.781L219.688 117.812L220.781 109.812H222.875V118.031H233.469V120.656H222.875V142.469C222.875 144.906 223.323 146.76 224.219 148.031C225.135 149.281 226.625 149.906 228.688 149.906ZM243 106.312L243.438 106.938C243.125 108.583 242.708 110.281 242.188 112.031C241.667 113.781 241.094 115.5 240.469 117.188C239.844 118.875 239.188 120.469 238.5 121.969H236.25C236.667 120.823 237.073 119.583 237.469 118.25C237.865 116.896 238.219 115.521 238.531 114.125C238.865 112.729 239.146 111.365 239.375 110.031C239.625 108.698 239.823 107.458 239.969 106.312H243ZM271.5 143.094C271.5 145.115 270.99 146.844 269.969 148.281C268.969 149.698 267.5 150.781 265.562 151.531C263.625 152.26 261.24 152.625 258.406 152.625C256.052 152.625 253.948 152.417 252.094 152C250.24 151.583 248.688 151.073 247.438 150.469V147.344C249 148.115 250.729 148.74 252.625 149.219C254.521 149.698 256.469 149.938 258.469 149.938C261.969 149.938 264.49 149.344 266.031 148.156C267.573 146.969 268.344 145.344 268.344 143.281C268.344 141.927 267.958 140.812 267.188 139.938C266.438 139.042 265.354 138.271 263.938 137.625C262.521 136.979 260.812 136.323 258.812 135.656C256.729 134.948 254.875 134.25 253.25 133.562C251.646 132.854 250.385 131.927 249.469 130.781C248.552 129.615 248.094 128.031 248.094 126.031C248.094 123.302 249.188 121.177 251.375 119.656C253.562 118.135 256.5 117.375 260.188 117.375C262.229 117.375 264.125 117.573 265.875 117.969C267.646 118.344 269.25 118.833 270.688 119.438L269.562 122.125C268.271 121.521 266.781 121.031 265.094 120.656C263.406 120.281 261.719 120.094 260.031 120.094C257.26 120.094 255.094 120.583 253.531 121.562C251.969 122.542 251.188 123.979 251.188 125.875C251.188 127.333 251.562 128.479 252.312 129.312C253.062 130.125 254.135 130.812 255.531 131.375C256.927 131.917 258.583 132.521 260.5 133.188C262.479 133.875 264.302 134.594 265.969 135.344C267.656 136.094 269 137.062 270 138.25C271 139.438 271.5 141.052 271.5 143.094ZM330.75 152H327.469L300.469 111.594H300.312C300.354 112.719 300.385 113.865 300.406 115.031C300.448 116.177 300.479 117.365 300.5 118.594C300.542 119.802 300.562 121.052 300.562 122.344V152H297.5V106.312H300.812L327.719 146.594H327.875C327.854 145.677 327.823 144.615 327.781 143.406C327.76 142.198 327.729 140.958 327.688 139.688C327.667 138.417 327.656 137.219 327.656 136.094V106.312H330.75V152ZM355.75 117.375C358.646 117.375 361.052 118.052 362.969 119.406C364.906 120.76 366.344 122.615 367.281 124.969C368.24 127.323 368.719 130.021 368.719 133.062V135.344H344.188C344.188 140.01 345.26 143.594 347.406 146.094C349.573 148.594 352.667 149.844 356.688 149.844C358.792 149.844 360.615 149.677 362.156 149.344C363.719 148.99 365.448 148.396 367.344 147.562V150.469C365.677 151.219 364.01 151.76 362.344 152.094C360.677 152.448 358.76 152.625 356.594 152.625C353.156 152.625 350.271 151.917 347.938 150.5C345.625 149.062 343.875 147.042 342.688 144.438C341.521 141.833 340.938 138.792 340.938 135.312C340.938 131.917 341.5 128.865 342.625 126.156C343.771 123.448 345.438 121.312 347.625 119.75C349.833 118.167 352.542 117.375 355.75 117.375ZM355.719 120.094C352.469 120.094 349.833 121.177 347.812 123.344C345.812 125.49 344.635 128.594 344.281 132.656H365.438C365.438 130.177 365.083 127.99 364.375 126.094C363.667 124.198 362.594 122.729 361.156 121.688C359.74 120.625 357.927 120.094 355.719 120.094ZM405.219 152L398 129.188C397.771 128.5 397.562 127.844 397.375 127.219C397.188 126.594 397.01 125.99 396.844 125.406C396.677 124.823 396.521 124.26 396.375 123.719C396.229 123.156 396.083 122.604 395.938 122.062H395.781C395.635 122.604 395.49 123.156 395.344 123.719C395.198 124.281 395.042 124.865 394.875 125.469C394.708 126.073 394.531 126.688 394.344 127.312C394.156 127.938 393.948 128.583 393.719 129.25L386.25 152H383L373.344 118.031H376.688L382.656 139.75C383.01 141.021 383.312 142.156 383.562 143.156C383.812 144.156 384.031 145.062 384.219 145.875C384.406 146.688 384.573 147.458 384.719 148.188H384.875C385 147.667 385.135 147.125 385.281 146.562C385.427 145.979 385.583 145.354 385.75 144.688C385.917 144.021 386.115 143.312 386.344 142.562C386.573 141.812 386.823 141 387.094 140.125L394.375 118.031H397.5L404.5 140.062C404.833 141.125 405.135 142.146 405.406 143.125C405.698 144.083 405.948 144.979 406.156 145.812C406.385 146.646 406.573 147.427 406.719 148.156H406.906C406.99 147.469 407.115 146.719 407.281 145.906C407.469 145.073 407.688 144.146 407.938 143.125C408.208 142.104 408.51 140.979 408.844 139.75L414.594 118.031H417.781L408.562 152H405.219ZM427.812 140.219V139.094C427.812 137.156 427.958 135.542 428.25 134.25C428.562 132.958 429.104 131.802 429.875 130.781C430.667 129.76 431.781 128.698 433.219 127.594C434.802 126.406 436.115 125.312 437.156 124.312C438.219 123.292 439.01 122.198 439.531 121.031C440.073 119.844 440.344 118.396 440.344 116.688C440.344 113.938 439.5 111.885 437.812 110.531C436.125 109.177 433.885 108.5 431.094 108.5C429.323 108.5 427.677 108.708 426.156 109.125C424.656 109.542 423.146 110.125 421.625 110.875L420.5 108.156C422.292 107.344 424.01 106.729 425.656 106.312C427.323 105.875 429.177 105.656 431.219 105.656C434.99 105.656 437.969 106.604 440.156 108.5C442.344 110.375 443.438 113.094 443.438 116.656C443.438 118.698 443.094 120.448 442.406 121.906C441.74 123.365 440.802 124.677 439.594 125.844C438.385 127.01 436.969 128.198 435.344 129.406C434.115 130.344 433.146 131.26 432.438 132.156C431.729 133.031 431.229 134.031 430.938 135.156C430.646 136.281 430.5 137.677 430.5 139.344V140.219H427.812ZM426.812 149.781C426.812 148.865 427.021 148.167 427.438 147.688C427.854 147.188 428.479 146.938 429.312 146.938C430.188 146.938 430.833 147.188 431.25 147.688C431.667 148.167 431.875 148.865 431.875 149.781C431.875 150.698 431.667 151.406 431.25 151.906C430.833 152.406 430.188 152.656 429.312 152.656C428.479 152.656 427.854 152.406 427.438 151.906C427.021 151.406 426.812 150.698 426.812 149.781ZM102.707 203.41C102.707 204.73 102.543 205.934 102.215 207.02C101.887 208.098 101.387 209.027 100.715 209.809C100.051 210.59 99.207 211.191 98.1836 211.613C97.1602 212.027 95.9492 212.234 94.5508 212.234C93.1523 212.234 91.9414 212.027 90.918 211.613C89.8945 211.191 89.0469 210.59 88.375 209.809C87.7109 209.027 87.2148 208.094 86.8867 207.008C86.5586 205.922 86.3945 204.715 86.3945 203.387C86.3945 201.613 86.6836 200.07 87.2617 198.758C87.8477 197.438 88.7461 196.414 89.957 195.688C91.168 194.961 92.707 194.598 94.5742 194.598C96.4336 194.598 97.9609 194.961 99.1562 195.688C100.359 196.414 101.25 197.438 101.828 198.758C102.414 200.078 102.707 201.629 102.707 203.41ZM90.2031 203.41C90.2031 204.605 90.3516 205.637 90.6484 206.504C90.9531 207.363 91.4258 208.027 92.0664 208.496C92.707 208.957 93.5352 209.188 94.5508 209.188C95.582 209.188 96.418 208.957 97.0586 208.496C97.6992 208.027 98.1641 207.363 98.4531 206.504C98.75 205.637 98.8984 204.605 98.8984 203.41C98.8984 201.613 98.5625 200.199 97.8906 199.168C97.2188 198.137 96.1133 197.621 94.5742 197.621C93.5508 197.621 92.7148 197.855 92.0664 198.324C91.4258 198.785 90.9531 199.449 90.6484 200.316C90.3516 201.176 90.2031 202.207 90.2031 203.41ZM118 198.898V212H115.258L114.777 210.324H114.59C114.309 210.77 113.957 211.133 113.535 211.414C113.113 211.695 112.648 211.902 112.141 212.035C111.633 212.168 111.105 212.234 110.559 212.234C109.621 212.234 108.805 212.07 108.109 211.742C107.414 211.406 106.871 210.887 106.48 210.184C106.098 209.48 105.906 208.566 105.906 207.441V198.898H109.48V206.551C109.48 207.488 109.648 208.195 109.984 208.672C110.32 209.148 110.855 209.387 111.59 209.387C112.316 209.387 112.887 209.223 113.301 208.895C113.715 208.559 114.004 208.07 114.168 207.43C114.34 206.781 114.426 205.992 114.426 205.062V198.898H118ZM129.062 198.652C129.242 198.652 129.449 198.664 129.684 198.688C129.926 198.703 130.121 198.727 130.27 198.758L130 202.109C129.883 202.07 129.715 202.043 129.496 202.027C129.285 202.004 129.102 201.992 128.945 201.992C128.484 201.992 128.035 202.051 127.598 202.168C127.168 202.285 126.781 202.477 126.438 202.742C126.094 203 125.82 203.344 125.617 203.773C125.422 204.195 125.324 204.715 125.324 205.332V212H121.75V198.898H124.457L124.984 201.102H125.16C125.418 200.656 125.738 200.25 126.121 199.883C126.512 199.508 126.953 199.211 127.445 198.992C127.945 198.766 128.484 198.652 129.062 198.652ZM142.457 193.766V198.008C142.457 198.5 142.441 198.988 142.41 199.473C142.387 199.957 142.355 200.332 142.316 200.598H142.457C142.801 200.059 143.27 199.602 143.863 199.227C144.457 198.844 145.227 198.652 146.172 198.652C147.641 198.652 148.832 199.227 149.746 200.375C150.66 201.523 151.117 203.207 151.117 205.426C151.117 206.918 150.906 208.172 150.484 209.188C150.062 210.195 149.473 210.957 148.715 211.473C147.957 211.98 147.078 212.234 146.078 212.234C145.117 212.234 144.359 212.062 143.805 211.719C143.25 211.375 142.801 210.988 142.457 210.559H142.211L141.613 212H138.883V193.766H142.457ZM145.023 201.512C144.398 201.512 143.902 201.641 143.535 201.898C143.168 202.156 142.898 202.543 142.727 203.059C142.562 203.574 142.473 204.227 142.457 205.016V205.402C142.457 206.676 142.645 207.652 143.02 208.332C143.395 209.004 144.078 209.34 145.07 209.34C145.805 209.34 146.387 209 146.816 208.32C147.254 207.641 147.473 206.66 147.473 205.379C147.473 204.098 147.254 203.133 146.816 202.484C146.379 201.836 145.781 201.512 145.023 201.512ZM157.645 212H154.07V193.766H157.645V212ZM173.312 205.426C173.312 206.52 173.164 207.488 172.867 208.332C172.578 209.176 172.152 209.891 171.59 210.477C171.035 211.055 170.363 211.492 169.574 211.789C168.793 212.086 167.91 212.234 166.926 212.234C166.004 212.234 165.156 212.086 164.383 211.789C163.617 211.492 162.949 211.055 162.379 210.477C161.816 209.891 161.379 209.176 161.066 208.332C160.762 207.488 160.609 206.52 160.609 205.426C160.609 203.973 160.867 202.742 161.383 201.734C161.898 200.727 162.633 199.961 163.586 199.438C164.539 198.914 165.676 198.652 166.996 198.652C168.223 198.652 169.309 198.914 170.254 199.438C171.207 199.961 171.953 200.727 172.492 201.734C173.039 202.742 173.312 203.973 173.312 205.426ZM164.254 205.426C164.254 206.285 164.348 207.008 164.535 207.594C164.723 208.18 165.016 208.621 165.414 208.918C165.812 209.215 166.332 209.363 166.973 209.363C167.605 209.363 168.117 209.215 168.508 208.918C168.906 208.621 169.195 208.18 169.375 207.594C169.562 207.008 169.656 206.285 169.656 205.426C169.656 204.559 169.562 203.84 169.375 203.27C169.195 202.691 168.906 202.258 168.508 201.969C168.109 201.68 167.59 201.535 166.949 201.535C166.004 201.535 165.316 201.859 164.887 202.508C164.465 203.156 164.254 204.129 164.254 205.426ZM180.098 217.766C178.27 217.766 176.871 217.445 175.902 216.805C174.941 216.172 174.461 215.281 174.461 214.133C174.461 213.344 174.707 212.684 175.199 212.152C175.691 211.621 176.414 211.242 177.367 211.016C177 210.859 176.68 210.605 176.406 210.254C176.133 209.895 175.996 209.516 175.996 209.117C175.996 208.617 176.141 208.203 176.43 207.875C176.719 207.539 177.137 207.211 177.684 206.891C176.996 206.594 176.449 206.117 176.043 205.461C175.645 204.805 175.445 204.031 175.445 203.141C175.445 202.188 175.652 201.379 176.066 200.715C176.488 200.043 177.098 199.531 177.895 199.18C178.699 198.828 179.676 198.652 180.824 198.652C181.066 198.652 181.348 198.668 181.668 198.699C181.988 198.73 182.281 198.766 182.547 198.805C182.82 198.844 183.004 198.875 183.098 198.898H187.668V200.715L185.617 201.242C185.805 201.531 185.945 201.84 186.039 202.168C186.133 202.496 186.18 202.844 186.18 203.211C186.18 204.617 185.688 205.715 184.703 206.504C183.727 207.285 182.367 207.676 180.625 207.676C180.211 207.652 179.82 207.621 179.453 207.582C179.273 207.723 179.137 207.871 179.043 208.027C178.949 208.184 178.902 208.348 178.902 208.52C178.902 208.691 178.973 208.836 179.113 208.953C179.262 209.062 179.48 209.148 179.77 209.211C180.066 209.266 180.434 209.293 180.871 209.293H183.098C184.535 209.293 185.629 209.602 186.379 210.219C187.137 210.836 187.516 211.742 187.516 212.938C187.516 214.469 186.875 215.656 185.594 216.5C184.32 217.344 182.488 217.766 180.098 217.766ZM180.25 215.434C181.102 215.434 181.832 215.352 182.441 215.188C183.059 215.031 183.531 214.805 183.859 214.508C184.188 214.219 184.352 213.871 184.352 213.465C184.352 213.137 184.254 212.875 184.059 212.68C183.871 212.492 183.582 212.359 183.191 212.281C182.809 212.203 182.316 212.164 181.715 212.164H179.863C179.426 212.164 179.031 212.234 178.68 212.375C178.336 212.516 178.062 212.711 177.859 212.961C177.656 213.219 177.555 213.516 177.555 213.852C177.555 214.344 177.789 214.73 178.258 215.012C178.734 215.293 179.398 215.434 180.25 215.434ZM180.824 205.496C181.496 205.496 181.988 205.289 182.301 204.875C182.613 204.461 182.77 203.898 182.77 203.188C182.77 202.398 182.605 201.809 182.277 201.418C181.957 201.02 181.473 200.82 180.824 200.82C180.168 200.82 179.676 201.02 179.348 201.418C179.02 201.809 178.855 202.398 178.855 203.188C178.855 203.898 179.016 204.461 179.336 204.875C179.664 205.289 180.16 205.496 180.824 205.496ZM201.391 212.234C200.094 212.234 198.988 212 198.074 211.531C197.16 211.055 196.465 210.32 195.988 209.328C195.512 208.336 195.273 207.066 195.273 205.52C195.273 203.918 195.543 202.613 196.082 201.605C196.629 200.59 197.383 199.844 198.344 199.367C199.312 198.891 200.434 198.652 201.707 198.652C202.613 198.652 203.395 198.742 204.051 198.922C204.715 199.094 205.293 199.301 205.785 199.543L204.73 202.309C204.168 202.082 203.645 201.898 203.16 201.758C202.676 201.609 202.191 201.535 201.707 201.535C201.082 201.535 200.562 201.684 200.148 201.98C199.734 202.27 199.426 202.707 199.223 203.293C199.02 203.879 198.918 204.613 198.918 205.496C198.918 206.363 199.027 207.082 199.246 207.652C199.465 208.223 199.781 208.648 200.195 208.93C200.609 209.203 201.113 209.34 201.707 209.34C202.449 209.34 203.109 209.242 203.688 209.047C204.266 208.844 204.828 208.562 205.375 208.203V211.262C204.828 211.605 204.254 211.852 203.652 212C203.059 212.156 202.305 212.234 201.391 212.234ZM220.328 205.426C220.328 206.52 220.18 207.488 219.883 208.332C219.594 209.176 219.168 209.891 218.605 210.477C218.051 211.055 217.379 211.492 216.59 211.789C215.809 212.086 214.926 212.234 213.941 212.234C213.02 212.234 212.172 212.086 211.398 211.789C210.633 211.492 209.965 211.055 209.395 210.477C208.832 209.891 208.395 209.176 208.082 208.332C207.777 207.488 207.625 206.52 207.625 205.426C207.625 203.973 207.883 202.742 208.398 201.734C208.914 200.727 209.648 199.961 210.602 199.438C211.555 198.914 212.691 198.652 214.012 198.652C215.238 198.652 216.324 198.914 217.27 199.438C218.223 199.961 218.969 200.727 219.508 201.734C220.055 202.742 220.328 203.973 220.328 205.426ZM211.27 205.426C211.27 206.285 211.363 207.008 211.551 207.594C211.738 208.18 212.031 208.621 212.43 208.918C212.828 209.215 213.348 209.363 213.988 209.363C214.621 209.363 215.133 209.215 215.523 208.918C215.922 208.621 216.211 208.18 216.391 207.594C216.578 207.008 216.672 206.285 216.672 205.426C216.672 204.559 216.578 203.84 216.391 203.27C216.211 202.691 215.922 202.258 215.523 201.969C215.125 201.68 214.605 201.535 213.965 201.535C213.02 201.535 212.332 201.859 211.902 202.508C211.48 203.156 211.27 204.129 211.27 205.426ZM226.398 212L221.406 198.898H225.145L227.676 206.363C227.816 206.801 227.926 207.262 228.004 207.746C228.09 208.23 228.148 208.664 228.18 209.047H228.273C228.297 208.633 228.352 208.191 228.438 207.723C228.531 207.254 228.652 206.801 228.801 206.363L231.32 198.898H235.059L230.066 212H226.398ZM242.348 198.652C243.559 198.652 244.602 198.887 245.477 199.355C246.352 199.816 247.027 200.488 247.504 201.371C247.98 202.254 248.219 203.332 248.219 204.605V206.34H239.77C239.809 207.348 240.109 208.141 240.672 208.719C241.242 209.289 242.031 209.574 243.039 209.574C243.875 209.574 244.641 209.488 245.336 209.316C246.031 209.145 246.746 208.887 247.48 208.543V211.309C246.832 211.629 246.152 211.863 245.441 212.012C244.738 212.16 243.883 212.234 242.875 212.234C241.562 212.234 240.398 211.992 239.383 211.508C238.375 211.023 237.582 210.285 237.004 209.293C236.434 208.301 236.148 207.051 236.148 205.543C236.148 204.012 236.406 202.738 236.922 201.723C237.445 200.699 238.172 199.934 239.102 199.426C240.031 198.91 241.113 198.652 242.348 198.652ZM242.371 201.195C241.676 201.195 241.098 201.418 240.637 201.863C240.184 202.309 239.922 203.008 239.852 203.961H244.867C244.859 203.43 244.762 202.957 244.574 202.543C244.395 202.129 244.121 201.801 243.754 201.559C243.395 201.316 242.934 201.195 242.371 201.195ZM258.438 198.652C258.617 198.652 258.824 198.664 259.059 198.688C259.301 198.703 259.496 198.727 259.645 198.758L259.375 202.109C259.258 202.07 259.09 202.043 258.871 202.027C258.66 202.004 258.477 201.992 258.32 201.992C257.859 201.992 257.41 202.051 256.973 202.168C256.543 202.285 256.156 202.477 255.812 202.742C255.469 203 255.195 203.344 254.992 203.773C254.797 204.195 254.699 204.715 254.699 205.332V212H251.125V198.898H253.832L254.359 201.102H254.535C254.793 200.656 255.113 200.25 255.496 199.883C255.887 199.508 256.328 199.211 256.82 198.992C257.32 198.766 257.859 198.652 258.438 198.652ZM271.164 208.109C271.164 209 270.953 209.754 270.531 210.371C270.117 210.98 269.496 211.445 268.668 211.766C267.84 212.078 266.809 212.234 265.574 212.234C264.66 212.234 263.875 212.176 263.219 212.059C262.57 211.941 261.914 211.746 261.25 211.473V208.52C261.961 208.84 262.723 209.105 263.535 209.316C264.355 209.52 265.074 209.621 265.691 209.621C266.387 209.621 266.883 209.52 267.18 209.316C267.484 209.105 267.637 208.832 267.637 208.496C267.637 208.277 267.574 208.082 267.449 207.91C267.332 207.73 267.074 207.531 266.676 207.312C266.277 207.086 265.652 206.793 264.801 206.434C263.98 206.09 263.305 205.742 262.773 205.391C262.25 205.039 261.859 204.625 261.602 204.148C261.352 203.664 261.227 203.051 261.227 202.309C261.227 201.098 261.695 200.188 262.633 199.578C263.578 198.961 264.84 198.652 266.418 198.652C267.23 198.652 268.004 198.734 268.738 198.898C269.48 199.062 270.242 199.324 271.023 199.684L269.945 202.262C269.297 201.98 268.684 201.75 268.105 201.57C267.535 201.391 266.953 201.301 266.359 201.301C265.836 201.301 265.441 201.371 265.176 201.512C264.91 201.652 264.777 201.867 264.777 202.156C264.777 202.367 264.844 202.555 264.977 202.719C265.117 202.883 265.383 203.066 265.773 203.27C266.172 203.465 266.754 203.719 267.52 204.031C268.262 204.336 268.906 204.656 269.453 204.992C270 205.32 270.422 205.73 270.719 206.223C271.016 206.707 271.164 207.336 271.164 208.109ZM285.555 198.629C287.312 198.629 288.66 199.012 289.598 199.777C290.535 200.543 291.004 201.707 291.004 203.27V212H288.508L287.816 210.219H287.723C287.348 210.688 286.965 211.07 286.574 211.367C286.184 211.664 285.734 211.883 285.227 212.023C284.719 212.164 284.102 212.234 283.375 212.234C282.602 212.234 281.906 212.086 281.289 211.789C280.68 211.492 280.199 211.039 279.848 210.43C279.496 209.812 279.32 209.031 279.32 208.086C279.32 206.695 279.809 205.672 280.785 205.016C281.762 204.352 283.227 203.984 285.18 203.914L287.453 203.844V203.27C287.453 202.582 287.273 202.078 286.914 201.758C286.555 201.438 286.055 201.277 285.414 201.277C284.781 201.277 284.16 201.367 283.551 201.547C282.941 201.727 282.332 201.953 281.723 202.227L280.539 199.812C281.234 199.445 282.012 199.156 282.871 198.945C283.738 198.734 284.633 198.629 285.555 198.629ZM287.453 205.93L286.07 205.977C284.914 206.008 284.109 206.215 283.656 206.598C283.211 206.98 282.988 207.484 282.988 208.109C282.988 208.656 283.148 209.047 283.469 209.281C283.789 209.508 284.207 209.621 284.723 209.621C285.488 209.621 286.133 209.395 286.656 208.941C287.188 208.488 287.453 207.844 287.453 207.008V205.93ZM311.699 212L310.691 207.418C310.637 207.145 310.547 206.742 310.422 206.211C310.297 205.672 310.16 205.098 310.012 204.488C309.871 203.871 309.738 203.301 309.613 202.777C309.496 202.254 309.41 201.871 309.355 201.629H309.25C309.195 201.871 309.109 202.254 308.992 202.777C308.875 203.301 308.742 203.871 308.594 204.488C308.453 205.105 308.32 205.688 308.195 206.234C308.07 206.773 307.977 207.184 307.914 207.465L306.859 212H303.016L299.289 198.898H302.852L304.363 204.699C304.465 205.105 304.562 205.59 304.656 206.152C304.75 206.707 304.832 207.246 304.902 207.77C304.98 208.285 305.039 208.695 305.078 209H305.172C305.188 208.773 305.219 208.473 305.266 208.098C305.32 207.723 305.379 207.336 305.441 206.938C305.512 206.531 305.574 206.168 305.629 205.848C305.691 205.52 305.738 205.297 305.77 205.18L307.387 198.898H311.324L312.859 205.18C312.914 205.406 312.984 205.766 313.07 206.258C313.164 206.75 313.246 207.258 313.316 207.781C313.387 208.297 313.426 208.703 313.434 209H313.527C313.559 208.734 313.613 208.34 313.691 207.816C313.77 207.293 313.859 206.746 313.961 206.176C314.07 205.598 314.18 205.105 314.289 204.699L315.859 198.898H319.363L315.59 212H311.699ZM325.059 198.898V212H321.484V198.898H325.059ZM323.277 193.766C323.809 193.766 324.266 193.891 324.648 194.141C325.031 194.383 325.223 194.84 325.223 195.512C325.223 196.176 325.031 196.637 324.648 196.895C324.266 197.145 323.809 197.27 323.277 197.27C322.738 197.27 322.277 197.145 321.895 196.895C321.52 196.637 321.332 196.176 321.332 195.512C321.332 194.84 321.52 194.383 321.895 194.141C322.277 193.891 322.738 193.766 323.277 193.766ZM332.969 212.234C331.508 212.234 330.316 211.664 329.395 210.523C328.48 209.375 328.023 207.691 328.023 205.473C328.023 203.23 328.488 201.535 329.418 200.387C330.348 199.23 331.562 198.652 333.062 198.652C333.688 198.652 334.238 198.738 334.715 198.91C335.191 199.082 335.602 199.312 335.945 199.602C336.297 199.891 336.594 200.215 336.836 200.574H336.953C336.906 200.324 336.848 199.957 336.777 199.473C336.715 198.98 336.684 198.477 336.684 197.961V193.766H340.27V212H337.527L336.836 210.301H336.684C336.457 210.66 336.172 210.988 335.828 211.285C335.492 211.574 335.09 211.805 334.621 211.977C334.152 212.148 333.602 212.234 332.969 212.234ZM334.223 209.387C335.199 209.387 335.887 209.098 336.285 208.52C336.691 207.934 336.906 207.055 336.93 205.883V205.496C336.93 204.223 336.734 203.25 336.344 202.578C335.953 201.898 335.227 201.559 334.164 201.559C333.375 201.559 332.758 201.898 332.312 202.578C331.867 203.258 331.645 204.238 331.645 205.52C331.645 206.801 331.867 207.766 332.312 208.414C332.766 209.062 333.402 209.387 334.223 209.387ZM349.41 198.652C350.621 198.652 351.664 198.887 352.539 199.355C353.414 199.816 354.09 200.488 354.566 201.371C355.043 202.254 355.281 203.332 355.281 204.605V206.34H346.832C346.871 207.348 347.172 208.141 347.734 208.719C348.305 209.289 349.094 209.574 350.102 209.574C350.938 209.574 351.703 209.488 352.398 209.316C353.094 209.145 353.809 208.887 354.543 208.543V211.309C353.895 211.629 353.215 211.863 352.504 212.012C351.801 212.16 350.945 212.234 349.938 212.234C348.625 212.234 347.461 211.992 346.445 211.508C345.438 211.023 344.645 210.285 344.066 209.293C343.496 208.301 343.211 207.051 343.211 205.543C343.211 204.012 343.469 202.738 343.984 201.723C344.508 200.699 345.234 199.934 346.164 199.426C347.094 198.91 348.176 198.652 349.41 198.652ZM349.434 201.195C348.738 201.195 348.16 201.418 347.699 201.863C347.246 202.309 346.984 203.008 346.914 203.961H351.93C351.922 203.43 351.824 202.957 351.637 202.543C351.457 202.129 351.184 201.801 350.816 201.559C350.457 201.316 349.996 201.195 349.434 201.195ZM371.734 198.652C371.914 198.652 372.121 198.664 372.355 198.688C372.598 198.703 372.793 198.727 372.941 198.758L372.672 202.109C372.555 202.07 372.387 202.043 372.168 202.027C371.957 202.004 371.773 201.992 371.617 201.992C371.156 201.992 370.707 202.051 370.27 202.168C369.84 202.285 369.453 202.477 369.109 202.742C368.766 203 368.492 203.344 368.289 203.773C368.094 204.195 367.996 204.715 367.996 205.332V212H364.422V198.898H367.129L367.656 201.102H367.832C368.09 200.656 368.41 200.25 368.793 199.883C369.184 199.508 369.625 199.211 370.117 198.992C370.617 198.766 371.156 198.652 371.734 198.652ZM380.688 198.629C382.445 198.629 383.793 199.012 384.73 199.777C385.668 200.543 386.137 201.707 386.137 203.27V212H383.641L382.949 210.219H382.855C382.48 210.688 382.098 211.07 381.707 211.367C381.316 211.664 380.867 211.883 380.359 212.023C379.852 212.164 379.234 212.234 378.508 212.234C377.734 212.234 377.039 212.086 376.422 211.789C375.812 211.492 375.332 211.039 374.98 210.43C374.629 209.812 374.453 209.031 374.453 208.086C374.453 206.695 374.941 205.672 375.918 205.016C376.895 204.352 378.359 203.984 380.312 203.914L382.586 203.844V203.27C382.586 202.582 382.406 202.078 382.047 201.758C381.688 201.438 381.188 201.277 380.547 201.277C379.914 201.277 379.293 201.367 378.684 201.547C378.074 201.727 377.465 201.953 376.855 202.227L375.672 199.812C376.367 199.445 377.145 199.156 378.004 198.945C378.871 198.734 379.766 198.629 380.688 198.629ZM382.586 205.93L381.203 205.977C380.047 206.008 379.242 206.215 378.789 206.598C378.344 206.98 378.121 207.484 378.121 208.109C378.121 208.656 378.281 209.047 378.602 209.281C378.922 209.508 379.34 209.621 379.855 209.621C380.621 209.621 381.266 209.395 381.789 208.941C382.32 208.488 382.586 207.844 382.586 207.008V205.93ZM397.27 198.652C398.668 198.652 399.793 199.035 400.645 199.801C401.496 200.559 401.922 201.777 401.922 203.457V212H398.348V204.348C398.348 203.41 398.176 202.703 397.832 202.227C397.496 201.75 396.965 201.512 396.238 201.512C395.145 201.512 394.398 201.883 394 202.625C393.602 203.367 393.402 204.438 393.402 205.836V212H389.828V198.898H392.559L393.039 200.574H393.238C393.52 200.121 393.867 199.754 394.281 199.473C394.703 199.191 395.168 198.984 395.676 198.852C396.191 198.719 396.723 198.652 397.27 198.652ZM409.434 217.766C407.605 217.766 406.207 217.445 405.238 216.805C404.277 216.172 403.797 215.281 403.797 214.133C403.797 213.344 404.043 212.684 404.535 212.152C405.027 211.621 405.75 211.242 406.703 211.016C406.336 210.859 406.016 210.605 405.742 210.254C405.469 209.895 405.332 209.516 405.332 209.117C405.332 208.617 405.477 208.203 405.766 207.875C406.055 207.539 406.473 207.211 407.02 206.891C406.332 206.594 405.785 206.117 405.379 205.461C404.98 204.805 404.781 204.031 404.781 203.141C404.781 202.188 404.988 201.379 405.402 200.715C405.824 200.043 406.434 199.531 407.23 199.18C408.035 198.828 409.012 198.652 410.16 198.652C410.402 198.652 410.684 198.668 411.004 198.699C411.324 198.73 411.617 198.766 411.883 198.805C412.156 198.844 412.34 198.875 412.434 198.898H417.004V200.715L414.953 201.242C415.141 201.531 415.281 201.84 415.375 202.168C415.469 202.496 415.516 202.844 415.516 203.211C415.516 204.617 415.023 205.715 414.039 206.504C413.062 207.285 411.703 207.676 409.961 207.676C409.547 207.652 409.156 207.621 408.789 207.582C408.609 207.723 408.473 207.871 408.379 208.027C408.285 208.184 408.238 208.348 408.238 208.52C408.238 208.691 408.309 208.836 408.449 208.953C408.598 209.062 408.816 209.148 409.105 209.211C409.402 209.266 409.77 209.293 410.207 209.293H412.434C413.871 209.293 414.965 209.602 415.715 210.219C416.473 210.836 416.852 211.742 416.852 212.938C416.852 214.469 416.211 215.656 414.93 216.5C413.656 217.344 411.824 217.766 409.434 217.766ZM409.586 215.434C410.438 215.434 411.168 215.352 411.777 215.188C412.395 215.031 412.867 214.805 413.195 214.508C413.523 214.219 413.688 213.871 413.688 213.465C413.688 213.137 413.59 212.875 413.395 212.68C413.207 212.492 412.918 212.359 412.527 212.281C412.145 212.203 411.652 212.164 411.051 212.164H409.199C408.762 212.164 408.367 212.234 408.016 212.375C407.672 212.516 407.398 212.711 407.195 212.961C406.992 213.219 406.891 213.516 406.891 213.852C406.891 214.344 407.125 214.73 407.594 215.012C408.07 215.293 408.734 215.434 409.586 215.434ZM410.16 205.496C410.832 205.496 411.324 205.289 411.637 204.875C411.949 204.461 412.105 203.898 412.105 203.188C412.105 202.398 411.941 201.809 411.613 201.418C411.293 201.02 410.809 200.82 410.16 200.82C409.504 200.82 409.012 201.02 408.684 201.418C408.355 201.809 408.191 202.398 408.191 203.188C408.191 203.898 408.352 204.461 408.672 204.875C409 205.289 409.496 205.496 410.16 205.496ZM424.574 198.652C425.785 198.652 426.828 198.887 427.703 199.355C428.578 199.816 429.254 200.488 429.73 201.371C430.207 202.254 430.445 203.332 430.445 204.605V206.34H421.996C422.035 207.348 422.336 208.141 422.898 208.719C423.469 209.289 424.258 209.574 425.266 209.574C426.102 209.574 426.867 209.488 427.562 209.316C428.258 209.145 428.973 208.887 429.707 208.543V211.309C429.059 211.629 428.379 211.863 427.668 212.012C426.965 212.16 426.109 212.234 425.102 212.234C423.789 212.234 422.625 211.992 421.609 211.508C420.602 211.023 419.809 210.285 419.23 209.293C418.66 208.301 418.375 207.051 418.375 205.543C418.375 204.012 418.633 202.738 419.148 201.723C419.672 200.699 420.398 199.934 421.328 199.426C422.258 198.91 423.34 198.652 424.574 198.652ZM424.598 201.195C423.902 201.195 423.324 201.418 422.863 201.863C422.41 202.309 422.148 203.008 422.078 203.961H427.094C427.086 203.43 426.988 202.957 426.801 202.543C426.621 202.129 426.348 201.801 425.98 201.559C425.621 201.316 425.16 201.195 424.598 201.195ZM451.492 205.426C451.492 206.52 451.344 207.488 451.047 208.332C450.758 209.176 450.332 209.891 449.77 210.477C449.215 211.055 448.543 211.492 447.754 211.789C446.973 212.086 446.09 212.234 445.105 212.234C444.184 212.234 443.336 212.086 442.562 211.789C441.797 211.492 441.129 211.055 440.559 210.477C439.996 209.891 439.559 209.176 439.246 208.332C438.941 207.488 438.789 206.52 438.789 205.426C438.789 203.973 439.047 202.742 439.562 201.734C440.078 200.727 440.812 199.961 441.766 199.438C442.719 198.914 443.855 198.652 445.176 198.652C446.402 198.652 447.488 198.914 448.434 199.438C449.387 199.961 450.133 200.727 450.672 201.734C451.219 202.742 451.492 203.973 451.492 205.426ZM442.434 205.426C442.434 206.285 442.527 207.008 442.715 207.594C442.902 208.18 443.195 208.621 443.594 208.918C443.992 209.215 444.512 209.363 445.152 209.363C445.785 209.363 446.297 209.215 446.688 208.918C447.086 208.621 447.375 208.18 447.555 207.594C447.742 207.008 447.836 206.285 447.836 205.426C447.836 204.559 447.742 203.84 447.555 203.27C447.375 202.691 447.086 202.258 446.688 201.969C446.289 201.68 445.77 201.535 445.129 201.535C444.184 201.535 443.496 201.859 443.066 202.508C442.645 203.156 442.434 204.129 442.434 205.426ZM461.688 201.582H458.594V212H455.02V201.582H453.051V199.859L455.02 198.898V197.938C455.02 196.82 455.207 195.953 455.582 195.336C455.965 194.711 456.5 194.273 457.188 194.023C457.883 193.766 458.703 193.637 459.648 193.637C460.344 193.637 460.977 193.695 461.547 193.812C462.117 193.922 462.582 194.047 462.941 194.188L462.027 196.812C461.754 196.727 461.457 196.648 461.137 196.578C460.816 196.508 460.449 196.473 460.035 196.473C459.535 196.473 459.168 196.625 458.934 196.93C458.707 197.227 458.594 197.609 458.594 198.078V198.898H461.688V201.582ZM475.504 209.387C475.895 209.387 476.273 209.348 476.641 209.27C477.016 209.191 477.387 209.094 477.754 208.977V211.637C477.371 211.809 476.895 211.949 476.324 212.059C475.762 212.176 475.145 212.234 474.473 212.234C473.691 212.234 472.988 212.109 472.363 211.859C471.746 211.602 471.258 211.16 470.898 210.535C470.547 209.902 470.371 209.023 470.371 207.898V201.582H468.66V200.07L470.629 198.875L471.66 196.109H473.945V198.898H477.613V201.582H473.945V207.898C473.945 208.398 474.086 208.773 474.367 209.023C474.656 209.266 475.035 209.387 475.504 209.387ZM492.32 205.426C492.32 206.52 492.172 207.488 491.875 208.332C491.586 209.176 491.16 209.891 490.598 210.477C490.043 211.055 489.371 211.492 488.582 211.789C487.801 212.086 486.918 212.234 485.934 212.234C485.012 212.234 484.164 212.086 483.391 211.789C482.625 211.492 481.957 211.055 481.387 210.477C480.824 209.891 480.387 209.176 480.074 208.332C479.77 207.488 479.617 206.52 479.617 205.426C479.617 203.973 479.875 202.742 480.391 201.734C480.906 200.727 481.641 199.961 482.594 199.438C483.547 198.914 484.684 198.652 486.004 198.652C487.23 198.652 488.316 198.914 489.262 199.438C490.215 199.961 490.961 200.727 491.5 201.734C492.047 202.742 492.32 203.973 492.32 205.426ZM483.262 205.426C483.262 206.285 483.355 207.008 483.543 207.594C483.73 208.18 484.023 208.621 484.422 208.918C484.82 209.215 485.34 209.363 485.98 209.363C486.613 209.363 487.125 209.215 487.516 208.918C487.914 208.621 488.203 208.18 488.383 207.594C488.57 207.008 488.664 206.285 488.664 205.426C488.664 204.559 488.57 203.84 488.383 203.27C488.203 202.691 487.914 202.258 487.516 201.969C487.117 201.68 486.598 201.535 485.957 201.535C485.012 201.535 484.324 201.859 483.895 202.508C483.473 203.156 483.262 204.129 483.262 205.426ZM502.562 198.652C504.039 198.652 505.23 199.227 506.137 200.375C507.051 201.523 507.508 203.207 507.508 205.426C507.508 206.91 507.293 208.16 506.863 209.176C506.434 210.184 505.84 210.945 505.082 211.461C504.324 211.977 503.453 212.234 502.469 212.234C501.836 212.234 501.293 212.156 500.84 212C500.387 211.836 500 211.629 499.68 211.379C499.359 211.121 499.082 210.848 498.848 210.559H498.66C498.723 210.871 498.77 211.191 498.801 211.52C498.832 211.848 498.848 212.168 498.848 212.48V217.766H495.273V198.898H498.18L498.684 200.598H498.848C499.082 200.246 499.367 199.922 499.703 199.625C500.039 199.328 500.441 199.094 500.91 198.922C501.387 198.742 501.938 198.652 502.562 198.652ZM501.414 201.512C500.789 201.512 500.293 201.641 499.926 201.898C499.559 202.156 499.289 202.543 499.117 203.059C498.953 203.574 498.863 204.227 498.848 205.016V205.402C498.848 206.246 498.926 206.961 499.082 207.547C499.246 208.133 499.516 208.578 499.891 208.883C500.273 209.188 500.797 209.34 501.461 209.34C502.008 209.34 502.457 209.188 502.809 208.883C503.16 208.578 503.422 208.133 503.594 207.547C503.773 206.953 503.863 206.23 503.863 205.379C503.863 204.098 503.664 203.133 503.266 202.484C502.867 201.836 502.25 201.512 501.414 201.512ZM514.035 198.898V212H510.461V198.898H514.035ZM512.254 193.766C512.785 193.766 513.242 193.891 513.625 194.141C514.008 194.383 514.199 194.84 514.199 195.512C514.199 196.176 514.008 196.637 513.625 196.895C513.242 197.145 512.785 197.27 512.254 197.27C511.715 197.27 511.254 197.145 510.871 196.895C510.496 196.637 510.309 196.176 510.309 195.512C510.309 194.84 510.496 194.383 510.871 194.141C511.254 193.891 511.715 193.766 512.254 193.766ZM523.117 212.234C521.82 212.234 520.715 212 519.801 211.531C518.887 211.055 518.191 210.32 517.715 209.328C517.238 208.336 517 207.066 517 205.52C517 203.918 517.27 202.613 517.809 201.605C518.355 200.59 519.109 199.844 520.07 199.367C521.039 198.891 522.16 198.652 523.434 198.652C524.34 198.652 525.121 198.742 525.777 198.922C526.441 199.094 527.02 199.301 527.512 199.543L526.457 202.309C525.895 202.082 525.371 201.898 524.887 201.758C524.402 201.609 523.918 201.535 523.434 201.535C522.809 201.535 522.289 201.684 521.875 201.98C521.461 202.27 521.152 202.707 520.949 203.293C520.746 203.879 520.645 204.613 520.645 205.496C520.645 206.363 520.754 207.082 520.973 207.652C521.191 208.223 521.508 208.648 521.922 208.93C522.336 209.203 522.84 209.34 523.434 209.34C524.176 209.34 524.836 209.242 525.414 209.047C525.992 208.844 526.555 208.562 527.102 208.203V211.262C526.555 211.605 525.98 211.852 525.379 212C524.785 212.156 524.031 212.234 523.117 212.234ZM539.289 208.109C539.289 209 539.078 209.754 538.656 210.371C538.242 210.98 537.621 211.445 536.793 211.766C535.965 212.078 534.934 212.234 533.699 212.234C532.785 212.234 532 212.176 531.344 212.059C530.695 211.941 530.039 211.746 529.375 211.473V208.52C530.086 208.84 530.848 209.105 531.66 209.316C532.48 209.52 533.199 209.621 533.816 209.621C534.512 209.621 535.008 209.52 535.305 209.316C535.609 209.105 535.762 208.832 535.762 208.496C535.762 208.277 535.699 208.082 535.574 207.91C535.457 207.73 535.199 207.531 534.801 207.312C534.402 207.086 533.777 206.793 532.926 206.434C532.105 206.09 531.43 205.742 530.898 205.391C530.375 205.039 529.984 204.625 529.727 204.148C529.477 203.664 529.352 203.051 529.352 202.309C529.352 201.098 529.82 200.188 530.758 199.578C531.703 198.961 532.965 198.652 534.543 198.652C535.355 198.652 536.129 198.734 536.863 198.898C537.605 199.062 538.367 199.324 539.148 199.684L538.07 202.262C537.422 201.98 536.809 201.75 536.23 201.57C535.66 201.391 535.078 201.301 534.484 201.301C533.961 201.301 533.566 201.371 533.301 201.512C533.035 201.652 532.902 201.867 532.902 202.156C532.902 202.367 532.969 202.555 533.102 202.719C533.242 202.883 533.508 203.066 533.898 203.27C534.297 203.465 534.879 203.719 535.645 204.031C536.387 204.336 537.031 204.656 537.578 204.992C538.125 205.32 538.547 205.73 538.844 206.223C539.141 206.707 539.289 207.336 539.289 208.109ZM551.887 212H548.312V193.766H551.887V212ZM559.223 198.898V212H555.648V198.898H559.223ZM557.441 193.766C557.973 193.766 558.43 193.891 558.812 194.141C559.195 194.383 559.387 194.84 559.387 195.512C559.387 196.176 559.195 196.637 558.812 196.895C558.43 197.145 557.973 197.27 557.441 197.27C556.902 197.27 556.441 197.145 556.059 196.895C555.684 196.637 555.496 196.176 555.496 195.512C555.496 194.84 555.684 194.383 556.059 194.141C556.441 193.891 556.902 193.766 557.441 193.766ZM566.559 193.766V201.922C566.559 202.414 566.539 202.906 566.5 203.398C566.461 203.891 566.418 204.383 566.371 204.875H566.418C566.66 204.531 566.906 204.191 567.156 203.855C567.414 203.52 567.688 203.195 567.977 202.883L571.645 198.898H575.676L570.473 204.582L575.992 212H571.867L568.094 206.691L566.559 207.922V212H562.984V193.766H566.559ZM583.27 198.652C584.48 198.652 585.523 198.887 586.398 199.355C587.273 199.816 587.949 200.488 588.426 201.371C588.902 202.254 589.141 203.332 589.141 204.605V206.34H580.691C580.73 207.348 581.031 208.141 581.594 208.719C582.164 209.289 582.953 209.574 583.961 209.574C584.797 209.574 585.562 209.488 586.258 209.316C586.953 209.145 587.668 208.887 588.402 208.543V211.309C587.754 211.629 587.074 211.863 586.363 212.012C585.66 212.16 584.805 212.234 583.797 212.234C582.484 212.234 581.32 211.992 580.305 211.508C579.297 211.023 578.504 210.285 577.926 209.293C577.355 208.301 577.07 207.051 577.07 205.543C577.07 204.012 577.328 202.738 577.844 201.723C578.367 200.699 579.094 199.934 580.023 199.426C580.953 198.91 582.035 198.652 583.27 198.652ZM583.293 201.195C582.598 201.195 582.02 201.418 581.559 201.863C581.105 202.309 580.844 203.008 580.773 203.961H585.789C585.781 203.43 585.684 202.957 585.496 202.543C585.316 202.129 585.043 201.801 584.676 201.559C584.316 201.316 583.855 201.195 583.293 201.195ZM607.422 208.109C607.422 209 607.211 209.754 606.789 210.371C606.375 210.98 605.754 211.445 604.926 211.766C604.098 212.078 603.066 212.234 601.832 212.234C600.918 212.234 600.133 212.176 599.477 212.059C598.828 211.941 598.172 211.746 597.508 211.473V208.52C598.219 208.84 598.98 209.105 599.793 209.316C600.613 209.52 601.332 209.621 601.949 209.621C602.645 209.621 603.141 209.52 603.438 209.316C603.742 209.105 603.895 208.832 603.895 208.496C603.895 208.277 603.832 208.082 603.707 207.91C603.59 207.73 603.332 207.531 602.934 207.312C602.535 207.086 601.91 206.793 601.059 206.434C600.238 206.09 599.562 205.742 599.031 205.391C598.508 205.039 598.117 204.625 597.859 204.148C597.609 203.664 597.484 203.051 597.484 202.309C597.484 201.098 597.953 200.188 598.891 199.578C599.836 198.961 601.098 198.652 602.676 198.652C603.488 198.652 604.262 198.734 604.996 198.898C605.738 199.062 606.5 199.324 607.281 199.684L606.203 202.262C605.555 201.98 604.941 201.75 604.363 201.57C603.793 201.391 603.211 201.301 602.617 201.301C602.094 201.301 601.699 201.371 601.434 201.512C601.168 201.652 601.035 201.867 601.035 202.156C601.035 202.367 601.102 202.555 601.234 202.719C601.375 202.883 601.641 203.066 602.031 203.27C602.43 203.465 603.012 203.719 603.777 204.031C604.52 204.336 605.164 204.656 605.711 204.992C606.258 205.32 606.68 205.73 606.977 206.223C607.273 206.707 607.422 207.336 607.422 208.109ZM615.613 198.652C616.824 198.652 617.867 198.887 618.742 199.355C619.617 199.816 620.293 200.488 620.77 201.371C621.246 202.254 621.484 203.332 621.484 204.605V206.34H613.035C613.074 207.348 613.375 208.141 613.938 208.719C614.508 209.289 615.297 209.574 616.305 209.574C617.141 209.574 617.906 209.488 618.602 209.316C619.297 209.145 620.012 208.887 620.746 208.543V211.309C620.098 211.629 619.418 211.863 618.707 212.012C618.004 212.16 617.148 212.234 616.141 212.234C614.828 212.234 613.664 211.992 612.648 211.508C611.641 211.023 610.848 210.285 610.27 209.293C609.699 208.301 609.414 207.051 609.414 205.543C609.414 204.012 609.672 202.738 610.188 201.723C610.711 200.699 611.438 199.934 612.367 199.426C613.297 198.91 614.379 198.652 615.613 198.652ZM615.637 201.195C614.941 201.195 614.363 201.418 613.902 201.863C613.449 202.309 613.188 203.008 613.117 203.961H618.133C618.125 203.43 618.027 202.957 617.84 202.543C617.66 202.129 617.387 201.801 617.02 201.559C616.66 201.316 616.199 201.195 615.637 201.195ZM629.758 198.629C631.516 198.629 632.863 199.012 633.801 199.777C634.738 200.543 635.207 201.707 635.207 203.27V212H632.711L632.02 210.219H631.926C631.551 210.688 631.168 211.07 630.777 211.367C630.387 211.664 629.938 211.883 629.43 212.023C628.922 212.164 628.305 212.234 627.578 212.234C626.805 212.234 626.109 212.086 625.492 211.789C624.883 211.492 624.402 211.039 624.051 210.43C623.699 209.812 623.523 209.031 623.523 208.086C623.523 206.695 624.012 205.672 624.988 205.016C625.965 204.352 627.43 203.984 629.383 203.914L631.656 203.844V203.27C631.656 202.582 631.477 202.078 631.117 201.758C630.758 201.438 630.258 201.277 629.617 201.277C628.984 201.277 628.363 201.367 627.754 201.547C627.145 201.727 626.535 201.953 625.926 202.227L624.742 199.812C625.438 199.445 626.215 199.156 627.074 198.945C627.941 198.734 628.836 198.629 629.758 198.629ZM631.656 205.93L630.273 205.977C629.117 206.008 628.312 206.215 627.859 206.598C627.414 206.98 627.191 207.484 627.191 208.109C627.191 208.656 627.352 209.047 627.672 209.281C627.992 209.508 628.41 209.621 628.926 209.621C629.691 209.621 630.336 209.395 630.859 208.941C631.391 208.488 631.656 207.844 631.656 207.008V205.93ZM646.211 198.652C646.391 198.652 646.598 198.664 646.832 198.688C647.074 198.703 647.27 198.727 647.418 198.758L647.148 202.109C647.031 202.07 646.863 202.043 646.645 202.027C646.434 202.004 646.25 201.992 646.094 201.992C645.633 201.992 645.184 202.051 644.746 202.168C644.316 202.285 643.93 202.477 643.586 202.742C643.242 203 642.969 203.344 642.766 203.773C642.57 204.195 642.473 204.715 642.473 205.332V212H638.898V198.898H641.605L642.133 201.102H642.309C642.566 200.656 642.887 200.25 643.27 199.883C643.66 199.508 644.102 199.211 644.594 198.992C645.094 198.766 645.633 198.652 646.211 198.652ZM655.117 212.234C653.82 212.234 652.715 212 651.801 211.531C650.887 211.055 650.191 210.32 649.715 209.328C649.238 208.336 649 207.066 649 205.52C649 203.918 649.27 202.613 649.809 201.605C650.355 200.59 651.109 199.844 652.07 199.367C653.039 198.891 654.16 198.652 655.434 198.652C656.34 198.652 657.121 198.742 657.777 198.922C658.441 199.094 659.02 199.301 659.512 199.543L658.457 202.309C657.895 202.082 657.371 201.898 656.887 201.758C656.402 201.609 655.918 201.535 655.434 201.535C654.809 201.535 654.289 201.684 653.875 201.98C653.461 202.27 653.152 202.707 652.949 203.293C652.746 203.879 652.645 204.613 652.645 205.496C652.645 206.363 652.754 207.082 652.973 207.652C653.191 208.223 653.508 208.648 653.922 208.93C654.336 209.203 654.84 209.34 655.434 209.34C656.176 209.34 656.836 209.242 657.414 209.047C657.992 208.844 658.555 208.562 659.102 208.203V211.262C658.555 211.605 657.98 211.852 657.379 212C656.785 212.156 656.031 212.234 655.117 212.234ZM665.723 193.766V197.48C665.723 198.129 665.699 198.746 665.652 199.332C665.613 199.918 665.582 200.332 665.559 200.574H665.746C666.027 200.121 666.359 199.754 666.742 199.473C667.133 199.191 667.562 198.984 668.031 198.852C668.5 198.719 669.004 198.652 669.543 198.652C670.488 198.652 671.312 198.82 672.016 199.156C672.719 199.484 673.266 200.004 673.656 200.715C674.047 201.418 674.242 202.332 674.242 203.457V212H670.668V204.348C670.668 203.41 670.496 202.703 670.152 202.227C669.809 201.75 669.277 201.512 668.559 201.512C667.84 201.512 667.273 201.68 666.859 202.016C666.445 202.344 666.152 202.832 665.98 203.48C665.809 204.121 665.723 204.906 665.723 205.836V212H662.148V193.766H665.723ZM681.25 209.211L681.426 209.48C681.285 210.043 681.102 210.648 680.875 211.297C680.656 211.945 680.414 212.594 680.148 213.242C679.891 213.891 679.629 214.508 679.363 215.094H676.785C676.941 214.461 677.094 213.797 677.242 213.102C677.391 212.406 677.527 211.723 677.652 211.051C677.785 210.379 677.891 209.766 677.969 209.211H681.25ZM96.0156 250.109C96.0156 251 95.8047 251.754 95.3828 252.371C94.9688 252.98 94.3477 253.445 93.5195 253.766C92.6914 254.078 91.6602 254.234 90.4258 254.234C89.5117 254.234 88.7266 254.176 88.0703 254.059C87.4219 253.941 86.7656 253.746 86.1016 253.473V250.52C86.8125 250.84 87.5742 251.105 88.3867 251.316C89.207 251.52 89.9258 251.621 90.543 251.621C91.2383 251.621 91.7344 251.52 92.0312 251.316C92.3359 251.105 92.4883 250.832 92.4883 250.496C92.4883 250.277 92.4258 250.082 92.3008 249.91C92.1836 249.73 91.9258 249.531 91.5273 249.312C91.1289 249.086 90.5039 248.793 89.6523 248.434C88.832 248.09 88.1562 247.742 87.625 247.391C87.1016 247.039 86.7109 246.625 86.4531 246.148C86.2031 245.664 86.0781 245.051 86.0781 244.309C86.0781 243.098 86.5469 242.188 87.4844 241.578C88.4297 240.961 89.6914 240.652 91.2695 240.652C92.082 240.652 92.8555 240.734 93.5898 240.898C94.332 241.062 95.0938 241.324 95.875 241.684L94.7969 244.262C94.1484 243.98 93.5352 243.75 92.957 243.57C92.3867 243.391 91.8047 243.301 91.2109 243.301C90.6875 243.301 90.293 243.371 90.0273 243.512C89.7617 243.652 89.6289 243.867 89.6289 244.156C89.6289 244.367 89.6953 244.555 89.8281 244.719C89.9688 244.883 90.2344 245.066 90.625 245.27C91.0234 245.465 91.6055 245.719 92.3711 246.031C93.1133 246.336 93.7578 246.656 94.3047 246.992C94.8516 247.32 95.2734 247.73 95.5703 248.223C95.8672 248.707 96.0156 249.336 96.0156 250.109ZM104.207 240.652C105.418 240.652 106.461 240.887 107.336 241.355C108.211 241.816 108.887 242.488 109.363 243.371C109.84 244.254 110.078 245.332 110.078 246.605V248.34H101.629C101.668 249.348 101.969 250.141 102.531 250.719C103.102 251.289 103.891 251.574 104.898 251.574C105.734 251.574 106.5 251.488 107.195 251.316C107.891 251.145 108.605 250.887 109.34 250.543V253.309C108.691 253.629 108.012 253.863 107.301 254.012C106.598 254.16 105.742 254.234 104.734 254.234C103.422 254.234 102.258 253.992 101.242 253.508C100.234 253.023 99.4414 252.285 98.8633 251.293C98.293 250.301 98.0078 249.051 98.0078 247.543C98.0078 246.012 98.2656 244.738 98.7812 243.723C99.3047 242.699 100.031 241.934 100.961 241.426C101.891 240.91 102.973 240.652 104.207 240.652ZM104.23 243.195C103.535 243.195 102.957 243.418 102.496 243.863C102.043 244.309 101.781 245.008 101.711 245.961H106.727C106.719 245.43 106.621 244.957 106.434 244.543C106.254 244.129 105.98 243.801 105.613 243.559C105.254 243.316 104.793 243.195 104.23 243.195ZM118.305 254.234C117.008 254.234 115.902 254 114.988 253.531C114.074 253.055 113.379 252.32 112.902 251.328C112.426 250.336 112.188 249.066 112.188 247.52C112.188 245.918 112.457 244.613 112.996 243.605C113.543 242.59 114.297 241.844 115.258 241.367C116.227 240.891 117.348 240.652 118.621 240.652C119.527 240.652 120.309 240.742 120.965 240.922C121.629 241.094 122.207 241.301 122.699 241.543L121.645 244.309C121.082 244.082 120.559 243.898 120.074 243.758C119.59 243.609 119.105 243.535 118.621 243.535C117.996 243.535 117.477 243.684 117.062 243.98C116.648 244.27 116.34 244.707 116.137 245.293C115.934 245.879 115.832 246.613 115.832 247.496C115.832 248.363 115.941 249.082 116.16 249.652C116.379 250.223 116.695 250.648 117.109 250.93C117.523 251.203 118.027 251.34 118.621 251.34C119.363 251.34 120.023 251.242 120.602 251.047C121.18 250.844 121.742 250.562 122.289 250.203V253.262C121.742 253.605 121.168 253.852 120.566 254C119.973 254.156 119.219 254.234 118.305 254.234ZM137.359 240.898V254H134.617L134.137 252.324H133.949C133.668 252.77 133.316 253.133 132.895 253.414C132.473 253.695 132.008 253.902 131.5 254.035C130.992 254.168 130.465 254.234 129.918 254.234C128.98 254.234 128.164 254.07 127.469 253.742C126.773 253.406 126.23 252.887 125.84 252.184C125.457 251.48 125.266 250.566 125.266 249.441V240.898H128.84V248.551C128.84 249.488 129.008 250.195 129.344 250.672C129.68 251.148 130.215 251.387 130.949 251.387C131.676 251.387 132.246 251.223 132.66 250.895C133.074 250.559 133.363 250.07 133.527 249.43C133.699 248.781 133.785 247.992 133.785 247.062V240.898H137.359ZM148.422 240.652C148.602 240.652 148.809 240.664 149.043 240.688C149.285 240.703 149.48 240.727 149.629 240.758L149.359 244.109C149.242 244.07 149.074 244.043 148.855 244.027C148.645 244.004 148.461 243.992 148.305 243.992C147.844 243.992 147.395 244.051 146.957 244.168C146.527 244.285 146.141 244.477 145.797 244.742C145.453 245 145.18 245.344 144.977 245.773C144.781 246.195 144.684 246.715 144.684 247.332V254H141.109V240.898H143.816L144.344 243.102H144.52C144.777 242.656 145.098 242.25 145.48 241.883C145.871 241.508 146.312 241.211 146.805 240.992C147.305 240.766 147.844 240.652 148.422 240.652ZM155.582 240.898V254H152.008V240.898H155.582ZM153.801 235.766C154.332 235.766 154.789 235.891 155.172 236.141C155.555 236.383 155.746 236.84 155.746 237.512C155.746 238.176 155.555 238.637 155.172 238.895C154.789 239.145 154.332 239.27 153.801 239.27C153.262 239.27 152.801 239.145 152.418 238.895C152.043 238.637 151.855 238.176 151.855 237.512C151.855 236.84 152.043 236.383 152.418 236.141C152.801 235.891 153.262 235.766 153.801 235.766ZM164.863 251.387C165.254 251.387 165.633 251.348 166 251.27C166.375 251.191 166.746 251.094 167.113 250.977V253.637C166.73 253.809 166.254 253.949 165.684 254.059C165.121 254.176 164.504 254.234 163.832 254.234C163.051 254.234 162.348 254.109 161.723 253.859C161.105 253.602 160.617 253.16 160.258 252.535C159.906 251.902 159.73 251.023 159.73 249.898V243.582H158.02V242.07L159.988 240.875L161.02 238.109H163.305V240.898H166.973V243.582H163.305V249.898C163.305 250.398 163.445 250.773 163.727 251.023C164.016 251.266 164.395 251.387 164.863 251.387ZM167.898 240.898H171.812L174.285 248.27C174.363 248.504 174.43 248.742 174.484 248.984C174.539 249.227 174.586 249.477 174.625 249.734C174.664 249.992 174.695 250.262 174.719 250.543H174.789C174.836 250.121 174.898 249.727 174.977 249.359C175.062 248.992 175.168 248.629 175.293 248.27L177.719 240.898H181.551L176.008 255.676C175.672 256.582 175.234 257.336 174.695 257.938C174.156 258.547 173.535 259.004 172.832 259.309C172.137 259.613 171.371 259.766 170.535 259.766C170.129 259.766 169.777 259.742 169.48 259.695C169.184 259.656 168.93 259.613 168.719 259.566V256.73C168.883 256.77 169.09 256.805 169.34 256.836C169.59 256.867 169.852 256.883 170.125 256.883C170.625 256.883 171.055 256.777 171.414 256.566C171.773 256.355 172.074 256.07 172.316 255.711C172.559 255.359 172.75 254.973 172.891 254.551L173.102 253.906L167.898 240.898ZM186.766 251.211L186.941 251.48C186.801 252.043 186.617 252.648 186.391 253.297C186.172 253.945 185.93 254.594 185.664 255.242C185.406 255.891 185.145 256.508 184.879 257.094H182.301C182.457 256.461 182.609 255.797 182.758 255.102C182.906 254.406 183.043 253.723 183.168 253.051C183.301 252.379 183.406 251.766 183.484 251.211H186.766ZM201.883 240.629C203.641 240.629 204.988 241.012 205.926 241.777C206.863 242.543 207.332 243.707 207.332 245.27V254H204.836L204.145 252.219H204.051C203.676 252.688 203.293 253.07 202.902 253.367C202.512 253.664 202.062 253.883 201.555 254.023C201.047 254.164 200.43 254.234 199.703 254.234C198.93 254.234 198.234 254.086 197.617 253.789C197.008 253.492 196.527 253.039 196.176 252.43C195.824 251.812 195.648 251.031 195.648 250.086C195.648 248.695 196.137 247.672 197.113 247.016C198.09 246.352 199.555 245.984 201.508 245.914L203.781 245.844V245.27C203.781 244.582 203.602 244.078 203.242 243.758C202.883 243.438 202.383 243.277 201.742 243.277C201.109 243.277 200.488 243.367 199.879 243.547C199.27 243.727 198.66 243.953 198.051 244.227L196.867 241.812C197.562 241.445 198.34 241.156 199.199 240.945C200.066 240.734 200.961 240.629 201.883 240.629ZM203.781 247.93L202.398 247.977C201.242 248.008 200.438 248.215 199.984 248.598C199.539 248.98 199.316 249.484 199.316 250.109C199.316 250.656 199.477 251.047 199.797 251.281C200.117 251.508 200.535 251.621 201.051 251.621C201.816 251.621 202.461 251.395 202.984 250.941C203.516 250.488 203.781 249.844 203.781 249.008V247.93ZM218.465 240.652C219.863 240.652 220.988 241.035 221.84 241.801C222.691 242.559 223.117 243.777 223.117 245.457V254H219.543V246.348C219.543 245.41 219.371 244.703 219.027 244.227C218.691 243.75 218.16 243.512 217.434 243.512C216.34 243.512 215.594 243.883 215.195 244.625C214.797 245.367 214.598 246.438 214.598 247.836V254H211.023V240.898H213.754L214.234 242.574H214.434C214.715 242.121 215.062 241.754 215.477 241.473C215.898 241.191 216.363 240.984 216.871 240.852C217.387 240.719 217.918 240.652 218.465 240.652ZM232.164 240.629C233.922 240.629 235.27 241.012 236.207 241.777C237.145 242.543 237.613 243.707 237.613 245.27V254H235.117L234.426 252.219H234.332C233.957 252.688 233.574 253.07 233.184 253.367C232.793 253.664 232.344 253.883 231.836 254.023C231.328 254.164 230.711 254.234 229.984 254.234C229.211 254.234 228.516 254.086 227.898 253.789C227.289 253.492 226.809 253.039 226.457 252.43C226.105 251.812 225.93 251.031 225.93 250.086C225.93 248.695 226.418 247.672 227.395 247.016C228.371 246.352 229.836 245.984 231.789 245.914L234.062 245.844V245.27C234.062 244.582 233.883 244.078 233.523 243.758C233.164 243.438 232.664 243.277 232.023 243.277C231.391 243.277 230.77 243.367 230.16 243.547C229.551 243.727 228.941 243.953 228.332 244.227L227.148 241.812C227.844 241.445 228.621 241.156 229.48 240.945C230.348 240.734 231.242 240.629 232.164 240.629ZM234.062 247.93L232.68 247.977C231.523 248.008 230.719 248.215 230.266 248.598C229.82 248.98 229.598 249.484 229.598 250.109C229.598 250.656 229.758 251.047 230.078 251.281C230.398 251.508 230.816 251.621 231.332 251.621C232.098 251.621 232.742 251.395 233.266 250.941C233.797 250.488 234.062 249.844 234.062 249.008V247.93ZM244.879 254H241.305V235.766H244.879V254ZM246.766 240.898H250.68L253.152 248.27C253.23 248.504 253.297 248.742 253.352 248.984C253.406 249.227 253.453 249.477 253.492 249.734C253.531 249.992 253.562 250.262 253.586 250.543H253.656C253.703 250.121 253.766 249.727 253.844 249.359C253.93 248.992 254.035 248.629 254.16 248.27L256.586 240.898H260.418L254.875 255.676C254.539 256.582 254.102 257.336 253.562 257.938C253.023 258.547 252.402 259.004 251.699 259.309C251.004 259.613 250.238 259.766 249.402 259.766C248.996 259.766 248.645 259.742 248.348 259.695C248.051 259.656 247.797 259.613 247.586 259.566V256.73C247.75 256.77 247.957 256.805 248.207 256.836C248.457 256.867 248.719 256.883 248.992 256.883C249.492 256.883 249.922 256.777 250.281 256.566C250.641 256.355 250.941 256.07 251.184 255.711C251.426 255.359 251.617 254.973 251.758 254.551L251.969 253.906L246.766 240.898ZM267.824 251.387C268.215 251.387 268.594 251.348 268.961 251.27C269.336 251.191 269.707 251.094 270.074 250.977V253.637C269.691 253.809 269.215 253.949 268.645 254.059C268.082 254.176 267.465 254.234 266.793 254.234C266.012 254.234 265.309 254.109 264.684 253.859C264.066 253.602 263.578 253.16 263.219 252.535C262.867 251.902 262.691 251.023 262.691 249.898V243.582H260.98V242.07L262.949 240.875L263.98 238.109H266.266V240.898H269.934V243.582H266.266V249.898C266.266 250.398 266.406 250.773 266.688 251.023C266.977 251.266 267.355 251.387 267.824 251.387ZM276.309 240.898V254H272.734V240.898H276.309ZM274.527 235.766C275.059 235.766 275.516 235.891 275.898 236.141C276.281 236.383 276.473 236.84 276.473 237.512C276.473 238.176 276.281 238.637 275.898 238.895C275.516 239.145 275.059 239.27 274.527 239.27C273.988 239.27 273.527 239.145 273.145 238.895C272.77 238.637 272.582 238.176 272.582 237.512C272.582 236.84 272.77 236.383 273.145 236.141C273.527 235.891 273.988 235.766 274.527 235.766ZM285.391 254.234C284.094 254.234 282.988 254 282.074 253.531C281.16 253.055 280.465 252.32 279.988 251.328C279.512 250.336 279.273 249.066 279.273 247.52C279.273 245.918 279.543 244.613 280.082 243.605C280.629 242.59 281.383 241.844 282.344 241.367C283.312 240.891 284.434 240.652 285.707 240.652C286.613 240.652 287.395 240.742 288.051 240.922C288.715 241.094 289.293 241.301 289.785 241.543L288.73 244.309C288.168 244.082 287.645 243.898 287.16 243.758C286.676 243.609 286.191 243.535 285.707 243.535C285.082 243.535 284.562 243.684 284.148 243.98C283.734 244.27 283.426 244.707 283.223 245.293C283.02 245.879 282.918 246.613 282.918 247.496C282.918 248.363 283.027 249.082 283.246 249.652C283.465 250.223 283.781 250.648 284.195 250.93C284.609 251.203 285.113 251.34 285.707 251.34C286.449 251.34 287.109 251.242 287.688 251.047C288.266 250.844 288.828 250.562 289.375 250.203V253.262C288.828 253.605 288.254 253.852 287.652 254C287.059 254.156 286.305 254.234 285.391 254.234ZM301.562 250.109C301.562 251 301.352 251.754 300.93 252.371C300.516 252.98 299.895 253.445 299.066 253.766C298.238 254.078 297.207 254.234 295.973 254.234C295.059 254.234 294.273 254.176 293.617 254.059C292.969 253.941 292.312 253.746 291.648 253.473V250.52C292.359 250.84 293.121 251.105 293.934 251.316C294.754 251.52 295.473 251.621 296.09 251.621C296.785 251.621 297.281 251.52 297.578 251.316C297.883 251.105 298.035 250.832 298.035 250.496C298.035 250.277 297.973 250.082 297.848 249.91C297.73 249.73 297.473 249.531 297.074 249.312C296.676 249.086 296.051 248.793 295.199 248.434C294.379 248.09 293.703 247.742 293.172 247.391C292.648 247.039 292.258 246.625 292 246.148C291.75 245.664 291.625 245.051 291.625 244.309C291.625 243.098 292.094 242.188 293.031 241.578C293.977 240.961 295.238 240.652 296.816 240.652C297.629 240.652 298.402 240.734 299.137 240.898C299.879 241.062 300.641 241.324 301.422 241.684L300.344 244.262C299.695 243.98 299.082 243.75 298.504 243.57C297.934 243.391 297.352 243.301 296.758 243.301C296.234 243.301 295.84 243.371 295.574 243.512C295.309 243.652 295.176 243.867 295.176 244.156C295.176 244.367 295.242 244.555 295.375 244.719C295.516 244.883 295.781 245.066 296.172 245.27C296.57 245.465 297.152 245.719 297.918 246.031C298.66 246.336 299.305 246.656 299.852 246.992C300.398 247.32 300.82 247.73 301.117 248.223C301.414 248.707 301.562 249.336 301.562 250.109ZM307.68 251.211L307.855 251.48C307.715 252.043 307.531 252.648 307.305 253.297C307.086 253.945 306.844 254.594 306.578 255.242C306.32 255.891 306.059 256.508 305.793 257.094H303.215C303.371 256.461 303.523 255.797 303.672 255.102C303.82 254.406 303.957 253.723 304.082 253.051C304.215 252.379 304.32 251.766 304.398 251.211H307.68ZM329.336 247.426C329.336 248.52 329.188 249.488 328.891 250.332C328.602 251.176 328.176 251.891 327.613 252.477C327.059 253.055 326.387 253.492 325.598 253.789C324.816 254.086 323.934 254.234 322.949 254.234C322.027 254.234 321.18 254.086 320.406 253.789C319.641 253.492 318.973 253.055 318.402 252.477C317.84 251.891 317.402 251.176 317.09 250.332C316.785 249.488 316.633 248.52 316.633 247.426C316.633 245.973 316.891 244.742 317.406 243.734C317.922 242.727 318.656 241.961 319.609 241.438C320.562 240.914 321.699 240.652 323.02 240.652C324.246 240.652 325.332 240.914 326.277 241.438C327.23 241.961 327.977 242.727 328.516 243.734C329.062 244.742 329.336 245.973 329.336 247.426ZM320.277 247.426C320.277 248.285 320.371 249.008 320.559 249.594C320.746 250.18 321.039 250.621 321.438 250.918C321.836 251.215 322.355 251.363 322.996 251.363C323.629 251.363 324.141 251.215 324.531 250.918C324.93 250.621 325.219 250.18 325.398 249.594C325.586 249.008 325.68 248.285 325.68 247.426C325.68 246.559 325.586 245.84 325.398 245.27C325.219 244.691 324.93 244.258 324.531 243.969C324.133 243.68 323.613 243.535 322.973 243.535C322.027 243.535 321.34 243.859 320.91 244.508C320.488 245.156 320.277 246.129 320.277 247.426ZM335.863 235.766V240.008C335.863 240.5 335.848 240.988 335.816 241.473C335.793 241.957 335.762 242.332 335.723 242.598H335.863C336.207 242.059 336.676 241.602 337.27 241.227C337.863 240.844 338.633 240.652 339.578 240.652C341.047 240.652 342.238 241.227 343.152 242.375C344.066 243.523 344.523 245.207 344.523 247.426C344.523 248.918 344.312 250.172 343.891 251.188C343.469 252.195 342.879 252.957 342.121 253.473C341.363 253.98 340.484 254.234 339.484 254.234C338.523 254.234 337.766 254.062 337.211 253.719C336.656 253.375 336.207 252.988 335.863 252.559H335.617L335.02 254H332.289V235.766H335.863ZM338.43 243.512C337.805 243.512 337.309 243.641 336.941 243.898C336.574 244.156 336.305 244.543 336.133 245.059C335.969 245.574 335.879 246.227 335.863 247.016V247.402C335.863 248.676 336.051 249.652 336.426 250.332C336.801 251.004 337.484 251.34 338.477 251.34C339.211 251.34 339.793 251 340.223 250.32C340.66 249.641 340.879 248.66 340.879 247.379C340.879 246.098 340.66 245.133 340.223 244.484C339.785 243.836 339.188 243.512 338.43 243.512ZM356.617 250.109C356.617 251 356.406 251.754 355.984 252.371C355.57 252.98 354.949 253.445 354.121 253.766C353.293 254.078 352.262 254.234 351.027 254.234C350.113 254.234 349.328 254.176 348.672 254.059C348.023 253.941 347.367 253.746 346.703 253.473V250.52C347.414 250.84 348.176 251.105 348.988 251.316C349.809 251.52 350.527 251.621 351.145 251.621C351.84 251.621 352.336 251.52 352.633 251.316C352.938 251.105 353.09 250.832 353.09 250.496C353.09 250.277 353.027 250.082 352.902 249.91C352.785 249.73 352.527 249.531 352.129 249.312C351.73 249.086 351.105 248.793 350.254 248.434C349.434 248.09 348.758 247.742 348.227 247.391C347.703 247.039 347.312 246.625 347.055 246.148C346.805 245.664 346.68 245.051 346.68 244.309C346.68 243.098 347.148 242.188 348.086 241.578C349.031 240.961 350.293 240.652 351.871 240.652C352.684 240.652 353.457 240.734 354.191 240.898C354.934 241.062 355.695 241.324 356.477 241.684L355.398 244.262C354.75 243.98 354.137 243.75 353.559 243.57C352.988 243.391 352.406 243.301 351.812 243.301C351.289 243.301 350.895 243.371 350.629 243.512C350.363 243.652 350.23 243.867 350.23 244.156C350.23 244.367 350.297 244.555 350.43 244.719C350.57 244.883 350.836 245.066 351.227 245.27C351.625 245.465 352.207 245.719 352.973 246.031C353.715 246.336 354.359 246.656 354.906 246.992C355.453 247.32 355.875 247.73 356.172 248.223C356.469 248.707 356.617 249.336 356.617 250.109ZM364.809 240.652C366.02 240.652 367.062 240.887 367.938 241.355C368.812 241.816 369.488 242.488 369.965 243.371C370.441 244.254 370.68 245.332 370.68 246.605V248.34H362.23C362.27 249.348 362.57 250.141 363.133 250.719C363.703 251.289 364.492 251.574 365.5 251.574C366.336 251.574 367.102 251.488 367.797 251.316C368.492 251.145 369.207 250.887 369.941 250.543V253.309C369.293 253.629 368.613 253.863 367.902 254.012C367.199 254.16 366.344 254.234 365.336 254.234C364.023 254.234 362.859 253.992 361.844 253.508C360.836 253.023 360.043 252.285 359.465 251.293C358.895 250.301 358.609 249.051 358.609 247.543C358.609 246.012 358.867 244.738 359.383 243.723C359.906 242.699 360.633 241.934 361.562 241.426C362.492 240.91 363.574 240.652 364.809 240.652ZM364.832 243.195C364.137 243.195 363.559 243.418 363.098 243.863C362.645 244.309 362.383 245.008 362.312 245.961H367.328C367.32 245.43 367.223 244.957 367.035 244.543C366.855 244.129 366.582 243.801 366.215 243.559C365.855 243.316 365.395 243.195 364.832 243.195ZM380.898 240.652C381.078 240.652 381.285 240.664 381.52 240.688C381.762 240.703 381.957 240.727 382.105 240.758L381.836 244.109C381.719 244.07 381.551 244.043 381.332 244.027C381.121 244.004 380.938 243.992 380.781 243.992C380.32 243.992 379.871 244.051 379.434 244.168C379.004 244.285 378.617 244.477 378.273 244.742C377.93 245 377.656 245.344 377.453 245.773C377.258 246.195 377.16 246.715 377.16 247.332V254H373.586V240.898H376.293L376.82 243.102H376.996C377.254 242.656 377.574 242.25 377.957 241.883C378.348 241.508 378.789 241.211 379.281 240.992C379.781 240.766 380.32 240.652 380.898 240.652ZM387.602 254L382.609 240.898H386.348L388.879 248.363C389.02 248.801 389.129 249.262 389.207 249.746C389.293 250.23 389.352 250.664 389.383 251.047H389.477C389.5 250.633 389.555 250.191 389.641 249.723C389.734 249.254 389.855 248.801 390.004 248.363L392.523 240.898H396.262L391.27 254H387.602ZM403.516 240.629C405.273 240.629 406.621 241.012 407.559 241.777C408.496 242.543 408.965 243.707 408.965 245.27V254H406.469L405.777 252.219H405.684C405.309 252.688 404.926 253.07 404.535 253.367C404.145 253.664 403.695 253.883 403.188 254.023C402.68 254.164 402.062 254.234 401.336 254.234C400.562 254.234 399.867 254.086 399.25 253.789C398.641 253.492 398.16 253.039 397.809 252.43C397.457 251.812 397.281 251.031 397.281 250.086C397.281 248.695 397.77 247.672 398.746 247.016C399.723 246.352 401.188 245.984 403.141 245.914L405.414 245.844V245.27C405.414 244.582 405.234 244.078 404.875 243.758C404.516 243.438 404.016 243.277 403.375 243.277C402.742 243.277 402.121 243.367 401.512 243.547C400.902 243.727 400.293 243.953 399.684 244.227L398.5 241.812C399.195 241.445 399.973 241.156 400.832 240.945C401.699 240.734 402.594 240.629 403.516 240.629ZM405.414 247.93L404.031 247.977C402.875 248.008 402.07 248.215 401.617 248.598C401.172 248.98 400.949 249.484 400.949 250.109C400.949 250.656 401.109 251.047 401.43 251.281C401.75 251.508 402.168 251.621 402.684 251.621C403.449 251.621 404.094 251.395 404.617 250.941C405.148 250.488 405.414 249.844 405.414 249.008V247.93ZM416.23 235.766V240.008C416.23 240.5 416.215 240.988 416.184 241.473C416.16 241.957 416.129 242.332 416.09 242.598H416.23C416.574 242.059 417.043 241.602 417.637 241.227C418.23 240.844 419 240.652 419.945 240.652C421.414 240.652 422.605 241.227 423.52 242.375C424.434 243.523 424.891 245.207 424.891 247.426C424.891 248.918 424.68 250.172 424.258 251.188C423.836 252.195 423.246 252.957 422.488 253.473C421.73 253.98 420.852 254.234 419.852 254.234C418.891 254.234 418.133 254.062 417.578 253.719C417.023 253.375 416.574 252.988 416.23 252.559H415.984L415.387 254H412.656V235.766H416.23ZM418.797 243.512C418.172 243.512 417.676 243.641 417.309 243.898C416.941 244.156 416.672 244.543 416.5 245.059C416.336 245.574 416.246 246.227 416.23 247.016V247.402C416.23 248.676 416.418 249.652 416.793 250.332C417.168 251.004 417.852 251.34 418.844 251.34C419.578 251.34 420.16 251 420.59 250.32C421.027 249.641 421.246 248.66 421.246 247.379C421.246 246.098 421.027 245.133 420.59 244.484C420.152 243.836 419.555 243.512 418.797 243.512ZM431.418 240.898V254H427.844V240.898H431.418ZM429.637 235.766C430.168 235.766 430.625 235.891 431.008 236.141C431.391 236.383 431.582 236.84 431.582 237.512C431.582 238.176 431.391 238.637 431.008 238.895C430.625 239.145 430.168 239.27 429.637 239.27C429.098 239.27 428.637 239.145 428.254 238.895C427.879 238.637 427.691 238.176 427.691 237.512C427.691 236.84 427.879 236.383 428.254 236.141C428.637 235.891 429.098 235.766 429.637 235.766ZM438.754 254H435.18V235.766H438.754V254ZM446.09 240.898V254H442.516V240.898H446.09ZM444.309 235.766C444.84 235.766 445.297 235.891 445.68 236.141C446.062 236.383 446.254 236.84 446.254 237.512C446.254 238.176 446.062 238.637 445.68 238.895C445.297 239.145 444.84 239.27 444.309 239.27C443.77 239.27 443.309 239.145 442.926 238.895C442.551 238.637 442.363 238.176 442.363 237.512C442.363 236.84 442.551 236.383 442.926 236.141C443.309 235.891 443.77 235.766 444.309 235.766ZM455.371 251.387C455.762 251.387 456.141 251.348 456.508 251.27C456.883 251.191 457.254 251.094 457.621 250.977V253.637C457.238 253.809 456.762 253.949 456.191 254.059C455.629 254.176 455.012 254.234 454.34 254.234C453.559 254.234 452.855 254.109 452.23 253.859C451.613 253.602 451.125 253.16 450.766 252.535C450.414 251.902 450.238 251.023 450.238 249.898V243.582H448.527V242.07L450.496 240.875L451.527 238.109H453.812V240.898H457.48V243.582H453.812V249.898C453.812 250.398 453.953 250.773 454.234 251.023C454.523 251.266 454.902 251.387 455.371 251.387ZM458.406 240.898H462.32L464.793 248.27C464.871 248.504 464.938 248.742 464.992 248.984C465.047 249.227 465.094 249.477 465.133 249.734C465.172 249.992 465.203 250.262 465.227 250.543H465.297C465.344 250.121 465.406 249.727 465.484 249.359C465.57 248.992 465.676 248.629 465.801 248.27L468.227 240.898H472.059L466.516 255.676C466.18 256.582 465.742 257.336 465.203 257.938C464.664 258.547 464.043 259.004 463.34 259.309C462.645 259.613 461.879 259.766 461.043 259.766C460.637 259.766 460.285 259.742 459.988 259.695C459.691 259.656 459.438 259.613 459.227 259.566V256.73C459.391 256.77 459.598 256.805 459.848 256.836C460.098 256.867 460.359 256.883 460.633 256.883C461.133 256.883 461.562 256.777 461.922 256.566C462.281 256.355 462.582 256.07 462.824 255.711C463.066 255.359 463.258 254.973 463.398 254.551L463.609 253.906L458.406 240.898ZM485.547 240.629C487.305 240.629 488.652 241.012 489.59 241.777C490.527 242.543 490.996 243.707 490.996 245.27V254H488.5L487.809 252.219H487.715C487.34 252.688 486.957 253.07 486.566 253.367C486.176 253.664 485.727 253.883 485.219 254.023C484.711 254.164 484.094 254.234 483.367 254.234C482.594 254.234 481.898 254.086 481.281 253.789C480.672 253.492 480.191 253.039 479.84 252.43C479.488 251.812 479.312 251.031 479.312 250.086C479.312 248.695 479.801 247.672 480.777 247.016C481.754 246.352 483.219 245.984 485.172 245.914L487.445 245.844V245.27C487.445 244.582 487.266 244.078 486.906 243.758C486.547 243.438 486.047 243.277 485.406 243.277C484.773 243.277 484.152 243.367 483.543 243.547C482.934 243.727 482.324 243.953 481.715 244.227L480.531 241.812C481.227 241.445 482.004 241.156 482.863 240.945C483.73 240.734 484.625 240.629 485.547 240.629ZM487.445 247.93L486.062 247.977C484.906 248.008 484.102 248.215 483.648 248.598C483.203 248.98 482.98 249.484 482.98 250.109C482.98 250.656 483.141 251.047 483.461 251.281C483.781 251.508 484.199 251.621 484.715 251.621C485.48 251.621 486.125 251.395 486.648 250.941C487.18 250.488 487.445 249.844 487.445 249.008V247.93ZM502.129 240.652C503.527 240.652 504.652 241.035 505.504 241.801C506.355 242.559 506.781 243.777 506.781 245.457V254H503.207V246.348C503.207 245.41 503.035 244.703 502.691 244.227C502.355 243.75 501.824 243.512 501.098 243.512C500.004 243.512 499.258 243.883 498.859 244.625C498.461 245.367 498.262 246.438 498.262 247.836V254H494.688V240.898H497.418L497.898 242.574H498.098C498.379 242.121 498.727 241.754 499.141 241.473C499.562 241.191 500.027 240.984 500.535 240.852C501.051 240.719 501.582 240.652 502.129 240.652ZM514.609 254.234C513.148 254.234 511.957 253.664 511.035 252.523C510.121 251.375 509.664 249.691 509.664 247.473C509.664 245.23 510.129 243.535 511.059 242.387C511.988 241.23 513.203 240.652 514.703 240.652C515.328 240.652 515.879 240.738 516.355 240.91C516.832 241.082 517.242 241.312 517.586 241.602C517.938 241.891 518.234 242.215 518.477 242.574H518.594C518.547 242.324 518.488 241.957 518.418 241.473C518.355 240.98 518.324 240.477 518.324 239.961V235.766H521.91V254H519.168L518.477 252.301H518.324C518.098 252.66 517.812 252.988 517.469 253.285C517.133 253.574 516.73 253.805 516.262 253.977C515.793 254.148 515.242 254.234 514.609 254.234ZM515.863 251.387C516.84 251.387 517.527 251.098 517.926 250.52C518.332 249.934 518.547 249.055 518.57 247.883V247.496C518.57 246.223 518.375 245.25 517.984 244.578C517.594 243.898 516.867 243.559 515.805 243.559C515.016 243.559 514.398 243.898 513.953 244.578C513.508 245.258 513.285 246.238 513.285 247.52C513.285 248.801 513.508 249.766 513.953 250.414C514.406 251.062 515.043 251.387 515.863 251.387ZM547.27 240.652C548.754 240.652 549.875 241.035 550.633 241.801C551.398 242.559 551.781 243.777 551.781 245.457V254H548.195V246.348C548.195 245.41 548.035 244.703 547.715 244.227C547.395 243.75 546.898 243.512 546.227 243.512C545.281 243.512 544.609 243.852 544.211 244.531C543.812 245.203 543.613 246.168 543.613 247.426V254H540.039V246.348C540.039 245.723 539.969 245.199 539.828 244.777C539.688 244.355 539.473 244.039 539.184 243.828C538.895 243.617 538.523 243.512 538.07 243.512C537.406 243.512 536.883 243.68 536.5 244.016C536.125 244.344 535.855 244.832 535.691 245.48C535.535 246.121 535.457 246.906 535.457 247.836V254H531.883V240.898H534.613L535.094 242.574H535.293C535.559 242.121 535.891 241.754 536.289 241.473C536.695 241.191 537.141 240.984 537.625 240.852C538.109 240.719 538.602 240.652 539.102 240.652C540.062 240.652 540.875 240.809 541.539 241.121C542.211 241.434 542.727 241.918 543.086 242.574H543.402C543.793 241.902 544.344 241.414 545.055 241.109C545.773 240.805 546.512 240.652 547.27 240.652ZM567.367 247.426C567.367 248.52 567.219 249.488 566.922 250.332C566.633 251.176 566.207 251.891 565.645 252.477C565.09 253.055 564.418 253.492 563.629 253.789C562.848 254.086 561.965 254.234 560.98 254.234C560.059 254.234 559.211 254.086 558.438 253.789C557.672 253.492 557.004 253.055 556.434 252.477C555.871 251.891 555.434 251.176 555.121 250.332C554.816 249.488 554.664 248.52 554.664 247.426C554.664 245.973 554.922 244.742 555.438 243.734C555.953 242.727 556.688 241.961 557.641 241.438C558.594 240.914 559.73 240.652 561.051 240.652C562.277 240.652 563.363 240.914 564.309 241.438C565.262 241.961 566.008 242.727 566.547 243.734C567.094 244.742 567.367 245.973 567.367 247.426ZM558.309 247.426C558.309 248.285 558.402 249.008 558.59 249.594C558.777 250.18 559.07 250.621 559.469 250.918C559.867 251.215 560.387 251.363 561.027 251.363C561.66 251.363 562.172 251.215 562.562 250.918C562.961 250.621 563.25 250.18 563.43 249.594C563.617 249.008 563.711 248.285 563.711 247.426C563.711 246.559 563.617 245.84 563.43 245.27C563.25 244.691 562.961 244.258 562.562 243.969C562.164 243.68 561.645 243.535 561.004 243.535C560.059 243.535 559.371 243.859 558.941 244.508C558.52 245.156 558.309 246.129 558.309 247.426ZM577.633 240.652C577.812 240.652 578.02 240.664 578.254 240.688C578.496 240.703 578.691 240.727 578.84 240.758L578.57 244.109C578.453 244.07 578.285 244.043 578.066 244.027C577.855 244.004 577.672 243.992 577.516 243.992C577.055 243.992 576.605 244.051 576.168 244.168C575.738 244.285 575.352 244.477 575.008 244.742C574.664 245 574.391 245.344 574.188 245.773C573.992 246.195 573.895 246.715 573.895 247.332V254H570.32V240.898H573.027L573.555 243.102H573.73C573.988 242.656 574.309 242.25 574.691 241.883C575.082 241.508 575.523 241.211 576.016 240.992C576.516 240.766 577.055 240.652 577.633 240.652ZM586.621 240.652C587.832 240.652 588.875 240.887 589.75 241.355C590.625 241.816 591.301 242.488 591.777 243.371C592.254 244.254 592.492 245.332 592.492 246.605V248.34H584.043C584.082 249.348 584.383 250.141 584.945 250.719C585.516 251.289 586.305 251.574 587.312 251.574C588.148 251.574 588.914 251.488 589.609 251.316C590.305 251.145 591.02 250.887 591.754 250.543V253.309C591.105 253.629 590.426 253.863 589.715 254.012C589.012 254.16 588.156 254.234 587.148 254.234C585.836 254.234 584.672 253.992 583.656 253.508C582.648 253.023 581.855 252.285 581.277 251.293C580.707 250.301 580.422 249.051 580.422 247.543C580.422 246.012 580.68 244.738 581.195 243.723C581.719 242.699 582.445 241.934 583.375 241.426C584.305 240.91 585.387 240.652 586.621 240.652ZM586.645 243.195C585.949 243.195 585.371 243.418 584.91 243.863C584.457 244.309 584.195 245.008 584.125 245.961H589.141C589.133 245.43 589.035 244.957 588.848 244.543C588.668 244.129 588.395 243.801 588.027 243.559C587.668 243.316 587.207 243.195 586.645 243.195ZM594.895 252.324C594.895 251.59 595.094 251.074 595.492 250.777C595.898 250.48 596.387 250.332 596.957 250.332C597.512 250.332 597.988 250.48 598.387 250.777C598.793 251.074 598.996 251.59 598.996 252.324C598.996 253.027 598.793 253.535 598.387 253.848C597.988 254.16 597.512 254.316 596.957 254.316C596.387 254.316 595.898 254.16 595.492 253.848C595.094 253.535 594.895 253.027 594.895 252.324Z" fill="white"/>
<g filter="url(#filter0_d_1797_8041)">
<rect x="1104" y="230" width="234" height="60" rx="30" fill="#963CBD" shape-rendering="crispEdges"/>
<path d="M1164.61 253.65C1165.78 253.65 1166.74 253.791 1167.49 254.072C1168.25 254.354 1168.82 254.778 1169.19 255.347C1169.56 255.915 1169.74 256.633 1169.74 257.5C1169.74 258.086 1169.63 258.599 1169.41 259.038C1169.19 259.478 1168.89 259.85 1168.53 260.154C1168.17 260.459 1167.77 260.708 1167.35 260.901L1171.13 266.5H1168.11L1165.04 261.569H1163.59V266.5H1160.87V253.65H1164.61ZM1164.42 255.883H1163.59V259.354H1164.47C1165.37 259.354 1166.02 259.205 1166.4 258.906C1166.79 258.602 1166.99 258.156 1166.99 257.57C1166.99 256.961 1166.78 256.527 1166.36 256.27C1165.94 256.012 1165.29 255.883 1164.42 255.883ZM1176.59 256.489C1177.5 256.489 1178.28 256.665 1178.94 257.017C1179.59 257.362 1180.1 257.866 1180.46 258.528C1180.81 259.19 1180.99 259.999 1180.99 260.954V262.255H1174.66C1174.68 263.011 1174.91 263.605 1175.33 264.039C1175.76 264.467 1176.35 264.681 1177.11 264.681C1177.73 264.681 1178.31 264.616 1178.83 264.487C1179.35 264.358 1179.89 264.165 1180.44 263.907V265.981C1179.95 266.222 1179.44 266.397 1178.91 266.509C1178.38 266.62 1177.74 266.676 1176.98 266.676C1176 266.676 1175.13 266.494 1174.37 266.131C1173.61 265.768 1173.01 265.214 1172.58 264.47C1172.15 263.726 1171.94 262.788 1171.94 261.657C1171.94 260.509 1172.13 259.554 1172.52 258.792C1172.91 258.024 1173.46 257.45 1174.15 257.069C1174.85 256.683 1175.66 256.489 1176.59 256.489ZM1176.61 258.396C1176.08 258.396 1175.65 258.563 1175.31 258.897C1174.97 259.231 1174.77 259.756 1174.72 260.471H1178.48C1178.47 260.072 1178.4 259.718 1178.26 259.407C1178.12 259.097 1177.92 258.851 1177.64 258.669C1177.37 258.487 1177.03 258.396 1176.61 258.396ZM1187.2 256.472C1188.52 256.472 1189.53 256.759 1190.23 257.333C1190.93 257.907 1191.28 258.78 1191.28 259.952V266.5H1189.41L1188.89 265.164H1188.82C1188.54 265.516 1188.25 265.803 1187.96 266.025C1187.67 266.248 1187.33 266.412 1186.95 266.518C1186.57 266.623 1186.11 266.676 1185.56 266.676C1184.98 266.676 1184.46 266.564 1184 266.342C1183.54 266.119 1183.18 265.779 1182.92 265.322C1182.65 264.859 1182.52 264.273 1182.52 263.564C1182.52 262.521 1182.89 261.754 1183.62 261.262C1184.35 260.764 1185.45 260.488 1186.92 260.436L1188.62 260.383V259.952C1188.62 259.437 1188.49 259.059 1188.22 258.818C1187.95 258.578 1187.57 258.458 1187.09 258.458C1186.62 258.458 1186.15 258.525 1185.69 258.66C1185.24 258.795 1184.78 258.965 1184.32 259.17L1183.44 257.359C1183.96 257.084 1184.54 256.867 1185.18 256.709C1185.83 256.551 1186.51 256.472 1187.2 256.472ZM1188.62 261.947L1187.58 261.982C1186.72 262.006 1186.11 262.161 1185.77 262.448C1185.44 262.735 1185.27 263.113 1185.27 263.582C1185.27 263.992 1185.39 264.285 1185.63 264.461C1185.87 264.631 1186.19 264.716 1186.57 264.716C1187.15 264.716 1187.63 264.546 1188.02 264.206C1188.42 263.866 1188.62 263.383 1188.62 262.756V261.947ZM1197.16 266.676C1196.07 266.676 1195.17 266.248 1194.48 265.393C1193.8 264.531 1193.46 263.269 1193.46 261.604C1193.46 259.923 1193.8 258.651 1194.5 257.79C1195.2 256.923 1196.11 256.489 1197.23 256.489C1197.7 256.489 1198.12 256.554 1198.47 256.683C1198.83 256.812 1199.14 256.984 1199.4 257.201C1199.66 257.418 1199.88 257.661 1200.06 257.931H1200.15C1200.12 257.743 1200.07 257.468 1200.02 257.104C1199.97 256.735 1199.95 256.357 1199.95 255.971V252.824H1202.64V266.5H1200.58L1200.06 265.226H1199.95C1199.78 265.495 1199.57 265.741 1199.31 265.964C1199.06 266.181 1198.75 266.354 1198.4 266.482C1198.05 266.611 1197.64 266.676 1197.16 266.676ZM1198.1 264.54C1198.84 264.54 1199.35 264.323 1199.65 263.89C1199.96 263.45 1200.12 262.791 1200.13 261.912V261.622C1200.13 260.667 1199.99 259.938 1199.7 259.434C1199.4 258.924 1198.86 258.669 1198.06 258.669C1197.47 258.669 1197.01 258.924 1196.67 259.434C1196.34 259.943 1196.17 260.679 1196.17 261.64C1196.17 262.601 1196.34 263.324 1196.67 263.811C1197.01 264.297 1197.49 264.54 1198.1 264.54ZM1219.05 261.569C1219.05 262.39 1218.94 263.116 1218.71 263.749C1218.5 264.382 1218.18 264.918 1217.76 265.357C1217.34 265.791 1216.84 266.119 1216.25 266.342C1215.66 266.564 1215 266.676 1214.26 266.676C1213.57 266.676 1212.93 266.564 1212.35 266.342C1211.78 266.119 1211.28 265.791 1210.85 265.357C1210.43 264.918 1210.1 264.382 1209.86 263.749C1209.64 263.116 1209.52 262.39 1209.52 261.569C1209.52 260.479 1209.71 259.557 1210.1 258.801C1210.49 258.045 1211.04 257.471 1211.75 257.078C1212.47 256.686 1213.32 256.489 1214.31 256.489C1215.23 256.489 1216.05 256.686 1216.75 257.078C1217.47 257.471 1218.03 258.045 1218.43 258.801C1218.84 259.557 1219.05 260.479 1219.05 261.569ZM1212.25 261.569C1212.25 262.214 1212.33 262.756 1212.47 263.195C1212.61 263.635 1212.83 263.966 1213.12 264.188C1213.42 264.411 1213.81 264.522 1214.29 264.522C1214.77 264.522 1215.15 264.411 1215.45 264.188C1215.74 263.966 1215.96 263.635 1216.1 263.195C1216.24 262.756 1216.31 262.214 1216.31 261.569C1216.31 260.919 1216.24 260.38 1216.1 259.952C1215.96 259.519 1215.74 259.193 1215.45 258.977C1215.15 258.76 1214.76 258.651 1214.28 258.651C1213.57 258.651 1213.05 258.895 1212.73 259.381C1212.41 259.867 1212.25 260.597 1212.25 261.569ZM1230.28 256.674V266.5H1228.22L1227.86 265.243H1227.72C1227.51 265.577 1227.25 265.85 1226.93 266.061C1226.62 266.271 1226.27 266.427 1225.89 266.526C1225.51 266.626 1225.11 266.676 1224.7 266.676C1224 266.676 1223.38 266.553 1222.86 266.307C1222.34 266.055 1221.93 265.665 1221.64 265.138C1221.35 264.61 1221.21 263.925 1221.21 263.081V256.674H1223.89V262.413C1223.89 263.116 1224.02 263.646 1224.27 264.004C1224.52 264.361 1224.92 264.54 1225.47 264.54C1226.02 264.54 1226.45 264.417 1226.76 264.171C1227.07 263.919 1227.28 263.553 1227.41 263.072C1227.54 262.586 1227.6 261.994 1227.6 261.297V256.674H1230.28ZM1238.58 256.489C1238.71 256.489 1238.87 256.498 1239.04 256.516C1239.23 256.527 1239.37 256.545 1239.48 256.568L1239.28 259.082C1239.19 259.053 1239.07 259.032 1238.9 259.021C1238.75 259.003 1238.61 258.994 1238.49 258.994C1238.14 258.994 1237.81 259.038 1237.48 259.126C1237.16 259.214 1236.87 259.357 1236.61 259.557C1236.35 259.75 1236.15 260.008 1235.99 260.33C1235.85 260.646 1235.77 261.036 1235.77 261.499V266.5H1233.09V256.674H1235.12L1235.52 258.326H1235.65C1235.84 257.992 1236.08 257.688 1236.37 257.412C1236.67 257.131 1237 256.908 1237.37 256.744C1237.74 256.574 1238.14 256.489 1238.58 256.489ZM1248.62 252.824V256.006C1248.62 256.375 1248.61 256.741 1248.59 257.104C1248.57 257.468 1248.55 257.749 1248.52 257.948H1248.62C1248.88 257.544 1249.23 257.201 1249.68 256.92C1250.12 256.633 1250.7 256.489 1251.41 256.489C1252.51 256.489 1253.41 256.92 1254.09 257.781C1254.78 258.643 1255.12 259.905 1255.12 261.569C1255.12 262.688 1254.96 263.629 1254.64 264.391C1254.33 265.146 1253.89 265.718 1253.32 266.104C1252.75 266.485 1252.09 266.676 1251.34 266.676C1250.62 266.676 1250.05 266.547 1249.63 266.289C1249.22 266.031 1248.88 265.741 1248.62 265.419H1248.44L1247.99 266.5H1245.94V252.824H1248.62ZM1250.55 258.634C1250.08 258.634 1249.71 258.73 1249.43 258.924C1249.16 259.117 1248.96 259.407 1248.83 259.794C1248.7 260.181 1248.64 260.67 1248.62 261.262V261.552C1248.62 262.507 1248.76 263.239 1249.05 263.749C1249.33 264.253 1249.84 264.505 1250.58 264.505C1251.13 264.505 1251.57 264.25 1251.89 263.74C1252.22 263.23 1252.39 262.495 1252.39 261.534C1252.39 260.573 1252.22 259.85 1251.89 259.363C1251.57 258.877 1251.12 258.634 1250.55 258.634ZM1260.01 266.5H1257.33V252.824H1260.01V266.5ZM1271.77 261.569C1271.77 262.39 1271.65 263.116 1271.43 263.749C1271.21 264.382 1270.9 264.918 1270.47 265.357C1270.06 265.791 1269.55 266.119 1268.96 266.342C1268.38 266.564 1267.71 266.676 1266.98 266.676C1266.28 266.676 1265.65 266.564 1265.07 266.342C1264.49 266.119 1263.99 265.791 1263.57 265.357C1263.14 264.918 1262.82 264.382 1262.58 263.749C1262.35 263.116 1262.24 262.39 1262.24 261.569C1262.24 260.479 1262.43 259.557 1262.82 258.801C1263.21 258.045 1263.76 257.471 1264.47 257.078C1265.19 256.686 1266.04 256.489 1267.03 256.489C1267.95 256.489 1268.76 256.686 1269.47 257.078C1270.19 257.471 1270.75 258.045 1271.15 258.801C1271.56 259.557 1271.77 260.479 1271.77 261.569ZM1264.97 261.569C1264.97 262.214 1265.04 262.756 1265.18 263.195C1265.32 263.635 1265.54 263.966 1265.84 264.188C1266.14 264.411 1266.53 264.522 1267.01 264.522C1267.49 264.522 1267.87 264.411 1268.16 264.188C1268.46 263.966 1268.68 263.635 1268.81 263.195C1268.95 262.756 1269.02 262.214 1269.02 261.569C1269.02 260.919 1268.95 260.38 1268.81 259.952C1268.68 259.519 1268.46 259.193 1268.16 258.977C1267.86 258.76 1267.47 258.651 1266.99 258.651C1266.28 258.651 1265.77 258.895 1265.45 259.381C1265.13 259.867 1264.97 260.597 1264.97 261.569ZM1276.85 270.824C1275.48 270.824 1274.43 270.584 1273.71 270.104C1272.99 269.629 1272.63 268.961 1272.63 268.1C1272.63 267.508 1272.81 267.013 1273.18 266.614C1273.55 266.216 1274.09 265.932 1274.81 265.762C1274.53 265.645 1274.29 265.454 1274.09 265.19C1273.88 264.921 1273.78 264.637 1273.78 264.338C1273.78 263.963 1273.89 263.652 1274.1 263.406C1274.32 263.154 1274.63 262.908 1275.04 262.668C1274.53 262.445 1274.12 262.088 1273.81 261.596C1273.51 261.104 1273.37 260.523 1273.37 259.855C1273.37 259.141 1273.52 258.534 1273.83 258.036C1274.15 257.532 1274.6 257.148 1275.2 256.885C1275.81 256.621 1276.54 256.489 1277.4 256.489C1277.58 256.489 1277.79 256.501 1278.03 256.524C1278.27 256.548 1278.49 256.574 1278.69 256.604C1278.9 256.633 1279.03 256.656 1279.1 256.674H1282.53V258.036L1280.99 258.432C1281.13 258.648 1281.24 258.88 1281.31 259.126C1281.38 259.372 1281.42 259.633 1281.42 259.908C1281.42 260.963 1281.05 261.786 1280.31 262.378C1279.58 262.964 1278.56 263.257 1277.25 263.257C1276.94 263.239 1276.65 263.216 1276.37 263.187C1276.24 263.292 1276.13 263.403 1276.06 263.521C1275.99 263.638 1275.96 263.761 1275.96 263.89C1275.96 264.019 1276.01 264.127 1276.12 264.215C1276.23 264.297 1276.39 264.361 1276.61 264.408C1276.83 264.449 1277.11 264.47 1277.43 264.47H1279.1C1280.18 264.47 1281 264.701 1281.57 265.164C1282.13 265.627 1282.42 266.307 1282.42 267.203C1282.42 268.352 1281.94 269.242 1280.98 269.875C1280.02 270.508 1278.65 270.824 1276.85 270.824ZM1276.97 269.075C1277.61 269.075 1278.16 269.014 1278.61 268.891C1279.08 268.773 1279.43 268.604 1279.68 268.381C1279.92 268.164 1280.04 267.903 1280.04 267.599C1280.04 267.353 1279.97 267.156 1279.83 267.01C1279.68 266.869 1279.47 266.77 1279.17 266.711C1278.89 266.652 1278.52 266.623 1278.07 266.623H1276.68C1276.35 266.623 1276.05 266.676 1275.79 266.781C1275.53 266.887 1275.33 267.033 1275.18 267.221C1275.02 267.414 1274.95 267.637 1274.95 267.889C1274.95 268.258 1275.12 268.548 1275.47 268.759C1275.83 268.97 1276.33 269.075 1276.97 269.075ZM1277.4 261.622C1277.9 261.622 1278.27 261.467 1278.51 261.156C1278.74 260.846 1278.86 260.424 1278.86 259.891C1278.86 259.299 1278.74 258.856 1278.49 258.563C1278.25 258.265 1277.89 258.115 1277.4 258.115C1276.91 258.115 1276.54 258.265 1276.29 258.563C1276.05 258.856 1275.92 259.299 1275.92 259.891C1275.92 260.424 1276.04 260.846 1276.28 261.156C1276.53 261.467 1276.9 261.622 1277.4 261.622Z" fill="white"/>
<rect x="1104.5" y="230.5" width="233" height="59" rx="29.5" stroke="white" shape-rendering="crispEdges"/>
</g>
</g>
<defs>
<filter id="filter0_d_1797_8041" x="1092" y="222" width="258" height="84" filterUnits="userSpaceOnUse" color-interpolation-filters="sRGB">
<feFlood flood-opacity="0" result="BackgroundImageFix"/>
<feColorMatrix in="SourceAlpha" type="matrix" values="0 0 0 0 0 0 0 0 0 0 0 0 0 0 0 0 0 0 127 0" result="hardAlpha"/>
<feOffset dy="4"/>
<feGaussianBlur stdDeviation="6"/>
<feComposite in2="hardAlpha" operator="out"/>
<feColorMatrix type="matrix" values="0 0 0 0 0 0 0 0 0 0 0 0 0 0 0 0 0 0 0.25 0"/>
<feBlend mode="normal" in2="BackgroundImageFix" result="effect1_dropShadow_1797_8041"/>
<feBlend mode="normal" in="SourceGraphic" in2="effect1_dropShadow_1797_8041" result="shape"/>
</filter>
<linearGradient id="paint0_linear_1797_8041" x1="720" y1="0" x2="720" y2="350" gradientUnits="userSpaceOnUse">
<stop offset="0.0545455" stop-color="#963CBD"/>
<stop offset="1" stop-color="#2CD5C4"/>
</linearGradient>
<clipPath id="clip0_1797_8041">
<rect width="1440" height="350" fill="white"/>
</clipPath>
</defs>
</svg>
