<svg width="1440" height="350" viewBox="0 0 1440 350" fill="none" xmlns="http://www.w3.org/2000/svg">
<g clip-path="url(#clip0_1797_7915)">
<rect width="1440" height="350" fill="white"/>
<rect width="1440" height="350" fill="url(#paint0_linear_1797_7915)"/>
<path d="M140.562 106.312L128.094 152H124.969L115.188 117.5C114.958 116.771 114.75 116.083 114.562 115.438C114.396 114.771 114.229 114.146 114.062 113.562C113.917 112.958 113.771 112.396 113.625 111.875C113.5 111.333 113.396 110.844 113.312 110.406C113.229 110.844 113.135 111.312 113.031 111.812C112.948 112.292 112.844 112.792 112.719 113.312C112.594 113.833 112.458 114.375 112.312 114.938C112.167 115.5 112.01 116.083 111.844 116.688L102.094 152H98.9375L86.625 106.312H89.9375L98.5312 138.531C98.7604 139.385 98.9688 140.198 99.1562 140.969C99.3646 141.74 99.5521 142.49 99.7188 143.219C99.8854 143.927 100.042 144.625 100.188 145.312C100.354 145.979 100.5 146.656 100.625 147.344C100.771 146.656 100.917 145.958 101.062 145.25C101.208 144.542 101.365 143.823 101.531 143.094C101.719 142.365 101.906 141.615 102.094 140.844C102.302 140.052 102.531 139.229 102.781 138.375L111.75 106.312H114.969L124.281 138.562C124.531 139.458 124.76 140.302 124.969 141.094C125.177 141.885 125.365 142.646 125.531 143.375C125.698 144.083 125.854 144.781 126 145.469C126.146 146.135 126.292 146.812 126.438 147.5C126.604 146.562 126.771 145.646 126.938 144.75C127.125 143.833 127.344 142.875 127.594 141.875C127.844 140.875 128.125 139.781 128.438 138.594L137.219 106.312H140.562ZM150.906 103.375V119.25C150.906 120.167 150.885 121.021 150.844 121.812C150.823 122.604 150.781 123.406 150.719 124.219H150.938C151.5 122.927 152.302 121.771 153.344 120.75C154.406 119.729 155.708 118.917 157.25 118.312C158.812 117.708 160.615 117.406 162.656 117.406C165.24 117.406 167.406 117.854 169.156 118.75C170.927 119.625 172.271 120.969 173.188 122.781C174.104 124.594 174.562 126.927 174.562 129.781V152H171.438V129.969C171.438 126.594 170.667 124.115 169.125 122.531C167.583 120.948 165.344 120.156 162.406 120.156C159.906 120.156 157.802 120.646 156.094 121.625C154.385 122.583 153.094 124.042 152.219 126C151.344 127.938 150.906 130.365 150.906 133.281V152H147.75V103.375H150.906ZM197.438 117.438C201.167 117.438 203.958 118.375 205.812 120.25C207.667 122.125 208.594 125.115 208.594 129.219V152H206.156L205.594 146.062H205.406C204.677 147.333 203.792 148.469 202.75 149.469C201.708 150.448 200.427 151.219 198.906 151.781C197.406 152.344 195.573 152.625 193.406 152.625C191.219 152.625 189.344 152.26 187.781 151.531C186.24 150.802 185.042 149.74 184.188 148.344C183.354 146.948 182.938 145.25 182.938 143.25C182.938 139.875 184.333 137.312 187.125 135.562C189.917 133.792 193.927 132.792 199.156 132.562L205.469 132.25V129.781C205.469 126.302 204.781 123.823 203.406 122.344C202.031 120.865 200 120.125 197.312 120.125C195.562 120.125 193.875 120.354 192.25 120.812C190.646 121.25 189.01 121.885 187.344 122.719L186.344 120.094C187.969 119.323 189.708 118.688 191.562 118.188C193.438 117.688 195.396 117.438 197.438 117.438ZM205.438 134.719L199.5 134.969C195.188 135.177 191.906 135.948 189.656 137.281C187.406 138.615 186.281 140.615 186.281 143.281C186.281 145.427 186.948 147.073 188.281 148.219C189.635 149.365 191.51 149.938 193.906 149.938C197.635 149.938 200.479 148.875 202.438 146.75C204.417 144.625 205.417 141.729 205.438 138.062V134.719ZM228.688 149.906C229.667 149.906 230.573 149.833 231.406 149.688C232.26 149.542 233.01 149.354 233.656 149.125V151.75C232.99 151.979 232.208 152.177 231.312 152.344C230.417 152.531 229.427 152.625 228.344 152.625C226.427 152.625 224.833 152.271 223.562 151.562C222.292 150.833 221.333 149.74 220.688 148.281C220.042 146.802 219.719 144.927 219.719 142.656V120.656H214.656V118.781L219.688 117.812L220.781 109.812H222.875V118.031H233.469V120.656H222.875V142.469C222.875 144.906 223.323 146.76 224.219 148.031C225.135 149.281 226.625 149.906 228.688 149.906ZM260.719 118.031V152H257.562V118.031H260.719ZM259.188 105.469C259.979 105.469 260.562 105.708 260.938 106.188C261.312 106.646 261.5 107.271 261.5 108.062C261.5 108.854 261.312 109.479 260.938 109.938C260.562 110.396 259.979 110.625 259.188 110.625C258.438 110.625 257.875 110.396 257.5 109.938C257.125 109.479 256.938 108.854 256.938 108.062C256.938 107.271 257.125 106.646 257.5 106.188C257.875 105.708 258.438 105.469 259.188 105.469ZM293.312 143.094C293.312 145.115 292.802 146.844 291.781 148.281C290.781 149.698 289.312 150.781 287.375 151.531C285.438 152.26 283.052 152.625 280.219 152.625C277.865 152.625 275.76 152.417 273.906 152C272.052 151.583 270.5 151.073 269.25 150.469V147.344C270.812 148.115 272.542 148.74 274.438 149.219C276.333 149.698 278.281 149.938 280.281 149.938C283.781 149.938 286.302 149.344 287.844 148.156C289.385 146.969 290.156 145.344 290.156 143.281C290.156 141.927 289.771 140.812 289 139.938C288.25 139.042 287.167 138.271 285.75 137.625C284.333 136.979 282.625 136.323 280.625 135.656C278.542 134.948 276.688 134.25 275.062 133.562C273.458 132.854 272.198 131.927 271.281 130.781C270.365 129.615 269.906 128.031 269.906 126.031C269.906 123.302 271 121.177 273.188 119.656C275.375 118.135 278.312 117.375 282 117.375C284.042 117.375 285.938 117.573 287.688 117.969C289.458 118.344 291.062 118.833 292.5 119.438L291.375 122.125C290.083 121.521 288.594 121.031 286.906 120.656C285.219 120.281 283.531 120.094 281.844 120.094C279.073 120.094 276.906 120.583 275.344 121.562C273.781 122.542 273 123.979 273 125.875C273 127.333 273.375 128.479 274.125 129.312C274.875 130.125 275.948 130.812 277.344 131.375C278.74 131.917 280.396 132.521 282.312 133.188C284.292 133.875 286.115 134.594 287.781 135.344C289.469 136.094 290.812 137.062 291.812 138.25C292.812 139.438 293.312 141.052 293.312 143.094ZM357.75 129.094C357.75 132.573 357.323 135.75 356.469 138.625C355.615 141.5 354.333 143.979 352.625 146.062C350.917 148.146 348.781 149.76 346.219 150.906C343.677 152.052 340.708 152.625 337.312 152.625C333.896 152.625 330.906 152.052 328.344 150.906C325.781 149.76 323.646 148.146 321.938 146.062C320.25 143.958 318.979 141.469 318.125 138.594C317.271 135.698 316.844 132.51 316.844 129.031C316.844 124.406 317.625 120.333 319.188 116.812C320.771 113.292 323.094 110.542 326.156 108.562C329.24 106.583 333.042 105.594 337.562 105.594C341.896 105.594 345.562 106.542 348.562 108.438C351.583 110.312 353.865 113.01 355.406 116.531C356.969 120.031 357.75 124.219 357.75 129.094ZM320.219 129.062C320.219 133.146 320.833 136.75 322.062 139.875C323.292 142.979 325.177 145.406 327.719 147.156C330.26 148.906 333.469 149.781 337.344 149.781C341.26 149.781 344.479 148.917 347 147.188C349.521 145.458 351.385 143.042 352.594 139.938C353.802 136.833 354.406 133.219 354.406 129.094C354.406 122.573 352.979 117.51 350.125 113.906C347.292 110.302 343.104 108.5 337.562 108.5C333.667 108.5 330.427 109.365 327.844 111.094C325.281 112.823 323.365 115.229 322.094 118.312C320.844 121.396 320.219 124.979 320.219 129.062ZM382.5 117.375C386.875 117.375 390.26 118.844 392.656 121.781C395.073 124.719 396.281 129.052 396.281 134.781C396.281 138.615 395.708 141.865 394.562 144.531C393.417 147.177 391.781 149.188 389.656 150.562C387.552 151.938 385.021 152.625 382.062 152.625C380.021 152.625 378.24 152.323 376.719 151.719C375.219 151.094 373.969 150.26 372.969 149.219C371.969 148.156 371.198 146.99 370.656 145.719H370.438C370.5 146.906 370.552 148.146 370.594 149.438C370.635 150.729 370.656 151.948 370.656 153.094V167.031H367.469V118.031H370.094L370.469 124.812H370.656C371.219 123.521 372.01 122.302 373.031 121.156C374.052 120.01 375.344 119.094 376.906 118.406C378.469 117.719 380.333 117.375 382.5 117.375ZM382.094 120.156C379.531 120.156 377.396 120.719 375.688 121.844C374 122.948 372.74 124.573 371.906 126.719C371.094 128.844 370.677 131.448 370.656 134.531V135.062C370.656 138.375 371.062 141.135 371.875 143.344C372.708 145.531 373.948 147.167 375.594 148.25C377.26 149.333 379.323 149.875 381.781 149.875C384.198 149.875 386.24 149.281 387.906 148.094C389.573 146.906 390.844 145.188 391.719 142.938C392.594 140.688 393.031 137.958 393.031 134.75C393.031 129.979 392.115 126.354 390.281 123.875C388.469 121.396 385.74 120.156 382.094 120.156ZM418.438 117.375C421.333 117.375 423.74 118.052 425.656 119.406C427.594 120.76 429.031 122.615 429.969 124.969C430.927 127.323 431.406 130.021 431.406 133.062V135.344H406.875C406.875 140.01 407.948 143.594 410.094 146.094C412.26 148.594 415.354 149.844 419.375 149.844C421.479 149.844 423.302 149.677 424.844 149.344C426.406 148.99 428.135 148.396 430.031 147.562V150.469C428.365 151.219 426.698 151.76 425.031 152.094C423.365 152.448 421.448 152.625 419.281 152.625C415.844 152.625 412.958 151.917 410.625 150.5C408.312 149.062 406.562 147.042 405.375 144.438C404.208 141.833 403.625 138.792 403.625 135.312C403.625 131.917 404.188 128.865 405.312 126.156C406.458 123.448 408.125 121.312 410.312 119.75C412.521 118.167 415.229 117.375 418.438 117.375ZM418.406 120.094C415.156 120.094 412.521 121.177 410.5 123.344C408.5 125.49 407.323 128.594 406.969 132.656H428.125C428.125 130.177 427.771 127.99 427.062 126.094C426.354 124.198 425.281 122.729 423.844 121.688C422.427 120.625 420.615 120.094 418.406 120.094ZM455.719 117.375C459.531 117.375 462.458 118.375 464.5 120.375C466.542 122.375 467.562 125.51 467.562 129.781V152H464.438V129.969C464.438 126.594 463.667 124.115 462.125 122.531C460.583 120.948 458.344 120.156 455.406 120.156C451.677 120.156 448.823 121.25 446.844 123.438C444.885 125.604 443.906 128.885 443.906 133.281V152H440.75V118.031H443.312L443.781 124.219H443.969C444.573 122.948 445.396 121.802 446.438 120.781C447.5 119.74 448.802 118.917 450.344 118.312C451.885 117.688 453.677 117.375 455.719 117.375ZM504.531 140.219C504.531 142.948 503.844 145.24 502.469 147.094C501.094 148.927 499.229 150.312 496.875 151.25C494.521 152.167 491.854 152.625 488.875 152.625C487.021 152.625 485.333 152.531 483.812 152.344C482.312 152.177 480.948 151.948 479.719 151.656C478.51 151.365 477.406 151.031 476.406 150.656V147.438C478.031 148.062 479.906 148.615 482.031 149.094C484.177 149.552 486.51 149.781 489.031 149.781C491.406 149.781 493.51 149.438 495.344 148.75C497.198 148.062 498.656 147.021 499.719 145.625C500.781 144.229 501.312 142.469 501.312 140.344C501.312 138.469 500.865 136.938 499.969 135.75C499.094 134.542 497.771 133.51 496 132.656C494.229 131.781 492 130.896 489.312 130C487.438 129.354 485.729 128.677 484.188 127.969C482.667 127.24 481.365 126.406 480.281 125.469C479.198 124.51 478.365 123.365 477.781 122.031C477.219 120.677 476.938 119.083 476.938 117.25C476.938 114.729 477.573 112.615 478.844 110.906C480.135 109.177 481.875 107.875 484.062 107C486.271 106.104 488.75 105.656 491.5 105.656C493.688 105.656 495.76 105.865 497.719 106.281C499.698 106.677 501.604 107.281 503.438 108.094L502.312 110.875C500.479 110.083 498.646 109.5 496.812 109.125C494.979 108.75 493.167 108.562 491.375 108.562C489.229 108.562 487.312 108.885 485.625 109.531C483.958 110.156 482.635 111.104 481.656 112.375C480.677 113.646 480.188 115.25 480.188 117.188C480.188 119.188 480.635 120.802 481.531 122.031C482.448 123.26 483.74 124.281 485.406 125.094C487.094 125.906 489.083 126.698 491.375 127.469C494.083 128.385 496.417 129.354 498.375 130.375C500.333 131.375 501.844 132.646 502.906 134.188C503.99 135.729 504.531 137.74 504.531 140.219ZM526.375 117.375C529.271 117.375 531.677 118.052 533.594 119.406C535.531 120.76 536.969 122.615 537.906 124.969C538.865 127.323 539.344 130.021 539.344 133.062V135.344H514.812C514.812 140.01 515.885 143.594 518.031 146.094C520.198 148.594 523.292 149.844 527.312 149.844C529.417 149.844 531.24 149.677 532.781 149.344C534.344 148.99 536.073 148.396 537.969 147.562V150.469C536.302 151.219 534.635 151.76 532.969 152.094C531.302 152.448 529.385 152.625 527.219 152.625C523.781 152.625 520.896 151.917 518.562 150.5C516.25 149.062 514.5 147.042 513.312 144.438C512.146 141.833 511.562 138.792 511.562 135.312C511.562 131.917 512.125 128.865 513.25 126.156C514.396 123.448 516.062 121.312 518.25 119.75C520.458 118.167 523.167 117.375 526.375 117.375ZM526.344 120.094C523.094 120.094 520.458 121.177 518.438 123.344C516.438 125.49 515.26 128.594 514.906 132.656H536.062C536.062 130.177 535.708 127.99 535 126.094C534.292 124.198 533.219 122.729 531.781 121.688C530.365 120.625 528.552 120.094 526.344 120.094ZM560.562 117.438C564.292 117.438 567.083 118.375 568.938 120.25C570.792 122.125 571.719 125.115 571.719 129.219V152H569.281L568.719 146.062H568.531C567.802 147.333 566.917 148.469 565.875 149.469C564.833 150.448 563.552 151.219 562.031 151.781C560.531 152.344 558.698 152.625 556.531 152.625C554.344 152.625 552.469 152.26 550.906 151.531C549.365 150.802 548.167 149.74 547.312 148.344C546.479 146.948 546.062 145.25 546.062 143.25C546.062 139.875 547.458 137.312 550.25 135.562C553.042 133.792 557.052 132.792 562.281 132.562L568.594 132.25V129.781C568.594 126.302 567.906 123.823 566.531 122.344C565.156 120.865 563.125 120.125 560.438 120.125C558.688 120.125 557 120.354 555.375 120.812C553.771 121.25 552.135 121.885 550.469 122.719L549.469 120.094C551.094 119.323 552.833 118.688 554.688 118.188C556.562 117.688 558.521 117.438 560.562 117.438ZM568.562 134.719L562.625 134.969C558.312 135.177 555.031 135.948 552.781 137.281C550.531 138.615 549.406 140.615 549.406 143.281C549.406 145.427 550.073 147.073 551.406 148.219C552.76 149.365 554.635 149.938 557.031 149.938C560.76 149.938 563.604 148.875 565.562 146.75C567.542 144.625 568.542 141.729 568.562 138.062V134.719ZM596.156 117.438C597.052 117.438 597.896 117.49 598.688 117.594C599.479 117.698 600.219 117.844 600.906 118.031L600.406 120.938C599.719 120.75 599.021 120.615 598.312 120.531C597.604 120.427 596.844 120.375 596.031 120.375C594.427 120.375 592.99 120.677 591.719 121.281C590.469 121.885 589.406 122.75 588.531 123.875C587.656 125 586.99 126.354 586.531 127.938C586.073 129.521 585.844 131.292 585.844 133.25V152H582.656V118.031H585.375L585.688 124.438H585.875C586.396 123.125 587.125 121.948 588.062 120.906C589.021 119.844 590.177 119 591.531 118.375C592.885 117.75 594.427 117.438 596.156 117.438ZM621.188 152.625C617.812 152.625 614.958 151.927 612.625 150.531C610.312 149.115 608.562 147.104 607.375 144.5C606.208 141.875 605.625 138.771 605.625 135.188C605.625 131.458 606.302 128.271 607.656 125.625C609.01 122.958 610.917 120.917 613.375 119.5C615.833 118.083 618.719 117.375 622.031 117.375C623.656 117.375 625.167 117.521 626.562 117.812C627.958 118.104 629.219 118.51 630.344 119.031L629.5 121.812C628.333 121.292 627.094 120.896 625.781 120.625C624.469 120.354 623.208 120.219 622 120.219C619.208 120.219 616.833 120.833 614.875 122.062C612.938 123.271 611.448 125 610.406 127.25C609.385 129.479 608.875 132.115 608.875 135.156C608.875 138.01 609.312 140.542 610.188 142.75C611.062 144.938 612.406 146.667 614.219 147.938C616.031 149.188 618.354 149.812 621.188 149.812C622.833 149.812 624.396 149.646 625.875 149.312C627.375 148.979 628.74 148.552 629.969 148.031V150.906C628.865 151.406 627.583 151.812 626.125 152.125C624.688 152.458 623.042 152.625 621.188 152.625ZM641.156 103.375V119.25C641.156 120.167 641.135 121.021 641.094 121.812C641.073 122.604 641.031 123.406 640.969 124.219H641.188C641.75 122.927 642.552 121.771 643.594 120.75C644.656 119.729 645.958 118.917 647.5 118.312C649.062 117.708 650.865 117.406 652.906 117.406C655.49 117.406 657.656 117.854 659.406 118.75C661.177 119.625 662.521 120.969 663.438 122.781C664.354 124.594 664.812 126.927 664.812 129.781V152H661.688V129.969C661.688 126.594 660.917 124.115 659.375 122.531C657.833 120.948 655.594 120.156 652.656 120.156C650.156 120.156 648.052 120.646 646.344 121.625C644.635 122.583 643.344 124.042 642.469 126C641.594 127.938 641.156 130.365 641.156 133.281V152H638V103.375H641.156ZM679.312 140.219V139.094C679.312 137.156 679.458 135.542 679.75 134.25C680.062 132.958 680.604 131.802 681.375 130.781C682.167 129.76 683.281 128.698 684.719 127.594C686.302 126.406 687.615 125.312 688.656 124.312C689.719 123.292 690.51 122.198 691.031 121.031C691.573 119.844 691.844 118.396 691.844 116.688C691.844 113.938 691 111.885 689.312 110.531C687.625 109.177 685.385 108.5 682.594 108.5C680.823 108.5 679.177 108.708 677.656 109.125C676.156 109.542 674.646 110.125 673.125 110.875L672 108.156C673.792 107.344 675.51 106.729 677.156 106.312C678.823 105.875 680.677 105.656 682.719 105.656C686.49 105.656 689.469 106.604 691.656 108.5C693.844 110.375 694.938 113.094 694.938 116.656C694.938 118.698 694.594 120.448 693.906 121.906C693.24 123.365 692.302 124.677 691.094 125.844C689.885 127.01 688.469 128.198 686.844 129.406C685.615 130.344 684.646 131.26 683.938 132.156C683.229 133.031 682.729 134.031 682.438 135.156C682.146 136.281 682 137.677 682 139.344V140.219H679.312ZM678.312 149.781C678.312 148.865 678.521 148.167 678.938 147.688C679.354 147.188 679.979 146.938 680.812 146.938C681.688 146.938 682.333 147.188 682.75 147.688C683.167 148.167 683.375 148.865 683.375 149.781C683.375 150.698 683.167 151.406 682.75 151.906C682.333 152.406 681.688 152.656 680.812 152.656C679.979 152.656 679.354 152.406 678.938 151.906C678.521 151.406 678.312 150.698 678.312 149.781ZM87.1562 212V194.867H90.7891V209H97.7383V212H87.1562ZM105.848 198.652C107.059 198.652 108.102 198.887 108.977 199.355C109.852 199.816 110.527 200.488 111.004 201.371C111.48 202.254 111.719 203.332 111.719 204.605V206.34H103.27C103.309 207.348 103.609 208.141 104.172 208.719C104.742 209.289 105.531 209.574 106.539 209.574C107.375 209.574 108.141 209.488 108.836 209.316C109.531 209.145 110.246 208.887 110.98 208.543V211.309C110.332 211.629 109.652 211.863 108.941 212.012C108.238 212.16 107.383 212.234 106.375 212.234C105.062 212.234 103.898 211.992 102.883 211.508C101.875 211.023 101.082 210.285 100.504 209.293C99.9336 208.301 99.6484 207.051 99.6484 205.543C99.6484 204.012 99.9062 202.738 100.422 201.723C100.945 200.699 101.672 199.934 102.602 199.426C103.531 198.91 104.613 198.652 105.848 198.652ZM105.871 201.195C105.176 201.195 104.598 201.418 104.137 201.863C103.684 202.309 103.422 203.008 103.352 203.961H108.367C108.359 203.43 108.262 202.957 108.074 202.543C107.895 202.129 107.621 201.801 107.254 201.559C106.895 201.316 106.434 201.195 105.871 201.195ZM119.992 198.629C121.75 198.629 123.098 199.012 124.035 199.777C124.973 200.543 125.441 201.707 125.441 203.27V212H122.945L122.254 210.219H122.16C121.785 210.688 121.402 211.07 121.012 211.367C120.621 211.664 120.172 211.883 119.664 212.023C119.156 212.164 118.539 212.234 117.812 212.234C117.039 212.234 116.344 212.086 115.727 211.789C115.117 211.492 114.637 211.039 114.285 210.43C113.934 209.812 113.758 209.031 113.758 208.086C113.758 206.695 114.246 205.672 115.223 205.016C116.199 204.352 117.664 203.984 119.617 203.914L121.891 203.844V203.27C121.891 202.582 121.711 202.078 121.352 201.758C120.992 201.438 120.492 201.277 119.852 201.277C119.219 201.277 118.598 201.367 117.988 201.547C117.379 201.727 116.77 201.953 116.16 202.227L114.977 199.812C115.672 199.445 116.449 199.156 117.309 198.945C118.176 198.734 119.07 198.629 119.992 198.629ZM121.891 205.93L120.508 205.977C119.352 206.008 118.547 206.215 118.094 206.598C117.648 206.98 117.426 207.484 117.426 208.109C117.426 208.656 117.586 209.047 117.906 209.281C118.227 209.508 118.645 209.621 119.16 209.621C119.926 209.621 120.57 209.395 121.094 208.941C121.625 208.488 121.891 207.844 121.891 207.008V205.93ZM136.445 198.652C136.625 198.652 136.832 198.664 137.066 198.688C137.309 198.703 137.504 198.727 137.652 198.758L137.383 202.109C137.266 202.07 137.098 202.043 136.879 202.027C136.668 202.004 136.484 201.992 136.328 201.992C135.867 201.992 135.418 202.051 134.98 202.168C134.551 202.285 134.164 202.477 133.82 202.742C133.477 203 133.203 203.344 133 203.773C132.805 204.195 132.707 204.715 132.707 205.332V212H129.133V198.898H131.84L132.367 201.102H132.543C132.801 200.656 133.121 200.25 133.504 199.883C133.895 199.508 134.336 199.211 134.828 198.992C135.328 198.766 135.867 198.652 136.445 198.652ZM147.473 198.652C148.871 198.652 149.996 199.035 150.848 199.801C151.699 200.559 152.125 201.777 152.125 203.457V212H148.551V204.348C148.551 203.41 148.379 202.703 148.035 202.227C147.699 201.75 147.168 201.512 146.441 201.512C145.348 201.512 144.602 201.883 144.203 202.625C143.805 203.367 143.605 204.438 143.605 205.836V212H140.031V198.898H142.762L143.242 200.574H143.441C143.723 200.121 144.07 199.754 144.484 199.473C144.906 199.191 145.371 198.984 145.879 198.852C146.395 198.719 146.926 198.652 147.473 198.652ZM172.809 212L171.801 207.418C171.746 207.145 171.656 206.742 171.531 206.211C171.406 205.672 171.27 205.098 171.121 204.488C170.98 203.871 170.848 203.301 170.723 202.777C170.605 202.254 170.52 201.871 170.465 201.629H170.359C170.305 201.871 170.219 202.254 170.102 202.777C169.984 203.301 169.852 203.871 169.703 204.488C169.562 205.105 169.43 205.688 169.305 206.234C169.18 206.773 169.086 207.184 169.023 207.465L167.969 212H164.125L160.398 198.898H163.961L165.473 204.699C165.574 205.105 165.672 205.59 165.766 206.152C165.859 206.707 165.941 207.246 166.012 207.77C166.09 208.285 166.148 208.695 166.188 209H166.281C166.297 208.773 166.328 208.473 166.375 208.098C166.43 207.723 166.488 207.336 166.551 206.938C166.621 206.531 166.684 206.168 166.738 205.848C166.801 205.52 166.848 205.297 166.879 205.18L168.496 198.898H172.434L173.969 205.18C174.023 205.406 174.094 205.766 174.18 206.258C174.273 206.75 174.355 207.258 174.426 207.781C174.496 208.297 174.535 208.703 174.543 209H174.637C174.668 208.734 174.723 208.34 174.801 207.816C174.879 207.293 174.969 206.746 175.07 206.176C175.18 205.598 175.289 205.105 175.398 204.699L176.969 198.898H180.473L176.699 212H172.809ZM186.168 193.766V197.48C186.168 198.129 186.145 198.746 186.098 199.332C186.059 199.918 186.027 200.332 186.004 200.574H186.191C186.473 200.121 186.805 199.754 187.188 199.473C187.578 199.191 188.008 198.984 188.477 198.852C188.945 198.719 189.449 198.652 189.988 198.652C190.934 198.652 191.758 198.82 192.461 199.156C193.164 199.484 193.711 200.004 194.102 200.715C194.492 201.418 194.688 202.332 194.688 203.457V212H191.113V204.348C191.113 203.41 190.941 202.703 190.598 202.227C190.254 201.75 189.723 201.512 189.004 201.512C188.285 201.512 187.719 201.68 187.305 202.016C186.891 202.344 186.598 202.832 186.426 203.48C186.254 204.121 186.168 204.906 186.168 205.836V212H182.594V193.766H186.168ZM203.734 198.629C205.492 198.629 206.84 199.012 207.777 199.777C208.715 200.543 209.184 201.707 209.184 203.27V212H206.688L205.996 210.219H205.902C205.527 210.688 205.145 211.07 204.754 211.367C204.363 211.664 203.914 211.883 203.406 212.023C202.898 212.164 202.281 212.234 201.555 212.234C200.781 212.234 200.086 212.086 199.469 211.789C198.859 211.492 198.379 211.039 198.027 210.43C197.676 209.812 197.5 209.031 197.5 208.086C197.5 206.695 197.988 205.672 198.965 205.016C199.941 204.352 201.406 203.984 203.359 203.914L205.633 203.844V203.27C205.633 202.582 205.453 202.078 205.094 201.758C204.734 201.438 204.234 201.277 203.594 201.277C202.961 201.277 202.34 201.367 201.73 201.547C201.121 201.727 200.512 201.953 199.902 202.227L198.719 199.812C199.414 199.445 200.191 199.156 201.051 198.945C201.918 198.734 202.812 198.629 203.734 198.629ZM205.633 205.93L204.25 205.977C203.094 206.008 202.289 206.215 201.836 206.598C201.391 206.98 201.168 207.484 201.168 208.109C201.168 208.656 201.328 209.047 201.648 209.281C201.969 209.508 202.387 209.621 202.902 209.621C203.668 209.621 204.312 209.395 204.836 208.941C205.367 208.488 205.633 207.844 205.633 207.008V205.93ZM218.395 209.387C218.785 209.387 219.164 209.348 219.531 209.27C219.906 209.191 220.277 209.094 220.645 208.977V211.637C220.262 211.809 219.785 211.949 219.215 212.059C218.652 212.176 218.035 212.234 217.363 212.234C216.582 212.234 215.879 212.109 215.254 211.859C214.637 211.602 214.148 211.16 213.789 210.535C213.438 209.902 213.262 209.023 213.262 207.898V201.582H211.551V200.07L213.52 198.875L214.551 196.109H216.836V198.898H220.504V201.582H216.836V207.898C216.836 208.398 216.977 208.773 217.258 209.023C217.547 209.266 217.926 209.387 218.395 209.387ZM245.371 203.41C245.371 204.73 245.207 205.934 244.879 207.02C244.551 208.098 244.051 209.027 243.379 209.809C242.715 210.59 241.871 211.191 240.848 211.613C239.824 212.027 238.613 212.234 237.215 212.234C235.816 212.234 234.605 212.027 233.582 211.613C232.559 211.191 231.711 210.59 231.039 209.809C230.375 209.027 229.879 208.094 229.551 207.008C229.223 205.922 229.059 204.715 229.059 203.387C229.059 201.613 229.348 200.07 229.926 198.758C230.512 197.438 231.41 196.414 232.621 195.688C233.832 194.961 235.371 194.598 237.238 194.598C239.098 194.598 240.625 194.961 241.82 195.688C243.023 196.414 243.914 197.438 244.492 198.758C245.078 200.078 245.371 201.629 245.371 203.41ZM232.867 203.41C232.867 204.605 233.016 205.637 233.312 206.504C233.617 207.363 234.09 208.027 234.73 208.496C235.371 208.957 236.199 209.188 237.215 209.188C238.246 209.188 239.082 208.957 239.723 208.496C240.363 208.027 240.828 207.363 241.117 206.504C241.414 205.637 241.562 204.605 241.562 203.41C241.562 201.613 241.227 200.199 240.555 199.168C239.883 198.137 238.777 197.621 237.238 197.621C236.215 197.621 235.379 197.855 234.73 198.324C234.09 198.785 233.617 199.449 233.312 200.316C233.016 201.176 232.867 202.207 232.867 203.41ZM255.93 198.652C257.406 198.652 258.598 199.227 259.504 200.375C260.418 201.523 260.875 203.207 260.875 205.426C260.875 206.91 260.66 208.16 260.23 209.176C259.801 210.184 259.207 210.945 258.449 211.461C257.691 211.977 256.82 212.234 255.836 212.234C255.203 212.234 254.66 212.156 254.207 212C253.754 211.836 253.367 211.629 253.047 211.379C252.727 211.121 252.449 210.848 252.215 210.559H252.027C252.09 210.871 252.137 211.191 252.168 211.52C252.199 211.848 252.215 212.168 252.215 212.48V217.766H248.641V198.898H251.547L252.051 200.598H252.215C252.449 200.246 252.734 199.922 253.07 199.625C253.406 199.328 253.809 199.094 254.277 198.922C254.754 198.742 255.305 198.652 255.93 198.652ZM254.781 201.512C254.156 201.512 253.66 201.641 253.293 201.898C252.926 202.156 252.656 202.543 252.484 203.059C252.32 203.574 252.23 204.227 252.215 205.016V205.402C252.215 206.246 252.293 206.961 252.449 207.547C252.613 208.133 252.883 208.578 253.258 208.883C253.641 209.188 254.164 209.34 254.828 209.34C255.375 209.34 255.824 209.188 256.176 208.883C256.527 208.578 256.789 208.133 256.961 207.547C257.141 206.953 257.23 206.23 257.23 205.379C257.23 204.098 257.031 203.133 256.633 202.484C256.234 201.836 255.617 201.512 254.781 201.512ZM269.23 198.652C270.441 198.652 271.484 198.887 272.359 199.355C273.234 199.816 273.91 200.488 274.387 201.371C274.863 202.254 275.102 203.332 275.102 204.605V206.34H266.652C266.691 207.348 266.992 208.141 267.555 208.719C268.125 209.289 268.914 209.574 269.922 209.574C270.758 209.574 271.523 209.488 272.219 209.316C272.914 209.145 273.629 208.887 274.363 208.543V211.309C273.715 211.629 273.035 211.863 272.324 212.012C271.621 212.16 270.766 212.234 269.758 212.234C268.445 212.234 267.281 211.992 266.266 211.508C265.258 211.023 264.465 210.285 263.887 209.293C263.316 208.301 263.031 207.051 263.031 205.543C263.031 204.012 263.289 202.738 263.805 201.723C264.328 200.699 265.055 199.934 265.984 199.426C266.914 198.91 267.996 198.652 269.23 198.652ZM269.254 201.195C268.559 201.195 267.98 201.418 267.52 201.863C267.066 202.309 266.805 203.008 266.734 203.961H271.75C271.742 203.43 271.645 202.957 271.457 202.543C271.277 202.129 271.004 201.801 270.637 201.559C270.277 201.316 269.816 201.195 269.254 201.195ZM285.449 198.652C286.848 198.652 287.973 199.035 288.824 199.801C289.676 200.559 290.102 201.777 290.102 203.457V212H286.527V204.348C286.527 203.41 286.355 202.703 286.012 202.227C285.676 201.75 285.145 201.512 284.418 201.512C283.324 201.512 282.578 201.883 282.18 202.625C281.781 203.367 281.582 204.438 281.582 205.836V212H278.008V198.898H280.738L281.219 200.574H281.418C281.699 200.121 282.047 199.754 282.461 199.473C282.883 199.191 283.348 198.984 283.855 198.852C284.371 198.719 284.902 198.652 285.449 198.652ZM304.176 207.242C304.176 208.258 303.93 209.141 303.438 209.891C302.945 210.641 302.227 211.219 301.281 211.625C300.344 212.031 299.203 212.234 297.859 212.234C297.266 212.234 296.684 212.195 296.113 212.117C295.551 212.039 295.008 211.926 294.484 211.777C293.969 211.621 293.477 211.43 293.008 211.203V207.828C293.82 208.188 294.664 208.512 295.539 208.801C296.414 209.09 297.281 209.234 298.141 209.234C298.734 209.234 299.211 209.156 299.57 209C299.938 208.844 300.203 208.629 300.367 208.355C300.531 208.082 300.613 207.77 300.613 207.418C300.613 206.988 300.469 206.621 300.18 206.316C299.891 206.012 299.492 205.727 298.984 205.461C298.484 205.195 297.918 204.91 297.285 204.605C296.887 204.418 296.453 204.191 295.984 203.926C295.516 203.652 295.07 203.32 294.648 202.93C294.227 202.539 293.879 202.066 293.605 201.512C293.34 200.949 293.207 200.277 293.207 199.496C293.207 198.473 293.441 197.598 293.91 196.871C294.379 196.145 295.047 195.59 295.914 195.207C296.789 194.816 297.82 194.621 299.008 194.621C299.898 194.621 300.746 194.727 301.551 194.938C302.363 195.141 303.211 195.438 304.094 195.828L302.922 198.652C302.133 198.332 301.426 198.086 300.801 197.914C300.176 197.734 299.539 197.645 298.891 197.645C298.438 197.645 298.051 197.719 297.73 197.867C297.41 198.008 297.168 198.211 297.004 198.477C296.84 198.734 296.758 199.035 296.758 199.379C296.758 199.785 296.875 200.129 297.109 200.41C297.352 200.684 297.711 200.949 298.188 201.207C298.672 201.465 299.273 201.766 299.992 202.109C300.867 202.523 301.613 202.957 302.23 203.41C302.855 203.855 303.336 204.383 303.672 204.992C304.008 205.594 304.176 206.344 304.176 207.242ZM312.402 198.652C313.613 198.652 314.656 198.887 315.531 199.355C316.406 199.816 317.082 200.488 317.559 201.371C318.035 202.254 318.273 203.332 318.273 204.605V206.34H309.824C309.863 207.348 310.164 208.141 310.727 208.719C311.297 209.289 312.086 209.574 313.094 209.574C313.93 209.574 314.695 209.488 315.391 209.316C316.086 209.145 316.801 208.887 317.535 208.543V211.309C316.887 211.629 316.207 211.863 315.496 212.012C314.793 212.16 313.938 212.234 312.93 212.234C311.617 212.234 310.453 211.992 309.438 211.508C308.43 211.023 307.637 210.285 307.059 209.293C306.488 208.301 306.203 207.051 306.203 205.543C306.203 204.012 306.461 202.738 306.977 201.723C307.5 200.699 308.227 199.934 309.156 199.426C310.086 198.91 311.168 198.652 312.402 198.652ZM312.426 201.195C311.73 201.195 311.152 201.418 310.691 201.863C310.238 202.309 309.977 203.008 309.906 203.961H314.922C314.914 203.43 314.816 202.957 314.629 202.543C314.449 202.129 314.176 201.801 313.809 201.559C313.449 201.316 312.988 201.195 312.426 201.195ZM326.547 198.629C328.305 198.629 329.652 199.012 330.59 199.777C331.527 200.543 331.996 201.707 331.996 203.27V212H329.5L328.809 210.219H328.715C328.34 210.688 327.957 211.07 327.566 211.367C327.176 211.664 326.727 211.883 326.219 212.023C325.711 212.164 325.094 212.234 324.367 212.234C323.594 212.234 322.898 212.086 322.281 211.789C321.672 211.492 321.191 211.039 320.84 210.43C320.488 209.812 320.312 209.031 320.312 208.086C320.312 206.695 320.801 205.672 321.777 205.016C322.754 204.352 324.219 203.984 326.172 203.914L328.445 203.844V203.27C328.445 202.582 328.266 202.078 327.906 201.758C327.547 201.438 327.047 201.277 326.406 201.277C325.773 201.277 325.152 201.367 324.543 201.547C323.934 201.727 323.324 201.953 322.715 202.227L321.531 199.812C322.227 199.445 323.004 199.156 323.863 198.945C324.73 198.734 325.625 198.629 326.547 198.629ZM328.445 205.93L327.062 205.977C325.906 206.008 325.102 206.215 324.648 206.598C324.203 206.98 323.98 207.484 323.98 208.109C323.98 208.656 324.141 209.047 324.461 209.281C324.781 209.508 325.199 209.621 325.715 209.621C326.48 209.621 327.125 209.395 327.648 208.941C328.18 208.488 328.445 207.844 328.445 207.008V205.93ZM343 198.652C343.18 198.652 343.387 198.664 343.621 198.688C343.863 198.703 344.059 198.727 344.207 198.758L343.938 202.109C343.82 202.07 343.652 202.043 343.434 202.027C343.223 202.004 343.039 201.992 342.883 201.992C342.422 201.992 341.973 202.051 341.535 202.168C341.105 202.285 340.719 202.477 340.375 202.742C340.031 203 339.758 203.344 339.555 203.773C339.359 204.195 339.262 204.715 339.262 205.332V212H335.688V198.898H338.395L338.922 201.102H339.098C339.355 200.656 339.676 200.25 340.059 199.883C340.449 199.508 340.891 199.211 341.383 198.992C341.883 198.766 342.422 198.652 343 198.652ZM351.906 212.234C350.609 212.234 349.504 212 348.59 211.531C347.676 211.055 346.98 210.32 346.504 209.328C346.027 208.336 345.789 207.066 345.789 205.52C345.789 203.918 346.059 202.613 346.598 201.605C347.145 200.59 347.898 199.844 348.859 199.367C349.828 198.891 350.949 198.652 352.223 198.652C353.129 198.652 353.91 198.742 354.566 198.922C355.23 199.094 355.809 199.301 356.301 199.543L355.246 202.309C354.684 202.082 354.16 201.898 353.676 201.758C353.191 201.609 352.707 201.535 352.223 201.535C351.598 201.535 351.078 201.684 350.664 201.98C350.25 202.27 349.941 202.707 349.738 203.293C349.535 203.879 349.434 204.613 349.434 205.496C349.434 206.363 349.543 207.082 349.762 207.652C349.98 208.223 350.297 208.648 350.711 208.93C351.125 209.203 351.629 209.34 352.223 209.34C352.965 209.34 353.625 209.242 354.203 209.047C354.781 208.844 355.344 208.562 355.891 208.203V211.262C355.344 211.605 354.77 211.852 354.168 212C353.574 212.156 352.82 212.234 351.906 212.234ZM362.512 193.766V197.48C362.512 198.129 362.488 198.746 362.441 199.332C362.402 199.918 362.371 200.332 362.348 200.574H362.535C362.816 200.121 363.148 199.754 363.531 199.473C363.922 199.191 364.352 198.984 364.82 198.852C365.289 198.719 365.793 198.652 366.332 198.652C367.277 198.652 368.102 198.82 368.805 199.156C369.508 199.484 370.055 200.004 370.445 200.715C370.836 201.418 371.031 202.332 371.031 203.457V212H367.457V204.348C367.457 203.41 367.285 202.703 366.941 202.227C366.598 201.75 366.066 201.512 365.348 201.512C364.629 201.512 364.062 201.68 363.648 202.016C363.234 202.344 362.941 202.832 362.77 203.48C362.598 204.121 362.512 204.906 362.512 205.836V212H358.938V193.766H362.512ZM384.52 198.898V212H380.945V198.898H384.52ZM382.738 193.766C383.27 193.766 383.727 193.891 384.109 194.141C384.492 194.383 384.684 194.84 384.684 195.512C384.684 196.176 384.492 196.637 384.109 196.895C383.727 197.145 383.27 197.27 382.738 197.27C382.199 197.27 381.738 197.145 381.355 196.895C380.98 196.637 380.793 196.176 380.793 195.512C380.793 194.84 380.98 194.383 381.355 194.141C381.738 193.891 382.199 193.766 382.738 193.766ZM397.422 208.109C397.422 209 397.211 209.754 396.789 210.371C396.375 210.98 395.754 211.445 394.926 211.766C394.098 212.078 393.066 212.234 391.832 212.234C390.918 212.234 390.133 212.176 389.477 212.059C388.828 211.941 388.172 211.746 387.508 211.473V208.52C388.219 208.84 388.98 209.105 389.793 209.316C390.613 209.52 391.332 209.621 391.949 209.621C392.645 209.621 393.141 209.52 393.438 209.316C393.742 209.105 393.895 208.832 393.895 208.496C393.895 208.277 393.832 208.082 393.707 207.91C393.59 207.73 393.332 207.531 392.934 207.312C392.535 207.086 391.91 206.793 391.059 206.434C390.238 206.09 389.562 205.742 389.031 205.391C388.508 205.039 388.117 204.625 387.859 204.148C387.609 203.664 387.484 203.051 387.484 202.309C387.484 201.098 387.953 200.188 388.891 199.578C389.836 198.961 391.098 198.652 392.676 198.652C393.488 198.652 394.262 198.734 394.996 198.898C395.738 199.062 396.5 199.324 397.281 199.684L396.203 202.262C395.555 201.98 394.941 201.75 394.363 201.57C393.793 201.391 393.211 201.301 392.617 201.301C392.094 201.301 391.699 201.371 391.434 201.512C391.168 201.652 391.035 201.867 391.035 202.156C391.035 202.367 391.102 202.555 391.234 202.719C391.375 202.883 391.641 203.066 392.031 203.27C392.43 203.465 393.012 203.719 393.777 204.031C394.52 204.336 395.164 204.656 395.711 204.992C396.258 205.32 396.68 205.73 396.977 206.223C397.273 206.707 397.422 207.336 397.422 208.109ZM403.539 209.211L403.715 209.48C403.574 210.043 403.391 210.648 403.164 211.297C402.945 211.945 402.703 212.594 402.438 213.242C402.18 213.891 401.918 214.508 401.652 215.094H399.074C399.23 214.461 399.383 213.797 399.531 213.102C399.68 212.406 399.816 211.723 399.941 211.051C400.074 210.379 400.18 209.766 400.258 209.211H403.539ZM416.863 193.766V197.48C416.863 198.129 416.84 198.746 416.793 199.332C416.754 199.918 416.723 200.332 416.699 200.574H416.887C417.168 200.121 417.5 199.754 417.883 199.473C418.273 199.191 418.703 198.984 419.172 198.852C419.641 198.719 420.145 198.652 420.684 198.652C421.629 198.652 422.453 198.82 423.156 199.156C423.859 199.484 424.406 200.004 424.797 200.715C425.188 201.418 425.383 202.332 425.383 203.457V212H421.809V204.348C421.809 203.41 421.637 202.703 421.293 202.227C420.949 201.75 420.418 201.512 419.699 201.512C418.98 201.512 418.414 201.68 418 202.016C417.586 202.344 417.293 202.832 417.121 203.48C416.949 204.121 416.863 204.906 416.863 205.836V212H413.289V193.766H416.863ZM440.969 205.426C440.969 206.52 440.82 207.488 440.523 208.332C440.234 209.176 439.809 209.891 439.246 210.477C438.691 211.055 438.02 211.492 437.23 211.789C436.449 212.086 435.566 212.234 434.582 212.234C433.66 212.234 432.812 212.086 432.039 211.789C431.273 211.492 430.605 211.055 430.035 210.477C429.473 209.891 429.035 209.176 428.723 208.332C428.418 207.488 428.266 206.52 428.266 205.426C428.266 203.973 428.523 202.742 429.039 201.734C429.555 200.727 430.289 199.961 431.242 199.438C432.195 198.914 433.332 198.652 434.652 198.652C435.879 198.652 436.965 198.914 437.91 199.438C438.863 199.961 439.609 200.727 440.148 201.734C440.695 202.742 440.969 203.973 440.969 205.426ZM431.91 205.426C431.91 206.285 432.004 207.008 432.191 207.594C432.379 208.18 432.672 208.621 433.07 208.918C433.469 209.215 433.988 209.363 434.629 209.363C435.262 209.363 435.773 209.215 436.164 208.918C436.562 208.621 436.852 208.18 437.031 207.594C437.219 207.008 437.312 206.285 437.312 205.426C437.312 204.559 437.219 203.84 437.031 203.27C436.852 202.691 436.562 202.258 436.164 201.969C435.766 201.68 435.246 201.535 434.605 201.535C433.66 201.535 432.973 201.859 432.543 202.508C432.121 203.156 431.91 204.129 431.91 205.426ZM454.691 212L453.684 207.418C453.629 207.145 453.539 206.742 453.414 206.211C453.289 205.672 453.152 205.098 453.004 204.488C452.863 203.871 452.73 203.301 452.605 202.777C452.488 202.254 452.402 201.871 452.348 201.629H452.242C452.188 201.871 452.102 202.254 451.984 202.777C451.867 203.301 451.734 203.871 451.586 204.488C451.445 205.105 451.312 205.688 451.188 206.234C451.062 206.773 450.969 207.184 450.906 207.465L449.852 212H446.008L442.281 198.898H445.844L447.355 204.699C447.457 205.105 447.555 205.59 447.648 206.152C447.742 206.707 447.824 207.246 447.895 207.77C447.973 208.285 448.031 208.695 448.07 209H448.164C448.18 208.773 448.211 208.473 448.258 208.098C448.312 207.723 448.371 207.336 448.434 206.938C448.504 206.531 448.566 206.168 448.621 205.848C448.684 205.52 448.73 205.297 448.762 205.18L450.379 198.898H454.316L455.852 205.18C455.906 205.406 455.977 205.766 456.062 206.258C456.156 206.75 456.238 207.258 456.309 207.781C456.379 208.297 456.418 208.703 456.426 209H456.52C456.551 208.734 456.605 208.34 456.684 207.816C456.762 207.293 456.852 206.746 456.953 206.176C457.062 205.598 457.172 205.105 457.281 204.699L458.852 198.898H462.355L458.582 212H454.691ZM468.836 198.898H472.75L475.223 206.27C475.301 206.504 475.367 206.742 475.422 206.984C475.477 207.227 475.523 207.477 475.562 207.734C475.602 207.992 475.633 208.262 475.656 208.543H475.727C475.773 208.121 475.836 207.727 475.914 207.359C476 206.992 476.105 206.629 476.23 206.27L478.656 198.898H482.488L476.945 213.676C476.609 214.582 476.172 215.336 475.633 215.938C475.094 216.547 474.473 217.004 473.77 217.309C473.074 217.613 472.309 217.766 471.473 217.766C471.066 217.766 470.715 217.742 470.418 217.695C470.121 217.656 469.867 217.613 469.656 217.566V214.73C469.82 214.77 470.027 214.805 470.277 214.836C470.527 214.867 470.789 214.883 471.062 214.883C471.562 214.883 471.992 214.777 472.352 214.566C472.711 214.355 473.012 214.07 473.254 213.711C473.496 213.359 473.688 212.973 473.828 212.551L474.039 211.906L468.836 198.898ZM496.281 205.426C496.281 206.52 496.133 207.488 495.836 208.332C495.547 209.176 495.121 209.891 494.559 210.477C494.004 211.055 493.332 211.492 492.543 211.789C491.762 212.086 490.879 212.234 489.895 212.234C488.973 212.234 488.125 212.086 487.352 211.789C486.586 211.492 485.918 211.055 485.348 210.477C484.785 209.891 484.348 209.176 484.035 208.332C483.73 207.488 483.578 206.52 483.578 205.426C483.578 203.973 483.836 202.742 484.352 201.734C484.867 200.727 485.602 199.961 486.555 199.438C487.508 198.914 488.645 198.652 489.965 198.652C491.191 198.652 492.277 198.914 493.223 199.438C494.176 199.961 494.922 200.727 495.461 201.734C496.008 202.742 496.281 203.973 496.281 205.426ZM487.223 205.426C487.223 206.285 487.316 207.008 487.504 207.594C487.691 208.18 487.984 208.621 488.383 208.918C488.781 209.215 489.301 209.363 489.941 209.363C490.574 209.363 491.086 209.215 491.477 208.918C491.875 208.621 492.164 208.18 492.344 207.594C492.531 207.008 492.625 206.285 492.625 205.426C492.625 204.559 492.531 203.84 492.344 203.27C492.164 202.691 491.875 202.258 491.477 201.969C491.078 201.68 490.559 201.535 489.918 201.535C488.973 201.535 488.285 201.859 487.855 202.508C487.434 203.156 487.223 204.129 487.223 205.426ZM511.258 198.898V212H508.516L508.035 210.324H507.848C507.566 210.77 507.215 211.133 506.793 211.414C506.371 211.695 505.906 211.902 505.398 212.035C504.891 212.168 504.363 212.234 503.816 212.234C502.879 212.234 502.062 212.07 501.367 211.742C500.672 211.406 500.129 210.887 499.738 210.184C499.355 209.48 499.164 208.566 499.164 207.441V198.898H502.738V206.551C502.738 207.488 502.906 208.195 503.242 208.672C503.578 209.148 504.113 209.387 504.848 209.387C505.574 209.387 506.145 209.223 506.559 208.895C506.973 208.559 507.262 208.07 507.426 207.43C507.598 206.781 507.684 205.992 507.684 205.062V198.898H511.258ZM526.562 212.234C525.266 212.234 524.16 212 523.246 211.531C522.332 211.055 521.637 210.32 521.16 209.328C520.684 208.336 520.445 207.066 520.445 205.52C520.445 203.918 520.715 202.613 521.254 201.605C521.801 200.59 522.555 199.844 523.516 199.367C524.484 198.891 525.605 198.652 526.879 198.652C527.785 198.652 528.566 198.742 529.223 198.922C529.887 199.094 530.465 199.301 530.957 199.543L529.902 202.309C529.34 202.082 528.816 201.898 528.332 201.758C527.848 201.609 527.363 201.535 526.879 201.535C526.254 201.535 525.734 201.684 525.32 201.98C524.906 202.27 524.598 202.707 524.395 203.293C524.191 203.879 524.09 204.613 524.09 205.496C524.09 206.363 524.199 207.082 524.418 207.652C524.637 208.223 524.953 208.648 525.367 208.93C525.781 209.203 526.285 209.34 526.879 209.34C527.621 209.34 528.281 209.242 528.859 209.047C529.438 208.844 530 208.562 530.547 208.203V211.262C530 211.605 529.426 211.852 528.824 212C528.23 212.156 527.477 212.234 526.562 212.234ZM538.961 198.629C540.719 198.629 542.066 199.012 543.004 199.777C543.941 200.543 544.41 201.707 544.41 203.27V212H541.914L541.223 210.219H541.129C540.754 210.688 540.371 211.07 539.98 211.367C539.59 211.664 539.141 211.883 538.633 212.023C538.125 212.164 537.508 212.234 536.781 212.234C536.008 212.234 535.312 212.086 534.695 211.789C534.086 211.492 533.605 211.039 533.254 210.43C532.902 209.812 532.727 209.031 532.727 208.086C532.727 206.695 533.215 205.672 534.191 205.016C535.168 204.352 536.633 203.984 538.586 203.914L540.859 203.844V203.27C540.859 202.582 540.68 202.078 540.32 201.758C539.961 201.438 539.461 201.277 538.82 201.277C538.188 201.277 537.566 201.367 536.957 201.547C536.348 201.727 535.738 201.953 535.129 202.227L533.945 199.812C534.641 199.445 535.418 199.156 536.277 198.945C537.145 198.734 538.039 198.629 538.961 198.629ZM540.859 205.93L539.477 205.977C538.32 206.008 537.516 206.215 537.062 206.598C536.617 206.98 536.395 207.484 536.395 208.109C536.395 208.656 536.555 209.047 536.875 209.281C537.195 209.508 537.613 209.621 538.129 209.621C538.895 209.621 539.539 209.395 540.062 208.941C540.594 208.488 540.859 207.844 540.859 207.008V205.93ZM555.543 198.652C556.941 198.652 558.066 199.035 558.918 199.801C559.77 200.559 560.195 201.777 560.195 203.457V212H556.621V204.348C556.621 203.41 556.449 202.703 556.105 202.227C555.77 201.75 555.238 201.512 554.512 201.512C553.418 201.512 552.672 201.883 552.273 202.625C551.875 203.367 551.676 204.438 551.676 205.836V212H548.102V198.898H550.832L551.312 200.574H551.512C551.793 200.121 552.141 199.754 552.555 199.473C552.977 199.191 553.441 198.984 553.949 198.852C554.465 198.719 554.996 198.652 555.543 198.652ZM573.941 217.766C572.113 217.766 570.715 217.445 569.746 216.805C568.785 216.172 568.305 215.281 568.305 214.133C568.305 213.344 568.551 212.684 569.043 212.152C569.535 211.621 570.258 211.242 571.211 211.016C570.844 210.859 570.523 210.605 570.25 210.254C569.977 209.895 569.84 209.516 569.84 209.117C569.84 208.617 569.984 208.203 570.273 207.875C570.562 207.539 570.98 207.211 571.527 206.891C570.84 206.594 570.293 206.117 569.887 205.461C569.488 204.805 569.289 204.031 569.289 203.141C569.289 202.188 569.496 201.379 569.91 200.715C570.332 200.043 570.941 199.531 571.738 199.18C572.543 198.828 573.52 198.652 574.668 198.652C574.91 198.652 575.191 198.668 575.512 198.699C575.832 198.73 576.125 198.766 576.391 198.805C576.664 198.844 576.848 198.875 576.941 198.898H581.512V200.715L579.461 201.242C579.648 201.531 579.789 201.84 579.883 202.168C579.977 202.496 580.023 202.844 580.023 203.211C580.023 204.617 579.531 205.715 578.547 206.504C577.57 207.285 576.211 207.676 574.469 207.676C574.055 207.652 573.664 207.621 573.297 207.582C573.117 207.723 572.98 207.871 572.887 208.027C572.793 208.184 572.746 208.348 572.746 208.52C572.746 208.691 572.816 208.836 572.957 208.953C573.105 209.062 573.324 209.148 573.613 209.211C573.91 209.266 574.277 209.293 574.715 209.293H576.941C578.379 209.293 579.473 209.602 580.223 210.219C580.98 210.836 581.359 211.742 581.359 212.938C581.359 214.469 580.719 215.656 579.438 216.5C578.164 217.344 576.332 217.766 573.941 217.766ZM574.094 215.434C574.945 215.434 575.676 215.352 576.285 215.188C576.902 215.031 577.375 214.805 577.703 214.508C578.031 214.219 578.195 213.871 578.195 213.465C578.195 213.137 578.098 212.875 577.902 212.68C577.715 212.492 577.426 212.359 577.035 212.281C576.652 212.203 576.16 212.164 575.559 212.164H573.707C573.27 212.164 572.875 212.234 572.523 212.375C572.18 212.516 571.906 212.711 571.703 212.961C571.5 213.219 571.398 213.516 571.398 213.852C571.398 214.344 571.633 214.73 572.102 215.012C572.578 215.293 573.242 215.434 574.094 215.434ZM574.668 205.496C575.34 205.496 575.832 205.289 576.145 204.875C576.457 204.461 576.613 203.898 576.613 203.188C576.613 202.398 576.449 201.809 576.121 201.418C575.801 201.02 575.316 200.82 574.668 200.82C574.012 200.82 573.52 201.02 573.191 201.418C572.863 201.809 572.699 202.398 572.699 203.188C572.699 203.898 572.859 204.461 573.18 204.875C573.508 205.289 574.004 205.496 574.668 205.496ZM589.082 198.652C590.293 198.652 591.336 198.887 592.211 199.355C593.086 199.816 593.762 200.488 594.238 201.371C594.715 202.254 594.953 203.332 594.953 204.605V206.34H586.504C586.543 207.348 586.844 208.141 587.406 208.719C587.977 209.289 588.766 209.574 589.773 209.574C590.609 209.574 591.375 209.488 592.07 209.316C592.766 209.145 593.48 208.887 594.215 208.543V211.309C593.566 211.629 592.887 211.863 592.176 212.012C591.473 212.16 590.617 212.234 589.609 212.234C588.297 212.234 587.133 211.992 586.117 211.508C585.109 211.023 584.316 210.285 583.738 209.293C583.168 208.301 582.883 207.051 582.883 205.543C582.883 204.012 583.141 202.738 583.656 201.723C584.18 200.699 584.906 199.934 585.836 199.426C586.766 198.91 587.848 198.652 589.082 198.652ZM589.105 201.195C588.41 201.195 587.832 201.418 587.371 201.863C586.918 202.309 586.656 203.008 586.586 203.961H591.602C591.594 203.43 591.496 202.957 591.309 202.543C591.129 202.129 590.855 201.801 590.488 201.559C590.129 201.316 589.668 201.195 589.105 201.195ZM603.379 209.387C603.77 209.387 604.148 209.348 604.516 209.27C604.891 209.191 605.262 209.094 605.629 208.977V211.637C605.246 211.809 604.77 211.949 604.199 212.059C603.637 212.176 603.02 212.234 602.348 212.234C601.566 212.234 600.863 212.109 600.238 211.859C599.621 211.602 599.133 211.16 598.773 210.535C598.422 209.902 598.246 209.023 598.246 207.898V201.582H596.535V200.07L598.504 198.875L599.535 196.109H601.82V198.898H605.488V201.582H601.82V207.898C601.82 208.398 601.961 208.773 602.242 209.023C602.531 209.266 602.91 209.387 603.379 209.387ZM96.0156 250.109C96.0156 251 95.8047 251.754 95.3828 252.371C94.9688 252.98 94.3477 253.445 93.5195 253.766C92.6914 254.078 91.6602 254.234 90.4258 254.234C89.5117 254.234 88.7266 254.176 88.0703 254.059C87.4219 253.941 86.7656 253.746 86.1016 253.473V250.52C86.8125 250.84 87.5742 251.105 88.3867 251.316C89.207 251.52 89.9258 251.621 90.543 251.621C91.2383 251.621 91.7344 251.52 92.0312 251.316C92.3359 251.105 92.4883 250.832 92.4883 250.496C92.4883 250.277 92.4258 250.082 92.3008 249.91C92.1836 249.73 91.9258 249.531 91.5273 249.312C91.1289 249.086 90.5039 248.793 89.6523 248.434C88.832 248.09 88.1562 247.742 87.625 247.391C87.1016 247.039 86.7109 246.625 86.4531 246.148C86.2031 245.664 86.0781 245.051 86.0781 244.309C86.0781 243.098 86.5469 242.188 87.4844 241.578C88.4297 240.961 89.6914 240.652 91.2695 240.652C92.082 240.652 92.8555 240.734 93.5898 240.898C94.332 241.062 95.0938 241.324 95.875 241.684L94.7969 244.262C94.1484 243.98 93.5352 243.75 92.957 243.57C92.3867 243.391 91.8047 243.301 91.2109 243.301C90.6875 243.301 90.293 243.371 90.0273 243.512C89.7617 243.652 89.6289 243.867 89.6289 244.156C89.6289 244.367 89.6953 244.555 89.8281 244.719C89.9688 244.883 90.2344 245.066 90.625 245.27C91.0234 245.465 91.6055 245.719 92.3711 246.031C93.1133 246.336 93.7578 246.656 94.3047 246.992C94.8516 247.32 95.2734 247.73 95.5703 248.223C95.8672 248.707 96.0156 249.336 96.0156 250.109ZM104.324 251.387C104.715 251.387 105.094 251.348 105.461 251.27C105.836 251.191 106.207 251.094 106.574 250.977V253.637C106.191 253.809 105.715 253.949 105.145 254.059C104.582 254.176 103.965 254.234 103.293 254.234C102.512 254.234 101.809 254.109 101.184 253.859C100.566 253.602 100.078 253.16 99.7188 252.535C99.3672 251.902 99.1914 251.023 99.1914 249.898V243.582H97.4805V242.07L99.4492 240.875L100.48 238.109H102.766V240.898H106.434V243.582H102.766V249.898C102.766 250.398 102.906 250.773 103.188 251.023C103.477 251.266 103.855 251.387 104.324 251.387ZM114.602 240.629C116.359 240.629 117.707 241.012 118.645 241.777C119.582 242.543 120.051 243.707 120.051 245.27V254H117.555L116.863 252.219H116.77C116.395 252.688 116.012 253.07 115.621 253.367C115.23 253.664 114.781 253.883 114.273 254.023C113.766 254.164 113.148 254.234 112.422 254.234C111.648 254.234 110.953 254.086 110.336 253.789C109.727 253.492 109.246 253.039 108.895 252.43C108.543 251.812 108.367 251.031 108.367 250.086C108.367 248.695 108.855 247.672 109.832 247.016C110.809 246.352 112.273 245.984 114.227 245.914L116.5 245.844V245.27C116.5 244.582 116.32 244.078 115.961 243.758C115.602 243.438 115.102 243.277 114.461 243.277C113.828 243.277 113.207 243.367 112.598 243.547C111.988 243.727 111.379 243.953 110.77 244.227L109.586 241.812C110.281 241.445 111.059 241.156 111.918 240.945C112.785 240.734 113.68 240.629 114.602 240.629ZM116.5 247.93L115.117 247.977C113.961 248.008 113.156 248.215 112.703 248.598C112.258 248.98 112.035 249.484 112.035 250.109C112.035 250.656 112.195 251.047 112.516 251.281C112.836 251.508 113.254 251.621 113.77 251.621C114.535 251.621 115.18 251.395 115.703 250.941C116.234 250.488 116.5 249.844 116.5 249.008V247.93ZM131.055 240.652C131.234 240.652 131.441 240.664 131.676 240.688C131.918 240.703 132.113 240.727 132.262 240.758L131.992 244.109C131.875 244.07 131.707 244.043 131.488 244.027C131.277 244.004 131.094 243.992 130.938 243.992C130.477 243.992 130.027 244.051 129.59 244.168C129.16 244.285 128.773 244.477 128.43 244.742C128.086 245 127.812 245.344 127.609 245.773C127.414 246.195 127.316 246.715 127.316 247.332V254H123.742V240.898H126.449L126.977 243.102H127.152C127.41 242.656 127.73 242.25 128.113 241.883C128.504 241.508 128.945 241.211 129.438 240.992C129.938 240.766 130.477 240.652 131.055 240.652ZM140.16 251.387C140.551 251.387 140.93 251.348 141.297 251.27C141.672 251.191 142.043 251.094 142.41 250.977V253.637C142.027 253.809 141.551 253.949 140.98 254.059C140.418 254.176 139.801 254.234 139.129 254.234C138.348 254.234 137.645 254.109 137.02 253.859C136.402 253.602 135.914 253.16 135.555 252.535C135.203 251.902 135.027 251.023 135.027 249.898V243.582H133.316V242.07L135.285 240.875L136.316 238.109H138.602V240.898H142.27V243.582H138.602V249.898C138.602 250.398 138.742 250.773 139.023 251.023C139.312 251.266 139.691 251.387 140.16 251.387ZM150.473 240.652C151.684 240.652 152.727 240.887 153.602 241.355C154.477 241.816 155.152 242.488 155.629 243.371C156.105 244.254 156.344 245.332 156.344 246.605V248.34H147.895C147.934 249.348 148.234 250.141 148.797 250.719C149.367 251.289 150.156 251.574 151.164 251.574C152 251.574 152.766 251.488 153.461 251.316C154.156 251.145 154.871 250.887 155.605 250.543V253.309C154.957 253.629 154.277 253.863 153.566 254.012C152.863 254.16 152.008 254.234 151 254.234C149.688 254.234 148.523 253.992 147.508 253.508C146.5 253.023 145.707 252.285 145.129 251.293C144.559 250.301 144.273 249.051 144.273 247.543C144.273 246.012 144.531 244.738 145.047 243.723C145.57 242.699 146.297 241.934 147.227 241.426C148.156 240.91 149.238 240.652 150.473 240.652ZM150.496 243.195C149.801 243.195 149.223 243.418 148.762 243.863C148.309 244.309 148.047 245.008 147.977 245.961H152.992C152.984 245.43 152.887 244.957 152.699 244.543C152.52 244.129 152.246 243.801 151.879 243.559C151.52 243.316 151.059 243.195 150.496 243.195ZM163.398 254.234C161.938 254.234 160.746 253.664 159.824 252.523C158.91 251.375 158.453 249.691 158.453 247.473C158.453 245.23 158.918 243.535 159.848 242.387C160.777 241.23 161.992 240.652 163.492 240.652C164.117 240.652 164.668 240.738 165.145 240.91C165.621 241.082 166.031 241.312 166.375 241.602C166.727 241.891 167.023 242.215 167.266 242.574H167.383C167.336 242.324 167.277 241.957 167.207 241.473C167.145 240.98 167.113 240.477 167.113 239.961V235.766H170.699V254H167.957L167.266 252.301H167.113C166.887 252.66 166.602 252.988 166.258 253.285C165.922 253.574 165.52 253.805 165.051 253.977C164.582 254.148 164.031 254.234 163.398 254.234ZM164.652 251.387C165.629 251.387 166.316 251.098 166.715 250.52C167.121 249.934 167.336 249.055 167.359 247.883V247.496C167.359 246.223 167.164 245.25 166.773 244.578C166.383 243.898 165.656 243.559 164.594 243.559C163.805 243.559 163.188 243.898 162.742 244.578C162.297 245.258 162.074 246.238 162.074 247.52C162.074 248.801 162.297 249.766 162.742 250.414C163.195 251.062 163.832 251.387 164.652 251.387ZM177.766 251.211L177.941 251.48C177.801 252.043 177.617 252.648 177.391 253.297C177.172 253.945 176.93 254.594 176.664 255.242C176.406 255.891 176.145 256.508 175.879 257.094H173.301C173.457 256.461 173.609 255.797 173.758 255.102C173.906 254.406 174.043 253.723 174.168 253.051C174.301 252.379 174.406 251.766 174.484 251.211H177.766ZM192.883 240.629C194.641 240.629 195.988 241.012 196.926 241.777C197.863 242.543 198.332 243.707 198.332 245.27V254H195.836L195.145 252.219H195.051C194.676 252.688 194.293 253.07 193.902 253.367C193.512 253.664 193.062 253.883 192.555 254.023C192.047 254.164 191.43 254.234 190.703 254.234C189.93 254.234 189.234 254.086 188.617 253.789C188.008 253.492 187.527 253.039 187.176 252.43C186.824 251.812 186.648 251.031 186.648 250.086C186.648 248.695 187.137 247.672 188.113 247.016C189.09 246.352 190.555 245.984 192.508 245.914L194.781 245.844V245.27C194.781 244.582 194.602 244.078 194.242 243.758C193.883 243.438 193.383 243.277 192.742 243.277C192.109 243.277 191.488 243.367 190.879 243.547C190.27 243.727 189.66 243.953 189.051 244.227L187.867 241.812C188.562 241.445 189.34 241.156 190.199 240.945C191.066 240.734 191.961 240.629 192.883 240.629ZM194.781 247.93L193.398 247.977C192.242 248.008 191.438 248.215 190.984 248.598C190.539 248.98 190.316 249.484 190.316 250.109C190.316 250.656 190.477 251.047 190.797 251.281C191.117 251.508 191.535 251.621 192.051 251.621C192.816 251.621 193.461 251.395 193.984 250.941C194.516 250.488 194.781 249.844 194.781 249.008V247.93ZM209.465 240.652C210.863 240.652 211.988 241.035 212.84 241.801C213.691 242.559 214.117 243.777 214.117 245.457V254H210.543V246.348C210.543 245.41 210.371 244.703 210.027 244.227C209.691 243.75 209.16 243.512 208.434 243.512C207.34 243.512 206.594 243.883 206.195 244.625C205.797 245.367 205.598 246.438 205.598 247.836V254H202.023V240.898H204.754L205.234 242.574H205.434C205.715 242.121 206.062 241.754 206.477 241.473C206.898 241.191 207.363 240.984 207.871 240.852C208.387 240.719 208.918 240.652 209.465 240.652ZM221.945 254.234C220.484 254.234 219.293 253.664 218.371 252.523C217.457 251.375 217 249.691 217 247.473C217 245.23 217.465 243.535 218.395 242.387C219.324 241.23 220.539 240.652 222.039 240.652C222.664 240.652 223.215 240.738 223.691 240.91C224.168 241.082 224.578 241.312 224.922 241.602C225.273 241.891 225.57 242.215 225.812 242.574H225.93C225.883 242.324 225.824 241.957 225.754 241.473C225.691 240.98 225.66 240.477 225.66 239.961V235.766H229.246V254H226.504L225.812 252.301H225.66C225.434 252.66 225.148 252.988 224.805 253.285C224.469 253.574 224.066 253.805 223.598 253.977C223.129 254.148 222.578 254.234 221.945 254.234ZM223.199 251.387C224.176 251.387 224.863 251.098 225.262 250.52C225.668 249.934 225.883 249.055 225.906 247.883V247.496C225.906 246.223 225.711 245.25 225.32 244.578C224.93 243.898 224.203 243.559 223.141 243.559C222.352 243.559 221.734 243.898 221.289 244.578C220.844 245.258 220.621 246.238 220.621 247.52C220.621 248.801 220.844 249.766 221.289 250.414C221.742 251.062 222.379 251.387 223.199 251.387ZM242.793 235.766V239.48C242.793 240.129 242.77 240.746 242.723 241.332C242.684 241.918 242.652 242.332 242.629 242.574H242.816C243.098 242.121 243.43 241.754 243.812 241.473C244.203 241.191 244.633 240.984 245.102 240.852C245.57 240.719 246.074 240.652 246.613 240.652C247.559 240.652 248.383 240.82 249.086 241.156C249.789 241.484 250.336 242.004 250.727 242.715C251.117 243.418 251.312 244.332 251.312 245.457V254H247.738V246.348C247.738 245.41 247.566 244.703 247.223 244.227C246.879 243.75 246.348 243.512 245.629 243.512C244.91 243.512 244.344 243.68 243.93 244.016C243.516 244.344 243.223 244.832 243.051 245.48C242.879 246.121 242.793 246.906 242.793 247.836V254H239.219V235.766H242.793ZM260.395 240.652C261.605 240.652 262.648 240.887 263.523 241.355C264.398 241.816 265.074 242.488 265.551 243.371C266.027 244.254 266.266 245.332 266.266 246.605V248.34H257.816C257.855 249.348 258.156 250.141 258.719 250.719C259.289 251.289 260.078 251.574 261.086 251.574C261.922 251.574 262.688 251.488 263.383 251.316C264.078 251.145 264.793 250.887 265.527 250.543V253.309C264.879 253.629 264.199 253.863 263.488 254.012C262.785 254.16 261.93 254.234 260.922 254.234C259.609 254.234 258.445 253.992 257.43 253.508C256.422 253.023 255.629 252.285 255.051 251.293C254.48 250.301 254.195 249.051 254.195 247.543C254.195 246.012 254.453 244.738 254.969 243.723C255.492 242.699 256.219 241.934 257.148 241.426C258.078 240.91 259.16 240.652 260.395 240.652ZM260.418 243.195C259.723 243.195 259.145 243.418 258.684 243.863C258.23 244.309 257.969 245.008 257.898 245.961H262.914C262.906 245.43 262.809 244.957 262.621 244.543C262.441 244.129 262.168 243.801 261.801 243.559C261.441 243.316 260.98 243.195 260.418 243.195ZM274.539 240.629C276.297 240.629 277.645 241.012 278.582 241.777C279.52 242.543 279.988 243.707 279.988 245.27V254H277.492L276.801 252.219H276.707C276.332 252.688 275.949 253.07 275.559 253.367C275.168 253.664 274.719 253.883 274.211 254.023C273.703 254.164 273.086 254.234 272.359 254.234C271.586 254.234 270.891 254.086 270.273 253.789C269.664 253.492 269.184 253.039 268.832 252.43C268.48 251.812 268.305 251.031 268.305 250.086C268.305 248.695 268.793 247.672 269.77 247.016C270.746 246.352 272.211 245.984 274.164 245.914L276.438 245.844V245.27C276.438 244.582 276.258 244.078 275.898 243.758C275.539 243.438 275.039 243.277 274.398 243.277C273.766 243.277 273.145 243.367 272.535 243.547C271.926 243.727 271.316 243.953 270.707 244.227L269.523 241.812C270.219 241.445 270.996 241.156 271.855 240.945C272.723 240.734 273.617 240.629 274.539 240.629ZM276.438 247.93L275.055 247.977C273.898 248.008 273.094 248.215 272.641 248.598C272.195 248.98 271.973 249.484 271.973 250.109C271.973 250.656 272.133 251.047 272.453 251.281C272.773 251.508 273.191 251.621 273.707 251.621C274.473 251.621 275.117 251.395 275.641 250.941C276.172 250.488 276.438 249.844 276.438 249.008V247.93ZM290.992 240.652C291.172 240.652 291.379 240.664 291.613 240.688C291.855 240.703 292.051 240.727 292.199 240.758L291.93 244.109C291.812 244.07 291.645 244.043 291.426 244.027C291.215 244.004 291.031 243.992 290.875 243.992C290.414 243.992 289.965 244.051 289.527 244.168C289.098 244.285 288.711 244.477 288.367 244.742C288.023 245 287.75 245.344 287.547 245.773C287.352 246.195 287.254 246.715 287.254 247.332V254H283.68V240.898H286.387L286.914 243.102H287.09C287.348 242.656 287.668 242.25 288.051 241.883C288.441 241.508 288.883 241.211 289.375 240.992C289.875 240.766 290.414 240.652 290.992 240.652ZM306.18 240.629C307.938 240.629 309.285 241.012 310.223 241.777C311.16 242.543 311.629 243.707 311.629 245.27V254H309.133L308.441 252.219H308.348C307.973 252.688 307.59 253.07 307.199 253.367C306.809 253.664 306.359 253.883 305.852 254.023C305.344 254.164 304.727 254.234 304 254.234C303.227 254.234 302.531 254.086 301.914 253.789C301.305 253.492 300.824 253.039 300.473 252.43C300.121 251.812 299.945 251.031 299.945 250.086C299.945 248.695 300.434 247.672 301.41 247.016C302.387 246.352 303.852 245.984 305.805 245.914L308.078 245.844V245.27C308.078 244.582 307.898 244.078 307.539 243.758C307.18 243.438 306.68 243.277 306.039 243.277C305.406 243.277 304.785 243.367 304.176 243.547C303.566 243.727 302.957 243.953 302.348 244.227L301.164 241.812C301.859 241.445 302.637 241.156 303.496 240.945C304.363 240.734 305.258 240.629 306.18 240.629ZM308.078 247.93L306.695 247.977C305.539 248.008 304.734 248.215 304.281 248.598C303.836 248.98 303.613 249.484 303.613 250.109C303.613 250.656 303.773 251.047 304.094 251.281C304.414 251.508 304.832 251.621 305.348 251.621C306.113 251.621 306.758 251.395 307.281 250.941C307.812 250.488 308.078 249.844 308.078 249.008V247.93ZM318.895 235.766V240.008C318.895 240.5 318.879 240.988 318.848 241.473C318.824 241.957 318.793 242.332 318.754 242.598H318.895C319.238 242.059 319.707 241.602 320.301 241.227C320.895 240.844 321.664 240.652 322.609 240.652C324.078 240.652 325.27 241.227 326.184 242.375C327.098 243.523 327.555 245.207 327.555 247.426C327.555 248.918 327.344 250.172 326.922 251.188C326.5 252.195 325.91 252.957 325.152 253.473C324.395 253.98 323.516 254.234 322.516 254.234C321.555 254.234 320.797 254.062 320.242 253.719C319.688 253.375 319.238 252.988 318.895 252.559H318.648L318.051 254H315.32V235.766H318.895ZM321.461 243.512C320.836 243.512 320.34 243.641 319.973 243.898C319.605 244.156 319.336 244.543 319.164 245.059C319 245.574 318.91 246.227 318.895 247.016V247.402C318.895 248.676 319.082 249.652 319.457 250.332C319.832 251.004 320.516 251.34 321.508 251.34C322.242 251.34 322.824 251 323.254 250.32C323.691 249.641 323.91 248.66 323.91 247.379C323.91 246.098 323.691 245.133 323.254 244.484C322.816 243.836 322.219 243.512 321.461 243.512ZM342.414 247.426C342.414 248.52 342.266 249.488 341.969 250.332C341.68 251.176 341.254 251.891 340.691 252.477C340.137 253.055 339.465 253.492 338.676 253.789C337.895 254.086 337.012 254.234 336.027 254.234C335.105 254.234 334.258 254.086 333.484 253.789C332.719 253.492 332.051 253.055 331.48 252.477C330.918 251.891 330.48 251.176 330.168 250.332C329.863 249.488 329.711 248.52 329.711 247.426C329.711 245.973 329.969 244.742 330.484 243.734C331 242.727 331.734 241.961 332.688 241.438C333.641 240.914 334.777 240.652 336.098 240.652C337.324 240.652 338.41 240.914 339.355 241.438C340.309 241.961 341.055 242.727 341.594 243.734C342.141 244.742 342.414 245.973 342.414 247.426ZM333.355 247.426C333.355 248.285 333.449 249.008 333.637 249.594C333.824 250.18 334.117 250.621 334.516 250.918C334.914 251.215 335.434 251.363 336.074 251.363C336.707 251.363 337.219 251.215 337.609 250.918C338.008 250.621 338.297 250.18 338.477 249.594C338.664 249.008 338.758 248.285 338.758 247.426C338.758 246.559 338.664 245.84 338.477 245.27C338.297 244.691 338.008 244.258 337.609 243.969C337.211 243.68 336.691 243.535 336.051 243.535C335.105 243.535 334.418 243.859 333.988 244.508C333.566 245.156 333.355 246.129 333.355 247.426ZM357.391 240.898V254H354.648L354.168 252.324H353.98C353.699 252.77 353.348 253.133 352.926 253.414C352.504 253.695 352.039 253.902 351.531 254.035C351.023 254.168 350.496 254.234 349.949 254.234C349.012 254.234 348.195 254.07 347.5 253.742C346.805 253.406 346.262 252.887 345.871 252.184C345.488 251.48 345.297 250.566 345.297 249.441V240.898H348.871V248.551C348.871 249.488 349.039 250.195 349.375 250.672C349.711 251.148 350.246 251.387 350.98 251.387C351.707 251.387 352.277 251.223 352.691 250.895C353.105 250.559 353.395 250.07 353.559 249.43C353.73 248.781 353.816 247.992 353.816 247.062V240.898H357.391ZM366.66 251.387C367.051 251.387 367.43 251.348 367.797 251.27C368.172 251.191 368.543 251.094 368.91 250.977V253.637C368.527 253.809 368.051 253.949 367.48 254.059C366.918 254.176 366.301 254.234 365.629 254.234C364.848 254.234 364.145 254.109 363.52 253.859C362.902 253.602 362.414 253.16 362.055 252.535C361.703 251.902 361.527 251.023 361.527 249.898V243.582H359.816V242.07L361.785 240.875L362.816 238.109H365.102V240.898H368.77V243.582H365.102V249.898C365.102 250.398 365.242 250.773 365.523 251.023C365.812 251.266 366.191 251.387 366.66 251.387ZM383.324 251.387C383.715 251.387 384.094 251.348 384.461 251.27C384.836 251.191 385.207 251.094 385.574 250.977V253.637C385.191 253.809 384.715 253.949 384.145 254.059C383.582 254.176 382.965 254.234 382.293 254.234C381.512 254.234 380.809 254.109 380.184 253.859C379.566 253.602 379.078 253.16 378.719 252.535C378.367 251.902 378.191 251.023 378.191 249.898V243.582H376.48V242.07L378.449 240.875L379.48 238.109H381.766V240.898H385.434V243.582H381.766V249.898C381.766 250.398 381.906 250.773 382.188 251.023C382.477 251.266 382.855 251.387 383.324 251.387ZM391.809 235.766V239.48C391.809 240.129 391.785 240.746 391.738 241.332C391.699 241.918 391.668 242.332 391.645 242.574H391.832C392.113 242.121 392.445 241.754 392.828 241.473C393.219 241.191 393.648 240.984 394.117 240.852C394.586 240.719 395.09 240.652 395.629 240.652C396.574 240.652 397.398 240.82 398.102 241.156C398.805 241.484 399.352 242.004 399.742 242.715C400.133 243.418 400.328 244.332 400.328 245.457V254H396.754V246.348C396.754 245.41 396.582 244.703 396.238 244.227C395.895 243.75 395.363 243.512 394.645 243.512C393.926 243.512 393.359 243.68 392.945 244.016C392.531 244.344 392.238 244.832 392.066 245.48C391.895 246.121 391.809 246.906 391.809 247.836V254H388.234V235.766H391.809ZM409.41 240.652C410.621 240.652 411.664 240.887 412.539 241.355C413.414 241.816 414.09 242.488 414.566 243.371C415.043 244.254 415.281 245.332 415.281 246.605V248.34H406.832C406.871 249.348 407.172 250.141 407.734 250.719C408.305 251.289 409.094 251.574 410.102 251.574C410.938 251.574 411.703 251.488 412.398 251.316C413.094 251.145 413.809 250.887 414.543 250.543V253.309C413.895 253.629 413.215 253.863 412.504 254.012C411.801 254.16 410.945 254.234 409.938 254.234C408.625 254.234 407.461 253.992 406.445 253.508C405.438 253.023 404.645 252.285 404.066 251.293C403.496 250.301 403.211 249.051 403.211 247.543C403.211 246.012 403.469 244.738 403.984 243.723C404.508 242.699 405.234 241.934 406.164 241.426C407.094 240.91 408.176 240.652 409.41 240.652ZM409.434 243.195C408.738 243.195 408.16 243.418 407.699 243.863C407.246 244.309 406.984 245.008 406.914 245.961H411.93C411.922 245.43 411.824 244.957 411.637 244.543C411.457 244.129 411.184 243.801 410.816 243.559C410.457 243.316 409.996 243.195 409.434 243.195ZM431.664 243.582H428.57V254H424.996V243.582H423.027V241.859L424.996 240.898V239.938C424.996 238.82 425.184 237.953 425.559 237.336C425.941 236.711 426.477 236.273 427.164 236.023C427.859 235.766 428.68 235.637 429.625 235.637C430.32 235.637 430.953 235.695 431.523 235.812C432.094 235.922 432.559 236.047 432.918 236.188L432.004 238.812C431.73 238.727 431.434 238.648 431.113 238.578C430.793 238.508 430.426 238.473 430.012 238.473C429.512 238.473 429.145 238.625 428.91 238.93C428.684 239.227 428.57 239.609 428.57 240.078V240.898H431.664V243.582ZM445.75 240.898V254H443.008L442.527 252.324H442.34C442.059 252.77 441.707 253.133 441.285 253.414C440.863 253.695 440.398 253.902 439.891 254.035C439.383 254.168 438.855 254.234 438.309 254.234C437.371 254.234 436.555 254.07 435.859 253.742C435.164 253.406 434.621 252.887 434.23 252.184C433.848 251.48 433.656 250.566 433.656 249.441V240.898H437.23V248.551C437.23 249.488 437.398 250.195 437.734 250.672C438.07 251.148 438.605 251.387 439.34 251.387C440.066 251.387 440.637 251.223 441.051 250.895C441.465 250.559 441.754 250.07 441.918 249.43C442.09 248.781 442.176 247.992 442.176 247.062V240.898H445.75ZM455.02 251.387C455.41 251.387 455.789 251.348 456.156 251.27C456.531 251.191 456.902 251.094 457.27 250.977V253.637C456.887 253.809 456.41 253.949 455.84 254.059C455.277 254.176 454.66 254.234 453.988 254.234C453.207 254.234 452.504 254.109 451.879 253.859C451.262 253.602 450.773 253.16 450.414 252.535C450.062 251.902 449.887 251.023 449.887 249.898V243.582H448.176V242.07L450.145 240.875L451.176 238.109H453.461V240.898H457.129V243.582H453.461V249.898C453.461 250.398 453.602 250.773 453.883 251.023C454.172 251.266 454.551 251.387 455.02 251.387ZM471.953 240.898V254H469.211L468.73 252.324H468.543C468.262 252.77 467.91 253.133 467.488 253.414C467.066 253.695 466.602 253.902 466.094 254.035C465.586 254.168 465.059 254.234 464.512 254.234C463.574 254.234 462.758 254.07 462.062 253.742C461.367 253.406 460.824 252.887 460.434 252.184C460.051 251.48 459.859 250.566 459.859 249.441V240.898H463.434V248.551C463.434 249.488 463.602 250.195 463.938 250.672C464.273 251.148 464.809 251.387 465.543 251.387C466.27 251.387 466.84 251.223 467.254 250.895C467.668 250.559 467.957 250.07 468.121 249.43C468.293 248.781 468.379 247.992 468.379 247.062V240.898H471.953ZM483.016 240.652C483.195 240.652 483.402 240.664 483.637 240.688C483.879 240.703 484.074 240.727 484.223 240.758L483.953 244.109C483.836 244.07 483.668 244.043 483.449 244.027C483.238 244.004 483.055 243.992 482.898 243.992C482.438 243.992 481.988 244.051 481.551 244.168C481.121 244.285 480.734 244.477 480.391 244.742C480.047 245 479.773 245.344 479.57 245.773C479.375 246.195 479.277 246.715 479.277 247.332V254H475.703V240.898H478.41L478.938 243.102H479.113C479.371 242.656 479.691 242.25 480.074 241.883C480.465 241.508 480.906 241.211 481.398 240.992C481.898 240.766 482.438 240.652 483.016 240.652ZM492.004 240.652C493.215 240.652 494.258 240.887 495.133 241.355C496.008 241.816 496.684 242.488 497.16 243.371C497.637 244.254 497.875 245.332 497.875 246.605V248.34H489.426C489.465 249.348 489.766 250.141 490.328 250.719C490.898 251.289 491.688 251.574 492.695 251.574C493.531 251.574 494.297 251.488 494.992 251.316C495.688 251.145 496.402 250.887 497.137 250.543V253.309C496.488 253.629 495.809 253.863 495.098 254.012C494.395 254.16 493.539 254.234 492.531 254.234C491.219 254.234 490.055 253.992 489.039 253.508C488.031 253.023 487.238 252.285 486.66 251.293C486.09 250.301 485.805 249.051 485.805 247.543C485.805 246.012 486.062 244.738 486.578 243.723C487.102 242.699 487.828 241.934 488.758 241.426C489.688 240.91 490.77 240.652 492.004 240.652ZM492.027 243.195C491.332 243.195 490.754 243.418 490.293 243.863C489.84 244.309 489.578 245.008 489.508 245.961H494.523C494.516 245.43 494.418 244.957 494.23 244.543C494.051 244.129 493.777 243.801 493.41 243.559C493.051 243.316 492.59 243.195 492.027 243.195ZM518.922 247.426C518.922 248.52 518.773 249.488 518.477 250.332C518.188 251.176 517.762 251.891 517.199 252.477C516.645 253.055 515.973 253.492 515.184 253.789C514.402 254.086 513.52 254.234 512.535 254.234C511.613 254.234 510.766 254.086 509.992 253.789C509.227 253.492 508.559 253.055 507.988 252.477C507.426 251.891 506.988 251.176 506.676 250.332C506.371 249.488 506.219 248.52 506.219 247.426C506.219 245.973 506.477 244.742 506.992 243.734C507.508 242.727 508.242 241.961 509.195 241.438C510.148 240.914 511.285 240.652 512.605 240.652C513.832 240.652 514.918 240.914 515.863 241.438C516.816 241.961 517.562 242.727 518.102 243.734C518.648 244.742 518.922 245.973 518.922 247.426ZM509.863 247.426C509.863 248.285 509.957 249.008 510.145 249.594C510.332 250.18 510.625 250.621 511.023 250.918C511.422 251.215 511.941 251.363 512.582 251.363C513.215 251.363 513.727 251.215 514.117 250.918C514.516 250.621 514.805 250.18 514.984 249.594C515.172 249.008 515.266 248.285 515.266 247.426C515.266 246.559 515.172 245.84 514.984 245.27C514.805 244.691 514.516 244.258 514.117 243.969C513.719 243.68 513.199 243.535 512.559 243.535C511.613 243.535 510.926 243.859 510.496 244.508C510.074 245.156 509.863 246.129 509.863 247.426ZM529.117 243.582H526.023V254H522.449V243.582H520.48V241.859L522.449 240.898V239.938C522.449 238.82 522.637 237.953 523.012 237.336C523.395 236.711 523.93 236.273 524.617 236.023C525.312 235.766 526.133 235.637 527.078 235.637C527.773 235.637 528.406 235.695 528.977 235.812C529.547 235.922 530.012 236.047 530.371 236.188L529.457 238.812C529.184 238.727 528.887 238.648 528.566 238.578C528.246 238.508 527.879 238.473 527.465 238.473C526.965 238.473 526.598 238.625 526.363 238.93C526.137 239.227 526.023 239.609 526.023 240.078V240.898H529.117V243.582ZM542.934 251.387C543.324 251.387 543.703 251.348 544.07 251.27C544.445 251.191 544.816 251.094 545.184 250.977V253.637C544.801 253.809 544.324 253.949 543.754 254.059C543.191 254.176 542.574 254.234 541.902 254.234C541.121 254.234 540.418 254.109 539.793 253.859C539.176 253.602 538.688 253.16 538.328 252.535C537.977 251.902 537.801 251.023 537.801 249.898V243.582H536.09V242.07L538.059 240.875L539.09 238.109H541.375V240.898H545.043V243.582H541.375V249.898C541.375 250.398 541.516 250.773 541.797 251.023C542.086 251.266 542.465 251.387 542.934 251.387ZM551.418 235.766V239.48C551.418 240.129 551.395 240.746 551.348 241.332C551.309 241.918 551.277 242.332 551.254 242.574H551.441C551.723 242.121 552.055 241.754 552.438 241.473C552.828 241.191 553.258 240.984 553.727 240.852C554.195 240.719 554.699 240.652 555.238 240.652C556.184 240.652 557.008 240.82 557.711 241.156C558.414 241.484 558.961 242.004 559.352 242.715C559.742 243.418 559.938 244.332 559.938 245.457V254H556.363V246.348C556.363 245.41 556.191 244.703 555.848 244.227C555.504 243.75 554.973 243.512 554.254 243.512C553.535 243.512 552.969 243.68 552.555 244.016C552.141 244.344 551.848 244.832 551.676 245.48C551.504 246.121 551.418 246.906 551.418 247.836V254H547.844V235.766H551.418ZM569.02 240.652C570.23 240.652 571.273 240.887 572.148 241.355C573.023 241.816 573.699 242.488 574.176 243.371C574.652 244.254 574.891 245.332 574.891 246.605V248.34H566.441C566.48 249.348 566.781 250.141 567.344 250.719C567.914 251.289 568.703 251.574 569.711 251.574C570.547 251.574 571.312 251.488 572.008 251.316C572.703 251.145 573.418 250.887 574.152 250.543V253.309C573.504 253.629 572.824 253.863 572.113 254.012C571.41 254.16 570.555 254.234 569.547 254.234C568.234 254.234 567.07 253.992 566.055 253.508C565.047 253.023 564.254 252.285 563.676 251.293C563.105 250.301 562.82 249.051 562.82 247.543C562.82 246.012 563.078 244.738 563.594 243.723C564.117 242.699 564.844 241.934 565.773 241.426C566.703 240.91 567.785 240.652 569.02 240.652ZM569.043 243.195C568.348 243.195 567.77 243.418 567.309 243.863C566.855 244.309 566.594 245.008 566.523 245.961H571.539C571.531 245.43 571.434 244.957 571.246 244.543C571.066 244.129 570.793 243.801 570.426 243.559C570.066 243.316 569.605 243.195 569.043 243.195ZM591.32 240.652C592.797 240.652 593.988 241.227 594.895 242.375C595.809 243.523 596.266 245.207 596.266 247.426C596.266 248.91 596.051 250.16 595.621 251.176C595.191 252.184 594.598 252.945 593.84 253.461C593.082 253.977 592.211 254.234 591.227 254.234C590.594 254.234 590.051 254.156 589.598 254C589.145 253.836 588.758 253.629 588.438 253.379C588.117 253.121 587.84 252.848 587.605 252.559H587.418C587.48 252.871 587.527 253.191 587.559 253.52C587.59 253.848 587.605 254.168 587.605 254.48V259.766H584.031V240.898H586.938L587.441 242.598H587.605C587.84 242.246 588.125 241.922 588.461 241.625C588.797 241.328 589.199 241.094 589.668 240.922C590.145 240.742 590.695 240.652 591.32 240.652ZM590.172 243.512C589.547 243.512 589.051 243.641 588.684 243.898C588.316 244.156 588.047 244.543 587.875 245.059C587.711 245.574 587.621 246.227 587.605 247.016V247.402C587.605 248.246 587.684 248.961 587.84 249.547C588.004 250.133 588.273 250.578 588.648 250.883C589.031 251.188 589.555 251.34 590.219 251.34C590.766 251.34 591.215 251.188 591.566 250.883C591.918 250.578 592.18 250.133 592.352 249.547C592.531 248.953 592.621 248.23 592.621 247.379C592.621 246.098 592.422 245.133 592.023 244.484C591.625 243.836 591.008 243.512 590.172 243.512ZM606.531 240.652C606.711 240.652 606.918 240.664 607.152 240.688C607.395 240.703 607.59 240.727 607.738 240.758L607.469 244.109C607.352 244.07 607.184 244.043 606.965 244.027C606.754 244.004 606.57 243.992 606.414 243.992C605.953 243.992 605.504 244.051 605.066 244.168C604.637 244.285 604.25 244.477 603.906 244.742C603.562 245 603.289 245.344 603.086 245.773C602.891 246.195 602.793 246.715 602.793 247.332V254H599.219V240.898H601.926L602.453 243.102H602.629C602.887 242.656 603.207 242.25 603.59 241.883C603.98 241.508 604.422 241.211 604.914 240.992C605.414 240.766 605.953 240.652 606.531 240.652ZM622.023 247.426C622.023 248.52 621.875 249.488 621.578 250.332C621.289 251.176 620.863 251.891 620.301 252.477C619.746 253.055 619.074 253.492 618.285 253.789C617.504 254.086 616.621 254.234 615.637 254.234C614.715 254.234 613.867 254.086 613.094 253.789C612.328 253.492 611.66 253.055 611.09 252.477C610.527 251.891 610.09 251.176 609.777 250.332C609.473 249.488 609.32 248.52 609.32 247.426C609.32 245.973 609.578 244.742 610.094 243.734C610.609 242.727 611.344 241.961 612.297 241.438C613.25 240.914 614.387 240.652 615.707 240.652C616.934 240.652 618.02 240.914 618.965 241.438C619.918 241.961 620.664 242.727 621.203 243.734C621.75 244.742 622.023 245.973 622.023 247.426ZM612.965 247.426C612.965 248.285 613.059 249.008 613.246 249.594C613.434 250.18 613.727 250.621 614.125 250.918C614.523 251.215 615.043 251.363 615.684 251.363C616.316 251.363 616.828 251.215 617.219 250.918C617.617 250.621 617.906 250.18 618.086 249.594C618.273 249.008 618.367 248.285 618.367 247.426C618.367 246.559 618.273 245.84 618.086 245.27C617.906 244.691 617.617 244.258 617.219 243.969C616.82 243.68 616.301 243.535 615.66 243.535C614.715 243.535 614.027 243.859 613.598 244.508C613.176 245.156 612.965 246.129 612.965 247.426ZM623.922 259.766C623.516 259.766 623.094 259.734 622.656 259.672C622.219 259.617 621.855 259.551 621.566 259.473V256.66C621.855 256.738 622.129 256.793 622.387 256.824C622.637 256.863 622.922 256.883 623.242 256.883C623.727 256.883 624.137 256.746 624.473 256.473C624.809 256.207 624.977 255.68 624.977 254.891V240.898H628.551V255.418C628.551 256.215 628.398 256.941 628.094 257.598C627.789 258.262 627.297 258.789 626.617 259.18C625.938 259.57 625.039 259.766 623.922 259.766ZM624.824 237.512C624.824 236.84 625.012 236.383 625.387 236.141C625.77 235.891 626.23 235.766 626.77 235.766C627.301 235.766 627.758 235.891 628.141 236.141C628.523 236.383 628.715 236.84 628.715 237.512C628.715 238.176 628.523 238.637 628.141 238.895C627.758 239.145 627.301 239.27 626.77 239.27C626.23 239.27 625.77 239.145 625.387 238.895C625.012 238.637 624.824 238.176 624.824 237.512ZM637.715 240.652C638.926 240.652 639.969 240.887 640.844 241.355C641.719 241.816 642.395 242.488 642.871 243.371C643.348 244.254 643.586 245.332 643.586 246.605V248.34H635.137C635.176 249.348 635.477 250.141 636.039 250.719C636.609 251.289 637.398 251.574 638.406 251.574C639.242 251.574 640.008 251.488 640.703 251.316C641.398 251.145 642.113 250.887 642.848 250.543V253.309C642.199 253.629 641.52 253.863 640.809 254.012C640.105 254.16 639.25 254.234 638.242 254.234C636.93 254.234 635.766 253.992 634.75 253.508C633.742 253.023 632.949 252.285 632.371 251.293C631.801 250.301 631.516 249.051 631.516 247.543C631.516 246.012 631.773 244.738 632.289 243.723C632.812 242.699 633.539 241.934 634.469 241.426C635.398 240.91 636.48 240.652 637.715 240.652ZM637.738 243.195C637.043 243.195 636.465 243.418 636.004 243.863C635.551 244.309 635.289 245.008 635.219 245.961H640.234C640.227 245.43 640.129 244.957 639.941 244.543C639.762 244.129 639.488 243.801 639.121 243.559C638.762 243.316 638.301 243.195 637.738 243.195ZM651.812 254.234C650.516 254.234 649.41 254 648.496 253.531C647.582 253.055 646.887 252.32 646.41 251.328C645.934 250.336 645.695 249.066 645.695 247.52C645.695 245.918 645.965 244.613 646.504 243.605C647.051 242.59 647.805 241.844 648.766 241.367C649.734 240.891 650.855 240.652 652.129 240.652C653.035 240.652 653.816 240.742 654.473 240.922C655.137 241.094 655.715 241.301 656.207 241.543L655.152 244.309C654.59 244.082 654.066 243.898 653.582 243.758C653.098 243.609 652.613 243.535 652.129 243.535C651.504 243.535 650.984 243.684 650.57 243.98C650.156 244.27 649.848 244.707 649.645 245.293C649.441 245.879 649.34 246.613 649.34 247.496C649.34 248.363 649.449 249.082 649.668 249.652C649.887 250.223 650.203 250.648 650.617 250.93C651.031 251.203 651.535 251.34 652.129 251.34C652.871 251.34 653.531 251.242 654.109 251.047C654.688 250.844 655.25 250.562 655.797 250.203V253.262C655.25 253.605 654.676 253.852 654.074 254C653.48 254.156 652.727 254.234 651.812 254.234ZM664.363 251.387C664.754 251.387 665.133 251.348 665.5 251.27C665.875 251.191 666.246 251.094 666.613 250.977V253.637C666.23 253.809 665.754 253.949 665.184 254.059C664.621 254.176 664.004 254.234 663.332 254.234C662.551 254.234 661.848 254.109 661.223 253.859C660.605 253.602 660.117 253.16 659.758 252.535C659.406 251.902 659.23 251.023 659.23 249.898V243.582H657.52V242.07L659.488 240.875L660.52 238.109H662.805V240.898H666.473V243.582H662.805V249.898C662.805 250.398 662.945 250.773 663.227 251.023C663.516 251.266 663.895 251.387 664.363 251.387Z" fill="white"/>
<g filter="url(#filter0_d_1797_7915)">
<rect x="1118" y="230" width="220" height="57" rx="28.5" fill="#2CD5C4" shape-rendering="crispEdges"/>
<path d="M1152.52 252.15L1149.25 265H1146.15L1144.41 258.25C1144.38 258.121 1144.33 257.925 1144.27 257.661C1144.21 257.397 1144.15 257.11 1144.09 256.8C1144.02 256.483 1143.96 256.188 1143.91 255.912C1143.86 255.631 1143.83 255.408 1143.81 255.244C1143.8 255.408 1143.76 255.628 1143.71 255.903C1143.66 256.179 1143.61 256.472 1143.54 256.782C1143.48 257.093 1143.42 257.383 1143.37 257.652C1143.31 257.922 1143.26 258.127 1143.22 258.268L1141.49 265H1138.4L1135.12 252.15H1137.8L1139.45 259.164C1139.49 259.375 1139.54 259.627 1139.6 259.92C1139.67 260.213 1139.73 260.521 1139.79 260.843C1139.85 261.159 1139.91 261.467 1139.96 261.766C1140.01 262.059 1140.05 262.313 1140.07 262.53C1140.1 262.308 1140.14 262.05 1140.18 261.757C1140.23 261.458 1140.28 261.156 1140.33 260.852C1140.39 260.541 1140.45 260.254 1140.51 259.99C1140.57 259.727 1140.62 259.513 1140.67 259.349L1142.54 252.15H1145.11L1146.99 259.349C1147.03 259.507 1147.07 259.721 1147.13 259.99C1147.19 260.254 1147.24 260.541 1147.3 260.852C1147.36 261.162 1147.41 261.467 1147.46 261.766C1147.51 262.059 1147.55 262.313 1147.58 262.53C1147.62 262.237 1147.67 261.883 1147.74 261.467C1147.82 261.045 1147.9 260.626 1147.98 260.21C1148.07 259.794 1148.14 259.445 1148.21 259.164L1149.84 252.15H1152.52ZM1157.96 254.972C1159.27 254.972 1160.28 255.259 1160.99 255.833C1161.69 256.407 1162.04 257.28 1162.04 258.452V265H1160.17L1159.65 263.664H1159.58C1159.3 264.016 1159.01 264.303 1158.72 264.525C1158.43 264.748 1158.09 264.912 1157.71 265.018C1157.33 265.123 1156.87 265.176 1156.32 265.176C1155.74 265.176 1155.22 265.064 1154.76 264.842C1154.3 264.619 1153.94 264.279 1153.67 263.822C1153.41 263.359 1153.28 262.773 1153.28 262.064C1153.28 261.021 1153.65 260.254 1154.38 259.762C1155.11 259.264 1156.21 258.988 1157.67 258.936L1159.38 258.883V258.452C1159.38 257.937 1159.24 257.559 1158.97 257.318C1158.71 257.078 1158.33 256.958 1157.85 256.958C1157.38 256.958 1156.91 257.025 1156.45 257.16C1156 257.295 1155.54 257.465 1155.08 257.67L1154.19 255.859C1154.71 255.584 1155.3 255.367 1155.94 255.209C1156.59 255.051 1157.26 254.972 1157.96 254.972ZM1159.38 260.447L1158.34 260.482C1157.47 260.506 1156.87 260.661 1156.53 260.948C1156.2 261.235 1156.03 261.613 1156.03 262.082C1156.03 262.492 1156.15 262.785 1156.39 262.961C1156.63 263.131 1156.94 263.216 1157.33 263.216C1157.91 263.216 1158.39 263.046 1158.78 262.706C1159.18 262.366 1159.38 261.883 1159.38 261.256V260.447ZM1168.95 263.04C1169.24 263.04 1169.53 263.011 1169.8 262.952C1170.08 262.894 1170.36 262.82 1170.64 262.732V264.728C1170.35 264.856 1169.99 264.962 1169.57 265.044C1169.14 265.132 1168.68 265.176 1168.18 265.176C1167.59 265.176 1167.06 265.082 1166.59 264.895C1166.13 264.701 1165.77 264.37 1165.5 263.901C1165.23 263.427 1165.1 262.768 1165.1 261.924V257.187H1163.82V256.053L1165.29 255.156L1166.07 253.082H1167.78V255.174H1170.53V257.187H1167.78V261.924C1167.78 262.299 1167.89 262.58 1168.1 262.768C1168.31 262.949 1168.6 263.04 1168.95 263.04ZM1176.62 265.176C1175.65 265.176 1174.82 265 1174.14 264.648C1173.45 264.291 1172.93 263.74 1172.57 262.996C1172.21 262.252 1172.04 261.3 1172.04 260.14C1172.04 258.938 1172.24 257.96 1172.64 257.204C1173.05 256.442 1173.62 255.883 1174.34 255.525C1175.06 255.168 1175.91 254.989 1176.86 254.989C1177.54 254.989 1178.13 255.057 1178.62 255.191C1179.12 255.32 1179.55 255.476 1179.92 255.657L1179.13 257.731C1178.71 257.562 1178.31 257.424 1177.95 257.318C1177.59 257.207 1177.22 257.151 1176.86 257.151C1176.39 257.151 1176 257.263 1175.69 257.485C1175.38 257.702 1175.15 258.03 1175 258.47C1174.84 258.909 1174.77 259.46 1174.77 260.122C1174.77 260.772 1174.85 261.312 1175.01 261.739C1175.18 262.167 1175.42 262.486 1175.73 262.697C1176.04 262.902 1176.42 263.005 1176.86 263.005C1177.42 263.005 1177.91 262.932 1178.35 262.785C1178.78 262.633 1179.2 262.422 1179.61 262.152V264.446C1179.2 264.704 1178.77 264.889 1178.32 265C1177.87 265.117 1177.31 265.176 1176.62 265.176ZM1184.58 251.324V254.11C1184.58 254.597 1184.56 255.06 1184.52 255.499C1184.5 255.938 1184.47 256.249 1184.45 256.431H1184.59C1184.81 256.091 1185.05 255.815 1185.34 255.604C1185.63 255.394 1185.96 255.238 1186.31 255.139C1186.66 255.039 1187.04 254.989 1187.44 254.989C1188.15 254.989 1188.77 255.115 1189.3 255.367C1189.82 255.613 1190.23 256.003 1190.53 256.536C1190.82 257.063 1190.97 257.749 1190.97 258.593V265H1188.29V259.261C1188.29 258.558 1188.16 258.027 1187.9 257.67C1187.64 257.312 1187.24 257.134 1186.7 257.134C1186.17 257.134 1185.74 257.26 1185.43 257.512C1185.12 257.758 1184.9 258.124 1184.77 258.61C1184.64 259.091 1184.58 259.68 1184.58 260.377V265H1181.9V251.324H1184.58ZM1202.54 263.04C1202.83 263.04 1203.12 263.011 1203.39 262.952C1203.68 262.894 1203.95 262.82 1204.23 262.732V264.728C1203.94 264.856 1203.58 264.962 1203.16 265.044C1202.74 265.132 1202.27 265.176 1201.77 265.176C1201.18 265.176 1200.66 265.082 1200.19 264.895C1199.72 264.701 1199.36 264.37 1199.09 263.901C1198.82 263.427 1198.69 262.768 1198.69 261.924V257.187H1197.41V256.053L1198.89 255.156L1199.66 253.082H1201.37V255.174H1204.12V257.187H1201.37V261.924C1201.37 262.299 1201.48 262.58 1201.69 262.768C1201.91 262.949 1202.19 263.04 1202.54 263.04ZM1208.91 251.324V254.11C1208.91 254.597 1208.89 255.06 1208.85 255.499C1208.82 255.938 1208.8 256.249 1208.78 256.431H1208.92C1209.13 256.091 1209.38 255.815 1209.67 255.604C1209.96 255.394 1210.29 255.238 1210.64 255.139C1210.99 255.039 1211.37 254.989 1211.77 254.989C1212.48 254.989 1213.1 255.115 1213.62 255.367C1214.15 255.613 1214.56 256.003 1214.86 256.536C1215.15 257.063 1215.29 257.749 1215.29 258.593V265H1212.61V259.261C1212.61 258.558 1212.49 258.027 1212.23 257.67C1211.97 257.312 1211.57 257.134 1211.03 257.134C1210.49 257.134 1210.07 257.26 1209.76 257.512C1209.45 257.758 1209.23 258.124 1209.1 258.61C1208.97 259.091 1208.91 259.68 1208.91 260.377V265H1206.22V251.324H1208.91ZM1222.11 254.989C1223.01 254.989 1223.8 255.165 1224.45 255.517C1225.11 255.862 1225.62 256.366 1225.97 257.028C1226.33 257.69 1226.51 258.499 1226.51 259.454V260.755H1220.17C1220.2 261.511 1220.43 262.105 1220.85 262.539C1221.28 262.967 1221.87 263.181 1222.62 263.181C1223.25 263.181 1223.83 263.116 1224.35 262.987C1224.87 262.858 1225.41 262.665 1225.96 262.407V264.481C1225.47 264.722 1224.96 264.897 1224.43 265.009C1223.9 265.12 1223.26 265.176 1222.5 265.176C1221.52 265.176 1220.64 264.994 1219.88 264.631C1219.13 264.268 1218.53 263.714 1218.1 262.97C1217.67 262.226 1217.46 261.288 1217.46 260.157C1217.46 259.009 1217.65 258.054 1218.04 257.292C1218.43 256.524 1218.97 255.95 1219.67 255.569C1220.37 255.183 1221.18 254.989 1222.11 254.989ZM1222.12 256.896C1221.6 256.896 1221.17 257.063 1220.82 257.397C1220.48 257.731 1220.29 258.256 1220.23 258.971H1224C1223.99 258.572 1223.92 258.218 1223.78 257.907C1223.64 257.597 1223.44 257.351 1223.16 257.169C1222.89 256.987 1222.55 256.896 1222.12 256.896ZM1235.7 265L1231.96 255.174H1234.76L1236.66 260.772C1236.77 261.101 1236.85 261.446 1236.91 261.81C1236.97 262.173 1237.02 262.498 1237.04 262.785H1237.11C1237.13 262.475 1237.17 262.144 1237.23 261.792C1237.3 261.44 1237.39 261.101 1237.5 260.772L1239.39 255.174H1242.2L1238.45 265H1235.7ZM1246.29 255.174V265H1243.61V255.174H1246.29ZM1244.96 251.324C1245.36 251.324 1245.7 251.418 1245.99 251.605C1246.27 251.787 1246.42 252.13 1246.42 252.634C1246.42 253.132 1246.27 253.478 1245.99 253.671C1245.7 253.858 1245.36 253.952 1244.96 253.952C1244.55 253.952 1244.21 253.858 1243.92 253.671C1243.64 253.478 1243.5 253.132 1243.5 252.634C1243.5 252.13 1243.64 251.787 1243.92 251.605C1244.21 251.418 1244.55 251.324 1244.96 251.324ZM1252.23 265.176C1251.13 265.176 1250.24 264.748 1249.55 263.893C1248.86 263.031 1248.52 261.769 1248.52 260.104C1248.52 258.423 1248.87 257.151 1249.56 256.29C1250.26 255.423 1251.17 254.989 1252.3 254.989C1252.77 254.989 1253.18 255.054 1253.54 255.183C1253.89 255.312 1254.2 255.484 1254.46 255.701C1254.72 255.918 1254.95 256.161 1255.13 256.431H1255.21C1255.18 256.243 1255.14 255.968 1255.08 255.604C1255.04 255.235 1255.01 254.857 1255.01 254.471V251.324H1257.7V265H1255.65L1255.13 263.726H1255.01C1254.84 263.995 1254.63 264.241 1254.37 264.464C1254.12 264.681 1253.82 264.854 1253.47 264.982C1253.11 265.111 1252.7 265.176 1252.23 265.176ZM1253.17 263.04C1253.9 263.04 1254.42 262.823 1254.71 262.39C1255.02 261.95 1255.18 261.291 1255.2 260.412V260.122C1255.2 259.167 1255.05 258.438 1254.76 257.934C1254.46 257.424 1253.92 257.169 1253.12 257.169C1252.53 257.169 1252.07 257.424 1251.73 257.934C1251.4 258.443 1251.23 259.179 1251.23 260.14C1251.23 261.101 1251.4 261.824 1251.73 262.311C1252.07 262.797 1252.55 263.04 1253.17 263.04ZM1264.56 254.989C1265.47 254.989 1266.25 255.165 1266.9 255.517C1267.56 255.862 1268.07 256.366 1268.42 257.028C1268.78 257.69 1268.96 258.499 1268.96 259.454V260.755H1262.62C1262.65 261.511 1262.88 262.105 1263.3 262.539C1263.73 262.967 1264.32 263.181 1265.08 263.181C1265.7 263.181 1266.28 263.116 1266.8 262.987C1267.32 262.858 1267.86 262.665 1268.41 262.407V264.481C1267.92 264.722 1267.41 264.897 1266.88 265.009C1266.35 265.12 1265.71 265.176 1264.95 265.176C1263.97 265.176 1263.1 264.994 1262.33 264.631C1261.58 264.268 1260.98 263.714 1260.55 262.97C1260.12 262.226 1259.91 261.288 1259.91 260.157C1259.91 259.009 1260.1 258.054 1260.49 257.292C1260.88 256.524 1261.43 255.95 1262.12 255.569C1262.82 255.183 1263.63 254.989 1264.56 254.989ZM1264.58 256.896C1264.05 256.896 1263.62 257.063 1263.27 257.397C1262.93 257.731 1262.74 258.256 1262.69 258.971H1266.45C1266.44 258.572 1266.37 258.218 1266.23 257.907C1266.09 257.597 1265.89 257.351 1265.61 257.169C1265.34 256.987 1265 256.896 1264.58 256.896ZM1280.07 260.069C1280.07 260.89 1279.96 261.616 1279.74 262.249C1279.52 262.882 1279.2 263.418 1278.78 263.857C1278.36 264.291 1277.86 264.619 1277.27 264.842C1276.68 265.064 1276.02 265.176 1275.28 265.176C1274.59 265.176 1273.95 265.064 1273.37 264.842C1272.8 264.619 1272.3 264.291 1271.87 263.857C1271.45 263.418 1271.12 262.882 1270.89 262.249C1270.66 261.616 1270.54 260.89 1270.54 260.069C1270.54 258.979 1270.74 258.057 1271.12 257.301C1271.51 256.545 1272.06 255.971 1272.78 255.578C1273.49 255.186 1274.34 254.989 1275.33 254.989C1276.25 254.989 1277.07 255.186 1277.78 255.578C1278.49 255.971 1279.05 256.545 1279.46 257.301C1279.87 258.057 1280.07 258.979 1280.07 260.069ZM1273.28 260.069C1273.28 260.714 1273.35 261.256 1273.49 261.695C1273.63 262.135 1273.85 262.466 1274.15 262.688C1274.45 262.911 1274.83 263.022 1275.32 263.022C1275.79 263.022 1276.17 262.911 1276.47 262.688C1276.77 262.466 1276.98 262.135 1277.12 261.695C1277.26 261.256 1277.33 260.714 1277.33 260.069C1277.33 259.419 1277.26 258.88 1277.12 258.452C1276.98 258.019 1276.77 257.693 1276.47 257.477C1276.17 257.26 1275.78 257.151 1275.3 257.151C1274.59 257.151 1274.07 257.395 1273.75 257.881C1273.43 258.367 1273.28 259.097 1273.28 260.069Z" fill="white"/>
<path d="M1308.5 246C1315.41 246 1321 251.595 1321 258.5C1321 265.405 1315.41 271 1308.5 271C1301.59 271 1296 265.405 1296 258.5C1296 251.595 1301.59 246 1308.5 246ZM1314.24 257.643L1307.41 250.814C1306.94 250.34 1306.17 250.34 1305.7 250.814L1304.85 251.67C1304.37 252.144 1304.37 252.91 1304.85 253.379L1309.97 258.5L1304.85 263.621C1304.37 264.095 1304.37 264.861 1304.85 265.33L1305.7 266.186C1306.18 266.66 1306.94 266.66 1307.41 266.186L1314.24 259.357C1314.71 258.883 1314.71 258.117 1314.24 257.643Z" fill="white"/>
<rect x="1118.5" y="230.5" width="219" height="56" rx="28" stroke="white" shape-rendering="crispEdges"/>
</g>
</g>
<defs>
<filter id="filter0_d_1797_7915" x="1106" y="222" width="244" height="81" filterUnits="userSpaceOnUse" color-interpolation-filters="sRGB">
<feFlood flood-opacity="0" result="BackgroundImageFix"/>
<feColorMatrix in="SourceAlpha" type="matrix" values="0 0 0 0 0 0 0 0 0 0 0 0 0 0 0 0 0 0 127 0" result="hardAlpha"/>
<feOffset dy="4"/>
<feGaussianBlur stdDeviation="6"/>
<feComposite in2="hardAlpha" operator="out"/>
<feColorMatrix type="matrix" values="0 0 0 0 0 0 0 0 0 0 0 0 0 0 0 0 0 0 0.25 0"/>
<feBlend mode="normal" in2="BackgroundImageFix" result="effect1_dropShadow_1797_7915"/>
<feBlend mode="normal" in="SourceGraphic" in2="effect1_dropShadow_1797_7915" result="shape"/>
</filter>
<linearGradient id="paint0_linear_1797_7915" x1="720" y1="0" x2="720" y2="350" gradientUnits="userSpaceOnUse">
<stop stop-color="#2CD5C4"/>
<stop offset="1" stop-color="#005EB8"/>
</linearGradient>
<clipPath id="clip0_1797_7915">
<rect width="1440" height="350" fill="white"/>
</clipPath>
</defs>
</svg>
