<svg width="989" height="261" viewBox="0 0 989 261" fill="none" xmlns="http://www.w3.org/2000/svg">
<path d="M731.185 113.872H773.141V255.112H731.185V113.872Z" fill="black"/>
<path d="M896.123 116.43C897.404 116.43 898.685 116.43 899.646 116.75L854.808 84.0823C850.004 86.3242 845.52 89.2066 841.356 92.4094C812.532 113.547 799.08 147.816 803.884 181.125L848.722 148.457C856.409 129.561 874.664 116.43 896.123 116.43Z" fill="url(#paint0_linear_435_76)"/>
<path d="M844.879 167.355C844.879 160.629 846.16 154.224 848.722 148.138C834.951 158.067 817.656 170.878 803.884 180.806C804.525 185.931 805.806 191.055 807.407 196.179C818.297 230.128 847.121 253.508 880.109 258.953C879.469 257.031 871.142 231.73 863.135 206.108C851.925 197.14 844.879 183.048 844.879 167.355Z" fill="url(#paint1_linear_435_76)"/>
<path d="M922.705 210.588C915.018 215.392 905.73 218.275 895.802 218.275C883.311 218.275 871.782 213.791 862.814 206.104L879.788 258.629C884.913 259.59 890.037 259.91 895.482 259.91C931.352 259.91 962.098 239.733 977.792 210.268H922.705V210.588Z" fill="url(#paint2_linear_435_76)"/>
<path d="M962.529 104L945.496 155.746C946.46 159.51 947.103 163.586 947.103 167.663C947.103 185.539 937.462 201.22 923 210H978.598C981.168 205.61 983.097 200.592 984.704 195.888C995.309 162.332 985.668 127.207 962.529 104Z" fill="url(#paint3_linear_435_76)"/>
<path d="M945.443 155.184L962.417 102.339C958.894 98.496 954.731 95.2931 950.567 92.0904C921.742 70.9524 884.591 69.0308 854.806 83.7633L899.644 116.431C922.063 118.353 940.318 134.046 945.443 155.184Z" fill="url(#paint4_linear_435_76)"/>
<path d="M206 0H248V255H206V0Z" fill="black"/>
<path d="M545.105 128.28C543.824 119.953 536.778 115.79 529.091 115.79C519.803 115.79 512.437 121.234 512.757 130.522C512.437 142.052 527.81 144.935 536.457 147.497C564.641 156.144 591.224 165.432 591.224 200.662C591.224 216.996 585.139 231.408 573.609 242.618C562.079 253.507 544.144 260.873 528.13 260.873C492.58 260.873 465.997 236.212 464.716 200.342H507.633C509.875 211.551 517.561 219.878 529.732 219.878C539.98 219.878 549.268 214.113 549.268 203.224C549.268 188.812 530.692 184.328 519.483 180.485C506.672 176.321 498.665 174.079 487.776 165.432C476.566 155.824 470.801 143.653 470.801 128.921C470.801 96.253 498.985 74.7949 529.732 74.7949C558.876 74.7949 586.1 98.495 586.1 128.601H545.105V128.28Z" fill="black"/>
<path d="M617.484 0.493896H659.44V54.9402H703.317V92.0918H659.44V254.79H617.484V0.493896Z" fill="black"/>
<path d="M731.185 113.872H773.141V200.025L731.185 224.046V113.872Z" fill="black"/>
<path d="M731.185 54.2947H773.141V92.4071H731.185V54.2947Z" fill="black"/>
<path d="M387.847 213.472C380.161 217.316 370.873 219.557 361.265 219.557C340.127 219.557 321.551 206.426 315.145 185.929H450.941C451.902 179.203 453.183 172.798 453.183 166.072C453.183 117.07 413.469 74.1538 363.507 74.1538C310.982 74.1538 270.628 116.75 270.628 168.634C270.628 219.557 311.943 260.552 362.866 260.552C385.605 260.552 408.345 250.944 424.679 236.212L387.847 213.472ZM362.866 115.469C384.324 115.469 403.541 127.96 410.587 149.098H314.185C320.59 128.6 342.048 115.469 362.866 115.469Z" fill="black"/>
<mask id="mask0_435_76" style="mask-type:alpha" maskUnits="userSpaceOnUse" x="0" y="74" width="183" height="187">
<path d="M116.899 213.793C109.213 217.316 100.245 219.557 90.6371 219.557C69.4991 219.557 50.9233 206.426 44.5179 185.929H180.313C181.274 179.203 182.555 172.798 182.555 166.072C182.555 117.07 142.841 74.1538 92.879 74.1538C40.3543 74.1538 0 116.75 0 168.634C0 219.557 41.3152 260.552 92.2385 260.552C114.978 260.552 137.397 251.264 153.731 236.532L116.899 213.793ZM92.5587 115.469C114.017 115.469 133.233 127.96 140.279 149.098H43.8773C50.2828 128.6 71.741 115.469 92.5587 115.469Z" fill="black"/>
</mask>
<g mask="url(#mask0_435_76)">
<path d="M153.729 136.93H38.4312V194.579H153.729V136.93Z" fill="#A91A1F"/>
<path d="M92.465 115.574C93.7801 115.574 95.0952 115.574 96.0815 115.902L50.0528 82.4795C45.1211 84.7732 40.5182 87.7222 36.2441 90.9989C6.65425 112.625 -7.15433 147.686 -2.22268 181.764L48.0407 146.534C55.9313 127.201 70.4369 115.574 92.465 115.574Z" fill="url(#paint5_linear_435_76)"/>
<path d="M41.5814 167.642C41.5814 160.256 43.6403 153.221 46.4393 146.538C31.3946 157.442 11.8418 171.512 -3.20288 182.416C-2.50312 188.044 -1.10359 193.672 0.645795 199.299C12.5416 236.584 44.0305 262.262 80.0679 268.241C79.3682 266.131 70.2714 238.343 61.5244 210.204C49.2787 200.355 41.5814 184.878 41.5814 167.642Z" fill="url(#paint6_linear_435_76)"/>
<path d="M119.374 211.926C111.452 216.787 101.879 219.704 91.6467 219.704C78.7733 219.704 66.8903 215.166 57.6478 207.388L75.1424 260.538C80.4237 261.511 85.7052 261.835 91.3166 261.835C128.286 261.835 159.975 241.417 176.149 211.602H119.374V211.926Z" fill="url(#paint7_linear_435_76)"/>
<path d="M140.88 154.184L157.855 101.339C154.332 97.496 150.168 94.2931 146.005 91.0904C117.18 69.9524 80.0286 68.0308 50.2432 82.7633L95.0814 115.431C117.501 117.353 135.756 133.046 140.88 154.184Z" fill="url(#paint8_linear_435_76)"/>
<path d="M162.101 87L138.358 145.091C139.703 149.317 140.599 153.893 140.599 158.471C140.599 178.539 127.159 196.143 107 206H184.5C188.083 201.071 190.772 195.438 193.011 190.157C207.794 152.485 194.356 113.053 162.101 87Z" fill="url(#paint9_linear_435_76)"/>
</g>
<defs>
<linearGradient id="paint0_linear_435_76" x1="851.309" y1="180.769" x2="851.309" y2="84.0249" gradientUnits="userSpaceOnUse">
<stop stop-color="#EC5A22"/>
<stop offset="1" stop-color="#F5A11A"/>
</linearGradient>
<linearGradient id="paint1_linear_435_76" x1="842.08" y1="259.08" x2="842.08" y2="148.211" gradientUnits="userSpaceOnUse">
<stop stop-color="#BF161C"/>
<stop offset="1" stop-color="#E81C24"/>
</linearGradient>
<linearGradient id="paint2_linear_435_76" x1="920.689" y1="260.396" x2="920.689" y2="206.38" gradientUnits="userSpaceOnUse">
<stop stop-color="#8C278A"/>
<stop offset="1" stop-color="#A567A5"/>
</linearGradient>
<linearGradient id="paint3_linear_435_76" x1="955.653" y1="209.818" x2="955.653" y2="103.873" gradientUnits="userSpaceOnUse">
<stop stop-color="#00A9EA"/>
<stop offset="1" stop-color="#6DCAF1"/>
</linearGradient>
<linearGradient id="paint4_linear_435_76" x1="908.701" y1="155.288" x2="908.701" y2="74.4424" gradientUnits="userSpaceOnUse">
<stop stop-color="#F28E1E"/>
<stop offset="1" stop-color="#FFC605"/>
</linearGradient>
<linearGradient id="paint5_linear_435_76" x1="46.4612" y1="181.4" x2="46.4612" y2="82.4208" gradientUnits="userSpaceOnUse">
<stop stop-color="#EC5A22"/>
<stop offset="1" stop-color="#F5A11A"/>
</linearGradient>
<linearGradient id="paint6_linear_435_76" x1="38.5235" y1="268.381" x2="38.5235" y2="146.617" gradientUnits="userSpaceOnUse">
<stop stop-color="#BF161C"/>
<stop offset="1" stop-color="#E81C24"/>
</linearGradient>
<linearGradient id="paint7_linear_435_76" x1="117.296" y1="262.327" x2="117.296" y2="207.668" gradientUnits="userSpaceOnUse">
<stop stop-color="#8C278A"/>
<stop offset="1" stop-color="#A567A5"/>
</linearGradient>
<linearGradient id="paint8_linear_435_76" x1="104.139" y1="154.288" x2="104.139" y2="73.4424" gradientUnits="userSpaceOnUse">
<stop stop-color="#F28E1E"/>
<stop offset="1" stop-color="#FFC605"/>
</linearGradient>
<linearGradient id="paint9_linear_435_76" x1="152.516" y1="205.795" x2="152.516" y2="86.8567" gradientUnits="userSpaceOnUse">
<stop stop-color="#00A9EA"/>
<stop offset="1" stop-color="#6DCAF1"/>
</linearGradient>
</defs>
</svg>
