<?xml version="1.0" encoding="utf-8"?>
<!-- Generator: Adobe Illustrator 28.1.0, SVG Export Plug-In . SVG Version: 6.00 Build 0)  -->
<svg version="1.1" id="a" xmlns="http://www.w3.org/2000/svg" xmlns:xlink="http://www.w3.org/1999/xlink" x="0px" y="0px"
	 viewBox="0 0 1000 300" style="enable-background:new 0 0 1000 300;" xml:space="preserve">
<style type="text/css">
	.st0{fill:#00BBEB;}
	.st1{fill:#001050;}
</style>
<g>
	<g>
		<g>
			<rect x="49" y="46" class="st0" width="30.1" height="25.4"/>
			<rect x="49" y="82.4" class="st1" width="30.1" height="25.4"/>
			<rect x="49" y="119" class="st1" width="30.1" height="25.4"/>
			<rect x="49" y="155.1" class="st1" width="30.1" height="25.4"/>
			<g>
				<path class="st1" d="M176.3,91.1c-2.8-3.4-6.6-6.6-11.3-8.5s-10.7-3.1-17.9-3.1c-5.6,0-11.3,1.3-16.9,4.1
					c-4.1,1.9-7.5,4.7-10.3,8.2v-9.7H91v98.7h30.1v-51.4c0-9.1,1.6-15.7,4.4-19.4c2.8-3.8,7.2-5.6,13.8-5.6c5.6,0,9.4,1.6,11.3,5
					c2.2,3.4,3.1,9.1,3.1,16.3v55.5h30.1v-60.5c0-6-0.6-11.3-1.6-16.3C181,99.3,179.1,94.9,176.3,91.1"/>
				<path class="st1" d="M274.1,128.1c-3.1-2.2-6.6-3.8-10-5c-3.4-1.3-7.5-2.2-11.3-3.1s-7.5-1.6-11-2.5s-6.6-1.6-9.1-2.5
					s-4.7-1.9-6-3.1c-1.3-1.3-1.9-2.5-1.9-4.1s0.3-2.5,0.9-3.4c0.6-0.9,1.6-1.6,2.8-2.2c1.3-0.6,2.5-0.9,4.1-0.9s3.1-0.3,4.7-0.3
					c4.4,0,8.2,0.9,11.3,2.5c2.8,1.6,4.4,4.4,4.7,8.5v1.9h28.8v-2.2c-0.6-6.3-2.2-11.3-5-15.4s-6-7.5-10-9.7
					c-4.1-2.5-8.5-4.1-13.5-5s-10-1.6-15.4-1.6c-5.3,0-10.3,0.3-15.4,1.6c-5,0.9-9.7,2.5-13.8,5s-7.5,5.6-10,10
					c-2.5,4.1-3.8,9.7-3.8,16c0,4.7,0.9,8.5,2.8,11.6s4.4,5.6,7.5,7.8c3.1,1.9,6.3,3.4,10,5c3.4,1.3,7.5,2.2,11.3,3.1
					c9.1,1.9,16.3,3.8,21.3,5.6c6.6,2.5,6.6,5.6,6.6,6.9c0,1.9-0.3,3.4-1.3,4.7c-0.9,1.3-1.9,2.2-3.4,3.1s-3.1,1.6-5,1.9
					c-1.9,0.3-3.8,0.6-5.3,0.6c-2.5,0-4.7-0.3-6.9-0.9c-2.2-0.6-4.1-1.6-5.6-2.5c-1.6-1.3-2.8-2.5-3.8-4.4l0,0
					c-0.9-1.6-1.6-3.8-1.6-6.3v-1.9h-29.2v2.2c0.3,6.6,1.9,12.2,4.7,16.9c2.8,4.4,6.6,8.2,10.7,11c4.1,2.8,9.1,4.7,14.7,5.6
					c5.3,1.3,11,1.6,16.6,1.6c5.3,0,11-0.6,16.3-1.6c5.3-1.3,10.3-3.1,14.7-5.6s7.8-6.6,10.3-11c2.8-4.7,4.1-10,4.1-16.6
					c0-4.7-0.9-8.8-2.8-12.2C279.4,133.2,276.9,130.6,274.1,128.1"/>
				<path class="st1" d="M331.5,53.8h-30.1V82h-15.7v21.3h15.7V157c0,5,0.9,9.4,2.5,12.5s4.1,6,7.2,7.5s6.6,2.8,10.3,3.4
					c3.8,0.6,7.5,0.9,11.6,0.9c2.5,0,5,0,8.2,0c2.8,0,5.3-0.3,7.5-0.6l1.6-0.3v-24.1l-2.5,0.3c-1.3,0.3-2.5,0.3-3.4,0.6
					c-1.3,0-2.5,0-4.1,0c-5,0-9.1-1.6-9.1-9.7v-43.9h19.1V82.4h-19.1L331.5,53.8L331.5,53.8L331.5,53.8z"/>
				<path class="st1" d="M616.1,171.7c2.8,3.4,6.6,6.6,11.3,8.5s10.7,3.1,17.9,3.1c5.6,0,11.3-1.3,16.9-4.1
					c4.1-1.9,7.5-4.7,10.3-8.2v9.7h28.8V82.1h-30.1v51.7c0,9.1-1.6,15.7-4.4,19.4c-2.8,3.8-7.2,5.6-13.8,5.6c-5.6,0-9.4-1.6-11.3-5
					c-2.2-3.4-3.1-9.1-3.1-16.3V82.1h-30.1v60.2c0,6,0.6,11.3,1.6,16.3C611.4,163.9,613.6,168.3,616.1,171.7"/>
				<path class="st1" d="M792,128.1c-3.1-2.2-6.6-3.8-10-5c-3.4-1.3-7.5-2.2-11.3-3.1s-7.5-1.6-11-2.5c-3.4-0.6-6.6-1.6-9.1-2.5
					s-4.7-1.9-6-3.1c-1.3-1.3-1.9-2.5-1.9-4.1s0.3-2.5,0.9-3.4s1.6-1.6,2.8-2.2c1.3-0.6,2.5-0.9,4.1-0.9s3.1-0.3,4.7-0.3
					c4.4,0,8.2,0.9,11.3,2.5c2.8,1.6,4.4,4.4,4.7,8.5v1.9H800v-2.2c-0.6-6.3-2.2-11.3-5-15.4s-6-7.5-10-9.7c-4.1-2.5-8.5-4.1-13.5-5
					s-10-1.6-15.4-1.6c-5.3,0-10.3,0.3-15.4,1.6c-5,0.9-9.7,2.5-13.8,5s-7.5,5.6-10,10c-2.5,4.1-3.8,9.7-3.8,16
					c0,4.7,0.9,8.5,2.8,11.6s4.4,5.6,7.5,7.8c3.1,1.9,6.3,3.4,10,5c3.4,1.3,7.5,2.2,11.3,3.1c9.1,1.9,16.3,3.8,21.3,5.6
					c6.6,2.5,6.6,5.6,6.6,6.9c0,1.9-0.3,3.4-1.3,4.7c-0.9,1.3-1.9,2.2-3.4,3.1s-3.1,1.6-5,1.9c-1.9,0.3-3.8,0.6-5.3,0.6
					c-2.5,0-4.7-0.3-6.9-0.9s-4.1-1.6-5.6-2.5c-1.6-1.3-2.8-2.5-3.8-4.4l0,0c-0.9-1.6-1.6-3.8-1.6-6.3v-1.9h-28.8v2.2
					c0.3,6.6,1.9,12.2,4.7,16.9c2.8,4.4,6.6,8.2,10.7,11s9.1,4.7,14.7,5.6c5.3,1.3,11,1.6,16.6,1.6c5.3,0,11-0.6,16.3-1.6
					c5.3-1.3,10.3-3.1,14.7-5.6c4.4-2.8,7.8-6.6,10.3-11c2.8-4.7,4.1-10,4.1-16.6c0-4.7-0.9-8.8-2.8-12.2
					C797.3,133.2,794.8,130.6,792,128.1"/>
				<path class="st1" d="M849.4,53.8h-30.1V82h-15.7v21.3h15.7V157c0,5,0.9,9.4,2.5,12.5s4.1,6,7.2,7.5s6.6,2.8,10.3,3.4
					c3.8,0.6,7.5,0.9,11.6,0.9c2.5,0,5,0,8.2,0c2.8,0,5.3-0.3,7.5-0.6l1.6-0.3v-24.1l-2.5,0.3c-1.3,0.3-2.5,0.3-3.4,0.6
					c-1.3,0-2.5,0-4.1,0c-5,0-9.1-1.6-9.1-9.7v-43.9h19.1V82.4h-19.1L849.4,53.8L849.4,53.8L849.4,53.8z"/>
				<path class="st1" d="M421.5,142.2c0,1.3,0,3.1-0.3,5.6c-0.3,2.2-0.9,4.4-2.2,6.6c-1.3,1.9-3.1,3.8-5.6,5.3
					c-2.5,1.6-6.3,2.2-11,2.2c-1.9,0-3.8,0-5.6-0.6c-1.6-0.3-3.1-0.9-4.4-1.6c-1.3-0.6-2.2-1.6-2.8-3.1c-0.6-1.3-0.9-2.8-0.9-5
					s0.3-3.8,0.9-5s1.6-2.5,2.8-3.1c1.3-0.9,2.8-1.6,4.4-2.2c1.9-0.6,3.8-0.9,5.3-1.6c1.9-0.3,4.1-0.6,6.3-0.9
					c2.2-0.3,4.1-0.6,6.3-0.9c1.9-0.3,3.8-0.9,5.6-1.6c0.6,0,0.9-0.3,1.6-0.6L421.5,142.2L421.5,142.2z M452.2,169.8
					c-0.3-3.8-0.6-7.8-0.6-11.9v-49.5c0-6.3-1.6-11.3-4.4-15s-6.3-6.6-10.7-8.8c-4.1-1.9-8.8-3.4-14.1-4.1c-5-0.6-9.7-0.9-14.7-0.9
					c-5.3,0-10.7,0.6-16,1.6c-5.3,1.3-10.3,2.8-14.7,5.3c-4.4,2.5-8.2,6-11,10.3c-2.8,4.4-4.7,9.7-5,16.3v2.2h30v-1.9
					c0.3-4.7,1.9-7.8,4.4-9.7c2.5-1.9,6.3-2.8,11-2.8c2.2,0,4.4,0,6.3,0.3c1.6,0.3,3.1,0.9,4.7,1.6c1.3,0.6,2.2,1.6,3.1,3.1
					c0.6,1.3,1.3,3.1,1.3,5.6l0,0c0,1.9-0.3,3.4-1.6,4.4c-1.6,1.3-3.4,2.2-6.3,2.8s-6.3,1.3-9.7,1.6c-3.8,0.3-7.8,0.9-11.6,1.6
					c-4.1,0.6-8.2,1.6-11.9,2.5c-4.1,1.3-7.8,2.8-11,5c-3.1,2.2-6,5.3-8.2,9.1c-1.9,3.8-3.1,8.5-3.1,14.4c0,5,0.9,9.7,2.8,13.5
					c1.6,3.8,4.4,6.9,7.5,9.7c3.1,2.5,6.9,4.4,11,5.3c4.1,1.3,8.5,1.6,13.2,1.6c6,0,11.9-0.9,17.9-2.8c4.7-1.6,8.8-3.8,12.5-6.6
					c0,0.3,0,0.6,0,0.9c0.3,1.6,0.6,3.1,1.3,4.7l0.3,1.6h31.3l-1.9-3.1C453.4,176.1,452.5,173.3,452.2,169.8"/>
				<path class="st1" d="M529,140.7l-0.3,1.6c-0.9,5.3-2.8,9.7-5.6,12.9c-3.1,3.1-7.2,4.7-12.9,4.7c-3.4,0-6.6-0.9-9.1-2.5
					s-4.7-3.8-6-6.3c-1.6-2.8-2.8-5.6-3.1-9.1c-0.6-3.4-0.9-6.6-0.9-10s0.3-6.9,0.9-10.3s1.9-6.6,3.4-9.4s3.8-5,6.3-6.6
					s5.6-2.5,9.4-2.5c10,0,15.7,4.7,17.2,14.7l0.3,1.6h29.2v-2.2c-0.3-6.6-1.9-11.9-4.7-16.6s-6.3-8.5-10.7-11.9
					c-4.4-3.1-9.1-5.3-14.7-6.9c-5.3-1.6-11-2.2-16.6-2.2c-7.8,0-15,1.3-21.3,4.1c-6.3,2.8-11.6,6.6-16,11.3s-7.5,10.3-9.7,16.9
					s-3.1,13.5-3.1,21c0,7.2,1.3,14.1,3.4,20.4c2.5,6.3,6,11.6,10,16c4.1,4.4,9.7,8.2,16,10.3c6.3,2.5,13.2,3.8,20.4,3.8
					c13.2,0,23.8-3.4,32.3-10.3c8.5-6.9,13.5-16.9,15.4-30.1l-0.3-2.2H529V140.7z"/>
			</g>
			<polygon class="st1" points="566.9,53.8 566.9,110.9 566.9,123.4 566.9,180.8 597,180.8 597,123.4 597,110.9 597,53.8 			"/>
			<path class="st1" d="M947.8,80.5c-3.1-0.6-7.2-0.9-11.3-0.9c-5.6,0-11.3,1.3-16.9,4.1c-4.1,1.9-7.5,4.7-10.3,8.2v-9.7h-28.8v98.7
				h30.1v-49.2c0-9.1,1.6-15.7,4.4-19.4c2.8-3.8,7.2-5.6,13.8-5.6c12.9,0,19.4,3.1,19.4,3.1L947.8,80.5L947.8,80.5L947.8,80.5z"/>
		</g>
	</g>
	<g>
		<path d="M656.2,235.5c0,2.5-0.3,4.7-1,6.6c-0.7,1.9-1.6,3.5-2.8,4.8c-1.2,1.3-2.6,2.3-4.2,3c-1.6,0.7-3.3,1-5,1
			c-2.4,0-4.5-0.6-6.3-1.8c-1.7-1.2-3.1-2.8-4-4.8v6.2h-6.4v-42.2h6.4v18.8c1-2.2,2.5-3.9,4.4-5c1.9-1.1,4-1.7,6.3-1.7
			c1.7,0,3.3,0.3,4.8,0.9c1.5,0.6,2.9,1.5,4,2.7c1.1,1.2,2.1,2.8,2.7,4.7C655.8,230.7,656.2,233,656.2,235.5z M641.2,245.6
			c2.8,0,4.9-0.9,6.4-2.7c1.4-1.8,2.1-4.2,2.1-7.2c0-3.1-0.7-5.6-2.2-7.3c-1.5-1.8-3.6-2.7-6.4-2.7c-1.4,0-2.7,0.3-3.8,0.8
			c-1.1,0.5-2,1.2-2.7,2.1c-0.7,0.9-1.3,2-1.6,3.2c-0.4,1.2-0.5,2.6-0.5,4c0,2.9,0.7,5.2,2.1,7.1
			C635.9,244.7,638.1,245.6,641.2,245.6z"/>
		<path d="M689,220.9L671.5,262h-6.7l5.2-11.9l-12.4-29.2h6.6l7.9,19.1l1.2,3.9l1.3-3.9l7.7-19.1H689z"/>
		<path d="M718.4,221.7v28.8h-6.3v-38.7h7.7l16.8,28.2l1.6,3.5l-0.2-3.8v-27.9h6.3v38.7h-7.2l-17.4-29.3l-1.7-3.2L718.4,221.7z"/>
		<path d="M778.9,244c-1.2,2-2.9,3.7-5.1,5.1c-2.2,1.4-4.9,2-8.2,2c-2.5,0-4.8-0.4-6.7-1.2c-1.9-0.8-3.5-1.8-4.8-3.2
			c-1.3-1.3-2.2-2.9-2.9-4.8c-0.7-1.9-1-3.9-1-6c0-2.1,0.4-4.1,1.1-6c0.7-1.9,1.7-3.6,3-5c1.3-1.4,2.9-2.5,4.8-3.4
			c1.9-0.8,4-1.2,6.4-1.2c2.4,0,4.5,0.4,6.3,1.2c1.8,0.8,3.3,1.9,4.4,3.2c1.2,1.3,2,2.9,2.6,4.7c0.6,1.8,0.9,3.7,0.9,5.7v2.2h-23.2
			c0.2,2.5,1.1,4.6,2.6,6c1.5,1.5,3.7,2.2,6.4,2.2c2,0,3.6-0.4,4.8-1.2c1.2-0.8,2.3-2,3.2-3.5L778.9,244z M765.4,225.6
			c-2.5,0-4.5,0.7-6,2.1c-1.5,1.4-2.5,3.3-2.8,5.7h16.8c-0.1-2.3-0.8-4.1-2.1-5.6C770,226.3,768.1,225.6,765.4,225.6z"/>
		<path d="M803.2,244.7v5.2c-0.8,0.4-1.6,0.6-2.5,0.8c-0.9,0.2-1.8,0.3-2.9,0.3c-3.2,0-5.5-0.8-6.9-2.5c-1.4-1.7-2.1-4.2-2.1-7.4
			v-14.9H782v-5.3h6.8v-7.6l6-3.6v11.2h8.4v5.3h-8.4v14.2c0,1.9,0.4,3.2,1.1,4s1.9,1.2,3.3,1.2c0.8,0,1.5-0.1,2-0.2
			C801.9,245.2,802.6,245,803.2,244.7z"/>
		<path d="M807.1,250.6l15-38.7h7.4l15,38.7h-6.8l-3-8.1h-17.9l-3,8.1H807.1z M824.5,222l-5.8,15.7H833l-5.9-15.7l-1.3-4.2
			L824.5,222z"/>
		<path d="M878.5,235.5c0,2.5-0.3,4.7-1,6.6c-0.7,1.9-1.6,3.5-2.8,4.8c-1.2,1.3-2.6,2.3-4.2,3c-1.6,0.7-3.3,1-5.1,1
			c-2.4,0-4.5-0.6-6.3-1.8c-1.7-1.2-3.1-2.8-4-4.8V262h-6.4v-41.1h6.4v6.5c1-2.3,2.5-4,4.4-5.1c1.9-1.1,4-1.7,6.4-1.7
			c1.7,0,3.3,0.3,4.8,0.9c1.5,0.6,2.9,1.5,4,2.7c1.1,1.2,2.1,2.8,2.7,4.7C878.2,230.7,878.5,233,878.5,235.5z M863.5,245.6
			c2.8,0,4.9-0.9,6.4-2.7c1.4-1.8,2.1-4.2,2.1-7.2c0-3.1-0.7-5.6-2.2-7.3c-1.5-1.8-3.6-2.7-6.4-2.7c-1.4,0-2.7,0.3-3.8,0.8
			c-1.1,0.5-2,1.2-2.7,2.1c-0.7,0.9-1.2,2-1.6,3.2c-0.4,1.2-0.5,2.6-0.5,4c0,2.9,0.7,5.2,2.1,7.1
			C858.2,244.7,860.4,245.6,863.5,245.6z"/>
		<path d="M914.1,235.5c0,2.5-0.3,4.7-1,6.6c-0.7,1.9-1.6,3.5-2.8,4.8c-1.2,1.3-2.6,2.3-4.2,3c-1.6,0.7-3.3,1-5.1,1
			c-2.4,0-4.5-0.6-6.3-1.8c-1.7-1.2-3.1-2.8-4-4.8V262h-6.4v-41.1h6.4v6.5c1-2.3,2.5-4,4.4-5.1c1.9-1.1,4-1.7,6.4-1.7
			c1.7,0,3.3,0.3,4.8,0.9c1.5,0.6,2.9,1.5,4,2.7c1.1,1.2,2.1,2.8,2.7,4.7C913.8,230.7,914.1,233,914.1,235.5z M899.1,245.6
			c2.8,0,4.9-0.9,6.4-2.7c1.4-1.8,2.1-4.2,2.1-7.2c0-3.1-0.7-5.6-2.2-7.3c-1.5-1.8-3.6-2.7-6.4-2.7c-1.4,0-2.7,0.3-3.8,0.8
			c-1.1,0.5-2,1.2-2.7,2.1c-0.7,0.9-1.2,2-1.6,3.2c-0.4,1.2-0.5,2.6-0.5,4c0,2.9,0.7,5.2,2.1,7.1C893.8,244.7,896,245.6,899.1,245.6
			z"/>
	</g>
</g>
</svg>
