<svg id="Layer_1" data-name="Layer 1" xmlns="http://www.w3.org/2000/svg" viewBox="0 0 79 73"><defs><style>.cls-1{fill:#188bf5;}</style></defs><path class="cls-1" d="M45.55,46h-2.1a.45.45,0,0,1-.45-.45v-5.3a.25.25,0,0,0-.25-.25H23.45a.45.45,0,0,1-.45-.45V20.45a.45.45,0,0,1,.45-.45h22.1a.45.45,0,0,1,.45.45v16.3a.25.25,0,0,0,.25.25h15.3a.45.45,0,0,1,.45.45v2.1a.45.45,0,0,1-.45.45H46.25a.25.25,0,0,0-.25.25v5.3A.45.45,0,0,1,45.55,46ZM26.2,37H42.8a.2.2,0,0,0,.2-.2V23.2a.2.2,0,0,0-.2-.2H26.2a.2.2,0,0,0-.2.2V36.8A.2.2,0,0,0,26.2,37Z"/><circle class="cls-1" cx="44.5" cy="52.98" r="3.5"/></svg>