<?xml version="1.0" encoding="utf-8"?>
<!-- Generator: Adobe Illustrator 22.1.0, SVG Export Plug-In . SVG Version: 6.00 Build 0)  -->
<svg version="1.1" id="Layer_1" xmlns="http://www.w3.org/2000/svg" xmlns:xlink="http://www.w3.org/1999/xlink" x="0px" y="0px"
	 viewBox="0 0 138.9 28.7" style="enable-background:new 0 0 138.9 28.7;" xml:space="preserve">
<style type="text/css">
	.st0{fill:#449464;}
</style>
<title>Asset 1</title>
<g id="Layer_2_1_">
	<g id="Layer_1-2">
		<path class="st0" d="M1.8,7.6C1.5,8.2,1.2,8.8,1,9.4c0.1,0,0.2-0.1,0.3-0.1c0.4-0.1,0.8-0.4,0.9-0.9C2.3,8.1,2,7.8,1.8,7.6"/>
		<path class="st0" d="M12.7,8.8c-0.1-0.6-0.5-1.1-1.1-1.4c-1-0.4-2.1-0.4-3.2,0C8,7.6,7.5,7.7,7.1,7.7C6.4,7.8,5.6,7.5,5.1,7
			C4.6,6.5,4.2,5.9,4,5.2c0-0.1-0.1-0.3-0.1-0.5C3.3,5.3,2.8,6,2.4,6.7c0.1,0.4,0.3,1,0.4,1.2c0.1,0.5,0.4,1,0.9,1.2
			c1.2,0.5,2.1,1.4,2.5,2.6c0,0.1,0.1,0.2,0.1,0.4c0.1,0.5,0.6,0.9,1.1,1c0.5,0.1,1,0.2,1.5,0.4c0.5,0.3,0.9,0.6,1.3,0.9
			c0.4,0.3,0.7,0.6,1,0.9c0.1,0.1,0.2,0.1,0.3,0c0,0,0.1-0.1,0.1-0.1c0.1-0.2,0.2-0.5,0.3-0.7c0.4-0.9,0.6-1.9,0.8-2.9
			C12.8,10.7,12.8,9.7,12.7,8.8"/>
		<path class="st0" d="M15.3,1.2C15.2,1,15.1,0.8,15,0.6c-0.1-0.2-0.2-0.4-0.3-0.6h-0.1c-1.8,0-3.6,0.4-5.2,1c0,0.1,0,0.3,0,0.4
			c0,0.1,0.1,0.3,0.1,0.4C9.5,2.4,9.7,3,10,3.5c0.5,0.8,1.2,1.3,2.1,1.5c0.1,0,1.1-0.1,1.3-0.6s0.4-0.8,0.6-1.2
			c0.2-0.4,0.5-0.7,0.8-0.8C15.5,2.1,15.6,1.8,15.3,1.2"/>
		<path class="st0" d="M26,5.3c0,0.1-0.3,0.4-0.4,0.4c-0.2,0.1-0.5,0.2-0.7,0.2c-0.6,0.1-1.1,0.3-1.5,0.7c-0.3,0.3-0.5,0.6-0.7,0.9
			c-0.1,0.3-0.2,0.6-0.2,0.9c-0.2,0.9-0.3,1.8-0.2,2.7c0,0.3,0.3,0.6,0.6,0.6c0.6,0.2,1.2,0.2,1.8,0c0.4-0.2,0.7-0.6,0.8-1.1
			c0.1-0.5,0.2-1,0.3-1.4C26,8.7,26.4,8.1,27,7.8c0.2-0.1,0.3-0.1,0.5-0.1C27.1,6.8,26.6,6,26,5.3"/>
		<path class="st0" d="M28.4,18.2c-0.2,0.1-0.4,0.2-0.7,0.2c-0.5-0.1-1,0-1.5,0.1c-0.5,0.2-0.8,0.6-0.9,1.1
			c-0.1,0.3,0.1,0.7,0.4,0.8c0.6,0.3,1.3,0.3,1.9,0c0.2-0.1,0.5-0.2,0.7-0.2c0.3-0.7,0.5-1.4,0.7-2.1C28.8,18.1,28.5,18.2,28.4,18.2
			"/>
		<path class="st0" d="M4.4,12.8C4.2,12,3.7,11.3,3,10.9c-0.3-0.1-0.7-0.2-1-0.2c-0.2,0-1,0-1.4,0C0.2,12,0,13.2,0,14.5l0,0
			c0.2,0,1,0.4,1.2,0.4C2.1,15,3,14.8,3.7,14.2c0.2-0.2,0.4-0.3,0.6-0.5S4.4,13.1,4.4,12.8"/>
		<path class="st0" d="M0.1,16.1L0.1,16.1c0.1,1.1,0.3,2.2,0.7,3.3c0,0,0.3-0.2,0.4-0.3C1.7,18.6,2,18,2.1,17.3
			C1.9,16.7,0.4,16.4,0.1,16.1"/>
		<path class="st0" d="M26.1,22.2c-0.4-0.2-0.9-0.4-1.3-0.6c-0.3-0.2-0.6-0.5-0.9-0.8c-0.2-0.2-0.6-0.3-0.9-0.4
			c-0.9,0-1.8,0.1-2.7,0.2c-1,0.2-1.9,0.8-2.5,1.7c-0.3,0.4-0.5,0.8-0.6,1.2c-0.4,1.2,0.2,2.5,1.4,2.9c0.6,0.2,1.2,0.4,1.7,0.7
			l1,0.6c2.5-1.3,4.5-3.2,6-5.6C26.9,22.3,26.4,22.4,26.1,22.2"/>
		<path class="st0" d="M28,8.5c0.4,0.8,0.7,1.7,0.9,2.6l-0.4-0.2c-0.1,0-0.2-0.1-0.3-0.1c-0.4-0.1-0.7-0.2-1.1-0.4
			C27.1,10.3,27,10.2,27,10c0.1-0.5,0.3-1,0.7-1.4C27.8,8.5,27.9,8.5,28,8.5z"/>
		<path class="st0" d="M24,3.3c0,0.2-0.1,0.4-0.1,0.5c-0.2,0.4-0.1,1.1,0.4,1.1c0.2,0,0.4-0.1,0.6-0.2c0.1,0,0.3-0.2,0.4-0.2
			C24.9,4.1,24.4,3.7,24,3.3"/>
		<path class="st0" d="M12.4,24.1c-0.2-1.1-0.6-2.3-0.8-3.4c-0.1-0.5-0.2-1.1-0.3-1.6c0-0.3-0.2-0.7-0.4-0.9
			c-0.4-0.4-0.9-0.8-1.3-1.2c-0.5-0.4-1.2-0.8-1.8-1c-0.7-0.2-1.5-0.2-2.2,0.1c-0.8,0.2-1.5,0.8-1.8,1.6c-0.2,0.7-0.5,1.4-0.8,2
			c-0.5,0.4-1,0.7-1.6,0.9H1.3c1.4,3,3.7,5.5,6.6,7L9,27.2c0.5-0.2,1.1-0.3,1.6-0.5c0.7-0.2,1.2-0.6,1.6-1.2
			C12.4,25,12.4,24.6,12.4,24.1"/>
		<path class="st0" d="M8.7,3.3C8.5,2.7,8.3,2.1,8.2,1.5c-1.5,0.7-2.8,1.7-4,2.8C4.4,4.5,4.9,5.1,5,5.2c0.3,0.3,0.6,0.5,1,0.6
			c0.5,0.1,1.1,0.1,1.6-0.1c0.5-0.2,0.9-0.6,1.1-1C8.9,4.3,8.9,3.8,8.7,3.3"/>
		<path class="st0" d="M21.4,1.7c-0.2,0.4-0.4,0.7-0.6,1c-0.1,0.2-0.3,0.4-0.6,0.5c-0.7,0.2-1.4,0.3-2.1,0.5
			c-0.6,0.1-1.1,0.2-1.7,0.4c-0.8,0.3-1.4,1-1.6,1.8c-0.2,0.7-0.2,1.5,0,2.2c0.2,0.9,0.4,1.8,0.5,2.7c0,0.4,0.2,0.9,0.6,0.8
			c0.9-0.4,1.8-0.5,2.7-0.4c0.5,0.1,1.4-0.2,1.4-0.7c0.1-0.8,0.1-1.6,0.2-2.4c0.1-1.3,0.8-2.5,1.9-3.2c0.3-0.2,0.5-0.4,0.5-0.8
			c0-0.3,0.1-0.7,0.2-1c0.1-0.1,0.2-0.2,0.3-0.3C22.6,2.3,22.1,2,21.4,1.7"/>
		<path class="st0" d="M29.1,12.2c-0.2,0-0.7-0.1-0.7-0.1c-0.6-0.2-1.2,0.1-1.6,0.5c-0.3,0.3-0.6,0.5-0.9,0.8
			c-1.7,0.7-3.6,1-5.5,0.9c-0.2,0-1.8-0.3-2.4-0.3c-1-0.1-1.9,0.4-2.4,1.2c-0.2,0.4-0.4,0.8-0.5,1.2c-0.2,0.5-0.3,1-0.2,1.5
			c0,0.5,0.2,1.1,0.5,1.5c0.2,0.3,0.6,0.4,1,0.3c0.4-0.1,0.9-0.3,1.3-0.6c1.4-0.9,3-1.2,4.6-0.9c0.5,0.1,1.1,0,1.5-0.3
			c0.4-0.3,0.8-0.6,1.2-0.9c0.4-0.2,0.8-0.4,1.3-0.3c0.5,0,0.9,0,1.4,0.1c0.5,0,0.9-0.2,1.3-0.5l0.2-0.1c0-0.5,0.1-1.1,0.1-1.6
			C29.3,13.9,29.3,13.1,29.1,12.2"/>
		<path class="st0" d="M15.6,0c0.2,0.3,0.4,0.5,0.6,0.8c0.1,0.2,0.2,0.5,0.3,0.7c0,0.2,0.3,0.4,0.5,0.4c0.8-0.1,1.6-0.2,2.4-0.3
			c0.3-0.1,0.5-0.2,0.7-0.4c0.1-0.1,0.2-0.1,0.3-0.1C18.9,0.5,17.3,0.1,15.6,0"/>
		<path class="st0" d="M35.8,26.2V1.3c0-0.3,0.3-0.5,1-0.6c0.7-0.1,1.4-0.2,2.1-0.2C39.6,0.6,40,1,40,1.8v8.1c1.7-1,3.6-1.5,5.5-1.5
			c0.8,0,1.7,0.1,2.5,0.4c0.6,0.2,1.2,0.6,1.6,1c0.4,0.4,0.8,1,1,1.6c0.2,0.6,0.4,1.2,0.5,1.9c0.1,0.7,0.1,1.4,0.1,2.1v6.6
			c0,0.9-0.1,1.9-0.3,2.8c-0.2,0.8-0.6,1.5-1.2,2.1c-0.6,0.7-1.4,1.2-2.3,1.4c-1.2,0.3-2.4,0.5-3.7,0.5c-3.2,0-5.6-0.4-7.1-1.2
			c-0.3-0.1-0.5-0.3-0.7-0.5C35.9,26.7,35.8,26.5,35.8,26.2z M40,24.7c0,0.1,0.2,0.1,0.5,0.2c0.5,0.1,0.9,0.2,1.4,0.2
			c0.5,0.1,1.1,0.1,1.6,0.1c0.6,0,1.3-0.1,1.9-0.3c0.4-0.1,0.8-0.4,1.1-0.8c0.2-0.3,0.3-0.6,0.4-1c0.1-0.4,0.1-0.8,0.1-1.2v-6.5
			c0-0.4,0-0.8-0.1-1.2c-0.1-0.3-0.2-0.7-0.3-1c-0.2-0.3-0.5-0.6-0.8-0.8c-0.4-0.2-0.9-0.3-1.4-0.3c-1,0-1.9,0.2-2.8,0.5
			c-1,0.3-1.5,0.6-1.6,0.8L40,24.7z"/>
		<path class="st0" d="M55.1,21.8v-6.5c0-2.6,0.6-4.4,1.8-5.4c1.2-1,3.2-1.5,6.1-1.5h0.2c1.2,0,2.4,0.1,3.6,0.3
			c0.9,0.2,1.7,0.6,2.4,1.1c0.7,0.6,1.2,1.3,1.4,2.2c0.3,1.1,0.5,2.2,0.4,3.3v6.5c0,1.1-0.1,2.2-0.4,3.3c-0.3,0.8-0.8,1.6-1.4,2.1
			c-0.7,0.6-1.6,0.9-2.4,1.1c-1.2,0.2-2.4,0.4-3.6,0.3H63c-2.9,0-4.9-0.5-6.1-1.5S55.1,24.4,55.1,21.8z M59.2,21.8
			c-0.1,0.9,0.2,1.8,0.8,2.5c0.9,0.6,1.9,0.8,2.9,0.7h0.3c1,0.1,2-0.1,2.9-0.7c0.6-0.7,0.9-1.5,0.8-2.4v-6.5
			c0.1-0.9-0.2-1.8-0.8-2.5c-0.9-0.6-1.9-0.8-2.9-0.7h-0.3c-1-0.1-2,0.1-2.9,0.7c-0.6,0.7-0.9,1.6-0.8,2.5L59.2,21.8z"/>
		<path class="st0" d="M75.2,28V11.6c0-0.3,0.3-0.7,0.8-1.1c0.7-0.4,1.4-0.8,2.2-1c1-0.3,2.1-0.6,3.1-0.8c1.2-0.2,2.3-0.3,3.5-0.3
			c0.8,0,1.7,0.1,2.5,0.3c0.6,0.1,1.2,0.4,1.7,0.7c0.4,0.3,0.8,0.8,1,1.3c0.3,0.6,0.4,1.2,0.5,1.8c0.1,0.8,0.1,1.6,0.1,2.4v12.8
			c0,0.3-0.1,0.6-0.4,0.7c-0.2,0.2-0.5,0.2-0.8,0.2c-0.7,0-1.3-0.1-2-0.2c-0.7-0.1-1-0.3-1-0.6V14.8c0.1-0.7-0.1-1.4-0.5-2
			c-0.5-0.5-1.2-0.7-2-0.6c-1,0-2,0.2-3,0.5c-1.1,0.3-1.7,0.6-1.7,0.8v14.3c0,0.3-0.1,0.5-0.3,0.7c-0.2,0.2-0.5,0.3-0.8,0.2
			c-0.7,0-1.3-0.1-2-0.2C75.5,28.4,75.2,28.2,75.2,28z"/>
		<path class="st0" d="M94.3,27.4c0-0.2,0-0.3,0.1-0.5c0.1-0.6,0.2-1.3,0.4-1.9c0.1-0.3,0.4-0.5,0.7-0.5h0.2c1.5,0.2,3,0.3,4.4,0.3
			c1.1,0.1,2.2-0.1,3.2-0.4c0.6-0.2,1.1-0.8,1.1-1.5c0-0.5-0.2-0.9-0.5-1.3c-0.4-0.4-0.9-0.7-1.4-0.9c-0.6-0.2-1.2-0.5-1.9-0.8
			c-0.7-0.3-1.3-0.6-2-0.9c-0.7-0.3-1.3-0.7-1.9-1.2c-0.6-0.5-1.1-1.1-1.4-1.8c-0.4-0.8-0.5-1.7-0.5-2.5c0-0.8,0.1-1.6,0.4-2.3
			c0.2-0.6,0.6-1.1,1.1-1.6c0.5-0.4,1.1-0.7,1.7-0.9c0.6-0.2,1.3-0.4,2-0.4c0.7-0.1,1.4-0.1,2.1-0.1c1.8,0,3.6,0,5.4,0.2
			c0.5,0.1,0.7,0.4,0.7,1.1c0,0.6-0.1,1.3-0.3,1.9c-0.2,0.5-0.4,0.8-0.6,0.8s-0.9,0-1.8-0.1c-0.8-0.1-1.6-0.1-2.3-0.1
			c-1.1,0-2.1,0.1-3.1,0.4c-0.6,0.2-1,0.7-1,1.3c0,0.4,0.2,0.8,0.5,1.1c0.4,0.4,0.9,0.6,1.4,0.8c0.6,0.2,1.2,0.5,1.9,0.7
			c0.7,0.3,1.4,0.6,2,0.9c0.7,0.4,1.3,0.8,1.9,1.2c0.6,0.5,1,1.1,1.3,1.9c0.4,0.8,0.5,1.7,0.5,2.6c0,0.8-0.1,1.6-0.4,2.4
			c-0.2,0.6-0.6,1.2-1.1,1.6c-0.5,0.4-1.1,0.8-1.7,1c-0.6,0.2-1.3,0.4-2,0.5c-0.8,0.1-1.6,0.1-2.3,0.1c-2,0.1-4-0.1-6-0.6
			C94.5,28,94.3,27.8,94.3,27.4z"/>
		<path class="st0" d="M111.2,22.4c0-0.8,0.1-1.6,0.3-2.5c0.2-0.7,0.5-1.3,1-1.8c0.5-0.5,1.2-0.9,1.9-1.1c1-0.3,2-0.4,3-0.4
			c1.6,0,3.3,0.3,4.9,0.7v-2.3c0.1-0.9-0.3-1.9-1-2.5c-1-0.6-2.2-0.9-3.4-0.8c-1.6,0-3.1,0.2-4.7,0.5c-0.3,0-0.6-0.3-0.7-0.8
			c-0.1-0.5-0.2-1-0.2-1.5c0-0.3,0-0.5,0.1-0.8c0.1-0.1,0.2-0.3,0.3-0.3c0.8-0.2,1.6-0.3,2.5-0.4c1.2-0.1,2.4-0.2,3.7-0.2
			c1.1,0,2.2,0.1,3.3,0.3c0.8,0.2,1.6,0.5,2.3,1c0.7,0.5,1.2,1.2,1.4,2c0.3,1.1,0.5,2.2,0.4,3.3v11.5c0,0.3-0.3,0.6-0.9,1
			c-0.9,0.4-1.8,0.7-2.7,0.9c-1.3,0.3-2.5,0.4-3.8,0.4c-2.7,0-4.6-0.5-5.8-1.5C111.8,26.2,111.2,24.6,111.2,22.4z M115.2,22.7
			c-0.1,0.8,0.2,1.7,0.8,2.3c0.8,0.5,1.8,0.7,2.8,0.6c0.7,0,1.3-0.1,2-0.2c0.5-0.1,1-0.2,1.4-0.4v-4.5c-0.5-0.2-1-0.4-1.6-0.4
			c-0.7-0.2-1.5-0.2-2.2-0.3c-0.9-0.1-1.7,0.1-2.5,0.6C115.4,21,115.1,21.9,115.2,22.7L115.2,22.7z"/>
		<path class="st0" d="M130.6,23.5V9.1c0-0.1,0.1-0.3,0.4-0.4c0.3-0.1,0.6-0.2,0.9-0.2l1-0.1h0.8c0.3,0,0.5,0.1,0.8,0.2
			c0.2,0.2,0.3,0.4,0.3,0.7v13.5c0,0.6,0.1,1.1,0.3,1.6c0.3,0.4,0.7,0.6,1.2,0.5c0.1,0,0.7-0.1,1.8-0.3c0.2,0,0.4,0.3,0.6,0.9
			c0.2,0.5,0.3,1,0.3,1.5c0,1.1-1.2,1.7-3.7,1.7c-1.3,0.1-2.5-0.4-3.4-1.2C130.9,26.4,130.4,24.9,130.6,23.5z M130.6,5V1.5
			c0-0.3,0.4-0.5,1-0.6c0.7-0.1,1.3-0.2,2-0.2c0.3,0,0.6,0.1,0.8,0.2c0.2,0.2,0.3,0.4,0.3,0.7v3.1c0,0.3-0.1,0.6-0.3,0.8
			c-0.2,0.2-0.5,0.3-0.8,0.3c-0.7,0-1.3-0.1-2-0.2C131,5.5,130.6,5.3,130.6,5L130.6,5z"/>
	</g>
</g>
</svg>
