<?xml version="1.0" encoding="utf-8"?>
<!-- Generator: Adobe Illustrator 26.3.1, SVG Export Plug-In . SVG Version: 6.00 Build 0)  -->
<svg version="1.1" baseProfile="basic" id="Layer_1"
	 xmlns="http://www.w3.org/2000/svg" xmlns:xlink="http://www.w3.org/1999/xlink" x="0px" y="0px" viewBox="0 0 332.86 74.45"
	 xml:space="preserve">
<style type="text/css">
	.st0{fill:#1CB182;}
	.st1{fill:#252829;}
</style>
<g>
	<path class="st0" d="M22.88,58.53c-1.1,0.59-2.25,0.98-3.48,1.2c-0.97,0.18-1.95,0.2-2.92,0.18c-1.04-0.01-2.07-0.18-3.1-0.31
		c-0.08-0.02-0.15-0.04-0.21-0.08c-0.02-0.01-0.04-0.02-0.06-0.04c-0.02-0.02-0.03-0.03-0.04-0.05c-0.04-0.06-0.06-0.13-0.07-0.21
		c-0.14-1.04-0.3-2.06-0.32-3.11c-0.01-0.98,0.01-1.95,0.18-2.92c0.22-1.23,0.61-2.38,1.2-3.48c0.08-0.15,0.18-0.22,0.31-0.17
		c1.27,0.2,2.6,0.2,3.97,0.04c1.09-0.13,2.16-0.39,3.18-0.87c0.09,0.26,0.13,0.49,0.16,0.75c0.03,0.37,0.14,0.77,0.39,1.04
		c0.28,0.26,0.67,0.37,1.05,0.4c0.26,0.02,0.49,0.07,0.75,0.16c-0.48,1.01-0.74,2.09-0.87,3.17c-0.15,1.37-0.16,2.7,0.04,3.97
		C23.1,58.35,23.03,58.45,22.88,58.53z"/>
	<path class="st0" d="M13.07,59.43c0.01,0.02,0.02,0.03,0.04,0.05"/>
	<path class="st0" d="M25.12,55.04c0.1-1.2,0.42-2.36,0.93-3.45c0.13-0.27,0.3-0.36,0.59-0.35c1.03,0.05,2.07,0.03,3.1-0.1
		c1.45-0.19,2.88-0.51,4.26-1.05c0.79-0.31,1.53-0.73,2.37-1.14c-0.09,1.6,0.19,3.11,0.7,4.57c0.16,0.46,0.34,0.91,0.58,1.32
		c0.11,0.21,0.09,0.36-0.05,0.54c-1.61,2.02-3.53,3.68-5.91,4.74c-1.67,0.74-3.4,1.16-5.24,1.04c-0.26-0.02-0.35-0.1-0.46-0.35
		C25.26,58.95,24.96,57.02,25.12,55.04z"/>
	<path class="st0" d="M40.69,55.62c-0.74-0.97-1.31-2.04-1.67-3.22c-0.33-1.09-0.52-2.22-0.52-3.5c0.08-2.23,0.72-4.42,1.91-6.47
		c0.65-1.11,1.39-2.16,2.1-3.22c0.53-0.78,1.2-1.03,2.04-1.02c0.71,0.01,1.41-0.04,2.11-0.2c0.24-0.06,0.44-0.01,0.55,0.29
		c0.62,1.64,1.49,3.16,2.42,4.65c0.83,1.32,1.73,2.58,2.74,3.76c0.12,0.15,0.08,0.24,0.03,0.35c-0.62,1.21-1.35,2.34-2.24,3.37
		c-1.2,1.38-2.57,2.54-4.13,3.5c-1.47,0.91-3.03,1.6-4.67,2.12C40.95,56.15,40.84,55.82,40.69,55.62z"/>
	<path class="st0" d="M55.28,46.09c1.29-1.96,2.37-4.01,3.09-6.25c0.68-2.04,1.2-5.58,0.7-8.8c-0.48-2.51-1.47-4.82-2.88-6.97
		c-0.99-1.5-2.14-2.86-3.39-4.12l-0.2-0.2c-1.25-1.24-2.59-2.37-4.07-3.35c-2.14-1.41-4.46-2.4-6.97-2.89
		c-3.22-0.5-6.77,0.02-8.8,0.7c-2.24,0.72-4.29,1.8-6.25,3.09c-0.28,0.18-0.27,0.3-0.03,0.52c2.4,2.02,4.95,3.81,7.81,5.13
		c0.53,0.25,1.08,0.46,1.61,0.68c0.81,0.34,1.37,0.58,1.06,1.79c-0.34,1.34-0.46,2.69-0.38,4.05c0.1,1.74,0.35,3.46,0.88,5.13
		c0.04,0.12,0.09,0.21,0.16,0.28c0,0,0.02,0.03,0.04,0.05c0.01,0.01,0.05,0.04,0.05,0.04c0.07,0.06,0.16,0.12,0.28,0.16
		c1.67,0.53,3.39,0.78,5.13,0.88c1.36,0.08,2.71-0.04,4.05-0.38c1.21-0.31,1.45,0.24,1.79,1.06c0.23,0.53,0.43,1.08,0.68,1.61
		c1.32,2.86,3.11,5.41,5.13,7.81C54.97,46.36,55.1,46.37,55.28,46.09z"/>
	<path class="st0" d="M35.83,46.61c-1.64,1.16-3.46,1.84-5.43,2.17c-1.21,0.21-2.43,0.34-3.67,0.3c-0.84-0.03-1.67-0.13-2.51-0.21
		c-0.13-0.02-0.23-0.05-0.31-0.1c-0.02-0.01-0.04-0.03-0.05-0.04l0,0c-0.01-0.02-0.02-0.03-0.03-0.05c-0.05-0.08-0.09-0.18-0.1-0.31
		c-0.08-0.84-0.17-1.67-0.21-2.51c-0.04-1.24,0.09-2.45,0.3-3.67c0.33-1.96,1.01-3.79,2.17-5.43c0.4-0.56,0.86-0.95,1.6-1.08
		c0.95-0.17,1.84-0.59,2.7-1.03c1.51-0.77,2.98-1.63,4.31-2.71c0.26,1.42,0.53,2.79,0.98,4.11c0.08,0.22,0.2,0.41,0.35,0.56
		l0.05,0.05c0.15,0.15,0.34,0.27,0.57,0.36c1.33,0.45,2.7,0.72,4.11,0.98c-1.08,1.34-1.94,2.81-2.71,4.32
		c-0.44,0.85-0.86,1.75-1.03,2.69C36.78,45.75,36.39,46.22,35.83,46.61z"/>
	<path class="st0" d="M13.1,59.48c0.02,0.02,0.04,0.03,0.06,0.04"/>
	<path class="st0" d="M17.56,47.48c1.2-0.1,2.36-0.42,3.45-0.93c0.27-0.13,0.36-0.3,0.35-0.59c-0.05-1.03-0.03-2.07,0.1-3.1
		c0.19-1.45,0.51-2.88,1.05-4.26c0.31-0.79,0.73-1.53,1.14-2.37c-1.6,0.09-3.11-0.19-4.57-0.7c-0.46-0.16-0.91-0.34-1.32-0.58
		c-0.21-0.11-0.36-0.09-0.54,0.05c-2.02,1.61-3.68,3.53-4.74,5.91c-0.74,1.67-1.16,3.4-1.04,5.24c0.02,0.26,0.1,0.35,0.35,0.46
		C13.64,47.33,15.57,47.64,17.56,47.48z"/>
	<path class="st0" d="M16.97,31.91c0.97,0.74,2.04,1.31,3.22,1.67c1.09,0.33,2.22,0.52,3.5,0.52c2.23-0.08,4.42-0.72,6.47-1.91
		c1.11-0.65,2.16-1.39,3.22-2.1c0.78-0.53,1.03-1.2,1.02-2.04c-0.01-0.71,0.04-1.41,0.2-2.11c0.06-0.24,0.01-0.44-0.29-0.55
		c-1.64-0.62-3.16-1.49-4.65-2.42c-1.32-0.83-2.58-1.73-3.76-2.74c-0.15-0.12-0.24-0.08-0.35-0.03c-1.21,0.62-2.34,1.35-3.37,2.24
		c-1.38,1.2-2.54,2.57-3.5,4.13c-0.91,1.47-1.6,3.03-2.12,4.67C16.45,31.64,16.78,31.76,16.97,31.91z"/>
</g>
<g>
	<path class="st1" d="M76.2,24h7.2v10.59h8.02V24h7.2v26.58h-7.2v-9.68h-8.02v9.68h-7.2V24z"/>
	<path class="st1" d="M111.43,49.95c-1.72-0.67-3.18-1.6-4.38-2.79c-1.21-1.19-2.15-2.64-2.82-4.33s-1.01-3.54-1.01-5.53
		s0.34-3.84,1.01-5.54c0.68-1.7,1.62-3.14,2.82-4.34s2.67-2.12,4.38-2.79c1.72-0.67,3.59-1,5.61-1c2,0,3.85,0.33,5.55,1
		s3.16,1.59,4.37,2.78c1.21,1.19,2.15,2.63,2.83,4.34c0.68,1.7,1.02,3.56,1.02,5.57c0,2.01-0.34,3.86-1.02,5.56
		c-0.68,1.7-1.63,3.14-2.83,4.33c-1.21,1.19-2.66,2.11-4.37,2.78c-1.7,0.66-3.56,1-5.55,1C115.02,50.95,113.15,50.62,111.43,49.95z
		 M120.34,43.38c0.98-0.63,1.74-1.47,2.27-2.54c0.53-1.07,0.79-2.25,0.79-3.55c0-1.3-0.27-2.49-0.79-3.55
		c-0.53-1.07-1.28-1.91-2.27-2.54c-0.98-0.63-2.08-0.94-3.31-0.94s-2.33,0.31-3.31,0.93s-1.73,1.47-2.27,2.54
		c-0.54,1.07-0.81,2.26-0.81,3.56c0,1.3,0.27,2.49,0.81,3.55c0.54,1.07,1.3,1.91,2.28,2.54c0.98,0.63,2.08,0.94,3.3,0.94
		C118.25,44.32,119.36,44.01,120.34,43.38z"/>
	<path class="st1" d="M135.4,24h10.34c1.3,0,2.49,0.15,3.55,0.46s1.98,0.74,2.73,1.3c0.75,0.56,1.39,1.23,1.9,2.02
		c0.51,0.79,0.89,1.65,1.12,2.59c0.24,0.94,0.36,1.97,0.36,3.08c0,1.96-0.42,3.63-1.26,5c-0.84,1.37-2.01,2.38-3.51,3.04
		c-1.5,0.66-3.28,0.99-5.33,0.99h-3v8.11h-6.9V24z M144.15,36.31c1.17,0,2.1-0.26,2.8-0.79c0.7-0.52,1.05-1.27,1.05-2.25
		c0-0.86-0.33-1.59-1-2.16c-0.66-0.58-1.61-0.87-2.84-0.87h-1.86v6.06H144.15z"/>
	<path class="st1" d="M162.45,49.89c-1.69-0.71-3.23-1.78-4.62-3.19l4.02-4.95c0.99,1,2.02,1.74,3.1,2.22
		c1.08,0.48,2.07,0.72,2.97,0.72c0.77,0,1.34-0.17,1.72-0.5c0.38-0.33,0.57-0.74,0.57-1.21c0-0.55-0.22-1-0.65-1.34
		c-0.43-0.35-1.34-0.75-2.71-1.21c-0.65-0.22-1.22-0.43-1.73-0.63s-1.05-0.45-1.63-0.75c-0.58-0.3-1.09-0.61-1.52-0.92
		c-0.44-0.32-0.87-0.7-1.29-1.15c-0.42-0.45-0.76-0.93-1.02-1.43s-0.48-1.09-0.64-1.74c-0.16-0.66-0.25-1.36-0.25-2.12
		c0-1.49,0.38-2.83,1.14-4.05c0.76-1.21,1.82-2.17,3.17-2.88c1.35-0.71,2.87-1.08,4.55-1.11c1.77-0.04,3.45,0.26,5.05,0.89
		c1.6,0.63,3.05,1.51,4.36,2.66l-3.95,5.08c-1.12-0.86-2.07-1.48-2.86-1.84c-0.79-0.37-1.52-0.55-2.2-0.55
		c-0.61,0-1.07,0.14-1.39,0.42c-0.32,0.28-0.48,0.66-0.48,1.15c0,0.49,0.23,0.93,0.68,1.32c0.45,0.4,1.31,0.84,2.59,1.32
		c2.24,0.86,3.73,1.49,4.46,1.88c1.61,0.86,2.68,1.94,3.23,3.21c0.37,0.84,0.55,1.83,0.55,2.98c0,0.92-0.11,1.78-0.32,2.58
		s-0.5,1.48-0.88,2.07c-0.37,0.59-0.82,1.12-1.34,1.6c-0.52,0.48-1.08,0.87-1.66,1.19c-0.58,0.32-1.21,0.58-1.88,0.79
		c-0.67,0.21-1.33,0.36-1.97,0.45c-0.64,0.09-1.3,0.14-1.95,0.14C165.88,50.95,164.14,50.6,162.45,49.89z"/>
	<path class="st1" d="M217.79,24l-8.26,26.58h-6.46l-3.95-16.16h-0.07l-4.15,16.16h-6.47L180.19,24h7.58l3.87,14.81h0.09L195.27,24
		h7.49l3.49,14.81h0.09L210.19,24H217.79z"/>
	<path class="st1" d="M227.53,49.95c-1.72-0.67-3.18-1.6-4.38-2.79c-1.21-1.19-2.15-2.64-2.82-4.33s-1.01-3.54-1.01-5.53
		s0.34-3.84,1.01-5.54c0.68-1.7,1.62-3.14,2.82-4.34c1.21-1.19,2.67-2.12,4.38-2.79c1.72-0.67,3.59-1,5.61-1c2,0,3.85,0.33,5.55,1
		s3.16,1.59,4.37,2.78c1.21,1.19,2.15,2.63,2.83,4.34c0.68,1.7,1.02,3.56,1.02,5.57c0,2.01-0.34,3.86-1.02,5.56
		s-1.63,3.14-2.83,4.33c-1.21,1.19-2.66,2.11-4.37,2.78c-1.71,0.66-3.56,1-5.55,1C231.12,50.95,229.25,50.62,227.53,49.95z
		 M236.44,43.38c0.98-0.63,1.74-1.47,2.26-2.54c0.53-1.07,0.79-2.25,0.79-3.55c0-1.3-0.26-2.49-0.79-3.55
		c-0.53-1.07-1.28-1.91-2.26-2.54c-0.98-0.63-2.08-0.94-3.32-0.94c-1.23,0-2.33,0.31-3.31,0.93c-0.97,0.62-1.73,1.47-2.27,2.54
		c-0.54,1.07-0.81,2.26-0.81,3.56c0,1.3,0.27,2.49,0.81,3.55s1.3,1.91,2.28,2.54c0.98,0.63,2.08,0.94,3.3,0.94
		C234.35,44.32,235.45,44.01,236.44,43.38z"/>
	<path class="st1" d="M265.05,50.57l-5-8.11h-1.64v8.11h-6.9V24h10.65c1.63,0,3.07,0.23,4.32,0.7s2.26,1.13,3.03,1.98
		c0.77,0.85,1.35,1.84,1.74,2.98s0.58,2.39,0.58,3.78c0,0.96-0.1,1.85-0.3,2.68s-0.5,1.56-0.89,2.22c-0.39,0.66-0.86,1.24-1.41,1.74
		c-0.55,0.5-1.18,0.92-1.9,1.26l-0.02,0.05l6.01,9.19H265.05z M258.4,36.31h2.16c1.17,0,2.11-0.26,2.82-0.79
		c0.71-0.52,1.07-1.27,1.07-2.25c0-0.86-0.34-1.59-1.01-2.16c-0.68-0.58-1.63-0.87-2.88-0.87h-2.16V36.31z"/>
	<path class="st1" d="M285.54,41.02l-1.52,1.84v7.71h-7.07V24h7.07v8.95h0.07l6.47-8.95h8.99l-9.35,11.36l9.73,15.21h-8.73
		l-5.64-9.55H285.54z"/>
	<path class="st1" d="M306.15,49.89c-1.69-0.71-3.23-1.78-4.62-3.19l4.02-4.95c0.99,1,2.02,1.74,3.1,2.22
		c1.08,0.48,2.07,0.72,2.97,0.72c0.77,0,1.34-0.17,1.72-0.5c0.38-0.33,0.57-0.74,0.57-1.21c0-0.55-0.22-1-0.65-1.34
		c-0.43-0.35-1.34-0.75-2.71-1.21c-0.65-0.22-1.22-0.43-1.73-0.63c-0.5-0.2-1.05-0.45-1.62-0.75c-0.58-0.3-1.09-0.61-1.53-0.92
		c-0.44-0.32-0.87-0.7-1.29-1.15c-0.42-0.45-0.76-0.93-1.02-1.43s-0.47-1.09-0.64-1.74c-0.16-0.66-0.25-1.36-0.25-2.12
		c0-1.49,0.38-2.83,1.14-4.05c0.76-1.21,1.82-2.17,3.17-2.88c1.35-0.71,2.87-1.08,4.55-1.11c1.77-0.04,3.45,0.26,5.05,0.89
		c1.6,0.63,3.05,1.51,4.36,2.66l-3.95,5.08c-1.12-0.86-2.07-1.48-2.86-1.84c-0.79-0.37-1.52-0.55-2.2-0.55
		c-0.61,0-1.07,0.14-1.39,0.42c-0.32,0.28-0.47,0.66-0.47,1.15c0,0.49,0.22,0.93,0.68,1.32c0.45,0.4,1.31,0.84,2.59,1.32
		c2.24,0.86,3.73,1.49,4.46,1.88c1.61,0.86,2.68,1.94,3.23,3.21c0.37,0.84,0.55,1.83,0.55,2.98c0,0.92-0.11,1.78-0.32,2.58
		s-0.5,1.48-0.88,2.07c-0.37,0.59-0.82,1.12-1.34,1.6c-0.52,0.48-1.08,0.87-1.66,1.19c-0.58,0.32-1.21,0.58-1.88,0.79
		c-0.67,0.21-1.33,0.36-1.97,0.45c-0.64,0.09-1.3,0.14-1.95,0.14C309.58,50.95,307.84,50.6,306.15,49.89z"/>
</g>
</svg>
