<svg width="208" height="38" fill="none" xmlns="http://www.w3.org/2000/svg"><path fill-rule="evenodd" clip-rule="evenodd" d="M145.117 14.752h-8.63l-.046 19.745h8.63c1.954.04 3.889-.382 5.648-1.231a9.035 9.035 0 003.807-3.468 9.792 9.792 0 001.355-5.173 9.792 9.792 0 00-1.31-5.174 9.035 9.035 0 00-3.807-3.468 12.42 12.42 0 00-5.647-1.23zm3.659 15.803a8.448 8.448 0 01-3.829.836l-4.733.068V17.904h4.79a8.316 8.316 0 013.829.836 5.955 5.955 0 012.53 2.36 6.943 6.943 0 01.892 3.57 6.943 6.943 0 01-.892 3.57 5.95 5.95 0 01-2.587 2.315zm11.964-.633h9.827l2.022 4.575h3.829l-8.912-19.745h-3.604l-8.889 19.745h3.784l1.943-4.575zm4.981-11.442l3.716 8.63h-7.455l3.739-8.63zm13.96-.621h-6.541v-3.107h16.752v3.107h-6.54v16.638h-3.671V17.86zm12.641 12.063h9.872l1.977 4.575H208l-8.912-19.745h-3.604l-8.878 19.745h3.773l1.943-4.575zm5.015-11.442l3.728 8.63h-7.478l3.75-8.63z" fill="#191C1F"/><path fill-rule="evenodd" clip-rule="evenodd" d="M0 8.11C0 2.79 10.46 0 20.796 0 31.13 0 41.59 2.79 41.59 8.1h-2.948a1.026 1.026 0 00-.102-.351 1.527 1.527 0 00-.203-.373 1.482 1.482 0 00-.305-.373 3.687 3.687 0 00-.373-.35 3.319 3.319 0 00-.599-.418 12.822 12.822 0 00-.104-.063 5.918 5.918 0 01-.359-.23 12.207 12.207 0 00-1.841-.836l-2.395 5.343-.282.62-.18.419c-.017.024-.04.078-.07.15a3.643 3.643 0 01-.236.482c-.395.644-1.208 1.39-2.993.768l-.418-.169h-.113a13.228 13.228 0 00-2.96-.79 4.754 4.754 0 01-.277-.058 2.34 2.34 0 00-.513-.078 29.358 29.358 0 00-3.524-.215h-.17a19.61 19.61 0 00-7.173 1.13l-.463.192c-1.898.666-2.677-.238-3.027-.87l-.249-.53-2.88-6.383A9.285 9.285 0 003.49 7.06l-.101.124a1.66 1.66 0 00-.317.576 4.033 4.033 0 00-.316 1.717 4.869 4.869 0 00.271 1.672c.035.068.061.14.08.215.05.13.127.25.225.35a.62.62 0 00.136.18 9.997 9.997 0 003.806 2.135s.486.192 1.435.452l.723.204c1.974.467 3.978.8 5.998.993a54.45 54.45 0 005.388.272h1.977a37.05 37.05 0 003.388-.226 34.18 34.18 0 006.44-1.13c.17-.047.315-.09.451-.132.125-.037.242-.073.361-.105.12-.032.215-.07.292-.1a.63.63 0 01.194-.058 16.648 16.648 0 002.395-1.006l-1.785 3.954a46.151 46.151 0 01-13.735 1.886c-6.97 0-13.962-1.265-17.803-3.727v1.818c0 2.079 6.947 5.129 17.803 5.129a44.23 44.23 0 0012.108-1.525l-1.558 3.456a50.553 50.553 0 01-10.55 1.05c-6.97 0-13.962-1.276-17.803-3.716v1.808c0 2.09 6.947 5.117 17.803 5.117a50.384 50.384 0 008.968-.768l-1.468 3.253a54.072 54.072 0 01-7.5.508c-6.97 0-13.962-1.276-17.803-3.716v1.807c0 2.101 6.947 5.117 17.769 5.162a50.834 50.834 0 005.964-.327l-1.412 3.117a49.47 49.47 0 01-4.518.204C10.46 37.683 0 34.893 0 29.573V8.11zm12.007 2.598a20.004 20.004 0 017.58-1.558V3.016A43.432 43.432 0 009.15 4.371l2.857 6.337zm9.997-1.558a20.11 20.11 0 017.59 1.558l2.859-6.337a43.455 43.455 0 00-10.449-1.355V9.15zm44.979 19.564l4.032 5.783 3.886.045-4.518-6.483a6.484 6.484 0 003.118-2.406 6.664 6.664 0 001.129-3.83 6.778 6.778 0 00-1.017-3.75 6.54 6.54 0 00-2.869-2.474 10.969 10.969 0 00-4.518-.847h-8.122v19.723h3.672v-5.761h4.45c.252.014.505.014.757 0zm-.926-10.855a5.647 5.647 0 013.637 1.016 3.535 3.535 0 011.242 2.948 3.592 3.592 0 01-1.242 2.915 5.546 5.546 0 01-3.637 1.028h-4.282v-7.907h4.282zM40.483 29.922h9.873l1.976 4.575h3.83l-8.913-19.745h-3.603l-8.89 19.745h3.784l1.943-4.575zm4.936-11.442l3.728 8.63h-7.421l3.693-8.63zm46.415 12.945v3.072H77.025V14.752h14.47v3.073H80.696v5.14h9.523v3.015h-9.523v5.445h11.138zm19.926 3.072V14.752h-3.637v13.374L97.245 14.752h-3.016v19.745h3.637V21.123l10.878 13.374h3.016zm17.012-4.575h-9.873l-1.943 4.575h-3.773l8.811-19.745h3.615l8.901 19.745h-3.829l-1.909-4.575zm-1.243-2.812l-3.728-8.63-3.693 8.63h7.421z" fill="#01A872"/></svg>