<svg id="Layer_1" data-name="Layer 1" xmlns="http://www.w3.org/2000/svg" viewBox="0 0 544.59 345.39"><defs><style>.cls-1{fill:#f60;}.cls-2{fill:#fff;}</style></defs><polygon class="cls-1" points="13.05 224.05 69.42 170.89 69.42 226.33 128.58 170.89 128.58 226.33 188.11 170.89 188.11 182.79 120.77 245.12 120.77 190.05 61.98 245.12 61.98 190.05 13.05 236.14 13.05 224.05"/><path class="cls-2" d="M298.16,148.23c6.85,0,11.49-4.25,11.46-10.47S305,127.48,298,127.51s-11.1,3.9-11.13,10.2C286.85,144.21,291.16,148.23,298.16,148.23Z" transform="translate(-19.1 -9.55)"/><path d="M298.16,148.23c-7,0-11.31-4-11.29-10.52,0-6.3,4.25-10.16,11.13-10.2s11.59,4,11.62,10.25S305,148.22,298.16,148.23Z" transform="translate(-19.1 -9.55)"/><path class="cls-1" d="M228.49,219.44h46v17.4H206.83V131.71h21.66Z" transform="translate(-19.1 -9.55)"/><path class="cls-1" d="M286.42,138.49a10.29,10.29,0,0,1,3.14-7.72q3.15-3,8.56-3a11.84,11.84,0,0,1,8.52,3,11,11,0,0,1,0,15.52,13.35,13.35,0,0,1-17,0A10.22,10.22,0,0,1,286.42,138.49Zm22.17,98.35H287.65V158.71h20.94Z" transform="translate(-19.1 -9.55)"/><path class="cls-1" d="M346,158.71l.65,9q8.37-10.47,22.45-10.47,12.42,0,18.49,7.29t6.21,21.81v50.47H373v-50q0-6.65-2.89-9.64t-9.6-3a14.36,14.36,0,0,0-13.22,7.51v55.09H326.38V158.71Z" transform="translate(-19.1 -9.55)"/><path class="cls-1" d="M457.46,228.9q-7.74,9.39-21.38,9.38-12.56,0-19.17-7.22t-6.75-21.15v-51.2H431v50.53q0,12.22,11.12,12.22,10.61,0,14.58-7.37V158.71h20.94v78.13H458Z" transform="translate(-19.1 -9.55)"/><path class="cls-1" d="M524.2,182l13.14-23.32h22.31L537.41,197l23.18,39.86H538.21l-13.94-24.55-13.86,24.55H488L511.13,197,489,158.71h22.39Z" transform="translate(-19.1 -9.55)"/><path d="M232,353.61V290.93H220.59v-9.54H232V274q0-11.61,6.21-18t17.56-6.34a32.65,32.65,0,0,1,8.47,1.13l-.66,9.95a35.62,35.62,0,0,0-6.68-.6q-6,0-9.28,3.52t-3.27,10.07v7.64h15.42v9.54H244.35v62.68Z" transform="translate(-19.1 -9.55)"/><path d="M318,353.61a26.1,26.1,0,0,1-1.74-7.61A27.53,27.53,0,0,1,295.68,355q-10.68,0-17.52-6a19.56,19.56,0,0,1-6.84-15.32q0-11.28,8.58-17.52T304,309.82h12v-5.67q0-6.48-3.87-10.31T300.76,290a18,18,0,0,0-11.08,3.34q-4.49,3.33-4.48,8.07H272.79A17,17,0,0,1,276.63,291,26.17,26.17,0,0,1,287,283a35,35,0,0,1,14.45-2.94q12.48,0,19.56,6.24t7.34,17.19v33.24q0,10,2.54,15.82v1.07Zm-20.49-9.41a21.71,21.71,0,0,0,11-3,18.25,18.25,0,0,0,7.54-7.81V318.57h-9.68q-22.69,0-22.69,13.28a11.25,11.25,0,0,0,3.87,9.08A14.89,14.89,0,0,0,297.49,344.2Z" transform="translate(-19.1 -9.55)"/><path d="M408.89,318.3q0,16.56-7.61,26.6A24.3,24.3,0,0,1,380.86,355q-13.69,0-21.16-9.68l-.6,8.34H347.75V251.08H360.1v38.25q7.47-9.27,20.62-9.28T401.38,290q7.51,9.94,7.51,27.23Zm-12.35-1.4q0-12.61-4.87-19.49t-14-6.88q-12.21,0-17.55,11.35v31.24q5.67,11.36,17.69,11.35a16,16,0,0,0,13.81-6.88Q396.55,330.72,396.54,316.9Z" transform="translate(-19.1 -9.55)"/><path d="M459.36,292.47a37.24,37.24,0,0,0-6.08-.47q-12.15,0-16.49,10.35v51.26H424.44V281.39h12l.2,8.34q6.07-9.68,17.22-9.68a12.7,12.7,0,0,1,5.48.94Z" transform="translate(-19.1 -9.55)"/><path d="M470.77,262.23a7.38,7.38,0,0,1,1.83-5.07,6.91,6.91,0,0,1,5.45-2.07,7,7,0,0,1,5.47,2.07,7.32,7.32,0,0,1,1.87,5.07,7.31,7.31,0,1,1-14.62,0Zm13.35,91.38H471.77V281.39h12.35Z" transform="translate(-19.1 -9.55)"/><path d="M524,320.17l-7.75,8.08v25.36H503.94V251.08h12.35v62l6.61-7.94,22.5-23.76h15l-28.11,30.17,31.38,42.05H549.2Z" transform="translate(-19.1 -9.55)"/><path d="M187.21,294.92c-29,30.9-80.78,37.23-117.49,14.29-22.53-14.07-36-33.78-37-61-.12-3.11.09-116.49.09-116.49H19.25c-.05,1-.12,1.65-.12,2.31,0,38.17-.1,76.35.06,114.52a73.84,73.84,0,0,0,2,17c6.83,28,24.44,47.18,49.76,59.86a12.54,12.54,0,0,0,5.35,1.05c9.27.13,17.9,2.2,25.59,7.63a8,8,0,0,0,4,1.59c7,.36,14.09.8,21.12.62,3.75-.1,8-.48,11.09-2.33a48.2,48.2,0,0,1,25.3-7.35,10.74,10.74,0,0,0,4.59-1c23.17-11.46,40.05-28.69,48.37-53.52A90.29,90.29,0,0,0,220,248.13H206.7S206.19,275.94,187.21,294.92Z" transform="translate(-19.1 -9.55)"/><path d="M189.56,66.84c-3.13-5-5.8-9.85-9.17-14.22a23.09,23.09,0,0,0-7.46-5.81c-5-2.7-6.26-2.3-10.36,1.7C147.82,62.86,129.94,67.6,110,64.64c-11.28-1.67-22.34-4.76-33.55-7A47.47,47.47,0,0,0,66.58,57a8.09,8.09,0,0,0-7.68,4.85c-2.07,4.64-5.47,6.42-10.4,5.88-2.72-.3-5.48-.37-8.55-.56A40.67,40.67,0,0,1,53.82,42.32c10.68-9.39,23.71-14,37-17.89,6.62-1.95,13.38-3.46,20-5.49,5.91-1.82,11.7-4.07,17.93-6.27,2.68,2.74,2.56,6.24-.29,10.32a41.06,41.06,0,0,0,21.61-9.47,12.88,12.88,0,0,0,2.8-2.69c3.7.55,7,3.9,7.1,7.39a20,20,0,0,1-.73,3.8A69,69,0,0,0,186.1,9.55C190.9,16.2,189.43,22,180.17,33c14.54,6.5,19.12,18.76,19.51,33.83Z" transform="translate(-19.1 -9.55)"/><path d="M39.05,79.78c20.34-3.32,40.24-7.06,60.51-2.68,5.19,1.12,10.26,3.38,15.46,3.68,6,.35,12.44.15,18.1-1.65C146.27,75,159.56,74.54,173,75.77c8.59.79,17.1,2.46,25.67,3.56,2.25.28,2.86,1.21,2.84,3.32,0,3.81.53,7.46-3.87,9.94-1.66.94-2.33,4.25-2.77,6.6-.73,3.9-.66,8-1.38,11.85-1.67,9.18-7.4,14.55-16.5,16.06a85.73,85.73,0,0,1-30.18-.36c-7.76-1.47-13-5.92-15.45-13.37-1.45-4.41-2.44-9-3.68-13.44-1.3-4.67-3.86-7-7.6-6.85-4.38.16-6.19,3.16-7.22,6.84-1.11,4-2,8-3.13,11.93-2.5,8.65-8.19,14.31-17.16,15a155,155,0,0,1-29,0c-10.75-1.17-16.09-8.19-17.29-19.76a68.81,68.81,0,0,1-.44-7.17,10.16,10.16,0,0,0-5-9.34,4.66,4.66,0,0,1-1.7-3.15A74.31,74.31,0,0,1,39.05,79.78Zm37.22,42c3.73,0,8.8-.47,13-.91,7.71-.81,12.79-4.81,14.54-12.56.88-3.88,1.88-7.74,2.54-11.66,1.1-6.59-.6-10.11-6.79-12.12-13.14-4.25-26.47-3.81-39.65-.07a9.29,9.29,0,0,0-7.12,9.14,102.6,102.6,0,0,0,.78,15.87c.8,5.79,4.42,9.62,10.3,10.73A72.37,72.37,0,0,0,76.27,121.79Zm87.55-.16c3.05-.22,6.11-.35,9.15-.66,9.28-1,13.78-5.48,14.6-14.82a85.54,85.54,0,0,0,.21-10.74c-.25-6.51-2.29-9.37-8.63-11.31-9.56-2.92-19.41-2.78-29.21-1.71a42.67,42.67,0,0,0-10.66,2.94c-3.82,1.5-6.05,4.61-5.27,8.82a169.65,169.65,0,0,0,4.22,18.13c1.32,4.36,5,7,9.37,7.78A145.22,145.22,0,0,0,163.82,121.63Z" transform="translate(-19.1 -9.55)"/><path d="M107.58,353.1H46.45c.16-6.28,3.24-10.83,7.82-14.49,12-9.6,33-9.75,45.1-.4C104.76,342.35,107.45,347.16,107.58,353.1Z" transform="translate(-19.1 -9.55)"/><path d="M193.37,353.18h-61c0-5.83,2.69-10.07,6.67-13.6,12.42-11,35.62-10.9,47.94.25C190.79,343.33,193.37,347.5,193.37,353.18Z" transform="translate(-19.1 -9.55)"/><path class="cls-1" d="M125.11,147.46l-19.49-19.85c2.78-3.35,5.74-7.25,9.06-10.81a7,7,0,0,1,8.81-1.3c4.71,2.65,9.13,5.81,13.9,8.89C133.15,132.36,129.13,139.92,125.11,147.46Z" transform="translate(-19.1 -9.55)"/><circle cx="64.31" cy="91.24" r="10.04"/><circle cx="137.64" cy="90.6" r="10.04"/></svg>