<?xml version="1.0" encoding="utf-8"?>
<!-- Generator: Adobe Illustrator 23.0.3, SVG Export Plug-In . SVG Version: 6.00 Build 0)  -->
<svg version="1.1" id="Layer_1" xmlns="http://www.w3.org/2000/svg" xmlns:xlink="http://www.w3.org/1999/xlink" x="0px" y="0px"
	 viewBox="0 0 288.9 68" style="enable-background:new 0 0 288.9 68;" xml:space="preserve">
<style type="text/css">
	.st0{fill:#929496;}
	.st1{fill:#787172;}
	.st2{fill:#00A2E2;}
</style>
<title>mcplusa.logo</title>
<path class="st0" d="M9.2,0.9l22.9,40.3L54.9,0.9h9.3v45.9h-6.3V7.2h-0.2L35.1,46.9h-5.9L6.5,7.2H6.3v39.7H0V0.9H9.2z"/>
<path class="st0" d="M126.5,10.2c-1.3-1.4-2.9-2.6-4.6-3.5c-1.9-1-3.9-1.7-6-2.2c-2.3-0.5-4.6-0.7-6.9-0.7
	c-3.8-0.1-7.7,0.5-11.3,1.7c-2.9,1-5.5,2.5-7.7,4.6c-1.9,1.8-3.5,4-4.4,6.4c-1.9,4.7-1.9,10,0,14.7c1,2.5,2.5,4.7,4.4,6.5
	c2.2,2,4.9,3.6,7.7,4.6c3.6,1.2,7.5,1.8,11.3,1.7c2.8,0,5.6-0.3,8.3-1.1c2.3-0.7,4.5-1.7,6.4-3.2c1.7-1.3,3.2-2.8,4.4-4.7
	c1.1-1.8,1.8-3.7,2.1-5.8h6.3c-0.4,2.7-1.4,5.3-2.9,7.6c-1.5,2.3-3.5,4.3-5.7,5.8c-2.5,1.7-5.3,2.9-8.3,3.7c-3.5,0.9-7,1.3-10.6,1.3
	c-4.6,0.1-9.2-0.6-13.7-2c-3.6-1.1-6.9-2.9-9.8-5.2c-2.5-2.1-4.5-4.6-5.9-7.6C75.6,24,78,13.5,85.5,7.2c2.9-2.4,6.2-4.2,9.8-5.3
	c7.4-2.2,15.3-2.6,22.9-1c2.8,0.6,5.6,1.6,8.1,2.9c2.3,1.2,4.4,2.8,6.1,4.7c1.6,1.8,2.7,4.1,3.1,6.4h-6.3
	C128.6,13.2,127.7,11.5,126.5,10.2z"/>
<path class="st1" d="M191.9,46.9h-2l26.7-45.9h2.4l26.1,45.9h-2l-8.7-15.1h-33.7L191.9,46.9z M217.9,2.2h-0.2l-16.3,28.2h32.2
	L217.9,2.2z"/>
<path class="st2" d="M162.2,1.6v21.8h21.7v1.8h-21.7v21.7h-1.8V25.2h-21.7v-1.8h21.7V1.6H162.2z"/>
</svg>
