<svg width="300" height="300" viewBox="0 0 300 300" fill="none" xmlns="http://www.w3.org/2000/svg">
<path d="M150 290C227.32 290 290 227.32 290 150C290 72.6801 227.32 10 150 10C72.6801 10 10 72.6801 10 150C10 227.32 72.6801 290 150 290Z" fill="white" stroke="#7B96A9" stroke-width="6"/>
<path d="M91.2344 144H85.0781L75.1406 126.719H75C75.0417 127.438 75.0781 128.161 75.1094 128.891C75.1406 129.62 75.1719 130.349 75.2031 131.078C75.2344 131.797 75.2656 132.521 75.2969 133.25V144H70.9688V121.156H77.0781L87 138.266H87.1094C87.0885 137.557 87.0625 136.854 87.0312 136.156C87 135.458 86.9688 134.76 86.9375 134.062C86.9167 133.365 86.8958 132.667 86.875 131.969V121.156H91.2344V144Z" fill="#7B96A9"/>
<path d="M117.734 132.547C117.734 134.307 117.516 135.911 117.078 137.359C116.641 138.797 115.974 140.036 115.078 141.078C114.193 142.12 113.068 142.922 111.703 143.484C110.339 144.036 108.724 144.312 106.859 144.312C104.995 144.312 103.38 144.036 102.016 143.484C100.651 142.922 99.5208 142.12 98.625 141.078C97.7396 140.036 97.0781 138.792 96.6406 137.344C96.2031 135.896 95.9844 134.286 95.9844 132.516C95.9844 130.151 96.3698 128.094 97.1406 126.344C97.9219 124.583 99.1198 123.219 100.734 122.25C102.349 121.281 104.401 120.797 106.891 120.797C109.37 120.797 111.406 121.281 113 122.25C114.604 123.219 115.792 124.583 116.562 126.344C117.344 128.104 117.734 130.172 117.734 132.547ZM101.062 132.547C101.062 134.141 101.26 135.516 101.656 136.672C102.062 137.818 102.693 138.703 103.547 139.328C104.401 139.943 105.505 140.25 106.859 140.25C108.234 140.25 109.349 139.943 110.203 139.328C111.057 138.703 111.677 137.818 112.062 136.672C112.458 135.516 112.656 134.141 112.656 132.547C112.656 130.151 112.208 128.266 111.312 126.891C110.417 125.516 108.943 124.828 106.891 124.828C105.526 124.828 104.411 125.141 103.547 125.766C102.693 126.38 102.062 127.266 101.656 128.422C101.26 129.568 101.062 130.943 101.062 132.547Z" fill="#7B96A9"/>
<path d="M130.781 144V121.156H135.625V144H130.781Z" fill="#7B96A9"/>
<path d="M151.047 144L145.547 126.078H145.406C145.427 126.505 145.458 127.151 145.5 128.016C145.552 128.87 145.599 129.781 145.641 130.75C145.682 131.719 145.703 132.594 145.703 133.375V144H141.375V121.156H147.969L153.375 138.625H153.469L159.203 121.156H165.797V144H161.281V133.188C161.281 132.469 161.292 131.641 161.312 130.703C161.344 129.766 161.38 128.875 161.422 128.031C161.464 127.177 161.495 126.536 161.516 126.109H161.375L155.484 144H151.047Z" fill="#7B96A9"/>
<path d="M185.547 144L183.891 138.562H175.562L173.906 144H168.688L176.75 121.062H182.672L190.766 144H185.547ZM182.734 134.5L181.078 129.188C180.974 128.833 180.833 128.38 180.656 127.828C180.49 127.266 180.318 126.698 180.141 126.125C179.974 125.542 179.839 125.036 179.734 124.609C179.63 125.036 179.484 125.568 179.297 126.203C179.12 126.828 178.948 127.422 178.781 127.984C178.615 128.547 178.495 128.948 178.422 129.188L176.781 134.5H182.734Z" fill="#7B96A9"/>
<path d="M202.328 131.172H211.391V143.016C210.193 143.411 208.948 143.729 207.656 143.969C206.365 144.198 204.901 144.312 203.266 144.312C200.995 144.312 199.068 143.865 197.484 142.969C195.901 142.073 194.698 140.75 193.875 139C193.052 137.25 192.641 135.099 192.641 132.547C192.641 130.151 193.099 128.078 194.016 126.328C194.943 124.578 196.292 123.224 198.062 122.266C199.844 121.307 202.016 120.828 204.578 120.828C205.786 120.828 206.979 120.958 208.156 121.219C209.333 121.479 210.401 121.818 211.359 122.234L209.75 126.109C209.052 125.755 208.255 125.458 207.359 125.219C206.464 124.979 205.526 124.859 204.547 124.859C203.141 124.859 201.917 125.182 200.875 125.828C199.844 126.474 199.042 127.38 198.469 128.547C197.906 129.703 197.625 131.068 197.625 132.641C197.625 134.13 197.828 135.453 198.234 136.609C198.641 137.755 199.281 138.656 200.156 139.312C201.031 139.958 202.172 140.281 203.578 140.281C204.266 140.281 204.844 140.25 205.312 140.188C205.792 140.115 206.24 140.042 206.656 139.969V135.203H202.328V131.172Z" fill="#7B96A9"/>
<path d="M230 144H216.844V121.156H230V125.125H221.688V130.141H229.422V134.109H221.688V140H230V144Z" fill="#7B96A9"/>
<path d="M79.4531 188L77.7969 182.562H69.4688L67.8125 188H62.5938L70.6562 165.062H76.5781L84.6719 188H79.4531ZM76.6406 178.5L74.9844 173.188C74.8802 172.833 74.7396 172.38 74.5625 171.828C74.3958 171.266 74.224 170.698 74.0469 170.125C73.8802 169.542 73.7448 169.036 73.6406 168.609C73.5365 169.036 73.3906 169.568 73.2031 170.203C73.026 170.828 72.8542 171.422 72.6875 171.984C72.5208 172.547 72.401 172.948 72.3281 173.188L70.6875 178.5H76.6406Z" fill="#7B96A9"/>
<path d="M105.484 165.156L97.7188 188H92.4375L84.6875 165.156H89.5781L93.875 178.75C93.9479 178.979 94.0677 179.411 94.2344 180.047C94.401 180.672 94.5677 181.339 94.7344 182.047C94.9115 182.745 95.0312 183.323 95.0938 183.781C95.1562 183.323 95.2656 182.745 95.4219 182.047C95.5885 181.349 95.75 180.688 95.9062 180.062C96.0729 179.427 96.1927 178.99 96.2656 178.75L100.594 165.156H105.484Z" fill="#7B96A9"/>
<path d="M122.359 188L120.703 182.562H112.375L110.719 188H105.5L113.562 165.062H119.484L127.578 188H122.359ZM119.547 178.5L117.891 173.188C117.786 172.833 117.646 172.38 117.469 171.828C117.302 171.266 117.13 170.698 116.953 170.125C116.786 169.542 116.651 169.036 116.547 168.609C116.443 169.036 116.297 169.568 116.109 170.203C115.932 170.828 115.76 171.422 115.594 171.984C115.427 172.547 115.307 172.948 115.234 173.188L113.594 178.5H119.547Z" fill="#7B96A9"/>
<path d="M130.469 188V165.156H135.312V188H130.469Z" fill="#7B96A9"/>
<path d="M141.062 188V165.156H145.906V184H155.172V188H141.062Z" fill="#7B96A9"/>
<path d="M173.141 188L171.484 182.562H163.156L161.5 188H156.281L164.344 165.062H170.266L178.359 188H173.141ZM170.328 178.5L168.672 173.188C168.568 172.833 168.427 172.38 168.25 171.828C168.083 171.266 167.911 170.698 167.734 170.125C167.568 169.542 167.432 169.036 167.328 168.609C167.224 169.036 167.078 169.568 166.891 170.203C166.714 170.828 166.542 171.422 166.375 171.984C166.208 172.547 166.089 172.948 166.016 173.188L164.375 178.5H170.328Z" fill="#7B96A9"/>
<path d="M181.25 165.156H188.359C191.401 165.156 193.703 165.583 195.266 166.438C196.828 167.292 197.609 168.792 197.609 170.938C197.609 171.802 197.469 172.583 197.188 173.281C196.917 173.979 196.521 174.552 196 175C195.479 175.448 194.844 175.74 194.094 175.875V176.031C194.854 176.188 195.542 176.458 196.156 176.844C196.771 177.219 197.26 177.771 197.625 178.5C198 179.219 198.188 180.177 198.188 181.375C198.188 182.76 197.849 183.948 197.172 184.938C196.495 185.927 195.526 186.688 194.266 187.219C193.016 187.74 191.526 188 189.797 188H181.25V165.156ZM186.094 174.203H188.906C190.312 174.203 191.286 173.984 191.828 173.547C192.37 173.099 192.641 172.443 192.641 171.578C192.641 170.703 192.318 170.078 191.672 169.703C191.036 169.318 190.026 169.125 188.641 169.125H186.094V174.203ZM186.094 178.047V184H189.25C190.708 184 191.724 183.719 192.297 183.156C192.87 182.594 193.156 181.839 193.156 180.891C193.156 180.328 193.031 179.833 192.781 179.406C192.531 178.979 192.109 178.646 191.516 178.406C190.932 178.167 190.125 178.047 189.094 178.047H186.094Z" fill="#7B96A9"/>
<path d="M202.75 188V165.156H207.594V184H216.859V188H202.75Z" fill="#7B96A9"/>
<path d="M234 188H220.844V165.156H234V169.125H225.688V174.141H233.422V178.109H225.688V184H234V188Z" fill="#7B96A9"/>
</svg>
