<svg id="Layer_1" data-name="Layer 1" xmlns="http://www.w3.org/2000/svg" viewBox="0 0 792 171.65"><defs><style>.cls-1{fill:#191f4d;}.cls-2{fill:#00aeef;}</style></defs><title>PureInsights-Logo</title><path class="cls-1" d="M226.84,58a22.6,22.6,0,0,0-19.47,10l-.45-7.07c-.15-1.17-.74-1.76-1.76-1.76l-7.86,2.91v74.18a1.54,1.54,0,0,0,1.75,1.75h7a1.52,1.52,0,0,0,1.7-1.75V107.67a23.15,23.15,0,0,0,19.13,9.11,26,26,0,0,0,19.84-8.46,29.14,29.14,0,0,0,7.89-20.63q0-12.51-7.89-21.09A25.85,25.85,0,0,0,226.84,58Zm12.37,43.58a17.78,17.78,0,0,1-13.39,5.66,17.42,17.42,0,0,1-13.27-5.66,19.71,19.71,0,0,1-5.29-14,20.41,20.41,0,0,1,5.29-14.2,17.12,17.12,0,0,1,13.27-5.86,17.71,17.71,0,0,1,13.45,5.66,20.1,20.1,0,0,1,5.35,14.37A19.55,19.55,0,0,1,239.21,101.61Z"/><path class="cls-1" d="M310.1,59.16h-7a1.55,1.55,0,0,0-1.75,1.76v34q0,3.73-4.42,8.49a14.69,14.69,0,0,1-11.26,4.76,12.08,12.08,0,0,1-9.37-3.82q-3.48-3.83-3.48-11.12V60.92a1.55,1.55,0,0,0-1.75-1.76H264.2a1.55,1.55,0,0,0-1.75,1.76V94.31q0,11.26,5.63,17.23t15.48,6q11,0,17.83-10.13l.45,6.85c.15,1.17.74,1.76,1.76,1.76h6.5c1.14,0,1.7-.59,1.7-1.76V60.92A1.5,1.5,0,0,0,310.1,59.16Z"/><path class="cls-1" d="M353.52,60a11.09,11.09,0,0,0-7.08-2.09q-8.82,0-14.15,8.2l-.45-5.2c-.15-1.17-.74-1.76-1.75-1.76l-8.1,3v52.1a1.56,1.56,0,0,0,1.76,1.76h7a1.53,1.53,0,0,0,1.7-1.76V80A12.25,12.25,0,0,1,336,71a12,12,0,0,1,8.89-3.6,33,33,0,0,1,3.69.52c.9.16,3.32-5.16,5.46-7.34A1.35,1.35,0,0,0,353.52,60Z"/><path class="cls-1" d="M427.56,59.16h-3.51a1.53,1.53,0,0,0-1.7,1.76v53.31a1.5,1.5,0,0,0,1.7,1.76h3.51a1.55,1.55,0,0,0,1.75-1.76V60.92A1.55,1.55,0,0,0,427.56,59.16Z"/><path class="cls-1" d="M425.91,39.88a4.75,4.75,0,0,0-3.48,1.38,4.61,4.61,0,0,0-1.38,3.37,4.83,4.83,0,0,0,1.33,3.45,4.58,4.58,0,0,0,3.53,1.42,4.37,4.37,0,0,0,3.31-1.39,4.81,4.81,0,0,0,1.34-3.48,4.7,4.7,0,0,0-1.34-3.37A4.4,4.4,0,0,0,425.91,39.88Z"/><path class="cls-1" d="M467.86,57.92q-11.94,0-19.59,11.26v-.11l-.45-8.15c-.15-1.17-.73-1.76-1.75-1.76h-3a1.56,1.56,0,0,0-1.76,1.76v53.31a1.56,1.56,0,0,0,1.76,1.76h3.45a1.55,1.55,0,0,0,1.75-1.76V78.06q0-3,5.47-8.57A17.8,17.8,0,0,1,467,63.91q6.63,0,10.19,4.25t3.56,12v34.07a1.56,1.56,0,0,0,1.76,1.76H486a1.53,1.53,0,0,0,1.7-1.76V80.16q0-11.1-5.27-16.67T467.86,57.92Z"/><path class="cls-1" d="M528.34,88.39q-3.6-1.73-7.81-3.42c-2.81-1.13-5.42-2.1-7.81-2.92a15.63,15.63,0,0,1-6-3.53A7.51,7.51,0,0,1,504.37,73c0-3.09,1.13-5.36,3.39-6.79A13.84,13.84,0,0,1,515.35,64q7.18,0,14.15,6.39,1.53,1.53,2.55.12L533.46,69a1.77,1.77,0,0,0,.11-2.43,24.49,24.49,0,0,0-8.43-6.34,22.57,22.57,0,0,0-9.45-2.26,19.33,19.33,0,0,0-12.79,4.27A13.4,13.4,0,0,0,497.75,73a12.28,12.28,0,0,0,3.31,8.74,21,21,0,0,0,8.06,5.35q4.75,1.81,9.43,3.43a25.62,25.62,0,0,1,8,4.33,8.45,8.45,0,0,1,3.31,6.79,8,8,0,0,1-3.37,6.79c-2.25,1.66-5.25,2.49-9,2.49q-9.29,0-16.47-7.53c-1-1-1.83-1.09-2.43-.22l-2.1,2.32c-.53.6-.45,1.34.23,2.21a28.74,28.74,0,0,0,8.94,6.73,26.37,26.37,0,0,0,11.95,2.72,21.4,21.4,0,0,0,13.38-4.39,13.44,13.44,0,0,0,5.75-11.12,13.86,13.86,0,0,0-2.38-8.07A15.37,15.37,0,0,0,528.34,88.39Z"/><path class="cls-1" d="M551.52,59.16H548a1.53,1.53,0,0,0-1.7,1.76v53.31A1.5,1.5,0,0,0,548,116h3.51a1.55,1.55,0,0,0,1.75-1.76V60.92A1.55,1.55,0,0,0,551.52,59.16Z"/><path class="cls-1" d="M549.88,39.88a4.72,4.72,0,0,0-3.48,1.38A4.58,4.58,0,0,0,545,44.63a4.83,4.83,0,0,0,1.33,3.45,4.6,4.6,0,0,0,3.54,1.42,4.39,4.39,0,0,0,3.31-1.39,4.84,4.84,0,0,0,1.33-3.48,4.73,4.73,0,0,0-1.33-3.37A4.41,4.41,0,0,0,549.88,39.88Z"/><path class="cls-1" d="M617.69,59.16h-3.12c-1,0-1.6.59-1.75,1.76l-.45,7.86Q605.07,58,591.48,58a26.27,26.27,0,0,0-20,8.46,29,29,0,0,0-8,20.63,29,29,0,0,0,8,20.63,26.27,26.27,0,0,0,20,8.46q13.59.06,21-11v10.08q0,8.66-6.42,13a27.27,27.27,0,0,1-15.48,4.3,40.88,40.88,0,0,1-17.78-4c-1.09-.53-1.86-.29-2.32.73l-1,1.93q-.84,1.64.57,2.43,8.38,5.27,21,5.26a33.31,33.31,0,0,0,19.81-6.11q8.6-6.1,8.6-18.17V60.92A1.55,1.55,0,0,0,617.69,59.16Zm-4.64,32.15a22.84,22.84,0,0,1-7.28,13.19,19.91,19.91,0,0,1-13.83,5.32,20.39,20.39,0,0,1-15.54-6.54A22.86,22.86,0,0,1,570.26,87a22.58,22.58,0,0,1,6.19-16.16,20.48,20.48,0,0,1,15.49-6.54,20,20,0,0,1,14.34,5.75,22.79,22.79,0,0,1,7,14.06l.12,2.89Z"/><path class="cls-1" d="M658.16,57.92q-11.94,0-19.58,11.26V36.45a1.55,1.55,0,0,0-1.76-1.75l-5.21,1.87v77.66a1.56,1.56,0,0,0,1.76,1.76h3.45a1.56,1.56,0,0,0,1.76-1.76V78.06c0-2,1.81-4.85,5.46-8.57a17.8,17.8,0,0,1,13.21-5.58q6.63,0,10.19,4.25t3.57,12v34.07a1.55,1.55,0,0,0,1.75,1.76h3.51a1.53,1.53,0,0,0,1.7-1.76V80.16q0-11.1-5.27-16.67T658.16,57.92Z"/><path class="cls-1" d="M710.68,59.16H701.4V43.75A1.5,1.5,0,0,0,699.7,42l-5.21,1.87V59.16h-9.28a1.56,1.56,0,0,0-1.76,1.76v2.54a1.56,1.56,0,0,0,1.76,1.76h9.28v49a1.5,1.5,0,0,0,1.7,1.76h3.51a1.53,1.53,0,0,0,1.7-1.76v-49h9.28a1.55,1.55,0,0,0,1.75-1.76V60.92A1.55,1.55,0,0,0,710.68,59.16Z"/><path class="cls-1" d="M748,88.39q-3.6-1.73-7.81-3.42c-2.81-1.13-5.42-2.1-7.81-2.92a15.51,15.51,0,0,1-6-3.53A7.48,7.48,0,0,1,724,73c0-3.09,1.13-5.36,3.4-6.79A13.81,13.81,0,0,1,735,64q7.18,0,14.15,6.39,1.53,1.53,2.55.12L753.12,69a1.77,1.77,0,0,0,.11-2.43,24.4,24.4,0,0,0-8.43-6.34,22.57,22.57,0,0,0-9.45-2.26,19.35,19.35,0,0,0-12.79,4.27A13.43,13.43,0,0,0,717.41,73a12.28,12.28,0,0,0,3.31,8.74,21.19,21.19,0,0,0,8.06,5.35q4.77,1.81,9.43,3.43a25.62,25.62,0,0,1,8,4.33,8.42,8.42,0,0,1,3.31,6.79,8,8,0,0,1-3.37,6.79q-3.36,2.49-9,2.49-9.29,0-16.47-7.53c-1-1-1.84-1.09-2.44-.22l-2.09,2.32c-.53.6-.46,1.34.22,2.21a28.67,28.67,0,0,0,8.95,6.73,26.32,26.32,0,0,0,11.94,2.72,21.4,21.4,0,0,0,13.38-4.39,13.44,13.44,0,0,0,5.75-11.12A13.79,13.79,0,0,0,754,93.54,15.23,15.23,0,0,0,748,88.39Z"/><path class="cls-1" d="M783.2,58.71h-2.71l-1.63,4.65c-.21.7-.42,1.49-.66,2.36h0c-.24-1-.41-1.66-.62-2.39l-1.63-4.62h-2.82l-.69,9.44h1.81l.34-5.55c0-.87.07-1.77.07-2.64h.1c.21.83.49,1.94.67,2.67l1.7,5.38H779l1.7-5.24c.28-.87.56-2,.8-2.81h.11c0,1,0,1.91.07,2.64l.34,5.55h1.88Z"/><polygon class="cls-1" points="763.92 60.27 766.95 60.27 766.95 68.15 768.82 68.15 768.82 60.27 771.84 60.27 771.84 58.71 763.92 58.71 763.92 60.27"/><path class="cls-1" d="M381.14,58A26.43,26.43,0,0,0,361,66.49q-8,8.46-7.95,20.86a29.06,29.06,0,0,0,8.18,20.91q8.17,8.52,20.8,8.52l.46,0q12.58-.11,20.76-8.64a1.68,1.68,0,0,0,0-2.66l-.14-.14-2.86-2.69a1.68,1.68,0,0,0-2.43.17,23.16,23.16,0,0,1-14.63,5q-8.24,0-13.5-4.47a18.68,18.68,0,0,1-6.39-11.89h41A2.76,2.76,0,0,0,407.08,90a11,11,0,0,0,.71-4.64,27.51,27.51,0,0,0-7.41-19.28Q393,58,381.14,58ZM363.31,83.89a19.24,19.24,0,0,1,5.77-12,17.91,17.91,0,0,1,24.11,0,18.06,18.06,0,0,1,5.43,12Z"/><path class="cls-2" d="M110.1,42.66a5,5,0,1,0,5,5A5,5,0,0,0,110.1,42.66Z"/><path class="cls-2" d="M132.7,81.71a5,5,0,1,0,5,5A5,5,0,0,0,132.7,81.71Z"/><path class="cls-2" d="M37.44,86.71a5,5,0,1,0,5-5A5,5,0,0,0,37.44,86.71Z"/><path class="cls-2" d="M19.44,78.51a5,5,0,1,0-5-5A5,5,0,0,0,19.44,78.51Z"/><path class="cls-2" d="M19.65,94.49a5,5,0,1,0,5,5A5,5,0,0,0,19.65,94.49Z"/><path class="cls-2" d="M86.88,39.88a5,5,0,1,0-5-5A5,5,0,0,0,86.88,39.88Z"/><path class="cls-2" d="M65.16,26.89a5,5,0,1,0-5-5A5,5,0,0,0,65.16,26.89Z"/><path class="cls-2" d="M42.78,29.23a5,5,0,1,0,5,5A5,5,0,0,0,42.78,29.23Z"/><path class="cls-2" d="M41.51,55.44a5,5,0,1,0,5,5A5,5,0,0,0,41.51,55.44Z"/><path class="cls-2" d="M65,52.67a5,5,0,1,0-5-5A5,5,0,0,0,65,52.67Z"/><path class="cls-2" d="M110.11,27.31a5,5,0,1,0-5-5A5,5,0,0,0,110.11,27.31Z"/><path class="cls-2" d="M132.69,39.46a5,5,0,1,0-5-5A5,5,0,0,0,132.69,39.46Z"/><path class="cls-2" d="M132.69,65.87a5,5,0,1,0-5-5A5,5,0,0,0,132.69,65.87Z"/><path class="cls-2" d="M154.85,78.65a5,5,0,1,0-5-5A5,5,0,0,0,154.85,78.65Z"/><path class="cls-2" d="M154.42,94.42a5,5,0,1,0,5,5A5,5,0,0,0,154.42,94.42Z"/><path class="cls-2" d="M110.1,120.87a5,5,0,1,0,5,5A5,5,0,0,0,110.1,120.87Z"/><path class="cls-2" d="M86.88,133.65a5,5,0,1,0,5,5A5,5,0,0,0,86.88,133.65Z"/><path class="cls-2" d="M65.16,146.64a5,5,0,1,0,5,5A5,5,0,0,0,65.16,146.64Z"/><path class="cls-2" d="M42.78,134.28a5,5,0,1,0,5,5A5,5,0,0,0,42.78,134.28Z"/><path class="cls-2" d="M41.51,118.09a5,5,0,1,0-5-5A5,5,0,0,0,41.51,118.09Z"/><path class="cls-2" d="M65,130.88a5,5,0,1,0-5-5A5,5,0,0,0,65,130.88Z"/><path class="cls-2" d="M110.11,146.22a5,5,0,1,0,5,5A5,5,0,0,0,110.11,146.22Z"/><path class="cls-2" d="M132.69,134.08a5,5,0,1,0,5,5A5,5,0,0,0,132.69,134.08Z"/><path class="cls-2" d="M132.69,107.66a5,5,0,1,0,5,5A5,5,0,0,0,132.69,107.66Z"/><path class="cls-2" d="M87.57,77.88a8.84,8.84,0,1,0,8.84,8.83A8.85,8.85,0,0,0,87.57,77.88Z"/><path class="cls-2" d="M87.46,69.84A8.84,8.84,0,1,0,78.62,61,8.85,8.85,0,0,0,87.46,69.84Z"/><circle class="cls-2" cx="110.47" cy="74" r="8.84" transform="matrix(1, 0, 0, 1, -0.35, 0.52)"/><path class="cls-2" d="M110.05,90.72a8.84,8.84,0,1,0,8.84,8.84A8.86,8.86,0,0,0,110.05,90.72Z"/><path class="cls-2" d="M87.46,103.72a8.84,8.84,0,1,0,8.85,8.84A8.85,8.85,0,0,0,87.46,103.72Z"/><path class="cls-2" d="M64.88,90.94a8.84,8.84,0,1,0,8.85,8.84A8.85,8.85,0,0,0,64.88,90.94Z"/><path class="cls-2" d="M65.1,64.73a8.84,8.84,0,1,0,8.84,8.84A8.85,8.85,0,0,0,65.1,64.73Z"/></svg>