<svg xmlns="http://www.w3.org/2000/svg" role="img" viewBox="39.08 -8.42 671.84 311.34"><title>FluentCon-EU-2022-graphics_color-logo.svg</title><defs><clipPath id="clip-path"><path d="M53.10619,68.85862A2.19561,2.19561,0,0,1,52,70.08328" class="cls-1"/></clipPath><clipPath id="clip-path-2"><path d="M275.63857,81.26114h-3.9238c-7.13741-.08878-20.82636.67468-33.23694,11.39857-29.63273,25.65565-36.39729,63.42007-87.10494,83.80255-42.23862,16.97356-94.31338.90549-94.31338.90549s46.46426-3.23137,52.62516-38.68767c4.81154-27.733-20.418-47.423-36.25526-72.43949C57.32582,40.76248,53.189,19.59878,60.9478,10.45507,82.946-15.52016,143.52527,54.7,173.60187,64.16329c29.43743,9.25024,49.305-12.233,73.68233-9.0727,7.7766.99427,11.5761,4.34992,14.0973,8.62883.85223,1.43814,2.94729,6.33846,4.81154,8.14944a33.768,33.768,0,0,0,6.53376,4.42094c2.894,1.70446,5.75256,4.97134,2.91179,4.97134Z" class="cls-1"/></clipPath><clipPath id="clip-path-3"><path d="M136.42336,40.63821C129.1439,35.09872,121.63363,29.2929,114.24764,24.002c-1.669-1.18957-3.3379-2.36139-4.98909-3.49769C89.462,6.95739,71.10353-1.52939,60.94779,10.45508c-7.75884,9.14371-3.622,30.30741,12.49937,55.78552.15979.26632.33734.51489.49713.78121,8.398,12.99649,32.75756,43.44594,90.49611,42.14984,3.79952-4.03034,9.56983-11.64713,17.02683-19.93861C169.37622,69.685,151.15982,52.64044,136.42336,40.63821Z" class="cls-1"/></clipPath><clipPath id="clip-path-4"><path d="M194.62353,132.50143a68.95068,68.95068,0,0,0-4.34992-25.46035,203.97658,203.97658,0,0,1-25.8332,2.13057c-7.0664,7.51027-23.2055,27.57317-49.94419,45.64753-35.59833,24.07548-57.41895,22.54857-57.41895,22.54857s52.09251,16.06807,94.31337-.90549a112.97929,112.97929,0,0,0,35.47406-22.14021c1.49141-1.42038,7.43926-8.84188,7.75883-21.82063Z" class="cls-1"/></clipPath><clipPath id="clip-path-5"><path d="M181.485,89.233c-7.457,8.27372-13.24506,15.90827-17.02683,19.93861a203.41031,203.41031,0,0,0,25.83319-2.13057c-.88774-2.46792-1.91753-4.90032-3.05382-7.29721A112.3035,112.3035,0,0,0,181.485,89.233Z" class="cls-1"/></clipPath><clipPath id="clip-path-6"><path d="M224.77113,57.82483c-15.5887,4.72277-31.15964,12.62365-51.16927,6.33846-9.90717-3.10709-23.13448-12.819-37.1785-23.52508C151.15982,52.64044,169.37622,69.66727,181.485,89.233,192.52846,77,207.26492,63.32882,224.77113,57.82483Z" class="cls-1"/></clipPath><clipPath id="clip-path-7"><path d="M190.29136,107.04108a68.95065,68.95065,0,0,1,4.34992,25.46035c-.33734,12.961-6.2852,20.38249-7.7766,21.82063,21.32348-19.72555,30.85781-43.67675,51.63088-61.66234A45.814,45.814,0,0,1,250.23147,85.256h-.01776c-13.6179,5.717-28.38989,17.02684-59.92237,21.78512Z" class="cls-1"/></clipPath><clipPath id="clip-path-8"><path d="M275.63857,81.26114c2.84077,0-.01775-3.26688-2.894-4.95359a35.447,35.447,0,0,1-6.53376-4.42093c-1.882-1.811-3.97708-6.72906-4.81154-8.14945-2.53895-4.29666-6.3207-7.63455-14.0973-8.62882-7.81211-1.012-15.16259.51489-22.51307,2.73423-17.50621,5.504-32.26042,19.17517-43.30391,31.40821a108.08726,108.08726,0,0,1,5.75255,10.49307c1.13631,2.41464,2.16608,4.847,3.05382,7.29721,31.55023-4.75828,46.30445-16.06808,59.92237-21.78512h.01775a51.48993,51.48993,0,0,1,21.501-3.99482h3.906Z" class="cls-1"/></clipPath><clipPath id="clip-path-9"><path d="M114.49621,154.81918c26.73869-18.07436,42.87779-38.13726,49.94419-45.64753-57.73855,1.2961-82.0981-29.15335-90.49611-42.14984,15.855,24.66138,40.5164,44.22715,35.75813,71.65828-6.16091,35.4563-52.62517,38.68766-52.62517,38.68766S78.89788,178.89466,114.49621,154.81918Z" class="cls-1"/></clipPath><style>.cls-1{fill:none}.cls-4{fill:#2c9ec7}.cls-5{fill:#2c9dc6}.cls-6{fill:#2c9cc6}.cls-7{fill:#2c9bc5}.cls-8{fill:#2c9ac5}.cls-9{fill:#2c99c4}.cls-10{fill:#2c98c3}.cls-11{fill:#2c97c3}.cls-12{fill:#2c96c2}.cls-13{fill:#2c95c2}.cls-14{fill:#2c94c1}.cls-15{fill:#2c93c1}.cls-16{fill:#2c92c0}.cls-17{fill:#2c91bf}.cls-18{fill:#2c90bf}.cls-19{fill:#2c8fbe}.cls-20{fill:#2c8ebe}.cls-21{fill:#2c8dbd}.cls-22{fill:#2c8cbc}.cls-23{fill:#2c8bbc}.cls-24{fill:#2c8abb}.cls-25{fill:#2c89bb}.cls-26{fill:#2c88ba}.cls-27{fill:#2c87ba}.cls-28{fill:#2c86b9}.cls-29{fill:#2c85b8}.cls-30{fill:#2c84b8}.cls-31{fill:#2c83b7}.cls-32{fill:#2c82b7}.cls-33{fill:#2c81b6}.cls-34{fill:#2c7fb5}.cls-35{fill:#2c7eb5}.cls-36{fill:#2c7db4}.cls-37{fill:#2c7cb4}.cls-38{fill:#2c7bb3}.cls-39{fill:#2c7ab2}.cls-40{fill:#2c79b2}.cls-41{fill:#2c78b1}.cls-42{fill:#2c77b1}.cls-43{fill:#2c76b0}.cls-44{fill:#2c75b0}.cls-45{fill:#2c74af}.cls-46{fill:#2c73ae}.cls-47{fill:#2c72ae}.cls-48{fill:#2c71ad}.cls-49{fill:#2c70ad}.cls-50{fill:#2c6fac}.cls-51{fill:#2c6eab}.cls-52{fill:#2c6dab}.cls-53{fill:#2c6caa}.cls-54{fill:#2c6baa}.cls-55{fill:#2c6aa9}.cls-56{fill:#2c69a9}.cls-57{fill:#2c68a8}.cls-58{fill:#2c67a7}.cls-59{fill:#2c66a7}.cls-60{fill:#2c65a6}.cls-61{fill:#2c64a6}.cls-62{fill:#2c63a5}.cls-64{fill:#2a59a2}</style></defs><path d="M54.275 216.954H698.4359999999999V217.637H54.275z"/><g opacity=".71"><g clip-path="url(#clip-path)"><path d="M52 68.859H52.019V70.08399999999999H52z" class="cls-4"/><path d="M52.019 68.859H52.038V70.08399999999999H52.019z" class="cls-5"/><path d="M52.038 68.859H52.056999999999995V70.08399999999999H52.038z" class="cls-6"/><path d="M52.056 68.859H52.074999999999996V70.08399999999999H52.056z" class="cls-7"/><path d="M52.075 68.859H52.094V70.08399999999999H52.075z" class="cls-8"/><path d="M52.094 68.859H52.113V70.08399999999999H52.094z" class="cls-9"/><path d="M52.112 68.859H52.131V70.08399999999999H52.112z" class="cls-10"/><path d="M52.131 68.859H52.15V70.08399999999999H52.131z" class="cls-11"/><path d="M52.15 68.859H52.169V70.08399999999999H52.15z" class="cls-12"/><path d="M52.169 68.859H52.187999999999995V70.08399999999999H52.169z" class="cls-13"/><path d="M52.187 68.859H52.205999999999996V70.08399999999999H52.187z" class="cls-14"/><path d="M52.206 68.859H52.225V70.08399999999999H52.206z" class="cls-15"/><path d="M52.225 68.859H52.244V70.08399999999999H52.225z" class="cls-16"/><path d="M52.244 68.859H52.263V70.08399999999999H52.244z" class="cls-17"/><path d="M52.262 68.859H52.281V70.08399999999999H52.262z" class="cls-18"/><path d="M52.281 68.859H52.3V70.08399999999999H52.281z" class="cls-19"/><path d="M52.3 68.859H52.318999999999996V70.08399999999999H52.3z" class="cls-20"/><path d="M52.319 68.859H52.338V70.08399999999999H52.319z" class="cls-21"/><path d="M52.337 68.859H52.356V70.08399999999999H52.337z" class="cls-22"/><path d="M52.356 68.859H52.375V70.08399999999999H52.356z" class="cls-23"/><path d="M52.375 68.859H52.394V70.08399999999999H52.375z" class="cls-24"/><path d="M52.394 68.859H52.413V70.08399999999999H52.394z" class="cls-25"/><path d="M52.412 68.859H52.431V70.08399999999999H52.412z" class="cls-26"/><path d="M52.431 68.859H52.449999999999996V70.08399999999999H52.431z" class="cls-27"/><path d="M52.45 68.859H52.469V70.08399999999999H52.45z" class="cls-28"/><path d="M52.469 68.859H52.488V70.08399999999999H52.469z" class="cls-29"/><path d="M52.487 68.859H52.506V70.08399999999999H52.487z" class="cls-30"/><path d="M52.506 68.859H52.525V70.08399999999999H52.506z" class="cls-31"/><path d="M52.525 68.859H52.544V70.08399999999999H52.525z" class="cls-32"/><path d="M52.544 68.859H52.562999999999995V70.08399999999999H52.544z" class="cls-33"/><path d="M52.562 68.859H52.580999999999996V70.08399999999999H52.562z" class="cls-34"/><path d="M52.581 68.859H52.6V70.08399999999999H52.581z" class="cls-35"/><path d="M52.6 68.859H52.619V70.08399999999999H52.6z" class="cls-36"/><path d="M52.619 68.859H52.638V70.08399999999999H52.619z" class="cls-37"/><path d="M52.637 68.859H52.656V70.08399999999999H52.637z" class="cls-38"/><path d="M52.656 68.859H52.675V70.08399999999999H52.656z" class="cls-39"/><path d="M52.675 68.859H52.693999999999996V70.08399999999999H52.675z" class="cls-40"/><path d="M52.694 68.859H52.713V70.08399999999999H52.694z" class="cls-41"/><path d="M52.712 68.859H52.731V70.08399999999999H52.712z" class="cls-42"/><path d="M52.731 68.859H52.75V70.08399999999999H52.731z" class="cls-43"/><path d="M52.75 68.859H52.769V70.08399999999999H52.75z" class="cls-44"/><path d="M52.769 68.859H52.788V70.08399999999999H52.769z" class="cls-45"/><path d="M52.787 68.859H52.806V70.08399999999999H52.787z" class="cls-46"/><path d="M52.806 68.859H52.824999999999996V70.08399999999999H52.806z" class="cls-47"/><path d="M52.825 68.859H52.844V70.08399999999999H52.825z" class="cls-48"/><path d="M52.844 68.859H52.863V70.08399999999999H52.844z" class="cls-49"/><path d="M52.862 68.859H52.881V70.08399999999999H52.862z" class="cls-50"/><path d="M52.881 68.859H52.9V70.08399999999999H52.881z" class="cls-51"/><path d="M52.9 68.859H52.919V70.08399999999999H52.9z" class="cls-52"/><path d="M52.919 68.859H52.937999999999995V70.08399999999999H52.919z" class="cls-53"/><path d="M52.937 68.859H52.955999999999996V70.08399999999999H52.937z" class="cls-54"/><path d="M52.956 68.859H52.975V70.08399999999999H52.956z" class="cls-55"/><path d="M52.975 68.859H52.994V70.08399999999999H52.975z" class="cls-56"/><path d="M52.994 68.859H53.013V70.08399999999999H52.994z" class="cls-57"/><path d="M53.012 68.859H53.031V70.08399999999999H53.012z" class="cls-58"/><path d="M53.031 68.859H53.05V70.08399999999999H53.031z" class="cls-59"/><path d="M53.05 68.859H53.068999999999996V70.08399999999999H53.05z" class="cls-60"/><path d="M53.069 68.859H53.088V70.08399999999999H53.069z" class="cls-61"/><path d="M53.087 68.859H53.106V70.08399999999999H53.087z" class="cls-62"/></g></g><g clip-path="url(#clip-path-2)"><path d="M53.189-15.52H57.06V193.43599999999998H53.189zM57.06-15.52H276.81100000000004V193.43599999999998H57.06z" class="cls-64"/><path d="M276.81 -15.52H278.479V193.43599999999998H276.81z" class="cls-64"/></g><g clip-path="url(#clip-path-3)"><path fill="#8fd1f1" d="M53.189 -1.529H53.642V110.468H53.189z"/><path fill="#8ed0f0" d="M53.642 -1.529H55.46V110.468H53.642z"/><path fill="#8dcff0" d="M55.46 -1.529H57.278V110.468H55.46z"/><path fill="#8cceef" d="M57.279 -1.529H59.097V110.468H57.279z"/><path fill="#8bcdee" d="M59.097 -1.529H60.915V110.468H59.097z"/><path fill="#8accee" d="M60.915 -1.529H62.733V110.468H60.915z"/><path fill="#89cbed" d="M62.734 -1.529H64.552V110.468H62.734z"/><path fill="#88caed" d="M64.552 -1.529H66.37V110.468H64.552z"/><path fill="#87c9ec" d="M66.371 -1.529H68.189V110.468H66.371z"/><path fill="#86c8eb" d="M68.189 -1.529H70.00699999999999V110.468H68.189z"/><path fill="#85c7eb" d="M70.008 -1.529H71.826V110.468H70.008z"/><path fill="#84c6ea" d="M71.826 -1.529H73.64399999999999V110.468H71.826z"/><path fill="#83c5ea" d="M73.644 -1.529H75.462V110.468H73.644z"/><path fill="#82c4e9" d="M75.463 -1.529H77.28099999999999V110.468H75.463z"/><path fill="#81c3e8" d="M77.281 -1.529H79.099V110.468H77.281z"/><path fill="#7fc2e8" d="M79.1 -1.529H80.91799999999999V110.468H79.1z"/><path fill="#7ec1e7" d="M80.918 -1.529H82.736V110.468H80.918z"/><path fill="#7dc0e6" d="M82.737 -1.529H84.55499999999999V110.468H82.737z"/><path fill="#7cbfe6" d="M84.555 -1.529H86.373V110.468H84.555z"/><path fill="#7bbee5" d="M86.373 -1.529H88.191V110.468H86.373z"/><path fill="#7abde5" d="M88.192 -1.529H90.00999999999999V110.468H88.192z"/><path fill="#79bce4" d="M90.01 -1.529H91.828V110.468H90.01z"/><path fill="#78bbe3" d="M91.829 -1.529H93.64699999999999V110.468H91.829z"/><path fill="#77bae3" d="M93.647 -1.529H95.465V110.468H93.647z"/><path fill="#76b9e2" d="M95.466 -1.529H97.28399999999999V110.468H95.466z"/><path fill="#75b8e2" d="M97.284 -1.529H99.102V110.468H97.284z"/><path fill="#74b7e1" d="M99.102 -1.529H100.92V110.468H99.102z"/><path fill="#73b6e0" d="M100.921 -1.529H102.739V110.468H100.921z"/><path fill="#72b5e0" d="M102.739 -1.529H104.557V110.468H102.739z"/><path fill="#71b4df" d="M104.558 -1.529H106.376V110.468H104.558z"/><path fill="#70b3df" d="M106.376 -1.529H108.194V110.468H106.376z"/><path fill="#6fb2de" d="M108.195-1.529H110.01299999999999V110.468H108.195zM110.013-1.529H112.293V110.468H110.013z"/><path fill="#6eb1dd" d="M112.293 -1.529H114.57300000000001V110.468H112.293z"/><path fill="#6db0dd" d="M114.572 -1.529H116.852V110.468H114.572z"/><path fill="#6cafdc" d="M116.852 -1.529H119.132V110.468H116.852z"/><path fill="#6baedb" d="M119.131 -1.529H121.411V110.468H119.131z"/><path fill="#6aaddb" d="M121.411 -1.529H123.691V110.468H121.411z"/><path fill="#69acda" d="M123.691 -1.529H125.971V110.468H123.691z"/><path fill="#68abda" d="M125.97 -1.529H128.25V110.468H125.97z"/><path fill="#67aad9" d="M128.25 -1.529H130.53V110.468H128.25z"/><path fill="#66a9d8" d="M130.53 -1.529H132.81V110.468H130.53z"/><path fill="#65a8d8" d="M132.809 -1.529H135.089V110.468H132.809z"/><path fill="#64a7d7" d="M135.089 -1.529H137.369V110.468H135.089z"/><path fill="#63a6d6" d="M137.368 -1.529H139.648V110.468H137.368z"/><path fill="#61a4d6" d="M139.648 -1.529H141.928V110.468H139.648z"/><path fill="#60a3d5" d="M141.928 -1.529H144.208V110.468H141.928z"/><path fill="#5fa2d4" d="M144.207 -1.529H146.487V110.468H144.207z"/><path fill="#5ea1d4" d="M146.487 -1.529H148.767V110.468H146.487z"/><path fill="#5da0d3" d="M148.766 -1.529H151.046V110.468H148.766z"/><path fill="#5c9fd2" d="M151.046 -1.529H153.326V110.468H151.046z"/><path fill="#5b9ed2" d="M153.326 -1.529H155.606V110.468H153.326z"/><path fill="#5a9dd1" d="M155.605 -1.529H157.885V110.468H155.605z"/><path fill="#599cd1" d="M157.885 -1.529H160.165V110.468H157.885z"/><path fill="#589bd0" d="M160.164 -1.529H162.444V110.468H160.164z"/><path fill="#579acf" d="M162.444 -1.529H164.724V110.468H162.444z"/><path fill="#5699cf" d="M164.724 -1.529H167.004V110.468H164.724z"/><path fill="#5598ce" d="M167.003-1.529H169.283V110.468H167.003zM169.283-1.529H172.81599999999997V110.468H169.283z"/><path fill="#5497cd" d="M172.816 -1.529H176.349V110.468H172.816z"/><path fill="#5396cd" d="M176.349 -1.529H179.88199999999998V110.468H176.349z"/><path fill="#5295cc" d="M179.882 -1.529H181.467V110.468H179.882z"/></g><g clip-path="url(#clip-path-4)"><path d="M57.077 107.041H58.592999999999996V193.43599999999998H57.077z" class="cls-4"/><path d="M58.593 107.041H60.109V193.43599999999998H58.593z" class="cls-5"/><path d="M60.109 107.041H61.625V193.43599999999998H60.109z" class="cls-6"/><path d="M61.624 107.041H63.14V193.43599999999998H61.624z" class="cls-7"/><path d="M63.14 107.041H64.656V193.43599999999998H63.14z" class="cls-8"/><path d="M64.656 107.041H66.17200000000001V193.43599999999998H64.656z" class="cls-9"/><path d="M66.172 107.041H67.688V193.43599999999998H66.172z" class="cls-10"/><path d="M67.687 107.041H69.203V193.43599999999998H67.687z" class="cls-11"/><path d="M69.203 107.041H70.71900000000001V193.43599999999998H69.203z" class="cls-12"/><path d="M70.719 107.041H72.235V193.43599999999998H70.719z" class="cls-13"/><path d="M72.234 107.041H73.75V193.43599999999998H72.234z" class="cls-14"/><path d="M73.75 107.041H75.266V193.43599999999998H73.75z" class="cls-15"/><path d="M75.266 107.041H76.78200000000001V193.43599999999998H75.266z" class="cls-16"/><path d="M76.782 107.041H78.298V193.43599999999998H76.782z" class="cls-17"/><path d="M78.297 107.041H79.813V193.43599999999998H78.297z" class="cls-18"/><path d="M79.813 107.041H81.32900000000001V193.43599999999998H79.813z" class="cls-19"/><path d="M81.329 107.041H82.845V193.43599999999998H81.329z" class="cls-20"/><path d="M82.844 107.041H84.36V193.43599999999998H82.844z" class="cls-21"/><path d="M84.36 107.041H85.876V193.43599999999998H84.36z" class="cls-22"/><path d="M85.876 107.041H87.39200000000001V193.43599999999998H85.876z" class="cls-23"/><path d="M87.392 107.041H88.908V193.43599999999998H87.392z" class="cls-24"/><path d="M88.907 107.041H90.423V193.43599999999998H88.907z" class="cls-25"/><path d="M90.423 107.041H91.93900000000001V193.43599999999998H90.423z" class="cls-26"/><path d="M91.939 107.041H93.455V193.43599999999998H91.939z" class="cls-27"/><path d="M93.454 107.041H94.97V193.43599999999998H93.454z" class="cls-28"/><path d="M94.97 107.041H96.486V193.43599999999998H94.97z" class="cls-29"/><path d="M96.486 107.041H98.00200000000001V193.43599999999998H96.486z" class="cls-30"/><path d="M98.002 107.041H99.518V193.43599999999998H98.002z" class="cls-31"/><path d="M99.517 107.041H101.033V193.43599999999998H99.517z" class="cls-32"/><path d="M101.033 107.041H102.549V193.43599999999998H101.033z" class="cls-33"/><path d="M102.549 107.041H104.06500000000001V193.43599999999998H102.549z" class="cls-34"/><path d="M104.065 107.041H105.581V193.43599999999998H104.065z" class="cls-35"/><path d="M105.58 107.041H107.096V193.43599999999998H105.58z" class="cls-36"/><path d="M107.096 107.041H108.61200000000001V193.43599999999998H107.096z" class="cls-37"/><path d="M108.612 107.041H110.128V193.43599999999998H108.612z" class="cls-38"/><path d="M110.127 107.041H111.643V193.43599999999998H110.127z" class="cls-39"/><path d="M111.643 107.041H113.159V193.43599999999998H111.643z" class="cls-40"/><path d="M113.159 107.041H114.67500000000001V193.43599999999998H113.159z" class="cls-41"/><path d="M114.675 107.041H116.191V193.43599999999998H114.675z" class="cls-42"/><path d="M116.19 107.041H117.706V193.43599999999998H116.19z" class="cls-43"/><path d="M117.706 107.041H119.22200000000001V193.43599999999998H117.706z" class="cls-44"/><path d="M119.222 107.041H120.738V193.43599999999998H119.222z" class="cls-45"/><path d="M120.737 107.041H122.253V193.43599999999998H120.737z" class="cls-46"/><path d="M122.253 107.041H123.769V193.43599999999998H122.253z" class="cls-47"/><path d="M123.769 107.041H125.28500000000001V193.43599999999998H123.769z" class="cls-48"/><path d="M125.285 107.041H126.801V193.43599999999998H125.285z" class="cls-49"/><path d="M126.8 107.041H128.316V193.43599999999998H126.8z" class="cls-50"/><path d="M128.316 107.041H129.832V193.43599999999998H128.316z" class="cls-51"/><path d="M129.832 107.041H131.34799999999998V193.43599999999998H129.832z" class="cls-52"/><path d="M131.347 107.041H132.863V193.43599999999998H131.347z" class="cls-53"/><path d="M132.863 107.041H134.379V193.43599999999998H132.863z" class="cls-54"/><path d="M134.379 107.041H135.89499999999998V193.43599999999998H134.379z" class="cls-55"/><path d="M135.895 107.041H137.411V193.43599999999998H135.895z" class="cls-56"/><path d="M137.41 107.041H138.926V193.43599999999998H137.41z" class="cls-57"/><path d="M138.926 107.041H140.44199999999998V193.43599999999998H138.926z" class="cls-58"/><path d="M140.442 107.041H141.958V193.43599999999998H140.442z" class="cls-59"/><path d="M141.957 107.041H143.47299999999998V193.43599999999998H141.957z" class="cls-60"/><path d="M143.473 107.041H144.989V193.43599999999998H143.473z" class="cls-61"/><path d="M144.989 107.041H146.505V193.43599999999998H144.989zM146.505 107.041H156.653V193.43599999999998H146.505z" class="cls-62"/><path fill="#2d63a5" d="M156.653 107.041H166.801V193.43599999999998H156.653z"/><path fill="#2e62a4" d="M166.801 107.041H176.94899999999998V193.43599999999998H166.801z"/><path fill="#2f62a4" d="M176.949 107.041H187.097V193.43599999999998H176.949z"/><path fill="#3061a4" d="M187.098 107.041H194.85500000000002V193.43599999999998H187.098z"/></g><g clip-path="url(#clip-path-5)"><path fill="#3272af" d="M164.458 89.233H183.752V109.172H164.458z"/><path fill="#3370ae" d="M183.752 89.233H190.292V109.172H183.752z"/></g><g clip-path="url(#clip-path-6)"><path fill="#4faac4" d="M136.423 40.638H136.43V89.233H136.423z"/><path fill="#4ea9c4" d="M136.43 40.638H136.437V89.233H136.43z"/><path fill="#4da8c3" d="M136.437 40.638H136.44400000000002V89.233H136.437z"/><path fill="#4da7c3" d="M136.444 40.638H136.451V89.233H136.444z"/><path fill="#4ca6c3" d="M136.451 40.638H136.458V89.233H136.451z"/><path fill="#4ba5c2" d="M136.458 40.638H136.465V89.233H136.458z"/><path fill="#4aa4c2" d="M136.465 40.638H136.472V89.233H136.465z"/><path fill="#49a3c2" d="M136.472 40.638H136.479V89.233H136.472z"/><path fill="#49a2c1" d="M136.479 40.638H136.48600000000002V89.233H136.479z"/><path fill="#48a1c1" d="M136.486 40.638H136.493V89.233H136.486z"/><path fill="#47a0c1" d="M136.493 40.638H136.5V89.233H136.493z"/><path fill="#469fc0" d="M136.5 40.638H136.507V89.233H136.5z"/><path fill="#459ec0" d="M136.507 40.638H136.514V89.233H136.507z"/><path fill="#459dbf" d="M136.514 40.638H136.52100000000002V89.233H136.514z"/><path fill="#449cbf" d="M136.521 40.638H136.528V89.233H136.521z"/><path fill="#439bbf" d="M136.528 40.638H136.535V89.233H136.528z"/><path fill="#429abe" d="M136.535 40.638H136.542V89.233H136.535z"/><path fill="#4199be" d="M136.542 40.638H136.549V89.233H136.542z"/><path fill="#4198be" d="M136.549 40.638H136.556V89.233H136.549z"/><path fill="#4097bd" d="M136.556 40.638H136.56300000000002V89.233H136.556z"/><path fill="#3f96bd" d="M136.563 40.638H136.57V89.233H136.563z"/><path fill="#3e94bd" d="M136.57 40.638H136.577V89.233H136.57z"/><path fill="#3d93bc" d="M136.577 40.638H136.584V89.233H136.577z"/><path fill="#3d92bc" d="M136.584 40.638H136.591V89.233H136.584z"/><path fill="#3c91bc" d="M136.591 40.638H136.598V89.233H136.591z"/><path fill="#3b90bb" d="M136.598 40.638H136.60500000000002V89.233H136.598z"/><path fill="#3a8fbb" d="M136.605 40.638H136.612V89.233H136.605z"/><path fill="#398ebb" d="M136.612 40.638H136.619V89.233H136.612z"/><path fill="#398dba" d="M136.619 40.638H136.626V89.233H136.619z"/><path fill="#388cba" d="M136.626 40.638H136.633V89.233H136.626z"/><path fill="#378bba" d="M136.633 40.638H136.64000000000001V89.233H136.633z"/><path fill="#368ab9" d="M136.64 40.638H136.647V89.233H136.64z"/><path fill="#3589b9" d="M136.647 40.638H136.654V89.233H136.647z"/><path fill="#3588b8" d="M136.654 40.638H136.661V89.233H136.654z"/><path fill="#3487b8" d="M136.661 40.638H136.668V89.233H136.661z"/><path fill="#3386b8" d="M136.668 40.638H136.675V89.233H136.668z"/><path fill="#3285b7" d="M136.675 40.638H136.68200000000002V89.233H136.675z"/><path fill="#3184b7" d="M136.682 40.638H136.689V89.233H136.682z"/><path fill="#3183b7" d="M136.689 40.638H136.696V89.233H136.689z"/><path fill="#3082b6" d="M136.696 40.638H136.703V89.233H136.696z"/><path fill="#2f81b6" d="M136.703 40.638H136.71V89.233H136.703zM136.71 40.638H140.79500000000002V89.233H136.71z"/><path fill="#2f80b6" d="M140.795 40.638H144.88V89.233H140.795z"/><path fill="#307fb5" d="M144.881 40.638H148.966V89.233H144.881z"/><path fill="#307eb5" d="M148.966 40.638H153.05100000000002V89.233H148.966z"/><path fill="#307db4" d="M153.052 40.638H157.137V89.233H153.052z"/><path fill="#317cb4" d="M157.137 40.638H161.222V89.233H157.137z"/><path fill="#317bb4" d="M161.223 40.638H165.30800000000002V89.233H161.223z"/><path fill="#317ab3" d="M165.308 40.638H169.393V89.233H165.308z"/><path fill="#3279b3" d="M169.394 40.638H173.479V89.233H169.394z"/><path fill="#3278b3" d="M173.479 40.638H177.56400000000002V89.233H173.479z"/><path fill="#3377b2" d="M177.565 40.638H181.65V89.233H177.565z"/><path fill="#3376b2" d="M181.65 40.638H185.735V89.233H181.65z"/><path fill="#3375b1" d="M185.736 40.638H189.821V89.233H185.736z"/><path fill="#3474b1" d="M189.821 40.638H193.906V89.233H189.821z"/><path fill="#3473b1" d="M193.907 40.638H197.99200000000002V89.233H193.907z"/><path fill="#3472b0" d="M197.992 40.638H202.077V89.233H197.992z"/><path fill="#3571b0" d="M202.078 40.638H206.163V89.233H202.078z"/><path fill="#3570b0" d="M206.163 40.638H210.24800000000002V89.233H206.163z"/><path fill="#356eaf" d="M210.248 40.638H214.333V89.233H210.248z"/><path fill="#366daf" d="M214.334 40.638H218.419V89.233H214.334z"/><path fill="#366cae" d="M218.419 40.638H222.50400000000002V89.233H218.419z"/><path fill="#366bae" d="M222.505 40.638H224.771V89.233H222.505z"/></g><g clip-path="url(#clip-path-7)"><path fill="#1f3672" d="M186.865 85.256H208.20000000000002V154.322H186.865z"/><path fill="#1f3471" d="M208.2 85.256H243.94799999999998V154.322H208.2z"/><path fill="#203370" d="M243.948 85.256H250.231V154.322H243.948z"/></g><g clip-path="url(#clip-path-8)"><path fill="#305392" d="M181.485 104.457H278.47900000000004V107.041H181.485z"/><path fill="#305291" d="M181.485 101.441H278.47900000000004V104.45700000000001H181.485z"/><path fill="#305290" d="M181.485 98.425H278.47900000000004V101.441H181.485z"/><path fill="#31518f" d="M181.485 95.409H278.47900000000004V98.42500000000001H181.485z"/><path fill="#31508e" d="M181.485 92.394H278.47900000000004V95.41000000000001H181.485z"/><path fill="#324f8c" d="M181.485 89.378H278.47900000000004V92.394H181.485z"/><path fill="#324e8b" d="M181.485 86.362H278.47900000000004V89.378H181.485z"/><path fill="#334d8a" d="M181.485 83.346H278.47900000000004V86.36200000000001H181.485z"/><path fill="#334d89" d="M181.485 80.33H278.47900000000004V83.346H181.485z"/><path fill="#334c88" d="M181.485 77.315H278.47900000000004V80.331H181.485z"/><path fill="#344b87" d="M181.485 74.299H278.47900000000004V77.31500000000001H181.485z"/><path fill="#344a86" d="M181.485 71.283H278.47900000000004V74.299H181.485z"/><path fill="#354985" d="M181.485 68.267H278.47900000000004V71.283H181.485z"/><path fill="#354884" d="M181.485 65.252H278.47900000000004V68.268H181.485z"/><path fill="#364883" d="M181.485 62.236H278.47900000000004V65.252H181.485z"/><path fill="#364782" d="M181.485 59.22H278.47900000000004V62.236H181.485z"/><path fill="#374681" d="M181.485 56.204H278.47900000000004V59.22H181.485z"/><path fill="#374580" d="M181.485 54.096H278.47900000000004V56.20399999999999H181.485z"/></g><g clip-path="url(#clip-path-9)"><path fill="#38afd9" d="M57.077 67.022H58.021V178.895H57.077z"/><path fill="#38aed8" d="M58.021 67.022H60.215V178.895H58.021z"/><path fill="#38add8" d="M60.215 67.022H62.409000000000006V178.895H60.215z"/><path fill="#38acd7" d="M62.408 67.022H64.602V178.895H62.408z"/><path fill="#37abd7" d="M64.602 67.022H66.796V178.895H64.602z"/><path fill="#37aad6" d="M66.796 67.022H68.99000000000001V178.895H66.796z"/><path fill="#37a9d5" d="M68.99 67.022H71.184V178.895H68.99z"/><path fill="#37a8d5" d="M71.183 67.022H73.37700000000001V178.895H71.183z"/><path fill="#37a7d4" d="M73.377 67.022H75.571V178.895H73.377z"/><path fill="#37a6d4" d="M75.571 67.022H77.765V178.895H75.571z"/><path fill="#37a5d3" d="M77.765 67.022H79.959V178.895H77.765z"/><path fill="#37a4d3" d="M79.958 67.022H82.152V178.895H79.958z"/><path fill="#37a3d2" d="M82.152 67.022H84.346V178.895H82.152z"/><path fill="#37a2d1" d="M84.346 67.022H86.54V178.895H84.346z"/><path fill="#37a1d1" d="M86.54 67.022H88.73400000000001V178.895H86.54z"/><path fill="#36a0d0" d="M88.733 67.022H90.927V178.895H88.733z"/><path fill="#369fd0" d="M90.927 67.022H93.12100000000001V178.895H90.927z"/><path fill="#369ecf" d="M93.121 67.022H95.315V178.895H93.121z"/><path fill="#369dcf" d="M95.315 67.022H97.509V178.895H95.315z"/><path fill="#369cce" d="M97.508 67.022H99.702V178.895H97.508z"/><path fill="#369bcd" d="M99.702 67.022H101.896V178.895H99.702z"/><path fill="#369acd" d="M101.896 67.022H104.09V178.895H101.896z"/><path fill="#3699cc" d="M104.089 67.022H106.283V178.895H104.089z"/><path fill="#3698cc" d="M106.283 67.022H108.477V178.895H106.283z"/><path fill="#3697cb" d="M108.477 67.022H110.671V178.895H108.477z"/><path fill="#3696cb" d="M110.671 67.022H112.86500000000001V178.895H110.671z"/><path fill="#3595ca" d="M112.864 67.022H115.058V178.895H112.864z"/><path fill="#3594c9" d="M115.058 67.022H117.25200000000001V178.895H115.058z"/><path fill="#3593c9" d="M117.252 67.022H119.446V178.895H117.252z"/><path fill="#3592c8" d="M119.446 67.022H121.64V178.895H119.446z"/><path fill="#3591c8" d="M121.639 67.022H123.833V178.895H121.639z"/><path fill="#358fc7" d="M123.833 67.022H126.027V178.895H123.833z"/><path fill="#358ec7" d="M126.027 67.022H128.221V178.895H126.027z"/><path fill="#358dc6" d="M128.221 67.022H130.415V178.895H128.221z"/><path fill="#358cc6" d="M130.414 67.022H132.60799999999998V178.895H130.414z"/><path fill="#358bc5" d="M132.608 67.022H134.802V178.895H132.608z"/><path fill="#348ac4" d="M134.802 67.022H136.99599999999998V178.895H134.802z"/><path fill="#3489c4" d="M136.996 67.022H139.19V178.895H136.996z"/><path fill="#3488c3" d="M139.189 67.022H141.38299999999998V178.895H139.189z"/><path fill="#3487c3" d="M141.383 67.022H143.577V178.895H141.383z"/><path fill="#3486c2" d="M143.577 67.022H145.771V178.895H143.577z"/><path fill="#3485c2" d="M145.77 67.022H147.964V178.895H145.77z"/><path fill="#3484c1" d="M147.964 67.022H150.158V178.895H147.964z"/><path fill="#3483c0" d="M150.158 67.022H152.35199999999998V178.895H150.158z"/><path fill="#3482c0" d="M152.352 67.022H154.546V178.895H152.352z"/><path fill="#3481bf" d="M154.545 67.022H156.73899999999998V178.895H154.545z"/><path fill="#3480bf" d="M156.739 67.022H158.933V178.895H156.739z"/><path fill="#337fbe" d="M158.933 67.022H161.12699999999998V178.895H158.933z"/><path fill="#337ebe" d="M161.127 67.022H163.321V178.895H161.127z"/><path fill="#337dbd" d="M163.32 67.022H164.44V178.895H163.32z"/></g><ellipse cx="245.686" cy="68.318" fill="#fff" rx="4.616" ry="4.581"/><path d="M407.87465,115.29A24.98077,24.98077,0,0,0,382.819,140.1573v7.38481a24.99286,24.99286,0,0,0,25.05566,24.86728h15.93766v-9.02381H407.87465A15.93554,15.93554,0,0,1,391.937,148.371H424.6789a8.25726,8.25726,0,0,0,8.27026-8.21373A24.997,24.997,0,0,0,407.87465,115.29ZM391.937,139.34722a15.966,15.966,0,0,1,31.87532,0ZM259.91437,102.93174a19.24353,19.24353,0,0,0-5.50094,13.45094v1.20569h-5.256v9.02382h5.256v45.77839h9.09916V126.61219h12.24525v-9.02382H263.51259v-1.20569a10.17691,10.17691,0,0,1,9.89039-10.19181h6.72547V97.14823H273.403A18.74193,18.74193,0,0,0,259.91437,102.93174Zm34.51276-5.84h9.09916v75.33654h-9.09916Zm64.3535,52.08941a14.318,14.318,0,0,1-28.635,0V115.29h-9.09916v33.89109a23.41745,23.41745,0,0,0,46.83337,0V115.29h-9.09916ZM465.50268,115.29A23.35276,23.35276,0,0,0,442.086,138.51833v33.89108h9.09917V138.51833a14.318,14.318,0,0,1,28.635,0v33.89108h9.09917V138.51833A23.35276,23.35276,0,0,0,465.50268,115.29Zm49.75338,37.90375v-28.8611h12.32061V115.29H515.25606V97.0917h-9.09917V115.29H498.075v9.02381h8.08187v28.8611a18.94257,18.94257,0,0,0,18.98957,18.85768H529.178V162.99h-4.03151A9.83325,9.83325,0,0,1,515.25606,153.19377Z"/><path fill="#34b49b" d="M672.00516 115.98692a23.35276 23.35276 0 0 0-23.41669 23.2283v33.89109h9.09917V139.21522a14.318 14.318 0 0 1 28.635 0v33.89109h9.09917V139.21522A23.35277 23.35277 0 0 0 672.00516 115.98692zM549.0526 147.49606a25.05381 25.05381 0 0 0 1.60294 9.49394 12.63584 12.63584 0 0 0 4.68513 5.95569 13.11794 13.11794 0 0 0 7.41273 2.03966 13.84006 13.84006 0 0 0 6.14217-1.29085 10.82478 10.82478 0 0 0 4.22618-3.56047 11.16671 11.16671 0 0 0 1.916-5.2262h9.2031v.66668a17.37752 17.37752 0 0 1-3.22809 9.07846 19.39063 19.39063 0 0 1-7.59921 6.204 27.17963 27.17963 0 0 1-23.31937-.79132 19.52183 19.52183 0 0 1-7.91226-8.76542 32.08086 32.08086 0 0 1-2.7073-13.80418V139.8756a32.13278 32.13278 0 0 1 2.74885-13.84669 20.07143 20.07143 0 0 1 7.95381-8.91132 24.05542 24.05542 0 0 1 12.53458-3.10248 25.369 25.369 0 0 1 8.30744 1.3121 20.36549 20.36549 0 0 1 6.68324 3.7682 18.53132 18.53132 0 0 1 6.53831 13.20127v.62417h-9.2031a12.35011 12.35011 0 0 0-1.93628-5.55858 11.11537 11.11537 0 0 0-4.2687-3.81071 13.07912 13.07912 0 0 0-6.07936-1.37395 12.66626 12.66626 0 0 0-7.34993 2.10246 13.32284 13.32284 0 0 0-4.70639 6.05908 25.05844 25.05844 0 0 0-1.64448 9.61954zM635.77219 161.57078a19.80622 19.80622 0 0 1-7.947 8.576 26.85665 26.85665 0 0 1-24.51167 0 19.7648 19.7648 0 0 1-7.96734-8.576 29.85966 29.85966 0 0 1-2.79716-13.44185v-7.54124a29.83223 29.83223 0 0 1 2.79716-13.46214 19.91669 19.91669 0 0 1 7.96734-8.57508 26.68636 26.68636 0 0 1 24.51167 0 19.959 19.959 0 0 1 7.947 8.57508 29.83223 29.83223 0 0 1 2.79716 13.46214v7.54124A29.85966 29.85966 0 0 1 635.77219 161.57078zm-8.31227-30.57268a12.82515 12.82515 0 0 0-4.86581-5.67646 14.06946 14.06946 0 0 0-14.06989 0 12.81912 12.81912 0 0 0-4.86581 5.67646 22.31448 22.31448 0 0 0-1.78361 9.50843v7.663a22.31145 22.31145 0 0 0 1.78361 9.50843 12.94026 12.94026 0 0 0 4.86581 5.69674 13.93363 13.93363 0 0 0 14.06989 0 12.94639 12.94639 0 0 0 4.86581-5.69674 22.31144 22.31144 0 0 0 1.78362-9.50843v-7.663A22.31447 22.31447 0 0 0 627.45992 130.9981z"/><path d="M275.96777 289.56934H251.10693V249.73926h24.86084v5.57324h-18.2666v11.35107h17.187v5.33985h-17.187v11.99267h18.2666zM312.87354 282.187a9.22907 9.22907 0 0 0 2.45117-6.82812V249.73926h6.624v26.08642a14.71351 14.71351 0 0 1-1.94043 7.63037 13.22691 13.22691 0 0 1-5.44238 5.0918 19.71215 19.71215 0 0 1-16.50049 0 13.19871 13.19871 0 0 1-5.45654-5.0918 14.70881 14.70881 0 0 1-1.94043-7.63037V249.73926H297.292v25.61963a9.19735 9.19735 0 0 0 2.46582 6.82812 9.998 9.998 0 0 0 13.11573 0zM360.40137 251.25684a10.85146 10.85146 0 0 1 4.61035 4.2749 12.62434 12.62434 0 0 1 1.60449 6.46289 12.35589 12.35589 0 0 1-.9917 5.063 11.42168 11.42168 0 0 1-2.65576 3.77832 11.11182 11.11182 0 0 1-3.67627 2.30517l8.05322 16.42823h-7.44043L352.75635 274.25h-8.25781v15.31934H337.9624V249.73926h15.23145A15.83763 15.83763 0 0 1 360.40137 251.25684zM352.085 268.99805a8.549 8.549 0 0 0 5.68994-1.707 6.267 6.267 0 0 0 2.01367-5.063 6.67937 6.67937 0 0 0-2.02832-5.23731 7.92128 7.92128 0 0 0-5.5-1.82373h-7.76171v13.83106zM411.10889 282.05566a14.24791 14.24791 0 0 1-5.71875 6.17139 19.32139 19.32139 0 0 1-17.63916 0 14.22031 14.22031 0 0 1-5.73389-6.17139 21.48272 21.48272 0 0 1-2.01318-9.67285v-5.42773a21.46235 21.46235 0 0 1 2.01318-9.6875 14.33052 14.33052 0 0 1 5.73389-6.17139 19.20793 19.20793 0 0 1 17.63916 0 14.35876 14.35876 0 0 1 5.71875 6.17139 21.4624 21.4624 0 0 1 2.01367 9.6875v5.42773A21.48279 21.48279 0 0 1 411.10889 282.05566zm-5.98145-22.00146a9.23337 9.23337 0 0 0-3.50146-4.085 10.123 10.123 0 0 0-10.12549 0 9.22729 9.22729 0 0 0-3.50147 4.085 16.05362 16.05362 0 0 0-1.28369 6.84277v5.51465a16.0505 16.0505 0 0 0 1.28369 6.84277 9.31447 9.31447 0 0 0 3.50147 4.09961 10.02941 10.02941 0 0 0 10.12549 0 9.32065 9.32065 0 0 0 3.50146-4.09961 16.06522 16.06522 0 0 0 1.28369-6.84277V266.897A16.06835 16.06835 0 0 0 405.12744 260.0542zM450.30566 251.41748a11.53793 11.53793 0 0 1 4.5083 4.58106 14.58822 14.58822 0 0 1-.01464 13.21826 11.53983 11.53983 0 0 1-4.523 4.5664 14.06586 14.06586 0 0 1-7.04688 1.66309h-8.60791v14.12305h-6.62353V249.73926h15.29A13.90488 13.90488 0 0 1 450.30566 251.41748zm-2.61181 5.7334a7.29858 7.29858 0 0 0-5.39795-1.92578h-7.70361V270.019h7.70361a8.23565 8.23565 0 0 0 3.939-.87549 5.985 5.985 0 0 0 2.50977-2.52392 8.46236 8.46236 0 0 0 .875-4.01221A7.37967 7.37967 0 0 0 447.69385 257.15088zM494.667 289.56934H469.80615V249.73926H494.667v5.57324h-18.2666v11.35107h17.187v5.33985h-17.187v11.99267H494.667z"/></svg>