<svg id="Layer_1" data-name="Layer 1" xmlns="http://www.w3.org/2000/svg" xmlns:xlink="http://www.w3.org/1999/xlink" viewBox="0 0 1581 432"><defs><style>.cls-1{fill:url(#linear-gradient);}.cls-2{fill:#fff;}</style><linearGradient id="linear-gradient" x1="89.01" y1="467.01" x2="378.85" y2="-35.01" gradientUnits="userSpaceOnUse"><stop offset="0" stop-color="#1f65f4"/><stop offset="0.09" stop-color="#2863f4"/><stop offset="0.49" stop-color="#5059f6"/><stop offset="0.8" stop-color="#6852f7"/><stop offset="1" stop-color="#7150f7"/></linearGradient></defs><path class="cls-1" d="M362.48,216,465,35.58a18.21,18.21,0,0,0-14.5-27.14L342.87.61c-.44,0-.88,0-1.32,0a18.2,18.2,0,0,0-13.09,5.55L233.93,104,139.4,6.11A18.2,18.2,0,0,0,126.31.56c-.44,0-.88,0-1.32,0L17.37,8.44A18.2,18.2,0,0,0,2.88,35.58L105.39,216,2.88,396.42a18.2,18.2,0,0,0,14.49,27.14L125,431.39c.44,0,.88.05,1.32.05a18.2,18.2,0,0,0,13.09-5.55L233.93,328l94.53,97.88a18.2,18.2,0,0,0,13.09,5.55c.44,0,.88,0,1.32-.05l107.62-7.83A18.21,18.21,0,0,0,465,396.42ZM346,412.43,324,291.21l119.1,114.64-97,7.07A4.22,4.22,0,0,0,346,412.43Zm-106.36-117,15-85.41a14.43,14.43,0,0,0,2.93-.72l47.22,60.56a14.74,14.74,0,0,0-2.48,7.72Zm-102.22,33.1a14.72,14.72,0,0,0-7.32-5.35l.68-97.82,93.7,74.73ZM121.79,19.29l12.39,104.56c-.38.18-.74.4-1.1.6L25,26.13l96.84-7A1.47,1.47,0,0,1,121.79,19.29ZM307,127.92a12.4,12.4,0,0,0,.77,1.44l-49,52.8A14.59,14.59,0,0,0,242.19,185l-85.77-44.57ZM346,19.66c0-.2,0-.39.05-.58l96.16,7L329.07,110.22c-.41-.29-.85-.52-1.29-.77ZM317,263.41a14.6,14.6,0,0,0-5,.93l-47.22-60.56a14.54,14.54,0,0,0,.62-15.4l49-52.8a14.72,14.72,0,0,0,4.79,1.25l17.64,78.8L317.88,263.5C317.57,263.48,317.28,263.41,317,263.41Zm-86.2,30.07-93.59-74.63,102.3-16.61a14.74,14.74,0,0,0,6.17,6.24ZM142.38,151.76a14.7,14.7,0,0,0,8.31-4L238,193.1c0,.06,0,.11,0,.16L131.92,210.48ZM116.24,348.55a14.59,14.59,0,0,0,4.84,2.59l.68,61.78-95.47-7Zm325,42.93-111-106.91a14.48,14.48,0,0,0-3.86-17.72l18.09-45.77ZM344.89,210.11,328,134.87a14.71,14.71,0,0,0,7.26-12.64,14.47,14.47,0,0,0-.83-4.68L443.59,36.41ZM335.67,24.84l-16.8,82.81a14.68,14.68,0,0,0-12.64,11.2l-66.72,5.55ZM229.18,125.26,154,131.52a14.75,14.75,0,0,0-10.73-8.77L131.53,24.16ZM25.92,39.31l101,91.85a14.58,14.58,0,0,0,6.49,19L122.8,209.81Zm95.79,184.8-.68,99a14.42,14.42,0,0,0-9.75,17.77l-87.77,56Zm9.1,184.48-.63-57.54a14.7,14.7,0,0,0,10-13.83l87-28.42Zm106.7-103.06,67.22-19.16A14.71,14.71,0,0,0,315,292.71l20.85,114.64Z"/><path class="cls-2" d="M604.83,154h-13.7a8.44,8.44,0,0,0-8.67,8.67V298a8.46,8.46,0,0,0,8.67,8.67h13.7a7.94,7.94,0,0,0,6.11-2.53,8.7,8.7,0,0,0,2.28-6.14V162.7a8.76,8.76,0,0,0-2.27-6.14A8.06,8.06,0,0,0,604.83,154Z"/><path class="cls-2" d="M606.83,97.78h-18a8.46,8.46,0,0,0-8.68,8.67v15.42a8.46,8.46,0,0,0,8.68,8.67h18a8.44,8.44,0,0,0,8.67-8.67V106.45a8.44,8.44,0,0,0-8.67-8.67Z"/><path class="cls-2" d="M760.55,159.63c-9-5.61-20-8.46-32.67-8.46-12.1,0-22.19,2.15-30,6.4a61.79,61.79,0,0,0-15.6,12V162.7a8.43,8.43,0,0,0-8.66-8.67H660.21a8.44,8.44,0,0,0-8.66,8.67V298a8.44,8.44,0,0,0,8.66,8.67H674.5a8.46,8.46,0,0,0,8.67-8.67V218.94c0-12.7,3.4-22.73,10.12-29.81s15.74-10.62,26.88-10.62c11.87,0,20.93,3.54,27,10.54s9.19,17.16,9.19,29.89V298A8.46,8.46,0,0,0,765,306.7h14.28a7.94,7.94,0,0,0,6.11-2.53,8.7,8.7,0,0,0,2.28-6.14V217.52c0-13-2.27-24.58-6.75-34.43A53.22,53.22,0,0,0,760.55,159.63Z"/><path class="cls-2" d="M846.93,154h-13.7a8.44,8.44,0,0,0-8.67,8.67V298a8.46,8.46,0,0,0,8.67,8.67h13.7a7.94,7.94,0,0,0,6.11-2.53,8.7,8.7,0,0,0,2.28-6.14V162.7a8.76,8.76,0,0,0-2.27-6.14A8.06,8.06,0,0,0,846.93,154Z"/><path class="cls-2" d="M848.93,97.78H831a8.46,8.46,0,0,0-8.68,8.67v15.42a8.46,8.46,0,0,0,8.68,8.67h18a8.44,8.44,0,0,0,8.67-8.67V106.45a8.44,8.44,0,0,0-8.67-8.67Z"/><path class="cls-2" d="M973.41,279.08H956c-7.07,0-11.8-2.19-14.47-6.68-2.83-4.78-4.27-11.53-4.27-20V181.08h33.3a8.44,8.44,0,0,0,8.67-8.67V162.7a8.46,8.46,0,0,0-8.67-8.67h-33.3V108.45a8.46,8.46,0,0,0-8.67-8.67H915.17a8.46,8.46,0,0,0-8.67,8.67V154H886.33a8.44,8.44,0,0,0-8.67,8.67v9.71a8.44,8.44,0,0,0,8.67,8.67H906.5v73.27c0,10.5,1.59,19.75,4.72,27.48a37.63,37.63,0,0,0,15.41,18.42c7,4.28,16.07,6.45,27.09,6.45h19.69a8.46,8.46,0,0,0,8.68-8.67V287.75a8.46,8.46,0,0,0-8.68-8.67Z"/><path class="cls-2" d="M1181.54,102.64h-14c-2.9,0-5.1.8-6.54,2.39a16,16,0,0,0-2.46,3.3l-58.94,111.8L1041,108.51a9.41,9.41,0,0,0-2.48-3.54,9,9,0,0,0-6.62-2.33h-14.28a8.41,8.41,0,0,0-6.19,2.47,8.77,8.77,0,0,0-2.48,6.48V298a8.46,8.46,0,0,0,8.67,8.67h14a8.46,8.46,0,0,0,8.68-8.67V166.29L1084,251.58a14.11,14.11,0,0,0,4.21,5.17,11.73,11.73,0,0,0,7.1,2h8.85a11.93,11.93,0,0,0,6.9-1.95,11.28,11.28,0,0,0,4.11-5.2l43.7-85.31V298a8.46,8.46,0,0,0,8.67,8.67h14a8.8,8.8,0,0,0,6.48-2.47,8.4,8.4,0,0,0,2.48-6.2V111.59a8.5,8.5,0,0,0-9-9Z"/><path class="cls-2" d="M1329.39,110.24a13,13,0,0,0-3.92-5.43,11.24,11.24,0,0,0-7.17-2.17h-19.42c-3.17,0-5.65.74-7.36,2.21a13.55,13.55,0,0,0-3.74,5.42L1217,295l-.11.41a22,22,0,0,0-.31,3.48,8,8,0,0,0,7.81,7.82h14.57a9,9,0,0,0,6.63-2.33,8.22,8.22,0,0,0,2.47-3.87l15.18-39.2H1354l15.19,39.22a12.7,12.7,0,0,0,2.54,3.78c1.46,1.59,3.67,2.4,6.55,2.4h14.57a7.62,7.62,0,0,0,5.48-2.33,7.53,7.53,0,0,0,2.33-5.49,12.23,12.23,0,0,0-.71-3.89Zm14.69,122.3h-71l35.49-93.33Z"/><path class="cls-2" d="M1580.13,296.17A5,5,0,0,0,1579,294l-64.24-90.74,60.58-87.9a8.74,8.74,0,0,0,1.48-4.87,8,8,0,0,0-7.81-7.81H1552.7a9.67,9.67,0,0,0-5.62,1.65,10.7,10.7,0,0,0-3.52,4.1l-48.25,68.92-48.46-68.83a15.26,15.26,0,0,0-3.66-4.14,9.51,9.51,0,0,0-5.83-1.7h-17.13a7.94,7.94,0,0,0-7.82,7.81,10.43,10.43,0,0,0,1.24,4.92L1475,203l-64.69,91.28c-.21.41-.45,1-.76,1.68a7.47,7.47,0,0,0-.6,3,7.34,7.34,0,0,0,2.53,5.55,8,8,0,0,0,5.57,2.27h16.56a9,9,0,0,0,5.91-1.92,27.25,27.25,0,0,0,3.51-3.53l51.11-71.83,51.48,72a22,22,0,0,0,3.62,3.46,9.07,9.07,0,0,0,5.71,1.87h17.42a7.83,7.83,0,0,0,5.76-2.33,7.51,7.51,0,0,0,2.33-5.49A9.54,9.54,0,0,0,1580.13,296.17Z"/></svg>