<svg viewBox="0 0 681 72" fill="none" xmlns="http://www.w3.org/2000/svg">
<path d="M61.7374 26.5C60.4878 26.5 59.4748 27.513 59.4748 28.7626C59.4748 47.3814 44.3814 62.4748 25.7626 62.4748C24.513 62.4748 23.5 63.4878 23.5 64.7374C23.5 65.987 24.513 67 25.7626 67C46.8805 67 64 49.8805 64 28.7626C64 27.513 62.987 26.5 61.7374 26.5Z" fill="#005EB8"/>
<path d="M48.0814 41C50.2572 37.4505 52.3615 32.7178 51.9475 26.0921C51.0899 12.3673 38.6589 1.95537 26.9206 3.08373C22.3253 3.52547 17.6068 7.2712 18.026 13.9805C18.2082 16.8961 19.6352 18.6169 21.9544 19.9399C24.1618 21.1992 26.9978 21.9969 30.2128 22.9011C34.0962 23.9934 38.6009 25.2203 42.0631 27.7717C46.2125 30.8296 49.0491 34.3743 48.0814 41Z" fill="#003B5C"/>
<path d="M3.91861 17C1.74276 20.5495 -0.361506 25.2822 0.0524931 31.9079C0.910072 45.6327 13.3411 56.0446 25.0794 54.9163C29.6747 54.4745 34.3932 50.7288 33.974 44.0195C33.7918 41.1039 32.3647 39.3831 30.0456 38.0601C27.8382 36.8008 25.0022 36.0031 21.7872 35.0989C17.9038 34.0066 13.3991 32.7797 9.93695 30.2283C5.78747 27.1704 2.95092 23.6257 3.91861 17Z" fill="#005EB8"/>
<path fill-rule="evenodd" clip-rule="evenodd" d="M362.5 31V54H371.5V29C371.5 24.3927 370.6 20.9121 368.799 18.5511C366.998 16.1672 364.282 15 360.75 15C356.918 15 353.847 17.2408 352 21H351.5C351.636 19.0591 351.76 17.9472 351.85 17.1353C351.943 16.298 352 15.7797 352 15V0.5H343V54H352.5V35.5C352.5 31.3511 352.639 28.2815 353.493 26.081C354.347 23.8575 355.836 22.7458 357.96 22.7458C360.8 22.7458 362.5 25.3841 362.5 31ZM231.852 51.2289C234.284 48.7148 235.5 45.0936 235.5 40.3653C235.5 37.4129 234.834 34.7835 233.501 32.477C232.191 30.1705 229.865 27.9102 226.521 25.6959C224.042 24.0814 222.3 22.6398 221.294 21.3713C220.312 20.1027 219.821 18.615 219.821 16.9082C219.821 15.1783 220.23 13.8175 221.049 12.8257C221.891 11.8108 223.083 11.3034 224.627 11.3034C226.03 11.3034 227.339 11.5571 228.555 12.0645C229.794 12.572 230.975 13.1486 232.098 13.7944L235.254 6.25216C231.63 4.08405 227.854 3 223.925 3C219.809 3 216.524 4.26857 214.069 6.80572C211.637 9.34287 210.421 12.7796 210.421 17.1158C210.421 19.3761 210.725 21.3597 211.333 23.0665C211.964 24.7733 212.841 26.3187 213.964 27.7026C215.109 29.0634 216.781 30.4935 218.979 31.9927C221.505 33.6995 223.317 35.2564 224.416 36.6633C225.515 38.0472 226.065 39.5811 226.065 41.2648C226.065 42.9716 225.597 44.3209 224.662 45.3127C223.75 46.3045 222.382 46.8004 220.558 46.8004C217.354 46.8004 213.835 45.5664 210 43.0985V52.4052C213.133 54.1351 216.933 55 221.4 55C225.959 55 229.444 53.743 231.852 51.2289ZM241.674 49.8745C244.48 53.2915 248.306 55 253.152 55C257.303 55 260.862 54.1111 263.83 52.3333V44.7489C260.677 46.619 257.593 47.5541 254.578 47.5541C252.213 47.5541 250.358 46.7229 249.013 45.0606C247.668 43.3752 247.07 40.9401 247 37.5H265.5V32.4545C265.5 26.9365 264.283 22.6537 261.848 19.6061C259.413 16.5354 256.086 15 251.865 15C247.343 15 243.819 16.7893 241.291 20.368C238.764 23.9466 237.5 28.9221 237.5 35.2944C237.5 41.5743 238.891 46.4343 241.674 49.8745ZM248.526 24.2121C249.384 22.8038 250.474 22.0996 251.796 22.0996C253.21 22.0996 254.323 22.8268 255.135 24.2814C255.946 25.7359 256.454 28.1833 256.5 31H247C247.139 28.0678 247.668 25.5974 248.526 24.2121ZM288 54L286.5 49H286C284.622 51.2587 283.295 52.868 281.824 53.7208C280.352 54.5736 278.494 55 276.252 55C273.378 55 271.112 53.9398 269.453 51.8194C267.818 49.6989 267 46.7488 267 42.9689C267 38.9124 268.121 35.9046 270.364 33.9455C272.63 31.9634 276.006 30.8686 280.492 30.6612L285.678 30.4538V27.688C285.678 24.0925 284.101 22.2947 280.947 22.2947C278.611 22.2947 275.924 23.1936 272.887 24.9914L269.663 18.6301C273.542 16.21 277.694 15 282.25 15C286.385 15 289.592 16.1755 291.741 18.5264C293.914 20.8542 295 24.1616 295 28.4486V54H288ZM280.071 47.809C281.777 47.809 283.132 47.0599 284.136 45.5618C285.164 44.0406 285.678 42.0239 285.678 39.5117V36.2619L282.805 36.4002C280.679 36.5154 279.113 37.1147 278.109 38.1979C277.128 39.2812 276.637 40.8946 276.637 43.038C276.637 46.2187 277.782 47.809 280.071 47.809ZM318 15.75C316.93 15.405 315.337 15 314.222 15C312.651 15 311.273 15.5174 310.089 16.5523C308.905 17.5872 308.002 18.5853 307 21H306.5L305 16H298V54H307.463V34C307.463 30.6424 307.676 28.4763 308.86 26.7285C310.044 24.9577 311.74 24.0723 313.948 24.0723C314.973 24.0723 315.863 24.27 316.5 24.5L318 15.75ZM332 55C327.443 55 323.954 53.478 321.573 50.1302C319.191 46.7824 318 41.8647 318 35.377C318 28.5891 319.122 23.5213 321.366 20.1735C323.634 16.8257 327.017 15 331.735 15C333.154 15 334.752 15.3596 336.309 15.7752C337.866 16.1908 339.763 16.715 341 17.5L337.889 24.7449C335.989 23.6136 334.305 23.048 332.84 23.048C330.893 23.048 329.485 24.0754 328.614 26.1302C327.767 28.162 327.344 31.2211 327.344 35.3077C327.344 39.3019 327.767 42.2918 328.614 44.2774C329.462 46.2399 330.847 47.2211 332.771 47.2211C335.061 47.2211 337.454 46.413 339.95 44.7969V52.9008C337.546 54.4015 334.908 55 332 55Z" fill="#003B5C"/>
<path fill-rule="evenodd" clip-rule="evenodd" d="M107.777 48.2625C110.926 43.7708 112.5 37.3442 112.5 28.9827C112.5 20.6213 110.937 14.2062 107.812 9.73754C104.686 5.24585 100.194 3 94.3368 3C88.4098 3 83.8719 5.23433 80.7231 9.70299C77.5744 14.1486 76 20.5522 76 28.9136C76 37.3442 77.5744 43.8053 80.7231 48.297C83.8719 52.7657 88.3866 55 94.2674 55C100.125 55 104.628 52.7542 107.777 48.2625ZM87.8425 42.1468C86.3839 39.1293 85.6546 34.7413 85.6546 28.9827C85.6546 23.2011 86.3839 18.8131 87.8425 15.8186C89.3011 12.8011 91.4659 11.2924 94.3368 11.2924C99.986 11.2924 102.811 17.1891 102.811 28.9827C102.811 40.7763 99.9629 46.6731 94.2674 46.6731C91.4428 46.6731 89.3011 45.1643 87.8425 42.1468ZM128.186 53.9979C129.469 54.7387 130.85 55 132.5 55C136.03 55 138.9 53.3265 140.94 49.7612C142.98 46.196 144 41.2764 144 35.0025C144 28.6359 143.014 23.7164 141.043 20.2437C139.072 16.7479 136.345 15 132.861 15C129.24 15 126.402 17.1569 124.5 21H124L122.5 16H115.5V71.5H124.5V55C124.5 54.3518 124.367 52.1485 124 49H124.5C125.25 51.25 126.925 53.2339 128.186 53.9979ZM125.882 25.3832C126.685 23.6932 127.979 22.8482 129.767 22.8482C131.44 22.8482 132.666 23.8437 133.446 25.8347C134.248 27.8257 134.649 30.8353 134.649 34.8636C134.649 43.059 133.045 47.1567 129.836 47.1567C127.979 47.1567 126.65 46.1844 125.848 44.2397C125.046 42.295 124.645 39.1928 124.645 34.933V33.7176C124.691 29.8282 125.103 27.0501 125.882 25.3832ZM161.652 55C156.806 55 152.98 53.2915 150.174 49.8745C147.391 46.4343 146 41.5743 146 35.2944C146 28.9221 147.264 23.9466 149.791 20.368C152.319 16.7893 155.843 15 160.365 15C164.586 15 167.913 16.5354 170.348 19.6061C172.783 22.6537 174 26.9365 174 32.4545V37.5H155.5C155.57 40.9401 156.168 43.3752 157.513 45.0606C158.858 46.7229 160.713 47.5541 163.078 47.5541C166.093 47.5541 169.177 46.619 172.33 44.7489V52.3333C169.362 54.1111 165.803 55 161.652 55ZM160.296 22.0996C158.974 22.0996 157.884 22.8038 157.026 24.2121C156.168 25.5974 155.639 28.0678 155.5 31H165C164.954 28.1833 164.446 25.7359 163.635 24.2814C162.823 22.8268 161.71 22.0996 160.296 22.0996ZM196.5 31V54H205.5V29.1991C205.5 24.5589 204.623 21.0323 202.868 18.6194C201.137 16.2065 198.516 15 195.007 15C192.93 15 191.117 15.5104 189.57 16.5313C188.024 17.5289 186.831 19.2135 186 21H185.5L184.25 16H177V54H186.5V35.75C186.5 31.0402 186.673 27.8302 187.597 25.8582C188.52 23.8628 189.974 22.8652 191.96 22.8652C193.461 22.8652 194.546 23.5844 195.215 25.0229C195.885 26.4614 196.5 28.1927 196.5 31Z" fill="#005EB8"/>
<path d="M418.772 28.7837C418.772 36.9836 417.095 43.2581 413.743 47.6072C410.413 51.9336 405.611 54.0968 399.336 54.0968H387.173V4.42196H400.458C406.234 4.42196 410.73 6.56253 413.947 10.8437C417.163 15.1022 418.772 21.0822 418.772 28.7837ZM409.292 29.0555C409.292 17.9563 406.234 12.4066 400.118 12.4066H396.414V46.0102H399.404C402.78 46.0102 405.271 44.6058 406.879 41.797C408.488 38.9656 409.292 34.7184 409.292 29.0555Z" fill="#002A3A"/>
<path d="M441.963 54.0968L440.162 48.9323H439.958C438.622 51.1521 437.24 52.6811 435.813 53.5192C434.386 54.3573 432.585 54.7764 430.411 54.7764C427.625 54.7764 425.427 53.7344 423.819 51.6505C422.234 49.5665 421.441 46.6671 421.441 42.9523C421.441 38.9656 422.528 36.0096 424.703 34.0842C426.9 32.1361 430.173 31.0602 434.522 30.8563L439.551 30.6525V27.9343C439.551 24.4006 438.022 22.6338 434.964 22.6338C432.699 22.6338 430.094 23.5172 427.149 25.284L424.023 19.0322C427.783 16.6538 431.872 15.4646 436.289 15.4646C440.298 15.4646 443.345 16.6198 445.429 18.9303C447.535 21.2181 448.589 24.4686 448.589 28.6818V54.0968H441.963ZM434.114 47.7091C435.768 47.7091 437.082 46.9729 438.056 45.5006C439.052 44.0056 439.551 42.0235 439.551 39.5545V36.3607L436.765 36.4966C434.703 36.6098 433.186 37.1988 432.212 38.2634C431.26 39.328 430.785 40.9136 430.785 43.0202C430.785 46.1461 431.894 47.7091 434.114 47.7091Z" fill="#002A3A"/>
<path d="M474.125 43.0202C474.125 46.7124 473.037 49.6005 470.863 51.6844C468.711 53.7457 465.528 54.7764 461.315 54.7764C457.578 54.7764 454.486 54.0402 452.039 52.5678V44.7191C453.285 45.5798 454.735 46.2934 456.389 46.8596C458.065 47.4259 459.537 47.7091 460.806 47.7091C462.21 47.7091 463.275 47.3693 463.999 46.6898C464.747 45.9876 465.121 45.0702 465.121 43.9376C465.121 42.7824 464.736 41.7744 463.965 40.9136C463.195 40.0529 461.78 38.9996 459.718 37.7537C456.977 36.1228 455.007 34.39 453.806 32.5552C452.628 30.6978 452.039 28.5119 452.039 25.9976C452.039 22.781 453.138 20.2327 455.335 18.3527C457.555 16.4726 460.59 15.5325 464.441 15.5325C467.794 15.5325 470.953 16.416 473.921 18.1828L470.965 24.6725C468.541 23.3587 466.412 22.7018 464.577 22.7018C463.422 22.7018 462.55 23.0076 461.961 23.6192C461.395 24.2307 461.111 24.9783 461.111 25.8617C461.111 26.881 461.462 27.787 462.165 28.5798C462.89 29.3726 464.226 30.358 466.174 31.5359C468.53 32.9629 470.183 34.1748 471.135 35.1715C472.086 36.1681 472.822 37.3007 473.343 38.5692C473.864 39.8377 474.125 41.3214 474.125 43.0202Z" fill="#002A3A"/>
<path d="M496.603 54.0968V31.5359C496.603 25.9862 495.21 23.2114 492.424 23.2114C490.34 23.2114 488.879 24.31 488.04 26.5072C487.202 28.6818 486.783 31.819 486.783 35.9189V54.0968H477.745V1.22809H486.783V12.9842C486.783 14.5019 486.647 17.2088 486.376 21.1048H486.851C488.663 17.39 491.45 15.5325 495.21 15.5325C498.675 15.5325 501.292 16.7104 503.058 19.0662C504.825 21.3993 505.709 24.8423 505.709 29.3953V54.0968H496.603Z" fill="#002A3A"/>
<path d="M528.017 15.5325C531.46 15.5325 534.167 17.2427 536.137 20.6631C538.108 24.0835 539.093 28.897 539.093 35.1035C539.093 41.378 538.097 46.2254 536.103 49.6458C534.133 53.0662 531.392 54.7764 527.881 54.7764C526.182 54.7764 524.676 54.4139 523.362 53.6891C522.071 52.9416 520.848 51.6391 519.692 49.7817H519.115L517.586 54.0968H510.926V1.22809H519.964V13.5958C519.964 14.1168 519.953 14.6605 519.93 15.2268C519.908 15.793 519.76 17.7751 519.489 21.1728H519.964C521.074 19.0888 522.275 17.6278 523.566 16.7897C524.857 15.9516 526.341 15.5325 528.017 15.5325ZM524.891 23.2114C523.169 23.2114 521.924 24.0156 521.153 25.6238C520.406 27.2321 520.01 30.0635 519.964 34.1182V35.0355C519.964 39.4299 520.349 42.5219 521.119 44.3114C521.912 46.1008 523.192 46.9956 524.959 46.9956C528.221 46.9956 529.852 42.9862 529.852 34.9676C529.852 27.1301 528.198 23.2114 524.891 23.2114Z" fill="#002A3A"/>
<path d="M571.391 35.1035C571.391 41.31 570.077 46.1461 567.45 49.6118C564.822 53.0549 561.22 54.7764 556.645 54.7764C553.745 54.7764 551.186 53.9836 548.966 52.398C546.746 50.8124 545.036 48.5359 543.835 45.5685C542.635 42.5785 542.035 39.0902 542.035 35.1035C542.035 28.9649 543.337 24.1741 545.942 20.7311C548.547 17.2654 552.16 15.5325 556.781 15.5325C561.243 15.5325 564.788 17.2994 567.416 20.833C570.066 24.344 571.391 29.1008 571.391 35.1035ZM551.276 35.1035C551.276 39.0449 551.707 42.0235 552.567 44.0395C553.428 46.0555 554.81 47.0635 556.713 47.0635C560.337 47.0635 562.149 43.0768 562.149 35.1035C562.149 31.1395 561.707 28.1834 560.824 26.2354C559.963 24.2647 558.593 23.2794 556.713 23.2794C554.81 23.2794 553.428 24.2647 552.567 26.2354C551.707 28.1834 551.276 31.1395 551.276 35.1035Z" fill="#002A3A"/>
<path d="M594.209 54.0968L592.408 48.9323H592.204C590.868 51.1521 589.486 52.6811 588.059 53.5192C586.632 54.3573 584.831 54.7764 582.656 54.7764C579.87 54.7764 577.673 53.7344 576.065 51.6505C574.479 49.5665 573.686 46.6671 573.686 42.9523C573.686 38.9656 574.774 36.0096 576.948 34.0842C579.145 32.1361 582.419 31.0602 586.768 30.8563L591.796 30.6525V27.9343C591.796 24.4006 590.267 22.6338 587.209 22.6338C584.944 22.6338 582.339 23.5172 579.395 25.284L576.269 19.0322C580.029 16.6538 584.117 15.4646 588.535 15.4646C592.544 15.4646 595.59 16.6198 597.674 18.9303C599.781 21.2181 600.834 24.4686 600.834 28.6818V54.0968H594.209ZM586.36 47.7091C588.014 47.7091 589.327 46.9729 590.301 45.5006C591.298 44.0056 591.796 42.0235 591.796 39.5545V36.3607L589.01 36.4966C586.949 36.6098 585.431 37.1988 584.457 38.2634C583.506 39.328 583.03 40.9136 583.03 43.0202C583.03 46.1461 584.14 47.7091 586.36 47.7091Z" fill="#002A3A"/>
<path d="M622.191 15.5325C623.301 15.5325 624.388 15.7024 625.453 16.0422L624.4 24.8084C623.765 24.5818 622.939 24.4686 621.919 24.4686C619.722 24.4686 618.035 25.3407 616.857 27.0848C615.679 28.8064 615.09 31.3207 615.09 34.6278V54.0968H606.052V16.2461H613.493L614.512 22.1581H614.818C615.815 19.7797 616.902 18.0808 618.08 17.0615C619.258 16.0422 620.628 15.5325 622.191 15.5325Z" fill="#002A3A"/>
<path d="M637.364 54.7764C633.876 54.7764 631.124 53.0549 629.108 49.6118C627.092 46.1688 626.084 41.378 626.084 35.2394C626.084 29.0782 627.069 24.2534 629.04 20.7651C631.01 17.2767 633.728 15.5325 637.194 15.5325C638.916 15.5325 640.399 15.9629 641.645 16.8237C642.914 17.6618 644.08 19.0888 645.145 21.1048H645.689C645.417 17.6618 645.281 15.2494 645.281 13.8677V1.22809H654.319V54.0968H647.591L646.062 49.1701H645.756C643.831 52.9076 641.034 54.7764 637.364 54.7764ZM640.286 47.1315C641.962 47.1315 643.186 46.3726 643.956 44.855C644.726 43.3147 645.145 40.5285 645.213 36.4966V35.3074C645.213 30.913 644.816 27.821 644.024 26.0315C643.253 24.2421 641.974 23.3473 640.184 23.3473C638.508 23.3473 637.285 24.378 636.515 26.4393C635.767 28.4779 635.393 31.4566 635.393 35.3753C635.393 39.294 635.778 42.2387 636.549 44.2094C637.319 46.1575 638.565 47.1315 640.286 47.1315Z" fill="#002A3A"/>
<path d="M680.161 43.0202C680.161 46.7124 679.073 49.6005 676.899 51.6844C674.747 53.7457 671.564 54.7764 667.351 54.7764C663.614 54.7764 660.522 54.0402 658.075 52.5678V44.7191C659.321 45.5798 660.771 46.2934 662.424 46.8596C664.101 47.4259 665.573 47.7091 666.841 47.7091C668.246 47.7091 669.31 47.3693 670.035 46.6898C670.783 45.9876 671.157 45.0702 671.157 43.9376C671.157 42.7824 670.771 41.7744 670.001 40.9136C669.231 40.0529 667.815 38.9996 665.754 37.7537C663.013 36.1228 661.043 34.39 659.842 32.5552C658.664 30.6978 658.075 28.5119 658.075 25.9976C658.075 22.781 659.174 20.2327 661.371 18.3527C663.591 16.4726 666.626 15.5325 670.477 15.5325C673.829 15.5325 676.989 16.416 679.957 18.1828L677.001 24.6725C674.577 23.3587 672.448 22.7018 670.613 22.7018C669.458 22.7018 668.586 23.0076 667.997 23.6192C667.43 24.2307 667.147 24.9783 667.147 25.8617C667.147 26.881 667.498 27.787 668.201 28.5798C668.925 29.3726 670.262 30.358 672.21 31.5359C674.566 32.9629 676.219 34.1748 677.171 35.1715C678.122 36.1681 678.858 37.3007 679.379 38.5692C679.9 39.8377 680.161 41.3214 680.161 43.0202Z" fill="#002A3A"/>
</svg>
