<svg viewBox="0 0 681 71" fill="none" xmlns="http://www.w3.org/2000/svg">
<path d="M61.7374 26C60.4878 26 59.4748 27.013 59.4748 28.2626C59.4748 46.8814 44.3814 61.9748 25.7626 61.9748C24.513 61.9748 23.5 62.9878 23.5 64.2374C23.5 65.487 24.513 66.5 25.7626 66.5C46.8805 66.5 64 49.3805 64 28.2626C64 27.013 62.987 26 61.7374 26Z" fill="#00A3E0"/>
<path d="M48.0814 40.5C50.2572 36.9505 52.3615 32.2178 51.9475 25.5921C51.0899 11.8673 38.6589 1.45537 26.9206 2.58373C22.3253 3.02547 17.6068 6.7712 18.026 13.4805C18.2082 16.3961 19.6352 18.1169 21.9544 19.4399C24.1618 20.6992 26.9978 21.4969 30.2128 22.4011C34.0962 23.4934 38.6009 24.7203 42.0631 27.2717C46.2125 30.3296 49.0491 33.8743 48.0814 40.5Z" fill="#B9D9EB"/>
<path d="M3.91861 16.5C1.74276 20.0495 -0.361506 24.7822 0.0524931 31.4079C0.910072 45.1327 13.3411 55.5446 25.0794 54.4163C29.6747 53.9745 34.3932 50.2288 33.974 43.5195C33.7918 40.6039 32.3647 38.8831 30.0456 37.5601C27.8382 36.3008 25.0022 35.5031 21.7872 34.5989C17.9038 33.5066 13.3991 32.2797 9.93695 29.7283C5.78747 26.6704 2.95092 23.1257 3.91861 16.5Z" fill="#00A3E0"/>
<path fill-rule="evenodd" clip-rule="evenodd" d="M362.5 30.5V53.5H371.5V28.5C371.5 23.8927 370.6 20.4121 368.799 18.0511C366.998 15.6672 364.282 14.5 360.75 14.5C356.918 14.5 353.847 16.7408 352 20.5H351.5C351.636 18.5591 351.76 17.4472 351.85 16.6353C351.943 15.798 352 15.2797 352 14.5V0H343V53.5H352.5V35C352.5 30.8511 352.639 27.7815 353.493 25.581C354.347 23.3575 355.836 22.2458 357.96 22.2458C360.799 22.2458 362.5 24.8841 362.5 30.5ZM231.852 50.7289C234.284 48.2148 235.5 44.5936 235.5 39.8653C235.5 36.9129 234.834 34.2835 233.501 31.977C232.191 29.6705 229.865 27.4102 226.521 25.1959C224.042 23.5814 222.3 22.1398 221.294 20.8713C220.312 19.6027 219.821 18.115 219.821 16.4082C219.821 14.6783 220.23 13.3175 221.049 12.3257C221.891 11.3108 223.083 10.8034 224.627 10.8034C226.03 10.8034 227.339 11.0571 228.555 11.5645C229.794 12.072 230.975 12.6486 232.098 13.2944L235.254 5.75216C231.63 3.58405 227.854 2.5 223.925 2.5C219.809 2.5 216.524 3.76857 214.069 6.30572C211.637 8.84287 210.421 12.2796 210.421 16.6158C210.421 18.8761 210.725 20.8597 211.333 22.5665C211.964 24.2733 212.841 25.8187 213.964 27.2026C215.109 28.5634 216.781 29.9935 218.979 31.4927C221.505 33.1995 223.317 34.7564 224.416 36.1633C225.515 37.5472 226.065 39.0811 226.065 40.7648C226.065 42.4716 225.597 43.8209 224.662 44.8127C223.75 45.8045 222.382 46.3004 220.558 46.3004C217.354 46.3004 213.835 45.0664 210 42.5985V51.9052C213.133 53.6351 216.933 54.5 221.4 54.5C225.959 54.5 229.444 53.243 231.852 50.7289ZM241.674 49.3745C244.48 52.7915 248.306 54.5 253.152 54.5C257.303 54.5 260.862 53.6111 263.83 51.8333V44.2489C260.677 46.119 257.593 47.0541 254.578 47.0541C252.213 47.0541 250.358 46.2229 249.013 44.5606C247.668 42.8752 247.07 40.4401 247 37H265.5V31.9545C265.5 26.4365 264.283 22.1537 261.848 19.1061C259.413 16.0354 256.086 14.5 251.865 14.5C247.343 14.5 243.819 16.2893 241.291 19.868C238.764 23.4466 237.5 28.4221 237.5 34.7944C237.5 41.0743 238.891 45.9343 241.674 49.3745ZM248.526 23.7121C249.384 22.3038 250.474 21.5996 251.796 21.5996C253.21 21.5996 254.323 22.3268 255.135 23.7814C255.946 25.2359 256.454 27.6833 256.5 30.5H247C247.139 27.5678 247.668 25.0974 248.526 23.7121ZM288 53.5L286.5 48.5H286C284.622 50.7587 283.295 52.368 281.824 53.2208C280.352 54.0736 278.494 54.5 276.252 54.5C273.378 54.5 271.112 53.4398 269.453 51.3194C267.818 49.1989 267 46.2488 267 42.4689C267 38.4124 268.121 35.4046 270.364 33.4455C272.63 31.4634 276.006 30.3686 280.492 30.1612L285.678 29.9538V27.188C285.678 23.5925 284.101 21.7947 280.947 21.7947C278.611 21.7947 275.924 22.6936 272.887 24.4914L269.663 18.1301C273.541 15.71 277.694 14.5 282.25 14.5C286.385 14.5 289.592 15.6755 291.741 18.0264C293.914 20.3542 295 23.6616 295 27.9486V53.5H288ZM280.071 47.309C281.777 47.309 283.132 46.5599 284.136 45.0618C285.164 43.5406 285.678 41.5239 285.678 39.0117V35.7619L282.805 35.9002C280.679 36.0154 279.113 36.6147 278.109 37.6979C277.128 38.7812 276.637 40.3946 276.637 42.538C276.637 45.7187 277.782 47.309 280.071 47.309ZM318 15.25C316.93 14.905 315.337 14.5 314.222 14.5C312.651 14.5 311.273 15.0174 310.089 16.0523C308.905 17.0872 308.002 18.0853 307 20.5H306.5L305 15.5H298V53.5H307.463V33.5C307.463 30.1424 307.676 27.9763 308.86 26.2285C310.044 24.4577 311.74 23.5723 313.948 23.5723C314.973 23.5723 315.863 23.77 316.5 24L318 15.25ZM332 54.5C327.443 54.5 323.954 52.978 321.573 49.6302C319.191 46.2824 318 41.3647 318 34.877C318 28.0891 319.122 23.0213 321.366 19.6735C323.634 16.3257 327.017 14.5 331.735 14.5C333.154 14.5 334.752 14.8596 336.309 15.2752C337.866 15.6908 339.763 16.215 341 17L337.889 24.2449C335.989 23.1136 334.305 22.548 332.84 22.548C330.893 22.548 329.485 23.5754 328.614 25.6302C327.767 27.662 327.344 30.7211 327.344 34.8077C327.344 38.8019 327.767 41.7918 328.614 43.7774C329.462 45.7399 330.847 46.7211 332.771 46.7211C335.061 46.7211 337.454 45.913 339.95 44.2969V52.4008C337.546 53.9015 334.908 54.5 332 54.5Z" fill="#B9D9EB"/>
<path fill-rule="evenodd" clip-rule="evenodd" d="M107.777 47.7625C110.926 43.2708 112.5 36.8442 112.5 28.4827C112.5 20.1213 110.937 13.7062 107.812 9.23754C104.686 4.74585 100.194 2.5 94.3368 2.5C88.4098 2.5 83.8719 4.73433 80.7231 9.20299C77.5744 13.6486 76 20.0522 76 28.4136C76 36.8442 77.5744 43.3053 80.7231 47.797C83.8719 52.2657 88.3866 54.5 94.2674 54.5C100.125 54.5 104.628 52.2542 107.777 47.7625ZM87.8425 41.6468C86.3839 38.6293 85.6546 34.2413 85.6546 28.4827C85.6546 22.7011 86.3839 18.3131 87.8425 15.3186C89.3011 12.3011 91.4659 10.7924 94.3368 10.7924C99.986 10.7924 102.811 16.6891 102.811 28.4827C102.811 40.2763 99.9629 46.1731 94.2674 46.1731C91.4428 46.1731 89.3011 44.6643 87.8425 41.6468ZM128.186 53.4979C129.469 54.2387 130.85 54.5 132.5 54.5C136.03 54.5 138.9 52.8265 140.94 49.2612C142.98 45.696 144 40.7764 144 34.5025C144 28.1359 143.014 23.2164 141.043 19.7437C139.072 16.2479 136.345 14.5 132.861 14.5C129.24 14.5 126.402 16.6569 124.5 20.5H124L122.5 15.5H115.5V71H124.5V54.5C124.5 53.8518 124.367 51.6485 124 48.5H124.5C125.25 50.75 126.925 52.7339 128.186 53.4979ZM125.882 24.8832C126.685 23.1932 127.979 22.3482 129.767 22.3482C131.44 22.3482 132.666 23.3437 133.446 25.3347C134.248 27.3257 134.649 30.3353 134.649 34.3636C134.649 42.559 133.045 46.6567 129.836 46.6567C127.979 46.6567 126.65 45.6844 125.848 43.7397C125.046 41.795 124.645 38.6928 124.645 34.433V33.2176C124.691 29.3282 125.103 26.5501 125.882 24.8832ZM161.652 54.5C156.806 54.5 152.98 52.7915 150.174 49.3745C147.391 45.9343 146 41.0743 146 34.7944C146 28.4221 147.264 23.4466 149.791 19.868C152.319 16.2893 155.843 14.5 160.365 14.5C164.585 14.5 167.913 16.0354 170.348 19.1061C172.783 22.1537 174 26.4365 174 31.9545V37H155.5C155.57 40.4401 156.168 42.8752 157.513 44.5606C158.858 46.2229 160.713 47.0541 163.078 47.0541C166.093 47.0541 169.177 46.119 172.33 44.2489V51.8333C169.362 53.6111 165.803 54.5 161.652 54.5ZM160.296 21.5996C158.974 21.5996 157.884 22.3038 157.026 23.7121C156.168 25.0974 155.639 27.5678 155.5 30.5H165C164.954 27.6833 164.446 25.2359 163.635 23.7814C162.823 22.3268 161.71 21.5996 160.296 21.5996ZM196.5 30.5V53.5H205.5V28.6991C205.5 24.0589 204.623 20.5323 202.868 18.1194C201.137 15.7065 198.516 14.5 195.007 14.5C192.93 14.5 191.117 15.0104 189.57 16.0313C188.024 17.0289 186.831 18.7135 186 20.5H185.5L184.25 15.5H177V53.5H186.5V35.25C186.5 30.5402 186.673 27.3302 187.597 25.3582C188.52 23.3628 189.974 22.3652 191.96 22.3652C193.46 22.3652 194.546 23.0844 195.215 24.5229C195.885 25.9614 196.5 27.6927 196.5 30.5Z" fill="#00A3E0"/>
<path d="M418.772 28.2837C418.772 36.4836 417.095 42.7581 413.743 47.1072C410.413 51.4336 405.611 53.5968 399.336 53.5968H387.173V3.92196H400.458C406.234 3.92196 410.73 6.06253 413.947 10.3437C417.163 14.6022 418.772 20.5822 418.772 28.2837ZM409.292 28.5555C409.292 17.4563 406.234 11.9066 400.118 11.9066H396.414V45.5102H399.404C402.78 45.5102 405.271 44.1058 406.879 41.297C408.488 38.4656 409.292 34.2184 409.292 28.5555Z" fill="#D9E1E2"/>
<path d="M441.963 53.5968L440.162 48.4323H439.958C438.622 50.6521 437.24 52.1811 435.813 53.0192C434.386 53.8573 432.585 54.2764 430.411 54.2764C427.625 54.2764 425.427 53.2344 423.819 51.1505C422.234 49.0665 421.441 46.1671 421.441 42.4523C421.441 38.4656 422.528 35.5096 424.703 33.5842C426.9 31.6361 430.173 30.5602 434.522 30.3563L439.551 30.1525V27.4343C439.551 23.9006 438.022 22.1338 434.964 22.1338C432.699 22.1338 430.094 23.0172 427.149 24.784L424.023 18.5322C427.783 16.1538 431.872 14.9646 436.289 14.9646C440.298 14.9646 443.345 16.1198 445.429 18.4303C447.535 20.7181 448.589 23.9686 448.589 28.1818V53.5968H441.963ZM434.114 47.2091C435.768 47.2091 437.082 46.4729 438.056 45.0006C439.052 43.5056 439.551 41.5235 439.551 39.0545V35.8607L436.765 35.9966C434.703 36.1098 433.186 36.6988 432.212 37.7634C431.26 38.828 430.785 40.4136 430.785 42.5202C430.785 45.6461 431.894 47.2091 434.114 47.2091Z" fill="#D9E1E2"/>
<path d="M474.125 42.5202C474.125 46.2124 473.037 49.1005 470.863 51.1844C468.711 53.2457 465.528 54.2764 461.315 54.2764C457.578 54.2764 454.486 53.5402 452.039 52.0678V44.2191C453.285 45.0798 454.735 45.7934 456.389 46.3596C458.065 46.9259 459.537 47.2091 460.806 47.2091C462.21 47.2091 463.275 46.8693 463.999 46.1898C464.747 45.4876 465.121 44.5702 465.121 43.4376C465.121 42.2824 464.736 41.2744 463.965 40.4136C463.195 39.5529 461.78 38.4996 459.718 37.2537C456.977 35.6228 455.007 33.89 453.806 32.0552C452.628 30.1978 452.039 28.0119 452.039 25.4976C452.039 22.281 453.138 19.7327 455.335 17.8527C457.555 15.9726 460.59 15.0325 464.441 15.0325C467.794 15.0325 470.953 15.916 473.921 17.6828L470.965 24.1725C468.541 22.8587 466.412 22.2018 464.577 22.2018C463.422 22.2018 462.55 22.5076 461.961 23.1192C461.395 23.7307 461.111 24.4783 461.111 25.3617C461.111 26.381 461.462 27.287 462.165 28.0798C462.89 28.8726 464.226 29.858 466.174 31.0359C468.53 32.4629 470.183 33.6748 471.135 34.6715C472.086 35.6681 472.822 36.8007 473.343 38.0692C473.864 39.3377 474.125 40.8214 474.125 42.5202Z" fill="#D9E1E2"/>
<path d="M496.603 53.5968V31.0359C496.603 25.4862 495.21 22.7114 492.424 22.7114C490.34 22.7114 488.879 23.81 488.04 26.0072C487.202 28.1818 486.783 31.319 486.783 35.4189V53.5968H477.745V0.728088H486.783V12.4842C486.783 14.0019 486.647 16.7088 486.376 20.6048H486.851C488.663 16.89 491.45 15.0325 495.21 15.0325C498.675 15.0325 501.292 16.2104 503.058 18.5662C504.825 20.8993 505.709 24.3423 505.709 28.8953V53.5968H496.603Z" fill="#D9E1E2"/>
<path d="M528.017 15.0325C531.46 15.0325 534.167 16.7427 536.137 20.1631C538.108 23.5835 539.093 28.397 539.093 34.6035C539.093 40.878 538.097 45.7254 536.103 49.1458C534.133 52.5662 531.392 54.2764 527.881 54.2764C526.182 54.2764 524.676 53.9139 523.362 53.1891C522.071 52.4416 520.848 51.1391 519.692 49.2817H519.115L517.586 53.5968H510.926V0.728088H519.964V13.0958C519.964 13.6168 519.953 14.1605 519.93 14.7268C519.908 15.293 519.76 17.2751 519.489 20.6728H519.964C521.074 18.5888 522.275 17.1278 523.566 16.2897C524.857 15.4516 526.341 15.0325 528.017 15.0325ZM524.891 22.7114C523.169 22.7114 521.924 23.5156 521.153 25.1238C520.406 26.7321 520.01 29.5635 519.964 33.6182V34.5355C519.964 38.9299 520.349 42.0219 521.119 43.8114C521.912 45.6008 523.192 46.4956 524.959 46.4956C528.221 46.4956 529.852 42.4862 529.852 34.4676C529.852 26.6301 528.198 22.7114 524.891 22.7114Z" fill="#D9E1E2"/>
<path d="M571.391 34.6035C571.391 40.81 570.077 45.6461 567.45 49.1118C564.822 52.5549 561.22 54.2764 556.645 54.2764C553.745 54.2764 551.186 53.4836 548.966 51.898C546.746 50.3124 545.036 48.0359 543.835 45.0685C542.635 42.0785 542.035 38.5902 542.035 34.6035C542.035 28.4649 543.337 23.6741 545.942 20.2311C548.547 16.7654 552.16 15.0325 556.781 15.0325C561.243 15.0325 564.788 16.7994 567.416 20.333C570.066 23.844 571.391 28.6008 571.391 34.6035ZM551.276 34.6035C551.276 38.5449 551.707 41.5235 552.567 43.5395C553.428 45.5555 554.81 46.5635 556.713 46.5635C560.337 46.5635 562.149 42.5768 562.149 34.6035C562.149 30.6395 561.707 27.6834 560.824 25.7354C559.963 23.7647 558.593 22.7794 556.713 22.7794C554.81 22.7794 553.428 23.7647 552.567 25.7354C551.707 27.6834 551.276 30.6395 551.276 34.6035Z" fill="#D9E1E2"/>
<path d="M594.209 53.5968L592.408 48.4323H592.204C590.868 50.6521 589.486 52.1811 588.059 53.0192C586.632 53.8573 584.831 54.2764 582.656 54.2764C579.87 54.2764 577.673 53.2344 576.065 51.1505C574.479 49.0665 573.686 46.1671 573.686 42.4523C573.686 38.4656 574.774 35.5096 576.948 33.5842C579.145 31.6361 582.419 30.5602 586.768 30.3563L591.796 30.1525V27.4343C591.796 23.9006 590.267 22.1338 587.209 22.1338C584.944 22.1338 582.339 23.0172 579.395 24.784L576.269 18.5322C580.029 16.1538 584.117 14.9646 588.535 14.9646C592.544 14.9646 595.59 16.1198 597.674 18.4303C599.781 20.7181 600.834 23.9686 600.834 28.1818V53.5968H594.209ZM586.36 47.2091C588.014 47.2091 589.327 46.4729 590.301 45.0006C591.298 43.5056 591.796 41.5235 591.796 39.0545V35.8607L589.01 35.9966C586.949 36.1098 585.431 36.6988 584.457 37.7634C583.506 38.828 583.03 40.4136 583.03 42.5202C583.03 45.6461 584.14 47.2091 586.36 47.2091Z" fill="#D9E1E2"/>
<path d="M622.191 15.0325C623.301 15.0325 624.388 15.2024 625.453 15.5422L624.4 24.3084C623.765 24.0818 622.939 23.9686 621.919 23.9686C619.722 23.9686 618.035 24.8407 616.857 26.5848C615.679 28.3064 615.09 30.8207 615.09 34.1278V53.5968H606.052V15.7461H613.493L614.512 21.6581H614.818C615.815 19.2797 616.902 17.5808 618.08 16.5615C619.258 15.5422 620.628 15.0325 622.191 15.0325Z" fill="#D9E1E2"/>
<path d="M637.364 54.2764C633.876 54.2764 631.124 52.5549 629.108 49.1118C627.092 45.6688 626.084 40.878 626.084 34.7394C626.084 28.5782 627.069 23.7534 629.04 20.2651C631.01 16.7767 633.728 15.0325 637.194 15.0325C638.916 15.0325 640.399 15.4629 641.645 16.3237C642.914 17.1618 644.08 18.5888 645.145 20.6048H645.689C645.417 17.1618 645.281 14.7494 645.281 13.3677V0.728088H654.319V53.5968H647.591L646.062 48.6701H645.756C643.831 52.4076 641.034 54.2764 637.364 54.2764ZM640.286 46.6315C641.962 46.6315 643.186 45.8726 643.956 44.355C644.726 42.8147 645.145 40.0285 645.213 35.9966V34.8074C645.213 30.413 644.816 27.321 644.024 25.5315C643.253 23.7421 641.974 22.8473 640.184 22.8473C638.508 22.8473 637.285 23.878 636.515 25.9393C635.767 27.9779 635.393 30.9566 635.393 34.8753C635.393 38.794 635.778 41.7387 636.549 43.7094C637.319 45.6575 638.565 46.6315 640.286 46.6315Z" fill="#D9E1E2"/>
<path d="M680.161 42.5202C680.161 46.2124 679.073 49.1005 676.899 51.1844C674.747 53.2457 671.564 54.2764 667.351 54.2764C663.614 54.2764 660.522 53.5402 658.075 52.0678V44.2191C659.321 45.0798 660.771 45.7934 662.424 46.3596C664.101 46.9259 665.573 47.2091 666.841 47.2091C668.246 47.2091 669.31 46.8693 670.035 46.1898C670.783 45.4876 671.157 44.5702 671.157 43.4376C671.157 42.2824 670.771 41.2744 670.001 40.4136C669.231 39.5529 667.815 38.4996 665.754 37.2537C663.013 35.6228 661.043 33.89 659.842 32.0552C658.664 30.1978 658.075 28.0119 658.075 25.4976C658.075 22.281 659.174 19.7327 661.371 17.8527C663.591 15.9726 666.626 15.0325 670.477 15.0325C673.829 15.0325 676.989 15.916 679.957 17.6828L677.001 24.1725C674.577 22.8587 672.448 22.2018 670.613 22.2018C669.458 22.2018 668.586 22.5076 667.997 23.1192C667.43 23.7307 667.147 24.4783 667.147 25.3617C667.147 26.381 667.498 27.287 668.201 28.0798C668.925 28.8726 670.262 29.858 672.21 31.0359C674.566 32.4629 676.219 33.6748 677.171 34.6715C678.122 35.6681 678.858 36.8007 679.379 38.0692C679.9 39.3377 680.161 40.8214 680.161 42.5202Z" fill="#D9E1E2"/>
</svg>
