<?xml version="1.0" encoding="utf-8"?>
<!-- Generator: Adobe Illustrator 25.4.1, SVG Export Plug-In . SVG Version: 6.00 Build 0)  -->
<svg version="1.1" id="Ebene_1" xmlns="http://www.w3.org/2000/svg" xmlns:xlink="http://www.w3.org/1999/xlink" x="0px" y="0px"
	 viewBox="0 0 359.7 118.6" style="enable-background:new 0 0 359.7 118.6;" xml:space="preserve">
<style type="text/css">
	.st0{fill:#E20613;}
	.st1{fill:#1D1D1B;}
	.st2{enable-background:new    ;}
</style>
<g id="Layer_2_1_">
	<g id="Ebene_1_1_">
		<g>
			<path class="st0" d="M58.9,30.5h-1.1c-3-0.1-5.9,0.8-8.4,2.7c-2.5-1.8-5.3-2.8-8.4-2.7h-1.2c-8.6,0-13.5,4-13.5,12.6v21.6
				c0,0.7,0.5,1.3,1.2,1.3h7.5c0.7-0.1,1.2-0.6,1.2-1.3V43.2c0-3.5,1-4.5,3.6-4.5h1.2c3.1,0,3.5,1.7,3.5,4.5v21.6
				c0,0.7,0.5,1.3,1.2,1.3h7.5c0.7-0.1,1.2-0.6,1.1-1.3V43.2c0-2.7,0.4-4.5,3.5-4.5h1.1c2.6,0,3.6,1,3.6,4.5v21.6
				c0,0.7,0.5,1.3,1.2,1.3h7.5c0.7-0.1,1.2-0.6,1.2-1.3V43.2C72.4,34.5,67.5,30.5,58.9,30.5z M105.7,32.2c-4.3-1-8.6-1.5-13-1.6
				c-9.9,0-15.4,5.7-15.4,15.7V51c0,9.9,5.4,15.7,15.4,15.7c4.4,0,8.7-0.6,13-1.6c1.6-0.4,1.9-0.8,1.9-1.7V33.8
				C107.7,33,107.4,32.6,105.7,32.2z M97.7,58.2c-1.6,0.2-3.4,0.4-5,0.4c-4.3,0-5.5-3.2-5.5-7.6v-4.7c0-4.3,1.1-7.5,5.5-7.5
				c1.6,0,3.4,0.1,5,0.3V58.2z M146.3,64.9l-11.1-16.5l10.1-16.1c0.1-0.1,0.1-0.3,0.1-0.5c0-0.4-0.3-0.8-0.7-0.8l0,0h-8.2
				c-0.7,0-1,0.4-1.6,1.2l-5,8.4l-5.4-8.4c-0.5-0.8-0.9-1.2-1.6-1.2h-9.1c-0.5,0-0.9,0.4-0.9,0.9c0,0.1,0.1,0.3,0.1,0.4l10.4,15.6
				l-10.7,17c-0.1,0.1-0.1,0.3-0.1,0.5c0,0.4,0.2,0.7,0.6,0.7h0.1h8.2c0.7,0,1-0.3,1.5-1.2l5.7-9.5l6,9.5c0.5,0.9,0.9,1.2,1.5,1.2
				h9.2c0.5,0,0.8-0.4,0.8-0.8C146.4,65.2,146.4,65,146.3,64.9L146.3,64.9z"/>
			<path class="st1" d="M171.4,31.6c-2.7-0.6-5.4-0.9-8.1-0.9c-8.6,0-14.3,5.5-14.3,15.5v5.1c0,9.9,5.6,15.5,14.3,15.5
				c2.8,0,5.4-0.3,8.1-0.9c0.9-0.2,1.2-0.5,1.2-1.4v-5.4c0-0.6-0.5-1-1.1-1l0,0h-0.1c-2.5,0.3-4.9,0.4-7.5,0.4c-2.8,0-5-1.6-5-7.1
				v-5.1c0-5.4,2.3-7.1,5-7.1c2.5,0,5,0.1,7.5,0.4h0.1c0.6,0,1.1-0.4,1.1-1v-5.5C172.7,32.1,172.4,31.8,171.4,31.6z M187.5,19.3H180
				c-0.7,0-1.2,0.5-1.2,1.2v44.4c0,0.7,0.6,1.2,1.2,1.2h7.5c0.7,0,1.2-0.6,1.1-1.2V20.5C188.7,19.8,188.2,19.3,187.5,19.3
				L187.5,19.3z M223.1,31.2h-7.6c-0.7,0-1.2,0.6-1.2,1.2v18.8c0,5.8-1.8,7.2-4.7,7.2h-0.8c-2.9,0-4.7-1.3-4.7-7.2V32.4
				c0-0.7-0.5-1.2-1.2-1.2h-7.5c-0.7,0-1.2,0.6-1.2,1.2l0,0v18.8c0,14.4,10.8,15.6,14.7,15.6h0.8c3.9,0,14.7-1.1,14.7-15.6V32.4
				C224.3,31.8,223.7,31.2,223.1,31.2z M248.6,47.1l-7.6-4.3c-1.2-0.7-1.9-1.2-1.9-2.2c0-1.4,0.8-1.7,3.3-1.7
				c3.4,0.1,6.8,0.3,10.1,0.8h0.2c0.6,0,1-0.4,1-1.1v-5.1c0-0.7-0.5-1.3-1.1-1.4c-3.6-1-7.2-1.4-10.9-1.4c-8.4,0-12.5,3.3-12.5,9.4
				c0,3.8,2.1,7.3,5.4,9l8,4.6c1.7,0.9,2.3,1.6,2.3,2.6c0,1.6-0.7,2.4-3.6,2.4c-1.9,0-7.1-0.4-10.4-0.8h-0.2c-0.6,0-1.1,0.4-1.1,1
				v0.1v4.9c0,0.7,0.5,1.3,1.1,1.4c3.7,0.9,7.4,1.3,11.2,1.3c8.9,0,13.1-4.5,13.1-10.3C254.7,53.1,253.7,50,248.6,47.1z M278.1,31.2
				h-8.4v-6.5c0-0.6-0.5-1.1-1.1-1.2h-0.2l-7.5,1.2c-0.6,0.1-1.1,0.6-1.2,1.2v30.8c0,8,4,10.1,10.9,10.1c2.5,0,4.9-0.2,7.4-0.5
				c0.8-0.1,1.2-0.5,1.2-1.2v-4.7c0-0.6-0.5-1-1.2-1h-4.6c-2.7,0-3.6-0.4-3.6-2.5V38.5h8.4c0.7,0,1.2-0.5,1.2-1.2l0,0v-4.9
				C279.3,31.7,278.7,31.2,278.1,31.2z M298.4,30.7c-9.7,0-15.5,6.3-15.5,16.1v4.3c0,11.8,8,15.7,15.4,15.7
				c4.2,0.1,8.4-0.4,12.5-1.4c1-0.2,1.2-0.7,1.2-1.6v-4.7c0-0.7-0.5-1-1.1-1h-0.2c-2.5,0.2-7.9,0.5-11.8,0.5c-4.8,0-6.4-3.2-6.4-6.7
				v-0.1H312c0.8,0,1.2-0.5,1.2-1.4v-3.5C313.5,37.5,308.3,30.7,298.4,30.7L298.4,30.7z M303.8,45.6h-11.2v-0.2
				c0-4.5,2.3-6.8,5.6-6.8s5.5,2.3,5.5,6.8V45.6z M333.8,30.7c-5.8,0-9.6,0.5-13.5,1.7c-1.4,0.5-1.8,1.1-1.8,1.9v30.6
				c0,0.7,0.6,1.2,1.2,1.2h7.4c0.7,0,1.2-0.6,1.2-1.2V39.3c1.8-0.3,3.7-0.4,5.5-0.4c1.1,0,1.6-0.5,1.6-1.1v-5.9
				C335.4,31,334.6,30.7,333.8,30.7z"/>
			<g class="st2">
				<path class="st1" d="M38.7,83v2.9c0,2.3-0.5,3.9-1.6,5c-1.1,1.1-2.6,1.6-4.4,1.6s-3.3-0.5-4.4-1.6c-1.1-1.1-1.6-2.8-1.6-5V83
					c0-2.3,0.5-3.9,1.6-5c1.1-1.1,2.6-1.6,4.4-1.6s3.3,0.5,4.4,1.6C38.2,79,38.7,80.8,38.7,83z M35.7,85.9V83c0-1.4-0.2-2.5-0.7-3.1
					s-1.3-1-2.4-1c-1,0-1.8,0.3-2.4,1c-0.5,0.6-0.7,1.6-0.7,3.1v2.9c0,1.4,0.2,2.5,0.7,3.1c0.5,0.6,1.3,1,2.4,1c1,0,1.8-0.3,2.4-1
					C35.4,88.3,35.7,87.2,35.7,85.9z"/>
				<path class="st1" d="M51.2,85.5v1.6c0,1.7-0.4,3.1-1.3,4c-0.8,0.9-2.2,1.4-3.8,1.4c-0.6,0-1.3,0-2.1-0.1v3.8
					c0,0.1,0,0.2-0.1,0.3c-0.1,0.1-0.2,0.1-0.3,0.1h-1.9c-0.1,0-0.2,0-0.3-0.1c-0.1-0.1-0.1-0.2-0.1-0.3V81.4c0-0.2,0-0.3,0.1-0.3
					c0.1-0.1,0.2-0.1,0.5-0.2c1.4-0.4,2.9-0.5,4.3-0.5c1.7,0,3,0.5,3.8,1.4C50.8,82.5,51.2,83.9,51.2,85.5z M48.4,87.1v-1.6
					c0-0.9-0.2-1.7-0.5-2.3c-0.3-0.5-0.9-0.8-1.7-0.8c-0.9,0-1.5,0-2.1,0.1V90c0.7,0.1,1.3,0.1,2.1,0.1c0.8,0,1.4-0.3,1.7-0.8
					C48.2,88.9,48.4,88.2,48.4,87.1z"/>
				<path class="st1" d="M60.3,90.6V92c0,0.2-0.1,0.3-0.4,0.4c-0.6,0.1-1.1,0.1-1.4,0.1c-1.2,0-2.2-0.2-2.7-0.7
					c-0.5-0.4-0.7-1.3-0.7-2.8v-6.7L53,82c-0.3-0.1-0.4-0.2-0.4-0.4v-0.9c0-0.1,0-0.2,0.1-0.3s0.2-0.1,0.3-0.1h2.1v-1.7
					c0-0.2,0.1-0.3,0.4-0.4l1.9-0.3h0.1c0.2,0,0.3,0.1,0.3,0.3v2.2h1.9c0.1,0,0.2,0,0.3,0.1c0.1,0.1,0.1,0.2,0.1,0.3v1.2
					c0,0.1,0,0.2-0.1,0.3s-0.2,0.1-0.3,0.1h-1.9V89c0,0.5,0,0.9,0.1,1c0.1,0.1,0.3,0.2,0.7,0.2h1.1C60.1,90.3,60.3,90.4,60.3,90.6z"
					/>
				<path class="st1" d="M65.1,76.4v1.8c0,0.1,0,0.2-0.1,0.3c-0.1,0.1-0.2,0.1-0.3,0.1h-2.1c-0.1,0-0.2,0-0.3-0.1
					c-0.1-0.1-0.1-0.2-0.1-0.3v-1.8c0-0.1,0-0.2,0.1-0.3c0.1-0.1,0.2-0.1,0.3-0.1h2.1c0.1,0,0.2,0,0.3,0.1
					C65.1,76.2,65.1,76.3,65.1,76.4z M65.1,80.8V92c0,0.1,0,0.2-0.1,0.3c-0.1,0.1-0.2,0.1-0.3,0.1h-1.9c-0.1,0-0.2,0-0.3-0.1
					c-0.1-0.1-0.1-0.2-0.1-0.3V80.8c0-0.1,0-0.2,0.1-0.3c0.1-0.1,0.2-0.1,0.3-0.1h1.9c0.1,0,0.2,0,0.3,0.1
					C65,80.6,65.1,80.7,65.1,80.8z"/>
				<path class="st1" d="M83.3,84.7V92c0,0.1,0,0.2-0.1,0.3c-0.1,0.1-0.2,0.1-0.3,0.1h-1.9c-0.1,0-0.2,0-0.3-0.1
					c-0.1-0.1-0.1-0.2-0.1-0.3v-7.3c0-0.8-0.1-1.3-0.3-1.6c-0.2-0.3-0.6-0.4-1.2-0.4s-1.3,0.2-1.9,0.5c0.1,0.4,0.1,0.9,0.1,1.5V92
					c0,0.1,0,0.2-0.1,0.3c-0.1,0.1-0.2,0.1-0.3,0.1h-1.9c-0.1,0-0.2,0-0.3-0.1s-0.1-0.2-0.1-0.3v-7.3c0-0.8-0.1-1.3-0.3-1.6
					s-0.6-0.4-1.2-0.4c-0.4,0-1.1,0.2-1.9,0.7V92c0,0.1,0,0.2-0.1,0.3c-0.1,0.1-0.2,0.1-0.3,0.1h-1.9c-0.1,0-0.2,0-0.3-0.1
					c-0.1-0.1-0.1-0.2-0.1-0.3V80.8c0-0.1,0-0.2,0.1-0.3c0.1-0.1,0.2-0.1,0.3-0.1h1.8c0.1,0,0.2,0,0.3,0.1c0.1,0.1,0.1,0.2,0.1,0.3
					v0.4c1.1-0.7,2.1-1,3.1-1c1.1,0,1.9,0.3,2.5,0.9c1.1-0.6,2.4-0.9,3.5-0.9c1.3,0,2.3,0.4,2.8,1.2C83.1,82.1,83.3,83.2,83.3,84.7z
					"/>
				<path class="st1" d="M89,76.4v1.8c0,0.1,0,0.2-0.1,0.3c-0.1,0.1-0.2,0.1-0.3,0.1h-2.1c-0.1,0-0.2,0-0.3-0.1
					c-0.1-0.1-0.1-0.2-0.1-0.3v-1.8c0-0.1,0-0.2,0.1-0.3c0.1-0.1,0.2-0.1,0.3-0.1h2.1c0.1,0,0.2,0,0.3,0.1C89,76.2,89,76.3,89,76.4z
					 M88.9,80.8V92c0,0.1,0,0.2-0.1,0.3c-0.1,0.1-0.2,0.1-0.3,0.1h-1.9c-0.1,0-0.2,0-0.3-0.1c-0.1-0.1-0.1-0.2-0.1-0.3V80.8
					c0-0.1,0-0.2,0.1-0.3c0.1-0.1,0.2-0.1,0.3-0.1h1.9c0.1,0,0.2,0,0.3,0.1C88.9,80.6,88.9,80.7,88.9,80.8z"/>
				<path class="st1" d="M100,90.2V92c0,0.1,0,0.2-0.1,0.3c-0.1,0.1-0.2,0.1-0.3,0.1h-7.5c-0.2,0-0.4-0.1-0.6-0.2
					c-0.2-0.2-0.2-0.4-0.2-0.6v-0.9c0-0.2,0.1-0.4,0.3-0.7l5.1-7.1c0-0.1,0.1-0.1,0.1-0.1s0-0.1-0.1-0.1h-4.8
					c-0.2,0-0.4-0.1-0.4-0.3v-1.5c0-0.1,0-0.2,0.1-0.3c0.1-0.1,0.2-0.1,0.3-0.1h7.3c0.2,0,0.4,0.1,0.6,0.2c0.2,0.2,0.2,0.4,0.2,0.6
					v1.2c0,0.2,0,0.4-0.1,0.5l-5,6.8v0.1c0,0.1,0,0.1,0.1,0.1h4.6C99.9,89.9,100,90,100,90.2z"/>
				<path class="st1" d="M112.1,85.6v1.2c0,0.3-0.1,0.5-0.4,0.5h-7v0.1c0,0.7,0.2,1.4,0.6,1.9s1,0.8,1.9,0.8c1.1,0,2.4-0.1,3.9-0.2
					h0.1c0.2,0,0.4,0.1,0.4,0.3v1.4c0,0.2,0,0.3-0.1,0.4c-0.1,0.1-0.2,0.1-0.4,0.2c-1.4,0.2-2.9,0.4-4.1,0.4c-0.6,0-1.1-0.1-1.7-0.2
					c-0.5-0.2-1.1-0.4-1.6-0.8c-0.5-0.4-0.9-0.9-1.3-1.6c-0.3-0.7-0.5-1.6-0.5-2.6V86c0-1.7,0.4-3,1.3-4c0.9-0.9,2.2-1.4,3.8-1.4
					s2.9,0.5,3.8,1.4C111.7,82.6,112.1,84,112.1,85.6z M109.3,85.3L109.3,85.3c0-0.9-0.2-1.5-0.6-2.1c-0.4-0.5-0.9-0.7-1.6-0.7
					c-0.7,0-1.2,0.2-1.6,0.7c-0.4,0.4-0.6,1.1-0.6,1.9v0.1H109.3z"/>
				<path class="st1" d="M124.1,76.6v14.9c0,0.2,0,0.3-0.1,0.3c-0.1,0-0.2,0.1-0.5,0.2c-1.4,0.4-2.9,0.5-4.3,0.5
					c-1.7,0-3-0.5-3.8-1.4s-1.3-2.3-1.3-4v-1.6c0-1.7,0.4-3.1,1.3-4c0.8-0.9,2.2-1.4,3.8-1.4c0.6,0,1.3,0,2.1,0.1v-3.8
					c0-0.1,0-0.2,0.1-0.3s0.2-0.1,0.3-0.1h1.9c0.1,0,0.2,0,0.3,0.1S124.1,76.4,124.1,76.6z M121.3,90.1v-7.5
					c-0.7-0.1-1.3-0.1-2.1-0.1c-0.8,0-1.4,0.3-1.7,0.8c-0.3,0.5-0.5,1.3-0.5,2.3v1.6c0,0.9,0.2,1.7,0.5,2.3c0.3,0.5,0.9,0.8,1.7,0.8
					C120.1,90.2,120.8,90.2,121.3,90.1z"/>
				<path class="st1" d="M141.8,90.4v1.3c0,0.2,0,0.3-0.1,0.3c-0.1,0-0.2,0.1-0.3,0.1c-1.2,0.2-2.7,0.3-4.1,0.3
					c-0.7,0-1.4-0.1-1.9-0.2c-0.5-0.1-1-0.3-1.5-0.6c-0.5-0.3-0.8-0.7-1.1-1.3c-0.2-0.6-0.4-1.3-0.4-2.3v-7.5c0-0.9,0.1-1.6,0.4-2.3
					c0.2-0.6,0.6-1,1.1-1.3c0.5-0.3,1-0.5,1.5-0.6c0.5-0.1,1.2-0.2,1.9-0.2c1.4,0,2.8,0.1,4.1,0.3c0.2,0,0.3,0.1,0.3,0.1
					c0.1,0.1,0.1,0.2,0.1,0.3v1.3c0,0.1,0,0.2-0.1,0.3c-0.1,0.1-0.2,0.1-0.3,0.1H137c-0.6,0-1.1,0.1-1.3,0.4
					c-0.2,0.2-0.4,0.7-0.4,1.4v2.4h5.7c0.1,0,0.2,0,0.3,0.1c0.1,0.1,0.1,0.2,0.1,0.3v1.5c0,0.1,0,0.2-0.1,0.3s-0.2,0.1-0.3,0.1h-5.7
					V88c0,0.7,0.1,1.2,0.4,1.4c0.2,0.2,0.7,0.4,1.3,0.4h4.4c0.1,0,0.2,0,0.3,0.1C141.8,90.2,141.8,90.3,141.8,90.4z"/>
				<path class="st1" d="M149.1,85.1v1.3c0,0.2-0.1,0.4-0.4,0.4h-4.2c-0.3,0-0.4-0.1-0.4-0.4v-1.3c0-0.1,0-0.2,0.1-0.3
					c0.1-0.1,0.2-0.1,0.3-0.1h4.2C148.9,84.7,149.1,84.9,149.1,85.1z"/>
				<path class="st1" d="M161.1,90.3v1.4c0,0.2-0.2,0.4-0.5,0.5c-1.2,0.2-2.4,0.3-3.4,0.3c-0.5,0-1.1-0.1-1.6-0.2
					c-0.5-0.1-1-0.3-1.6-0.6s-1-0.7-1.4-1.1c-0.4-0.5-0.7-1.1-1-1.8s-0.4-1.6-0.4-2.7v-3.2c0-1,0.1-1.9,0.4-2.8
					c0.2-0.8,0.6-1.4,1-1.8c0.4-0.5,0.9-0.8,1.4-1.1c0.5-0.3,1.1-0.5,1.6-0.6s1-0.2,1.6-0.2c1.5,0,2.7,0.1,3.4,0.3
					c0.3,0.1,0.5,0.3,0.5,0.5v1.4c0,0.3-0.1,0.4-0.4,0.4l0,0c-1.3-0.1-2.5-0.2-3.4-0.2c-2.1,0-3.1,1.3-3.1,4V86c0,2.7,1,4,3.1,4
					c0.9,0,2.1-0.1,3.4-0.2l0,0C160.9,89.8,161.1,90,161.1,90.3z"/>
				<path class="st1" d="M173.3,85.5v1.7c0,1.5-0.4,2.9-1.3,3.9c-0.9,1-2.2,1.4-3.8,1.4c-1.6,0-2.9-0.5-3.8-1.4
					c-0.9-0.9-1.3-2.3-1.3-3.9v-1.7c0-1.5,0.4-2.9,1.3-3.9c0.9-1,2.2-1.4,3.8-1.4c1.6,0,2.9,0.5,3.8,1.4
					C172.8,82.6,173.3,83.9,173.3,85.5z M170.4,87.2v-1.7c0-0.9-0.2-1.6-0.6-2.2c-0.4-0.5-0.9-0.8-1.7-0.8s-1.3,0.2-1.7,0.8
					c-0.4,0.5-0.6,1.2-0.6,2.2v1.7c0,0.9,0.2,1.6,0.6,2.2s0.9,0.8,1.7,0.8s1.3-0.2,1.7-0.8S170.4,88.2,170.4,87.2z"/>
				<path class="st1" d="M191,84.7V92c0,0.1,0,0.2-0.1,0.3s-0.2,0.1-0.3,0.1h-1.9c-0.1,0-0.2,0-0.3-0.1c-0.1-0.1-0.1-0.2-0.1-0.3
					v-7.3c0-0.8-0.1-1.3-0.3-1.6s-0.6-0.4-1.2-0.4c-0.6,0-1.3,0.2-1.9,0.5c0.1,0.4,0.1,0.9,0.1,1.5V92c0,0.1,0,0.2-0.1,0.3
					c-0.1,0.1-0.2,0.1-0.3,0.1h-1.9c-0.1,0-0.2,0-0.3-0.1c-0.1-0.1-0.1-0.2-0.1-0.3v-7.3c0-0.8-0.1-1.3-0.3-1.6s-0.6-0.4-1.2-0.4
					c-0.4,0-1.1,0.2-1.9,0.7V92c0,0.1,0,0.2-0.1,0.3c-0.1,0.1-0.2,0.1-0.3,0.1h-1.9c-0.1,0-0.2,0-0.3-0.1c-0.1-0.1-0.1-0.2-0.1-0.3
					V80.8c0-0.1,0-0.2,0.1-0.3c0.1-0.1,0.2-0.1,0.3-0.1h1.8c0.1,0,0.2,0,0.3,0.1c0.1,0.1,0.1,0.2,0.1,0.3v0.4c1.1-0.7,2.1-1,3.1-1
					c1.1,0,1.9,0.3,2.5,0.9c1.1-0.6,2.4-0.9,3.5-0.9c1.3,0,2.3,0.4,2.8,1.2C190.7,82.1,191,83.2,191,84.7z"/>
				<path class="st1" d="M209.2,84.7V92c0,0.1,0,0.2-0.1,0.3c-0.1,0.1-0.2,0.1-0.3,0.1h-1.9c-0.1,0-0.2,0-0.3-0.1s-0.1-0.2-0.1-0.3
					v-7.3c0-0.8-0.1-1.3-0.3-1.6c-0.2-0.3-0.6-0.4-1.2-0.4c-0.6,0-1.3,0.2-1.9,0.5c0.1,0.4,0.1,0.9,0.1,1.5V92c0,0.1,0,0.2-0.1,0.3
					c-0.1,0.1-0.2,0.1-0.3,0.1h-1.9c-0.1,0-0.2,0-0.3-0.1c-0.1-0.1-0.1-0.2-0.1-0.3v-7.3c0-0.8-0.1-1.3-0.3-1.6
					c-0.2-0.3-0.6-0.4-1.2-0.4c-0.4,0-1.1,0.2-1.9,0.7V92c0,0.1,0,0.2-0.1,0.3c-0.1,0.1-0.2,0.1-0.3,0.1h-1.9c-0.1,0-0.2,0-0.3-0.1
					c-0.1-0.1-0.1-0.2-0.1-0.3V80.8c0-0.1,0-0.2,0.1-0.3c0.1-0.1,0.2-0.1,0.3-0.1h1.8c0.1,0,0.2,0,0.3,0.1c0.1,0.1,0.1,0.2,0.1,0.3
					v0.4c1.1-0.7,2.1-1,3.1-1c1.1,0,1.9,0.3,2.5,0.9c1.1-0.6,2.4-0.9,3.5-0.9c1.3,0,2.3,0.4,2.8,1.2
					C208.9,82.1,209.2,83.2,209.2,84.7z"/>
				<path class="st1" d="M221.8,85.6v1.2c0,0.3-0.1,0.5-0.4,0.5h-7v0.1c0,0.7,0.2,1.4,0.6,1.9c0.4,0.5,1,0.8,1.9,0.8
					c1.1,0,2.4-0.1,3.9-0.2h0.1c0.3,0,0.4,0.1,0.4,0.3v1.4c0,0.2,0,0.3-0.1,0.4c-0.1,0.1-0.2,0.1-0.4,0.2c-1.4,0.2-2.9,0.4-4.1,0.4
					c-0.6,0-1.1-0.1-1.7-0.2c-0.5-0.2-1.1-0.4-1.6-0.8c-0.5-0.4-0.9-0.9-1.3-1.6c-0.3-0.7-0.5-1.6-0.5-2.6V86c0-1.7,0.4-3,1.3-4
					c0.9-0.9,2.2-1.4,3.8-1.4c1.6,0,2.9,0.5,3.8,1.4C221.3,82.6,221.8,84,221.8,85.6z M218.9,85.3L218.9,85.3c0-0.9-0.2-1.5-0.6-2.1
					c-0.4-0.5-0.9-0.7-1.6-0.7c-0.7,0-1.2,0.2-1.6,0.7c-0.4,0.4-0.6,1.1-0.6,1.9v0.1H218.9z"/>
				<path class="st1" d="M230.4,80.6v1.5c0,0.1,0,0.2-0.1,0.3c-0.1,0.1-0.2,0.1-0.3,0.1c-1,0-1.9,0.2-3,0.8V92c0,0.1,0,0.2-0.1,0.3
					s-0.2,0.1-0.3,0.1h-1.9c-0.1,0-0.2,0-0.3-0.1c-0.1-0.1-0.1-0.2-0.1-0.3V80.8c0-0.1,0-0.2,0.1-0.3c0.1-0.1,0.2-0.1,0.3-0.1h1.8
					c0.1,0,0.2,0,0.3,0.1c0.1,0.1,0.1,0.2,0.1,0.3v0.4c0.8-0.7,1.8-1,3.1-1c0.1,0,0.2,0,0.3,0.1C230.3,80.4,230.4,80.5,230.4,80.6z"
					/>
				<path class="st1" d="M239.8,90.3v1.4c0,0.2,0,0.3-0.1,0.4c-0.1,0.1-0.2,0.1-0.4,0.2c-0.6,0.2-1.5,0.3-2.8,0.3
					c-1.4,0-2.7-0.4-3.5-1.3c-0.8-0.9-1.3-2.2-1.3-3.9v-1.9c0-1.6,0.4-3,1.3-3.9s2.1-1.3,3.5-1.3c1.2,0,2.2,0.1,2.8,0.3
					c0.2,0,0.3,0.1,0.4,0.2c0.1,0.1,0.1,0.2,0.1,0.4v1.4c0,0.2-0.1,0.3-0.4,0.3h-0.1c-0.8-0.1-1.7-0.1-2.8-0.1c-0.6,0-1,0.2-1.4,0.6
					c-0.4,0.4-0.6,1.1-0.6,2.2v1.9c0,1,0.2,1.7,0.6,2.2c0.4,0.4,0.9,0.6,1.4,0.6c1,0,1.9,0,2.8-0.1h0.1
					C239.7,90,239.8,90.1,239.8,90.3z"/>
				<path class="st1" d="M252,85.6v1.2c0,0.3-0.1,0.5-0.4,0.5h-7v0.1c0,0.7,0.2,1.4,0.6,1.9c0.4,0.5,1,0.8,1.9,0.8
					c1.1,0,2.4-0.1,3.9-0.2h0.1c0.3,0,0.4,0.1,0.4,0.3v1.4c0,0.2,0,0.3-0.1,0.4c-0.1,0.1-0.2,0.1-0.4,0.2c-1.4,0.2-2.9,0.4-4.1,0.4
					c-0.6,0-1.1-0.1-1.7-0.2c-0.5-0.2-1.1-0.4-1.6-0.8c-0.5-0.4-0.9-0.9-1.3-1.6c-0.3-0.7-0.5-1.6-0.5-2.6V86c0-1.7,0.4-3,1.3-4
					c0.9-0.9,2.2-1.4,3.8-1.4c1.6,0,2.9,0.5,3.8,1.4C251.6,82.6,252,84,252,85.6z M249.2,85.3L249.2,85.3c0-0.9-0.2-1.5-0.6-2.1
					c-0.4-0.5-0.9-0.7-1.6-0.7c-0.7,0-1.2,0.2-1.6,0.7c-0.4,0.4-0.6,1.1-0.6,1.9v0.1H249.2z"/>
				<path class="st1" d="M272,76.9V92c0,0.1,0,0.2-0.1,0.3c-0.1,0.1-0.2,0.1-0.3,0.1h-2.2c-0.1,0-0.2,0-0.3-0.1s-0.1-0.2-0.1-0.3
					v-6.6h-6V92c0,0.1,0,0.2-0.1,0.3c-0.1,0.1-0.2,0.1-0.3,0.1h-2.2c-0.1,0-0.2,0-0.3-0.1c-0.1-0.1-0.1-0.2-0.1-0.3V76.9
					c0-0.1,0-0.2,0.1-0.3c0.1-0.1,0.2-0.1,0.3-0.1h2.2c0.1,0,0.2,0,0.3,0.1s0.1,0.2,0.1,0.3v5.9h6v-5.9c0-0.1,0-0.2,0.1-0.3
					c0.1-0.1,0.2-0.1,0.3-0.1h2.2c0.1,0,0.2,0,0.3,0.1C271.9,76.7,272,76.8,272,76.9z"/>
				<path class="st1" d="M284.8,85.5v1.7c0,1.5-0.4,2.9-1.3,3.9c-0.9,1-2.2,1.4-3.8,1.4s-2.9-0.5-3.8-1.4c-0.9-0.9-1.3-2.3-1.3-3.9
					v-1.7c0-1.5,0.4-2.9,1.3-3.9s2.2-1.4,3.8-1.4s2.9,0.5,3.8,1.4C284.4,82.6,284.8,83.9,284.8,85.5z M282.1,87.2v-1.7
					c0-0.9-0.2-1.6-0.6-2.2c-0.4-0.5-0.9-0.8-1.7-0.8s-1.3,0.2-1.7,0.8c-0.4,0.5-0.6,1.2-0.6,2.2v1.7c0,0.9,0.2,1.6,0.6,2.2
					c0.4,0.5,0.9,0.8,1.7,0.8s1.3-0.2,1.7-0.8C281.9,88.8,282.1,88.2,282.1,87.2z"/>
				<path class="st1" d="M295.4,89.2c0,1-0.4,1.7-1.1,2.4s-1.7,0.9-3.1,0.9c-1.5,0-2.9-0.1-3.8-0.4c-0.3-0.1-0.4-0.2-0.4-0.5v-1.2
					c0-0.2,0.1-0.3,0.4-0.3h0.1c1.5,0.2,2.7,0.2,3.6,0.2c0.6,0,1-0.1,1.2-0.2c0.2-0.2,0.3-0.4,0.3-0.8c0-0.3-0.3-0.7-0.9-1.1l-3-1.8
					c-1.2-0.7-1.8-1.7-1.8-3c0-2.2,1.3-3.2,4.1-3.2c1.2,0,2.5,0.1,3.8,0.4c0.2,0.1,0.4,0.2,0.4,0.5v1.2c0,0.3-0.1,0.4-0.3,0.4h-0.1
					c-0.9-0.2-2.1-0.2-3.5-0.2c-0.5,0-0.9,0.1-1.1,0.2c-0.2,0.1-0.3,0.4-0.3,0.7c0,0.2,0.1,0.3,0.2,0.4c0.1,0.1,0.3,0.3,0.6,0.4
					l2.8,1.7c0.8,0.5,1.3,1,1.6,1.5C295.2,88,295.4,88.6,295.4,89.2z"/>
				<path class="st1" d="M304.4,90.6V92c0,0.2-0.1,0.3-0.4,0.4c-0.6,0.1-1.1,0.1-1.4,0.1c-1.2,0-2.2-0.2-2.7-0.7
					c-0.5-0.4-0.7-1.3-0.7-2.8v-6.7l-2.1-0.3c-0.3-0.1-0.4-0.2-0.4-0.4v-0.9c0-0.1,0-0.2,0.1-0.3c0.1-0.1,0.2-0.1,0.3-0.1h2.1v-1.7
					c0-0.2,0.1-0.3,0.4-0.4l1.9-0.3h0.1c0.2,0,0.3,0.1,0.3,0.3v2.2h1.9c0.1,0,0.2,0,0.3,0.1s0.1,0.2,0.1,0.3v1.2
					c0,0.1,0,0.2-0.1,0.3c-0.1,0.1-0.2,0.1-0.3,0.1H302V89c0,0.5,0,0.9,0.1,1c0.1,0.1,0.3,0.2,0.7,0.2h1.1
					C304.3,90.3,304.4,90.4,304.4,90.6z"/>
				<path class="st1" d="M309.4,76.4v1.8c0,0.1,0,0.2-0.1,0.3c-0.1,0.1-0.2,0.1-0.3,0.1h-2.1c-0.1,0-0.2,0-0.3-0.1
					c-0.1-0.1-0.1-0.2-0.1-0.3v-1.8c0-0.1,0-0.2,0.1-0.3c0.1-0.1,0.2-0.1,0.3-0.1h2.1c0.1,0,0.2,0,0.3,0.1
					C309.2,76.2,309.4,76.3,309.4,76.4z M309.2,80.8V92c0,0.1,0,0.2-0.1,0.3s-0.2,0.1-0.3,0.1h-1.9c-0.1,0-0.2,0-0.3-0.1
					s-0.1-0.2-0.1-0.3V80.8c0-0.1,0-0.2,0.1-0.3c0.1-0.1,0.2-0.1,0.3-0.1h1.9c0.1,0,0.2,0,0.3,0.1C309.2,80.6,309.2,80.7,309.2,80.8
					z"/>
				<path class="st1" d="M322,85v7c0,0.1,0,0.2-0.1,0.3c-0.1,0.1-0.2,0.1-0.3,0.1h-1.9c-0.1,0-0.2,0-0.3-0.1
					c-0.1-0.1-0.1-0.2-0.1-0.3v-7c0-1-0.1-1.6-0.3-1.9c-0.2-0.3-0.7-0.4-1.5-0.4c-0.6,0-1.4,0.2-2.5,0.8v8.6c0,0.1,0,0.2-0.1,0.3
					c-0.1,0.1-0.2,0.1-0.3,0.1h-1.9c-0.1,0-0.2,0-0.3-0.1c-0.1-0.1-0.1-0.2-0.1-0.3V80.9c0-0.1,0-0.2,0.1-0.3
					c0.1-0.1,0.2-0.1,0.3-0.1h1.8c0.1,0,0.2,0,0.3,0.1c0.1,0.1,0.1,0.2,0.1,0.3v0.4c0.6-0.4,1.1-0.7,1.6-0.8
					c0.5-0.1,1.1-0.2,1.8-0.2c0.7,0,1.3,0.1,1.8,0.3c0.5,0.2,0.9,0.6,1.1,1c0.2,0.4,0.4,0.9,0.5,1.4C322,83.6,322,84.2,322,85z"/>
				<path class="st1" d="M335.3,80.9v0.9c0,0.2,0,0.3-0.1,0.3c0,0-0.1,0.1-0.3,0.2l-0.7,0.3c0.3,0.5,0.5,1.1,0.5,1.7v0.1
					c0,2.6-1.6,3.9-5,3.9c-0.9,0-1.7-0.1-2.4-0.4c-0.2,0.2-0.4,0.3-0.4,0.5c0,0.4,0.2,0.6,0.7,0.7l2.6,0.6c0.6,0.1,1.1,0.2,1.4,0.3
					s0.7,0.2,1.1,0.3c0.4,0.1,0.8,0.3,1,0.4c0.2,0.1,0.4,0.3,0.7,0.5c0.2,0.2,0.4,0.5,0.5,0.8c0.1,0.3,0.1,0.6,0.1,1v0.1
					c0,2.3-1.7,3.4-5.2,3.4c-1.7,0-3.1-0.3-3.9-0.9c-0.9-0.6-1.3-1.5-1.3-2.7v-0.2c0-0.9,0.4-1.7,1.1-2.4c-0.6-0.5-0.9-1.1-0.9-1.9
					l0,0c0-0.7,0.3-1.3,0.8-1.7c-0.6-0.6-0.9-1.4-0.9-2.5v-0.1c0-1.1,0.4-2.1,1.2-2.9c0.8-0.7,2.2-1.1,3.9-1.1h5
					c0.2,0,0.3,0.1,0.4,0.2C335.4,80.6,335.3,80.8,335.3,80.9z M332.2,93.4v-0.1c0-0.2-0.2-0.5-0.5-0.6c-0.3-0.1-1-0.4-2.1-0.6
					l-1.9-0.4c-0.1,0.2-0.2,0.3-0.3,0.4c-0.1,0.1-0.1,0.2-0.2,0.4c0,0.2-0.1,0.4-0.1,0.6v0.2c0,0.5,0.2,0.8,0.6,1
					c0.4,0.2,1,0.3,1.9,0.3c0.9,0,1.6-0.1,1.9-0.3C331.9,94.1,332.2,93.8,332.2,93.4z M331.9,84.5v-0.2c0-0.6-0.2-1-0.5-1.3
					s-0.9-0.5-1.7-0.5c-1.5,0-2.4,0.6-2.4,1.8v0.2c0,1.1,0.8,1.6,2.4,1.6c0.8,0,1.4-0.1,1.7-0.4C331.8,85.4,331.9,85,331.9,84.5z"/>
			</g>
		</g>
	</g>
</g>
</svg>
